<svg width="110" height="44" viewBox="0 0 110 44" fill="none" xmlns="http://www.w3.org/2000/svg">
<g filter="url(#filter0_d_2133_658)">
<path d="M47.9634 22.545C47.9634 21.4471 48.1782 20.4209 48.6078 19.4662C49.0374 18.4876 49.6102 17.6403 50.3262 16.9243C51.0661 16.1845 51.9372 15.6116 52.9397 15.2059C53.9421 14.7763 55.0161 14.5615 56.1617 14.5615C57.0925 14.5615 57.9756 14.6928 58.811 14.9553C59.6463 15.2178 60.3981 15.5997 61.0664 16.1009C61.7585 16.5783 62.3552 17.1749 62.8564 17.891C63.3815 18.607 63.7634 19.4184 64.002 20.3254H60.2788C59.9446 19.49 59.3957 18.8695 58.6319 18.4638C57.8921 18.058 57.0448 17.8552 56.0901 17.8552C55.4696 17.8552 54.8729 17.9745 54.3001 18.2132C53.7511 18.4518 53.2619 18.774 52.8322 19.1798C52.4265 19.5855 52.0924 20.0748 51.8298 20.6476C51.5912 21.2204 51.4718 21.8529 51.4718 22.545C51.4718 23.2133 51.5912 23.8458 51.8298 24.4425C52.0924 25.0153 52.4265 25.5046 52.8322 25.9103C53.2619 26.316 53.7511 26.6382 54.3001 26.8769C54.8729 27.1156 55.4696 27.2349 56.0901 27.2349C57.0448 27.2349 57.8921 27.032 58.6319 26.6263C59.3957 26.2206 59.9446 25.6 60.2788 24.7647H64.002C63.7634 25.6716 63.3815 26.4831 62.8564 27.1991C62.3552 27.9151 61.7585 28.5237 61.0664 29.0249C60.3981 29.5023 59.6463 29.8722 58.811 30.1348C57.9756 30.3973 57.0925 30.5286 56.1617 30.5286C55.0161 30.5286 53.9421 30.3257 52.9397 29.92C51.9372 29.4904 51.0661 28.9175 50.3262 28.2015C49.6102 27.4617 49.0374 26.6144 48.6078 25.6597C48.1782 24.6811 47.9634 23.6429 47.9634 22.545Z" fill="white"/>
</g>
<g filter="url(#filter1_d_2133_658)">
<path d="M15.4254 28.7806C14.9004 29.258 14.3753 29.6279 13.8502 29.8905C13.3251 30.153 12.8239 30.3439 12.3466 30.4633C11.8692 30.5826 11.4158 30.6542 10.9862 30.6781C10.5804 30.7019 10.2224 30.7139 9.91215 30.7139C8.83813 30.7139 7.82378 30.511 6.8691 30.1053C5.93828 29.6757 5.11487 29.1028 4.39885 28.3868C3.70671 27.647 3.14583 26.7997 2.71622 25.845C2.31048 24.8664 2.10761 23.8282 2.10761 22.7303C2.10761 21.6325 2.31048 20.6062 2.71622 19.6515C3.14583 18.6729 3.70671 17.8257 4.39885 17.1096C5.11487 16.3698 5.93828 15.797 6.8691 15.3912C7.82378 14.9616 8.83813 14.7468 9.91215 14.7468C10.2224 14.7468 10.5804 14.7587 10.9862 14.7826C11.4158 14.8065 11.8692 14.8781 12.3466 14.9974C12.8239 15.1167 13.3251 15.3077 13.8502 15.5702C14.3753 15.8328 14.9004 16.2027 15.4254 16.68V8.9113H18.9339V30.3201H15.4254V28.7806ZM10.485 27.4202C11.1771 27.4202 11.8215 27.3128 12.4182 27.098C13.0149 26.8593 13.528 26.5371 13.9576 26.1314C14.4111 25.7018 14.7691 25.2006 15.0316 24.6278C15.2942 24.055 15.4254 23.4225 15.4254 22.7303C15.4254 22.0382 15.2942 21.4057 15.0316 20.8329C14.7691 20.2601 14.4111 19.7708 13.9576 19.3651C13.528 18.9355 13.0149 18.6133 12.4182 18.3985C11.8215 18.1598 11.1771 18.0405 10.485 18.0405C9.81668 18.0405 9.1842 18.1598 8.58753 18.3985C7.99085 18.6133 7.46577 18.9355 7.0123 19.3651C6.58269 19.7708 6.23662 20.2601 5.97408 20.8329C5.73541 21.4057 5.61607 22.0382 5.61607 22.7303C5.61607 23.4225 5.73541 24.055 5.97408 24.6278C6.23662 25.2006 6.58269 25.7018 7.0123 26.1314C7.46577 26.5371 7.99085 26.8593 8.58753 27.098C9.1842 27.3128 9.81668 27.4202 10.485 27.4202Z" fill="white"/>
</g>
<g filter="url(#filter2_d_2133_658)">
<path d="M33.9258 24.234H21.8252C22.0162 24.8784 22.2787 25.4035 22.6128 25.8092C22.947 26.2149 23.3169 26.5371 23.7227 26.7758C24.1523 27.0145 24.5938 27.1815 25.0473 27.277C25.5008 27.3725 25.9423 27.4202 26.3719 27.4202C26.7538 27.4202 27.1595 27.3844 27.5891 27.3128C27.9949 27.2651 28.4125 27.1815 28.8422 27.0622C29.2718 26.9429 29.7133 26.7758 30.1668 26.561L32.1358 29.3535C31.5869 29.616 31.0021 29.8427 30.3816 30.0337C29.8088 30.2246 29.1763 30.3797 28.4841 30.4991C27.8159 30.6423 27.0999 30.7139 26.3361 30.7139C25.1905 30.7139 24.1284 30.5229 23.1499 30.1411C22.1713 29.7592 21.324 29.2222 20.608 28.53C19.892 27.814 19.3311 26.9667 18.9254 25.9882C18.5196 25.0096 18.3168 23.9237 18.3168 22.7303C18.3168 21.6325 18.5077 20.6062 18.8896 19.6515C19.2715 18.6729 19.8085 17.8257 20.5006 17.1096C21.1928 16.3698 22.0162 15.797 22.9709 15.3912C23.9255 14.9616 24.9757 14.7468 26.1213 14.7468C27.1237 14.7468 28.0903 14.9258 29.0212 15.2838C29.952 15.6179 30.7754 16.143 31.4914 16.859C32.2313 17.5512 32.816 18.4223 33.2456 19.4725C33.6991 20.4988 33.9258 21.6921 33.9258 23.0525V24.234ZM26.1213 18.0405C25.286 18.0405 24.4506 18.2911 23.6153 18.7923C22.7799 19.2935 22.1952 20.105 21.861 21.2267H30.3816C30.0713 20.105 29.4866 19.2935 28.6273 18.7923C27.792 18.2911 26.9567 18.0405 26.1213 18.0405ZM24.3671 13.1L26.8015 8.58909H30.8112L27.8397 13.1H24.3671Z" fill="white"/>
</g>
<g filter="url(#filter3_d_2133_658)">
<path d="M45.8213 28.7806C45.2963 29.258 44.7712 29.6279 44.2461 29.8905C43.721 30.153 43.2198 30.3439 42.7425 30.4633C42.2651 30.5826 41.8117 30.6542 41.382 30.6781C40.9763 30.7019 40.6183 30.7139 40.308 30.7139C39.234 30.7139 38.2197 30.511 37.265 30.1053C36.3342 29.6757 35.5107 29.1028 34.7947 28.3868C34.1026 27.647 33.5417 26.7997 33.1121 25.845C32.7064 24.8664 32.5035 23.8282 32.5035 22.7303C32.5035 21.6325 32.7064 20.6062 33.1121 19.6515C33.5417 18.6729 34.1026 17.8257 34.7947 17.1096C35.5107 16.3698 36.3342 15.797 37.265 15.3912C38.2197 14.9616 39.234 14.7468 40.308 14.7468C40.6183 14.7468 40.9763 14.7587 41.382 14.7826C41.8117 14.8065 42.2651 14.8781 42.7425 14.9974C43.2198 15.1167 43.721 15.3077 44.2461 15.5702C44.7712 15.8328 45.2963 16.2027 45.8213 16.68V15.1406H49.3298V30.3201H45.8213V28.7806ZM40.8808 27.4202C41.573 27.4202 42.2174 27.3128 42.8141 27.098C43.4108 26.8593 43.9239 26.5371 44.3535 26.1314C44.807 25.7018 45.165 25.2006 45.4275 24.6278C45.6901 24.055 45.8213 23.4225 45.8213 22.7303C45.8213 22.0382 45.6901 21.4057 45.4275 20.8329C45.165 20.2601 44.807 19.7708 44.3535 19.3651C43.9239 18.9355 43.4108 18.6133 42.8141 18.3985C42.2174 18.1598 41.573 18.0405 40.8808 18.0405C40.2126 18.0405 39.5801 18.1598 38.9834 18.3985C38.3867 18.6133 37.8617 18.9355 37.4082 19.3651C36.9786 19.7708 36.6325 20.2601 36.37 20.8329C36.1313 21.4057 36.012 22.0382 36.012 22.7303C36.012 23.4225 36.1313 24.055 36.37 24.6278C36.6325 25.2006 36.9786 25.7018 37.4082 26.1314C37.8617 26.5371 38.3867 26.8593 38.9834 27.098C39.5801 27.3128 40.2126 27.4202 40.8808 27.4202Z" fill="white"/>
</g>
<g filter="url(#filter4_d_2133_658)">
<path d="M63.0327 21.7303C63.0327 20.6325 63.2475 19.6062 63.6771 18.6515C64.1067 17.6729 64.6795 16.8257 65.3955 16.1096C66.1354 15.3698 67.0066 14.797 68.009 14.3912C69.0114 13.9616 70.0854 13.7468 71.231 13.7468C72.1619 13.7468 73.0449 13.8781 73.8803 14.1406C74.7156 14.4031 75.4674 14.785 76.1357 15.2862C76.8279 15.7636 77.4245 16.3602 77.9258 17.0763C78.4508 17.7923 78.8327 18.6037 79.0714 19.5107H75.3481C75.014 18.6754 74.465 18.0548 73.7013 17.6491C72.9614 17.2433 72.1141 17.0405 71.1594 17.0405C70.5389 17.0405 69.9422 17.1598 69.3694 17.3985C68.8205 17.6371 68.3312 17.9593 67.9016 18.3651C67.4958 18.7708 67.1617 19.2601 66.8992 19.8329C66.6605 20.4057 66.5412 21.0382 66.5412 21.7303C66.5412 22.3986 66.6605 23.0311 66.8992 23.6278C67.1617 24.2006 67.4958 24.6899 67.9016 25.0956C68.3312 25.5013 68.8205 25.8235 69.3694 26.0622C69.9422 26.3009 70.5389 26.4202 71.1594 26.4202C72.1141 26.4202 72.9614 26.2173 73.7013 25.8116C74.465 25.4059 75.014 24.7853 75.3481 23.95H79.0714C78.8327 24.8569 78.4508 25.6684 77.9258 26.3844C77.4245 27.1004 76.8279 27.709 76.1357 28.2102C75.4674 28.6876 74.7156 29.0575 73.8803 29.3201C73.0449 29.5826 72.1619 29.7139 71.231 29.7139C70.0854 29.7139 69.0114 29.511 68.009 29.1053C67.0066 28.6757 66.1354 28.1028 65.3955 27.3868C64.6795 26.647 64.1067 25.7997 63.6771 24.845C63.2475 23.8664 63.0327 22.8282 63.0327 21.7303Z" fill="white"/>
</g>
<g filter="url(#filter5_d_2133_658)">
<path d="M93.9034 23.234H81.8028C81.9937 23.8784 82.2563 24.4035 82.5904 24.8092C82.9245 25.2149 83.2945 25.5371 83.7002 25.7758C84.1298 26.0145 84.5714 26.1815 85.0248 26.277C85.4783 26.3725 85.9199 26.4202 86.3495 26.4202C86.7313 26.4202 87.1371 26.3844 87.5667 26.3128C87.9724 26.2651 88.3901 26.1815 88.8197 26.0622C89.2493 25.9429 89.6909 25.7758 90.1443 25.561L92.1134 28.3535C91.5644 28.616 90.9797 28.8427 90.3591 29.0337C89.7863 29.2246 89.1538 29.3797 88.4617 29.4991C87.7934 29.6423 87.0774 29.7139 86.3137 29.7139C85.168 29.7139 84.106 29.5229 83.1274 29.1411C82.1489 28.7592 81.3016 28.2222 80.5856 27.53C79.8696 26.814 79.3087 25.9667 78.9029 24.9882C78.4972 24.0096 78.2943 22.9237 78.2943 21.7303C78.2943 20.6325 78.4853 19.6062 78.8671 18.6515C79.249 17.6729 79.786 16.8257 80.4782 16.1096C81.1703 15.3698 81.9937 14.797 82.9484 14.3912C83.9031 13.9616 84.9532 13.7468 86.0989 13.7468C87.1013 13.7468 88.0679 13.9258 88.9987 14.2838C89.9295 14.6179 90.7529 15.143 91.469 15.859C92.2088 16.5512 92.7936 17.4223 93.2232 18.4725C93.6767 19.4988 93.9034 20.6921 93.9034 22.0525V23.234ZM86.0989 17.0405C85.2635 17.0405 84.4282 17.2911 83.5928 17.7923C82.7575 18.2935 82.1727 19.105 81.8386 20.2267H90.3591C90.0489 19.105 89.4641 18.2935 88.6049 17.7923C87.7696 17.2911 86.9342 17.0405 86.0989 17.0405Z" fill="white"/>
</g>
<path d="M104.557 12.3346H105.071V10.3111H105.876V9.73535H103.735V10.3111H104.557V12.3346ZM109.157 10.5123V12.3346H109.671V9.73535H109.112L108.117 11.0098L107.122 9.73535H106.558V12.3346H107.078V10.5123L108.073 11.7756H108.162L109.157 10.5123Z" fill="white"/>
<g filter="url(#filter6_d_2133_658)">
<path d="M93.8465 7.9113H97.355V29.3201H93.8465V7.9113Z" fill="white"/>
</g>
<path d="M4.40607 35.9544C4.40607 35.7358 4.37485 35.5516 4.31241 35.4017C4.25621 35.2519 4.17503 35.1301 4.06888 35.0364C3.96273 34.9428 3.83784 34.8772 3.69422 34.8398C3.55685 34.796 3.40386 34.7742 3.23527 34.7742H1.89587V37.1252H3.23527C3.40386 37.1252 3.55685 37.1064 3.69422 37.069C3.83784 37.0253 3.96273 36.9597 4.06888 36.8723C4.17503 36.7786 4.25621 36.6568 4.31241 36.507C4.37485 36.3571 4.40607 36.1729 4.40607 35.9544ZM5.17412 35.945C5.17412 36.2572 5.13041 36.5195 5.04299 36.7318C4.96182 36.9441 4.85566 37.122 4.72453 37.2657C4.59965 37.403 4.45915 37.5092 4.30304 37.5841C4.14693 37.6591 3.99395 37.7152 3.84409 37.7527C3.70047 37.7902 3.56934 37.812 3.4507 37.8183C3.3383 37.8245 3.26025 37.8276 3.21654 37.8276H1.89587V39.4949H1.12782V34.0717H3.21654C3.26649 34.0717 3.34767 34.0748 3.46006 34.0811C3.57246 34.0873 3.70047 34.1092 3.84409 34.1466C3.99395 34.1841 4.14693 34.2403 4.30304 34.3152C4.45915 34.3902 4.59965 34.4963 4.72453 34.6337C4.85566 34.7711 4.96182 34.9459 5.04299 35.1582C5.13041 35.3705 5.17412 35.6328 5.17412 35.945ZM11.361 34.0717L13.431 39.4949H12.6068L12.2134 38.4646H9.42217L9.02878 39.4949H8.20453L10.2745 34.0717H11.361ZM9.68443 37.7621H11.9417L10.8178 34.8117L9.68443 37.7621ZM21.3949 35.945C21.3949 36.2635 21.3512 36.532 21.2638 36.7505C21.1763 36.9628 21.0671 37.1377 20.9359 37.275C20.8048 37.4124 20.6581 37.5186 20.4957 37.5935C20.3396 37.6684 20.1897 37.7246 20.0461 37.7621L21.3949 39.4949H20.5144L19.2125 37.8276H18.1166V39.4949H17.3486V34.0717H19.4373C19.4873 34.0717 19.5684 34.0748 19.6808 34.0811C19.7932 34.0873 19.9212 34.1092 20.0649 34.1466C20.2147 34.1841 20.3677 34.2403 20.5238 34.3152C20.6799 34.3902 20.8204 34.4963 20.9453 34.6337C21.0764 34.7711 21.1826 34.9459 21.2638 35.1582C21.3512 35.3705 21.3949 35.6328 21.3949 35.945ZM18.1166 37.1252H19.456C19.6246 37.1252 19.7776 37.1064 19.915 37.069C20.0586 37.0253 20.1835 36.9597 20.2897 36.8723C20.3958 36.7786 20.477 36.6568 20.5332 36.507C20.5956 36.3571 20.6268 36.1729 20.6268 35.9544C20.6268 35.7358 20.5956 35.5516 20.5332 35.4017C20.477 35.2519 20.3958 35.1301 20.2897 35.0364C20.1835 34.9428 20.0586 34.8772 19.915 34.8398C19.7776 34.796 19.6246 34.7742 19.456 34.7742H18.1166V37.1252ZM24.8955 34.7742V34.0717H29.279V34.7742H27.4713V39.4949H26.7033V34.7742H24.8955ZM37.2837 34.0717H38.0518V39.4949H37.2744L34.1179 35.3268V39.4949H33.3498V34.0717H34.1273L37.2837 38.2304V34.0717ZM45.9159 38.7924V39.4949H42.3566V34.0717H45.9159V34.7742H43.1247V36.4976H45.7098V37.2001H43.1247V38.7924H45.9159ZM54.12 35.945C54.12 36.2635 54.0763 36.532 53.9889 36.7505C53.9014 36.9628 53.7922 37.1377 53.661 37.275C53.5299 37.4124 53.3832 37.5186 53.2208 37.5935C53.0647 37.6684 52.9148 37.7246 52.7712 37.7621L54.12 39.4949H53.2395L51.9376 37.8276H50.8417V39.4949H50.0737V34.0717H52.1624C52.2124 34.0717 52.2935 34.0748 52.4059 34.0811C52.5183 34.0873 52.6463 34.1092 52.79 34.1466C52.9398 34.1841 53.0928 34.2403 53.2489 34.3152C53.405 34.3902 53.5455 34.4963 53.6704 34.6337C53.8015 34.7711 53.9077 34.9459 53.9889 35.1582C54.0763 35.3705 54.12 35.6328 54.12 35.945ZM50.8417 37.1252H52.1811C52.3497 37.1252 52.5027 37.1064 52.6401 37.069C52.7837 37.0253 52.9086 36.9597 53.0148 36.8723C53.1209 36.7786 53.2021 36.6568 53.2583 36.507C53.3207 36.3571 53.3519 36.1729 53.3519 35.9544C53.3519 35.7358 53.3207 35.5516 53.2583 35.4017C53.2021 35.2519 53.1209 35.1301 53.0148 35.0364C52.9086 34.9428 52.7837 34.8772 52.6401 34.8398C52.5027 34.796 52.3497 34.7742 52.1811 34.7742H50.8417V37.1252ZM59.7633 39.5979C59.4636 39.5979 59.2014 39.5667 58.9766 39.5042C58.7518 39.4418 58.5551 39.3669 58.3865 39.2794C58.2241 39.1858 58.0868 39.0859 57.9744 38.9797C57.862 38.8673 57.7714 38.7643 57.7027 38.6706L58.2554 38.2304C58.324 38.3053 58.4115 38.3834 58.5176 38.4646C58.6238 38.5395 58.7424 38.6113 58.8735 38.68C59.0109 38.7424 59.1577 38.7955 59.3138 38.8392C59.4699 38.8767 59.6353 38.8954 59.8102 38.8954C60.06 38.8954 60.2598 38.8611 60.4096 38.7924C60.5657 38.7237 60.6844 38.6456 60.7656 38.5582C60.853 38.4646 60.9123 38.374 60.9435 38.2866C60.9747 38.1929 60.9904 38.1274 60.9904 38.0899C60.9904 37.9026 60.9123 37.7527 60.7562 37.6403C60.6001 37.5279 60.4034 37.428 60.1661 37.3406C59.9288 37.2532 59.6728 37.1658 59.3981 37.0783C59.1296 36.9909 58.8767 36.8785 58.6394 36.7411C58.4021 36.6038 58.2054 36.4289 58.0493 36.2166C57.8932 36.0043 57.8151 35.7296 57.8151 35.3924C57.8151 35.2675 57.8401 35.1239 57.8901 34.9615C57.9463 34.7992 58.0399 34.6462 58.1711 34.5026C58.3084 34.3527 58.4958 34.2278 58.733 34.1279C58.9703 34.028 59.2763 33.978 59.651 33.978C59.9195 33.978 60.1567 34.0061 60.3628 34.0623C60.5689 34.1185 60.7468 34.1872 60.8967 34.2684C61.0466 34.3496 61.1714 34.437 61.2713 34.5307C61.3713 34.6243 61.4493 34.7086 61.5055 34.7836C61.3994 34.8522 61.3088 34.9209 61.2339 34.9896C61.1589 35.0521 61.0715 35.1176 60.9716 35.1863C60.7905 35.0052 60.572 34.8772 60.316 34.8023C60.0662 34.7211 59.8227 34.6805 59.5854 34.6805C59.4543 34.6805 59.3294 34.6961 59.2107 34.7274C59.0921 34.7586 58.9859 34.8085 58.8923 34.8772C58.7986 34.9397 58.7237 35.0208 58.6675 35.1207C58.6113 35.2144 58.5832 35.3268 58.5832 35.4579C58.5832 35.689 58.6612 35.8701 58.8173 36.0012C58.9734 36.1323 59.1701 36.2447 59.4074 36.3384C59.6447 36.432 59.8976 36.5195 60.1661 36.6006C60.4409 36.6756 60.6969 36.7755 60.9342 36.9004C61.1714 37.0253 61.3681 37.1845 61.5242 37.3781C61.6803 37.5716 61.7584 37.8308 61.7584 38.1555C61.7584 38.2804 61.7241 38.4271 61.6554 38.5957C61.5929 38.758 61.4837 38.9142 61.3275 39.064C61.1777 39.2139 60.9747 39.3419 60.7187 39.448C60.4627 39.5479 60.1442 39.5979 59.7633 39.5979Z" fill="white"/>
<path d="M72.7561 39.5346H72.2316L71.6696 38.8134H71.0795V39.5346H70.6205V36.9026H71.6134C71.6883 36.9026 71.7882 36.9089 71.9131 36.9214C72.038 36.9276 72.1566 36.9588 72.269 37.015C72.3877 37.0712 72.4876 37.1618 72.5688 37.2867C72.6562 37.4053 72.6999 37.577 72.6999 37.8018C72.6999 38.1015 72.6593 38.3201 72.5781 38.4575C72.497 38.5886 72.3502 38.6854 72.1379 38.7478L72.7561 39.5346ZM71.0795 38.3919H71.6228C71.8038 38.3919 71.9506 38.3607 72.063 38.2982C72.1816 38.2295 72.2409 38.089 72.2409 37.8767C72.2409 37.7519 72.2222 37.6551 72.1847 37.5864C72.1473 37.5177 72.0973 37.4646 72.0349 37.4271C71.9787 37.3897 71.9131 37.3678 71.8382 37.3616C71.7633 37.3491 71.6914 37.3429 71.6228 37.3429H71.0795V38.3919ZM71.6134 35.3853C72.0005 35.3853 72.3627 35.4602 72.6999 35.6101C73.0433 35.7537 73.3431 35.9535 73.5991 36.2095C73.8551 36.4593 74.0549 36.7559 74.1985 37.0993C74.3484 37.4428 74.4233 37.8081 74.4233 38.1952C74.4233 38.5823 74.3484 38.9476 74.1985 39.2911C74.0549 39.6345 73.8551 39.9342 73.5991 40.1903C73.3431 40.44 73.0433 40.6398 72.6999 40.7897C72.3627 40.9333 72.0005 41.0051 71.6134 41.0051C71.2262 41.0051 70.8609 40.9333 70.5175 40.7897C70.1741 40.6398 69.8744 40.44 69.6183 40.1903C69.3623 39.9342 69.1594 39.6345 69.0095 39.2911C68.8659 38.9476 68.7941 38.5823 68.7941 38.1952C68.7941 37.8081 68.8659 37.4428 69.0095 37.0993C69.1594 36.7559 69.3623 36.4593 69.6183 36.2095C69.8744 35.9535 70.1741 35.7537 70.5175 35.6101C70.8609 35.4602 71.2262 35.3853 71.6134 35.3853ZM71.6134 40.6492C71.9506 40.6492 72.269 40.5868 72.5688 40.4619C72.8685 40.3307 73.1276 40.1559 73.3462 39.9374C73.571 39.7126 73.7458 39.4503 73.8707 39.1506C74.0018 38.8508 74.0674 38.5324 74.0674 38.1952C74.0674 37.858 74.0018 37.5395 73.8707 37.2398C73.7458 36.9401 73.571 36.681 73.3462 36.4624C73.1276 36.2376 72.8685 36.0628 72.5688 35.9379C72.269 35.8068 71.9506 35.7412 71.6134 35.7412C71.27 35.7412 70.9484 35.8068 70.6486 35.9379C70.3552 36.0628 70.096 36.2376 69.8712 36.4624C69.6527 36.681 69.4778 36.9401 69.3467 37.2398C69.2218 37.5395 69.1594 37.858 69.1594 38.1952C69.1594 38.5324 69.2218 38.8508 69.3467 39.1506C69.4778 39.4503 69.6527 39.7126 69.8712 39.9374C70.096 40.1559 70.3552 40.3307 70.6486 40.4619C70.9484 40.5868 71.27 40.6492 71.6134 40.6492Z" fill="white"/>
<defs>
<filter id="filter0_d_2133_658" x="45.8822" y="14.5615" width="20.2009" height="20.1294" filterUnits="userSpaceOnUse" color-interpolation-filters="sRGB">
<feFlood flood-opacity="0" result="BackgroundImageFix"/>
<feColorMatrix in="SourceAlpha" type="matrix" values="0 0 0 0 0 0 0 0 0 0 0 0 0 0 0 0 0 0 127 0" result="hardAlpha"/>
<feOffset dy="2.08119"/>
<feGaussianBlur stdDeviation="1.04059"/>
<feComposite in2="hardAlpha" operator="out"/>
<feColorMatrix type="matrix" values="0 0 0 0 0 0 0 0 0 0 0 0 0 0 0 0 0 0 0.15 0"/>
<feBlend mode="normal" in2="BackgroundImageFix" result="effect1_dropShadow_2133_658"/>
<feBlend mode="normal" in="SourceGraphic" in2="effect1_dropShadow_2133_658" result="shape"/>
</filter>
<filter id="filter1_d_2133_658" x="0.0264807" y="8.91138" width="20.9885" height="25.9649" filterUnits="userSpaceOnUse" color-interpolation-filters="sRGB">
<feFlood flood-opacity="0" result="BackgroundImageFix"/>
<feColorMatrix in="SourceAlpha" type="matrix" values="0 0 0 0 0 0 0 0 0 0 0 0 0 0 0 0 0 0 127 0" result="hardAlpha"/>
<feOffset dy="2.08119"/>
<feGaussianBlur stdDeviation="1.04059"/>
<feComposite in2="hardAlpha" operator="out"/>
<feColorMatrix type="matrix" values="0 0 0 0 0 0 0 0 0 0 0 0 0 0 0 0 0 0 0.15 0"/>
<feBlend mode="normal" in2="BackgroundImageFix" result="effect1_dropShadow_2133_658"/>
<feBlend mode="normal" in="SourceGraphic" in2="effect1_dropShadow_2133_658" result="shape"/>
</filter>
<filter id="filter2_d_2133_658" x="16.2355" y="8.58911" width="19.7715" height="26.2871" filterUnits="userSpaceOnUse" color-interpolation-filters="sRGB">
<feFlood flood-opacity="0" result="BackgroundImageFix"/>
<feColorMatrix in="SourceAlpha" type="matrix" values="0 0 0 0 0 0 0 0 0 0 0 0 0 0 0 0 0 0 127 0" result="hardAlpha"/>
<feOffset dy="2.08119"/>
<feGaussianBlur stdDeviation="1.04059"/>
<feComposite in2="hardAlpha" operator="out"/>
<feColorMatrix type="matrix" values="0 0 0 0 0 0 0 0 0 0 0 0 0 0 0 0 0 0 0.15 0"/>
<feBlend mode="normal" in2="BackgroundImageFix" result="effect1_dropShadow_2133_658"/>
<feBlend mode="normal" in="SourceGraphic" in2="effect1_dropShadow_2133_658" result="shape"/>
</filter>
<filter id="filter3_d_2133_658" x="30.4222" y="14.7468" width="20.9888" height="20.1294" filterUnits="userSpaceOnUse" color-interpolation-filters="sRGB">
<feFlood flood-opacity="0" result="BackgroundImageFix"/>
<feColorMatrix in="SourceAlpha" type="matrix" values="0 0 0 0 0 0 0 0 0 0 0 0 0 0 0 0 0 0 127 0" result="hardAlpha"/>
<feOffset dy="2.08119"/>
<feGaussianBlur stdDeviation="1.04059"/>
<feComposite in2="hardAlpha" operator="out"/>
<feColorMatrix type="matrix" values="0 0 0 0 0 0 0 0 0 0 0 0 0 0 0 0 0 0 0.15 0"/>
<feBlend mode="normal" in2="BackgroundImageFix" result="effect1_dropShadow_2133_658"/>
<feBlend mode="normal" in="SourceGraphic" in2="effect1_dropShadow_2133_658" result="shape"/>
</filter>
<filter id="filter4_d_2133_658" x="60.9515" y="13.7468" width="20.2009" height="20.1294" filterUnits="userSpaceOnUse" color-interpolation-filters="sRGB">
<feFlood flood-opacity="0" result="BackgroundImageFix"/>
<feColorMatrix in="SourceAlpha" type="matrix" values="0 0 0 0 0 0 0 0 0 0 0 0 0 0 0 0 0 0 127 0" result="hardAlpha"/>
<feOffset dy="2.08119"/>
<feGaussianBlur stdDeviation="1.04059"/>
<feComposite in2="hardAlpha" operator="out"/>
<feColorMatrix type="matrix" values="0 0 0 0 0 0 0 0 0 0 0 0 0 0 0 0 0 0 0.15 0"/>
<feBlend mode="normal" in2="BackgroundImageFix" result="effect1_dropShadow_2133_658"/>
<feBlend mode="normal" in="SourceGraphic" in2="effect1_dropShadow_2133_658" result="shape"/>
</filter>
<filter id="filter5_d_2133_658" x="76.2132" y="13.7468" width="19.7713" height="20.1294" filterUnits="userSpaceOnUse" color-interpolation-filters="sRGB">
<feFlood flood-opacity="0" result="BackgroundImageFix"/>
<feColorMatrix in="SourceAlpha" type="matrix" values="0 0 0 0 0 0 0 0 0 0 0 0 0 0 0 0 0 0 127 0" result="hardAlpha"/>
<feOffset dy="2.08119"/>
<feGaussianBlur stdDeviation="1.04059"/>
<feComposite in2="hardAlpha" operator="out"/>
<feColorMatrix type="matrix" values="0 0 0 0 0 0 0 0 0 0 0 0 0 0 0 0 0 0 0.15 0"/>
<feBlend mode="normal" in2="BackgroundImageFix" result="effect1_dropShadow_2133_658"/>
<feBlend mode="normal" in="SourceGraphic" in2="effect1_dropShadow_2133_658" result="shape"/>
</filter>
<filter id="filter6_d_2133_658" x="91.7653" y="7.91138" width="7.67092" height="25.5711" filterUnits="userSpaceOnUse" color-interpolation-filters="sRGB">
<feFlood flood-opacity="0" result="BackgroundImageFix"/>
<feColorMatrix in="SourceAlpha" type="matrix" values="0 0 0 0 0 0 0 0 0 0 0 0 0 0 0 0 0 0 127 0" result="hardAlpha"/>
<feOffset dy="2.08119"/>
<feGaussianBlur stdDeviation="1.04059"/>
<feComposite in2="hardAlpha" operator="out"/>
<feColorMatrix type="matrix" values="0 0 0 0 0 0 0 0 0 0 0 0 0 0 0 0 0 0 0.15 0"/>
<feBlend mode="normal" in2="BackgroundImageFix" result="effect1_dropShadow_2133_658"/>
<feBlend mode="normal" in="SourceGraphic" in2="effect1_dropShadow_2133_658" result="shape"/>
</filter>
</defs>
</svg>
