<svg width="121" height="44" viewBox="0 0 121 44" fill="none" xmlns="http://www.w3.org/2000/svg">
<g filter="url(#filter0_d_2133_644)">
<path d="M15.7945 29.2626C15.2694 29.7399 14.7443 30.1099 14.2193 30.3724C13.6942 30.6349 13.193 30.8259 12.7156 30.9452C12.2383 31.0645 11.7848 31.1361 11.3552 31.16C10.9495 31.1839 10.5915 31.1958 10.2812 31.1958C9.20719 31.1958 8.19284 30.9929 7.23815 30.5872C6.30734 30.1576 5.48392 29.5848 4.76791 28.8688C4.07576 28.1289 3.51489 27.2816 3.08528 26.3269C2.67954 25.3484 2.47667 24.3102 2.47667 23.2123C2.47667 22.1144 2.67954 21.0881 3.08528 20.1334C3.51489 19.1549 4.07576 18.3076 4.76791 17.5916C5.48392 16.8517 6.30734 16.2789 7.23815 15.8731C8.19284 15.4435 9.20719 15.2287 10.2812 15.2287C10.5915 15.2287 10.9495 15.2407 11.3552 15.2645C11.7848 15.2884 12.2383 15.36 12.7156 15.4793C13.193 15.5987 13.6942 15.7896 14.2193 16.0521C14.7443 16.3147 15.2694 16.6846 15.7945 17.162V9.39323H19.303V30.802H15.7945V29.2626ZM10.854 27.9022C11.5462 27.9022 12.1906 27.7948 12.7872 27.5799C13.3839 27.3413 13.8971 27.0191 14.3267 26.6133C14.7801 26.1837 15.1382 25.6825 15.4007 25.1097C15.6632 24.5369 15.7945 23.9044 15.7945 23.2123C15.7945 22.5201 15.6632 21.8876 15.4007 21.3148C15.1382 20.742 14.7801 20.2528 14.3267 19.847C13.8971 19.4174 13.3839 19.0952 12.7872 18.8804C12.1906 18.6417 11.5462 18.5224 10.854 18.5224C10.1857 18.5224 9.55326 18.6417 8.95658 18.8804C8.35991 19.0952 7.83483 19.4174 7.38136 19.847C6.95175 20.2528 6.60567 20.742 6.34314 21.3148C6.10447 21.8876 5.98513 22.5201 5.98513 23.2123C5.98513 23.9044 6.10447 24.5369 6.34314 25.1097C6.60567 25.6825 6.95175 26.1837 7.38136 26.6133C7.83483 27.0191 8.35991 27.3413 8.95658 27.5799C9.55326 27.7948 10.1857 27.9022 10.854 27.9022Z" fill="white"/>
</g>
<g filter="url(#filter1_d_2133_644)">
<path d="M34.2737 24.7159H22.1731C22.364 25.3603 22.6266 25.8854 22.9607 26.2911C23.2948 26.6969 23.6648 27.0191 24.0705 27.2577C24.5001 27.4964 24.9417 27.6635 25.3951 27.7589C25.8486 27.8544 26.2902 27.9022 26.7198 27.9022C27.1016 27.9022 27.5074 27.8664 27.937 27.7947C28.3427 27.747 28.7604 27.6635 29.19 27.5441C29.6196 27.4248 30.0612 27.2577 30.5146 27.0429L32.4837 29.8354C31.9347 30.0979 31.35 30.3247 30.7294 30.5156C30.1566 30.7065 29.5241 30.8617 28.832 30.981C28.1637 31.1242 27.4477 31.1958 26.684 31.1958C25.5383 31.1958 24.4763 31.0049 23.4977 30.623C22.5192 30.2411 21.6719 29.7041 20.9559 29.012C20.2399 28.296 19.679 27.4487 19.2732 26.4701C18.8675 25.4916 18.6646 24.4056 18.6646 23.2123C18.6646 22.1144 18.8556 21.0881 19.2374 20.1334C19.6193 19.1549 20.1563 18.3076 20.8485 17.5916C21.5406 16.8517 22.364 16.2789 23.3187 15.8731C24.2734 15.4435 25.3235 15.2287 26.4692 15.2287C27.4716 15.2287 28.4382 15.4077 29.369 15.7657C30.2998 16.0999 31.1232 16.625 31.8393 17.341C32.5791 18.0331 33.1639 18.9043 33.5935 19.9544C34.047 20.9807 34.2737 22.1741 34.2737 23.5345V24.7159ZM26.4692 18.5224C25.6338 18.5224 24.7985 18.773 23.9631 19.2742C23.1278 19.7754 22.543 20.5869 22.2089 21.7086H30.7294C30.4192 20.5869 29.8344 19.7754 28.9752 19.2742C28.1399 18.773 27.3045 18.5224 26.4692 18.5224ZM24.7149 13.5819L27.1494 9.07103H31.159L28.1876 13.5819H24.7149Z" fill="white"/>
</g>
<g filter="url(#filter2_d_2133_644)">
<path d="M34.0142 15.6225H37.272V14.6917C37.272 13.2358 37.4988 12.1141 37.9522 11.3265C38.4057 10.515 38.9189 9.91831 39.4917 9.53643C40.0883 9.13069 40.6612 8.89202 41.2101 8.82042C41.7829 8.72495 42.1648 8.67722 42.3557 8.67722C43.1195 8.67722 43.9667 8.74882 44.8976 8.89202V12.0783C44.6828 12.0544 44.5038 12.0425 44.3606 12.0425C44.2412 12.0186 44.1458 12.0067 44.0742 12.0067C43.9787 12.0067 43.9071 12.0067 43.8593 12.0067C43.0956 12.0067 42.4989 12.1499 42.0693 12.4363C41.6636 12.7227 41.3652 13.033 41.1743 13.3671C40.9356 13.749 40.8044 14.1905 40.7805 14.6917V15.6225H44.9334V18.9162H40.7805V30.802H37.272V18.9162H34.0142V15.6225Z" fill="white"/>
</g>
<g filter="url(#filter3_d_2133_644)">
<path d="M53.1897 31.1958C51.5429 31.1958 50.2421 30.9094 49.2874 30.3366C48.3327 29.7399 47.6048 29.0478 47.1036 28.2602C46.6262 27.4725 46.3279 26.673 46.2086 25.8615C46.0892 25.05 46.0296 24.4176 46.0296 23.9641V15.6225H49.538V24.1073C49.538 24.3937 49.5738 24.7517 49.6454 25.1813C49.717 25.6109 49.8722 26.0286 50.1108 26.4343C50.3734 26.8401 50.7433 27.1861 51.2207 27.4725C51.7219 27.7589 52.3782 27.9022 53.1897 27.9022C54.0012 27.9022 54.6456 27.7589 55.1229 27.4725C55.6241 27.1861 55.9941 26.8401 56.2327 26.4343C56.4953 26.0286 56.6623 25.6109 56.7339 25.1813C56.8055 24.7517 56.8413 24.3937 56.8413 24.1073V15.6225H60.3498V23.9641C60.3498 24.4176 60.2901 25.05 60.1708 25.8615C60.0515 26.673 59.7412 27.4725 59.24 28.2602C58.7626 29.0478 58.0466 29.7399 57.092 30.3366C56.1373 30.9094 54.8365 31.1958 53.1897 31.1958Z" fill="white"/>
</g>
<g filter="url(#filter4_d_2133_644)">
<path d="M59.8762 15.6225H63.134V10.3598C63.8262 10.1928 64.4228 10.0376 64.924 9.89444C65.4253 9.72737 65.9981 9.5603 66.6425 9.39323V15.6225H70.7954V18.9162H66.6425V25.0381C66.6425 25.2052 66.6544 25.4438 66.6783 25.7541C66.726 26.0405 66.8334 26.3269 67.0005 26.6133C67.1676 26.8997 67.442 27.1503 67.8239 27.3651C68.2058 27.5799 68.7308 27.6873 69.3991 27.6873C69.5662 27.6873 69.7333 27.6873 69.9003 27.6873C70.0674 27.6873 70.2225 27.6873 70.3657 27.6873C70.5089 27.6635 70.6402 27.6515 70.7596 27.6515V30.6946C70.5447 30.7185 70.3061 30.7304 70.0435 30.7304C69.8049 30.7543 69.5304 30.7781 69.2201 30.802C68.9337 30.802 68.5996 30.802 68.2177 30.802C68.0268 30.802 67.6449 30.7781 67.0721 30.7304C66.5231 30.6588 65.9503 30.444 65.3537 30.086C64.7808 29.7041 64.2677 29.1194 63.8142 28.3318C63.3608 27.5441 63.134 26.4224 63.134 24.9665V18.9162H59.8762V15.6225Z" fill="white"/>
</g>
<g filter="url(#filter5_d_2133_644)">
<path d="M78.848 31.1958C77.2012 31.1958 75.9005 30.9094 74.9458 30.3366C73.9911 29.7399 73.2631 29.0478 72.7619 28.2602C72.2846 27.4725 71.9863 26.673 71.8669 25.8615C71.7476 25.05 71.6879 24.4176 71.6879 23.9641V15.6225H75.1964V24.1073C75.1964 24.3937 75.2322 24.7517 75.3038 25.1813C75.3754 25.6109 75.5305 26.0286 75.7692 26.4343C76.0317 26.8401 76.4017 27.1861 76.879 27.4725C77.3802 27.7589 78.0366 27.9022 78.848 27.9022C79.6595 27.9022 80.3039 27.7589 80.7813 27.4725C81.2825 27.1861 81.6524 26.8401 81.8911 26.4343C82.1536 26.0286 82.3207 25.6109 82.3923 25.1813C82.4639 24.7517 82.4997 24.3937 82.4997 24.1073V15.6225H86.0082V23.9641C86.0082 24.4176 85.9485 25.05 85.8292 25.8615C85.7098 26.673 85.3996 27.4725 84.8983 28.2602C84.421 29.0478 83.705 29.7399 82.7503 30.3366C81.7956 30.9094 80.4949 31.1958 78.848 31.1958Z" fill="white"/>
</g>
<g filter="url(#filter6_d_2133_644)">
<path d="M87.2435 14.8081H90.752V17.2425C91.2055 16.5981 91.7067 16.0969 92.2556 15.7389C92.8046 15.3809 93.3296 15.1184 93.8308 14.9513C94.3321 14.7842 94.7855 14.6888 95.1913 14.6649C95.597 14.641 95.8715 14.6291 96.0147 14.6291C96.1818 14.6291 96.3608 14.6291 96.5517 14.6291C96.7665 14.6291 96.9694 14.641 97.1603 14.6649V18.0301C96.8978 17.9824 96.683 17.9466 96.5159 17.9227C96.4204 17.9227 96.3488 17.9227 96.3011 17.9227C95.3464 17.9227 94.5111 18.1375 93.795 18.5672C93.1029 18.9729 92.5301 19.486 92.0766 20.1066C91.6231 20.7271 91.289 21.3954 91.0742 22.1114C90.8594 22.8274 90.752 23.4838 90.752 24.0804V29.9875H87.2435V14.8081Z" fill="white"/>
</g>
<g filter="url(#filter7_d_2133_644)">
<path d="M107.839 29.2626C107.314 29.7399 106.789 30.1099 106.264 30.3724C105.739 30.6349 105.238 30.8259 104.76 30.9452C104.283 31.0645 103.829 31.1361 103.4 31.16C102.994 31.1839 102.636 31.1958 102.326 31.1958C101.252 31.1958 100.237 30.9929 99.2827 30.5872C98.3519 30.1576 97.5284 29.5848 96.8124 28.8688C96.1203 28.1289 95.5594 27.2816 95.1298 26.3269C94.7241 25.3484 94.5212 24.3102 94.5212 23.2123C94.5212 22.1144 94.7241 21.0881 95.1298 20.1334C95.5594 19.1549 96.1203 18.3076 96.8124 17.5916C97.5284 16.8517 98.3519 16.2789 99.2827 15.8731C100.237 15.4435 101.252 15.2287 102.326 15.2287C102.636 15.2287 102.994 15.2407 103.4 15.2645C103.829 15.2884 104.283 15.36 104.76 15.4793C105.238 15.5987 105.739 15.7896 106.264 16.0521C106.789 16.3147 107.314 16.6846 107.839 17.162V15.6225H111.347V30.802H107.839V29.2626ZM102.899 27.9022C103.591 27.9022 104.235 27.7948 104.832 27.5799C105.428 27.3413 105.942 27.0191 106.371 26.6133C106.825 26.1837 107.183 25.6825 107.445 25.1097C107.708 24.5369 107.839 23.9044 107.839 23.2123C107.839 22.5201 107.708 21.8876 107.445 21.3148C107.183 20.742 106.825 20.2528 106.371 19.847C105.942 19.4174 105.428 19.0952 104.832 18.8804C104.235 18.6417 103.591 18.5224 102.899 18.5224C102.23 18.5224 101.598 18.6417 101.001 18.8804C100.404 19.0952 99.8794 19.4174 99.4259 19.847C98.9963 20.2528 98.6502 20.742 98.3877 21.3148C98.149 21.8876 98.0297 22.5201 98.0297 23.2123C98.0297 23.9044 98.149 24.5369 98.3877 25.1097C98.6502 25.6825 98.9963 26.1837 99.4259 26.6133C99.8794 27.0191 100.404 27.3413 101.001 27.5799C101.598 27.7948 102.23 27.9022 102.899 27.9022Z" fill="white"/>
</g>
<path d="M4.44922 40.2654C4.04959 40.2654 3.67181 40.1936 3.31588 40.05C2.9662 39.9001 2.66023 39.7003 2.39797 39.4505C2.13571 39.1945 1.92965 38.8948 1.77979 38.5513C1.62992 38.2079 1.55499 37.8426 1.55499 37.4555C1.55499 37.0683 1.62992 36.703 1.77979 36.3596C1.92965 36.0161 2.13571 35.7195 2.39797 35.4698C2.66023 35.2138 2.9662 35.0139 3.31588 34.8703C3.67181 34.7205 4.04959 34.6455 4.44922 34.6455C4.76768 34.6455 5.07053 34.6924 5.35777 34.786C5.645 34.8797 5.90727 35.0108 6.14455 35.1794C6.38183 35.3418 6.58789 35.5385 6.76273 35.7695C6.94382 36.0005 7.08431 36.2534 7.18422 36.5282H6.31314C6.13206 36.1722 5.87917 35.8881 5.55446 35.6758C5.22976 35.4573 4.86135 35.348 4.44922 35.348C4.16199 35.348 3.88724 35.4011 3.62498 35.5072C3.36896 35.6134 3.14417 35.7632 2.95059 35.9568C2.75702 36.1442 2.60403 36.3658 2.49164 36.6218C2.37924 36.8779 2.32304 37.1557 2.32304 37.4555C2.32304 37.7427 2.37924 38.0143 2.49164 38.2703C2.60403 38.5263 2.75702 38.7511 2.95059 38.9447C3.14417 39.132 3.36896 39.2819 3.62498 39.3943C3.88724 39.5067 4.16199 39.5629 4.44922 39.5629C4.86135 39.5629 5.22976 39.4567 5.55446 39.2444C5.87917 39.0259 6.13206 38.7387 6.31314 38.3827H7.18422C7.08431 38.6637 6.94382 38.9197 6.76273 39.1508C6.58789 39.3818 6.38183 39.5816 6.14455 39.7502C5.90727 39.9126 5.645 40.0406 5.35777 40.1343C5.07053 40.2217 4.76768 40.2654 4.44922 40.2654ZM11.9997 39.4599H14.7909V40.1624H11.2317V34.7392H11.9997V39.4599ZM21.456 34.6455C21.8556 34.6455 22.2271 34.7205 22.5706 34.8703C22.9203 35.0139 23.2231 35.2138 23.4791 35.4698C23.7414 35.7195 23.9474 36.0161 24.0973 36.3596C24.2472 36.703 24.3221 37.0683 24.3221 37.4555C24.3221 37.8426 24.2472 38.2079 24.0973 38.5513C23.9474 38.8948 23.7414 39.1945 23.4791 39.4505C23.2231 39.7003 22.9203 39.9001 22.5706 40.05C22.2271 40.1936 21.8556 40.2654 21.456 40.2654C21.0563 40.2654 20.6817 40.1936 20.332 40.05C19.9886 39.9001 19.6857 39.7003 19.4235 39.4505C19.1674 39.1945 18.9645 38.8948 18.8146 38.5513C18.6648 38.2079 18.5898 37.8426 18.5898 37.4555C18.5898 37.0683 18.6648 36.703 18.8146 36.3596C18.9645 36.0161 19.1674 35.7195 19.4235 35.4698C19.6857 35.2138 19.9886 35.0139 20.332 34.8703C20.6817 34.7205 21.0563 34.6455 21.456 34.6455ZM21.456 39.5629C21.7432 39.5629 22.0117 39.5067 22.2615 39.3943C22.5175 39.2819 22.7392 39.132 22.9265 38.9447C23.1201 38.7511 23.2731 38.5263 23.3855 38.2703C23.4979 38.0143 23.5541 37.7427 23.5541 37.4555C23.5541 37.1557 23.4979 36.8779 23.3855 36.6218C23.2731 36.3658 23.1201 36.1442 22.9265 35.9568C22.7392 35.7632 22.5175 35.6134 22.2615 35.5072C22.0117 35.4011 21.7432 35.348 21.456 35.348C21.1687 35.348 20.8971 35.4011 20.6411 35.5072C20.3913 35.6134 20.1696 35.7632 19.9761 35.9568C19.7887 36.1442 19.6389 36.3658 19.5265 36.6218C19.4141 36.8779 19.3579 37.1557 19.3579 37.4555C19.3579 37.7427 19.4141 38.0143 19.5265 38.2703C19.6389 38.5263 19.7887 38.7511 19.9761 38.9447C20.1696 39.132 20.3913 39.2819 20.6411 39.3943C20.8971 39.5067 21.1687 39.5629 21.456 39.5629ZM30.6859 40.2654C30.6671 40.2654 30.5984 40.2623 30.4798 40.256C30.3612 40.2498 30.2207 40.2248 30.0583 40.1811C29.896 40.1436 29.7211 40.0812 29.5338 39.9938C29.3527 39.9063 29.1841 39.7815 29.028 39.6191C28.8719 39.4567 28.7408 39.2507 28.6346 39.0009C28.5347 38.7511 28.4848 38.4452 28.4848 38.083V34.7392H29.2528V38.083C29.2528 38.1392 29.2622 38.2485 29.2809 38.4108C29.2996 38.5732 29.3558 38.7418 29.4495 38.9166C29.5432 39.0852 29.6868 39.2351 29.8804 39.3662C30.0739 39.4973 30.3424 39.5629 30.6859 39.5629C31.0355 39.5629 31.3041 39.4973 31.4914 39.3662C31.685 39.2351 31.8286 39.0852 31.9222 38.9166C32.0159 38.7418 32.0721 38.5732 32.0908 38.4108C32.1096 38.2485 32.1189 38.1392 32.1189 38.083V34.7392H32.887V38.083C32.887 38.4452 32.8339 38.7511 32.7278 39.0009C32.6278 39.2507 32.4998 39.4567 32.3437 39.6191C32.1876 39.7815 32.0159 39.9063 31.8286 39.9938C31.6475 40.0812 31.4758 40.1436 31.3134 40.1811C31.1511 40.2248 31.0106 40.2498 30.8919 40.256C30.7733 40.2623 30.7046 40.2654 30.6859 40.2654ZM37.9042 35.4417V39.4599H39.2248C39.5183 39.4599 39.7775 39.413 40.0023 39.3194C40.2333 39.2195 40.43 39.0821 40.5923 38.9073C40.7547 38.7262 40.8765 38.5139 40.9576 38.2703C41.0451 38.0206 41.0888 37.7489 41.0888 37.4555C41.0888 37.162 41.0451 36.8935 40.9576 36.6499C40.8765 36.4002 40.7547 36.1879 40.5923 36.013C40.43 35.8319 40.2333 35.6914 40.0023 35.5915C39.7775 35.4916 39.5183 35.4417 39.2248 35.4417H37.9042ZM41.8568 37.4461C41.8568 37.8332 41.7975 38.1923 41.6789 38.5232C41.5602 38.8542 41.3854 39.1414 41.1543 39.3849C40.9295 39.6285 40.6517 39.8189 40.3207 39.9563C39.9898 40.0937 39.612 40.1624 39.1874 40.1624H37.1361V34.7392H39.1874C39.612 34.7392 39.9898 34.8079 40.3207 34.9452C40.6517 35.0826 40.9295 35.2731 41.1543 35.5166C41.3854 35.7601 41.5602 36.0474 41.6789 36.3783C41.7975 36.703 41.8568 37.0589 41.8568 37.4461Z" fill="white"/>
<path d="M51.0869 38.7949H50.5624L50.0004 38.0736H49.4103V38.7949H48.9514V36.1629H49.9442C50.0192 36.1629 50.1191 36.1691 50.244 36.1816C50.3688 36.1879 50.4875 36.2191 50.5999 36.2753C50.7185 36.3315 50.8184 36.422 50.8996 36.5469C50.987 36.6655 51.0307 36.8373 51.0307 37.0621C51.0307 37.3618 50.9902 37.5803 50.909 37.7177C50.8278 37.8488 50.6811 37.9456 50.4688 38.0081L51.0869 38.7949ZM49.4103 37.6521H49.9536C50.1347 37.6521 50.2814 37.6209 50.3938 37.5585C50.5125 37.4898 50.5718 37.3493 50.5718 37.137C50.5718 37.0121 50.5531 36.9153 50.5156 36.8466C50.4781 36.7779 50.4282 36.7249 50.3657 36.6874C50.3095 36.6499 50.244 36.6281 50.169 36.6218C50.0941 36.6094 50.0223 36.6031 49.9536 36.6031H49.4103V37.6521ZM49.9442 34.6455C50.3314 34.6455 50.6936 34.7205 51.0307 34.8703C51.3742 35.0139 51.6739 35.2138 51.9299 35.4698C52.1859 35.7195 52.3858 36.0161 52.5294 36.3596C52.6792 36.703 52.7542 37.0683 52.7542 37.4555C52.7542 37.8426 52.6792 38.2079 52.5294 38.5513C52.3858 38.8948 52.1859 39.1945 51.9299 39.4505C51.6739 39.7003 51.3742 39.9001 51.0307 40.05C50.6936 40.1936 50.3314 40.2654 49.9442 40.2654C49.5571 40.2654 49.1918 40.1936 48.8484 40.05C48.5049 39.9001 48.2052 39.7003 47.9492 39.4505C47.6932 39.1945 47.4902 38.8948 47.3404 38.5513C47.1967 38.2079 47.1249 37.8426 47.1249 37.4555C47.1249 37.0683 47.1967 36.703 47.3404 36.3596C47.4902 36.0161 47.6932 35.7195 47.9492 35.4698C48.2052 35.2138 48.5049 35.0139 48.8484 34.8703C49.1918 34.7205 49.5571 34.6455 49.9442 34.6455ZM49.9442 39.9095C50.2814 39.9095 50.5999 39.847 50.8996 39.7221C51.1993 39.591 51.4585 39.4162 51.677 39.1976C51.9018 38.9728 52.0767 38.7106 52.2015 38.4108C52.3327 38.1111 52.3982 37.7926 52.3982 37.4555C52.3982 37.1183 52.3327 36.7998 52.2015 36.5001C52.0767 36.2003 51.9018 35.9412 51.677 35.7227C51.4585 35.4979 51.1993 35.323 50.8996 35.1981C50.5999 35.067 50.2814 35.0014 49.9442 35.0014C49.6008 35.0014 49.2792 35.067 48.9795 35.1981C48.686 35.323 48.4269 35.4979 48.2021 35.7227C47.9835 35.9412 47.8087 36.2003 47.6776 36.5001C47.5527 36.7998 47.4902 37.1183 47.4902 37.4555C47.4902 37.7926 47.5527 38.1111 47.6776 38.4108C47.8087 38.7106 47.9835 38.9728 48.2021 39.1976C48.4269 39.4162 48.686 39.591 48.9795 39.7221C49.2792 39.847 49.6008 39.9095 49.9442 39.9095Z" fill="white"/>
<path d="M115.518 12.547H116.033V10.5235H116.838V9.94775H114.697V10.5235H115.518V12.547ZM120.119 10.7247V12.547H120.633V9.94775H120.074L119.079 11.2222L118.084 9.94775H117.52V12.547H118.039V10.7247L119.034 11.988H119.124L120.119 10.7247Z" fill="white"/>
<defs>
<filter id="filter0_d_2133_644" x="0.395377" y="9.39331" width="20.9888" height="25.9649" filterUnits="userSpaceOnUse" color-interpolation-filters="sRGB">
<feFlood flood-opacity="0" result="BackgroundImageFix"/>
<feColorMatrix in="SourceAlpha" type="matrix" values="0 0 0 0 0 0 0 0 0 0 0 0 0 0 0 0 0 0 127 0" result="hardAlpha"/>
<feOffset dy="2.08119"/>
<feGaussianBlur stdDeviation="1.04059"/>
<feComposite in2="hardAlpha" operator="out"/>
<feColorMatrix type="matrix" values="0 0 0 0 0 0 0 0 0 0 0 0 0 0 0 0 0 0 0.15 0"/>
<feBlend mode="normal" in2="BackgroundImageFix" result="effect1_dropShadow_2133_644"/>
<feBlend mode="normal" in="SourceGraphic" in2="effect1_dropShadow_2133_644" result="shape"/>
</filter>
<filter id="filter1_d_2133_644" x="16.5834" y="9.07104" width="19.7715" height="26.2871" filterUnits="userSpaceOnUse" color-interpolation-filters="sRGB">
<feFlood flood-opacity="0" result="BackgroundImageFix"/>
<feColorMatrix in="SourceAlpha" type="matrix" values="0 0 0 0 0 0 0 0 0 0 0 0 0 0 0 0 0 0 127 0" result="hardAlpha"/>
<feOffset dy="2.08119"/>
<feGaussianBlur stdDeviation="1.04059"/>
<feComposite in2="hardAlpha" operator="out"/>
<feColorMatrix type="matrix" values="0 0 0 0 0 0 0 0 0 0 0 0 0 0 0 0 0 0 0.15 0"/>
<feBlend mode="normal" in2="BackgroundImageFix" result="effect1_dropShadow_2133_644"/>
<feBlend mode="normal" in="SourceGraphic" in2="effect1_dropShadow_2133_644" result="shape"/>
</filter>
<filter id="filter2_d_2133_644" x="31.933" y="8.67725" width="15.0816" height="26.2871" filterUnits="userSpaceOnUse" color-interpolation-filters="sRGB">
<feFlood flood-opacity="0" result="BackgroundImageFix"/>
<feColorMatrix in="SourceAlpha" type="matrix" values="0 0 0 0 0 0 0 0 0 0 0 0 0 0 0 0 0 0 127 0" result="hardAlpha"/>
<feOffset dy="2.08119"/>
<feGaussianBlur stdDeviation="1.04059"/>
<feComposite in2="hardAlpha" operator="out"/>
<feColorMatrix type="matrix" values="0 0 0 0 0 0 0 0 0 0 0 0 0 0 0 0 0 0 0.15 0"/>
<feBlend mode="normal" in2="BackgroundImageFix" result="effect1_dropShadow_2133_644"/>
<feBlend mode="normal" in="SourceGraphic" in2="effect1_dropShadow_2133_644" result="shape"/>
</filter>
<filter id="filter3_d_2133_644" x="43.9484" y="15.6226" width="18.4827" height="19.7356" filterUnits="userSpaceOnUse" color-interpolation-filters="sRGB">
<feFlood flood-opacity="0" result="BackgroundImageFix"/>
<feColorMatrix in="SourceAlpha" type="matrix" values="0 0 0 0 0 0 0 0 0 0 0 0 0 0 0 0 0 0 127 0" result="hardAlpha"/>
<feOffset dy="2.08119"/>
<feGaussianBlur stdDeviation="1.04059"/>
<feComposite in2="hardAlpha" operator="out"/>
<feColorMatrix type="matrix" values="0 0 0 0 0 0 0 0 0 0 0 0 0 0 0 0 0 0 0.15 0"/>
<feBlend mode="normal" in2="BackgroundImageFix" result="effect1_dropShadow_2133_644"/>
<feBlend mode="normal" in="SourceGraphic" in2="effect1_dropShadow_2133_644" result="shape"/>
</filter>
<filter id="filter4_d_2133_644" x="57.795" y="9.39331" width="15.0816" height="25.5711" filterUnits="userSpaceOnUse" color-interpolation-filters="sRGB">
<feFlood flood-opacity="0" result="BackgroundImageFix"/>
<feColorMatrix in="SourceAlpha" type="matrix" values="0 0 0 0 0 0 0 0 0 0 0 0 0 0 0 0 0 0 127 0" result="hardAlpha"/>
<feOffset dy="2.08119"/>
<feGaussianBlur stdDeviation="1.04059"/>
<feComposite in2="hardAlpha" operator="out"/>
<feColorMatrix type="matrix" values="0 0 0 0 0 0 0 0 0 0 0 0 0 0 0 0 0 0 0.15 0"/>
<feBlend mode="normal" in2="BackgroundImageFix" result="effect1_dropShadow_2133_644"/>
<feBlend mode="normal" in="SourceGraphic" in2="effect1_dropShadow_2133_644" result="shape"/>
</filter>
<filter id="filter5_d_2133_644" x="69.6068" y="15.6226" width="18.4824" height="19.7356" filterUnits="userSpaceOnUse" color-interpolation-filters="sRGB">
<feFlood flood-opacity="0" result="BackgroundImageFix"/>
<feColorMatrix in="SourceAlpha" type="matrix" values="0 0 0 0 0 0 0 0 0 0 0 0 0 0 0 0 0 0 127 0" result="hardAlpha"/>
<feOffset dy="2.08119"/>
<feGaussianBlur stdDeviation="1.04059"/>
<feComposite in2="hardAlpha" operator="out"/>
<feColorMatrix type="matrix" values="0 0 0 0 0 0 0 0 0 0 0 0 0 0 0 0 0 0 0.15 0"/>
<feBlend mode="normal" in2="BackgroundImageFix" result="effect1_dropShadow_2133_644"/>
<feBlend mode="normal" in="SourceGraphic" in2="effect1_dropShadow_2133_644" result="shape"/>
</filter>
<filter id="filter6_d_2133_644" x="85.1625" y="14.6292" width="14.0791" height="19.5208" filterUnits="userSpaceOnUse" color-interpolation-filters="sRGB">
<feFlood flood-opacity="0" result="BackgroundImageFix"/>
<feColorMatrix in="SourceAlpha" type="matrix" values="0 0 0 0 0 0 0 0 0 0 0 0 0 0 0 0 0 0 127 0" result="hardAlpha"/>
<feOffset dy="2.08119"/>
<feGaussianBlur stdDeviation="1.04059"/>
<feComposite in2="hardAlpha" operator="out"/>
<feColorMatrix type="matrix" values="0 0 0 0 0 0 0 0 0 0 0 0 0 0 0 0 0 0 0.15 0"/>
<feBlend mode="normal" in2="BackgroundImageFix" result="effect1_dropShadow_2133_644"/>
<feBlend mode="normal" in="SourceGraphic" in2="effect1_dropShadow_2133_644" result="shape"/>
</filter>
<filter id="filter7_d_2133_644" x="92.4401" y="15.2288" width="20.9885" height="20.1294" filterUnits="userSpaceOnUse" color-interpolation-filters="sRGB">
<feFlood flood-opacity="0" result="BackgroundImageFix"/>
<feColorMatrix in="SourceAlpha" type="matrix" values="0 0 0 0 0 0 0 0 0 0 0 0 0 0 0 0 0 0 127 0" result="hardAlpha"/>
<feOffset dy="2.08119"/>
<feGaussianBlur stdDeviation="1.04059"/>
<feComposite in2="hardAlpha" operator="out"/>
<feColorMatrix type="matrix" values="0 0 0 0 0 0 0 0 0 0 0 0 0 0 0 0 0 0 0.15 0"/>
<feBlend mode="normal" in2="BackgroundImageFix" result="effect1_dropShadow_2133_644"/>
<feBlend mode="normal" in="SourceGraphic" in2="effect1_dropShadow_2133_644" result="shape"/>
</filter>
</defs>
</svg>
