<svg width="110" height="44" viewBox="0 0 110 44" fill="none" xmlns="http://www.w3.org/2000/svg">
<g filter="url(#filter0_d_2451_1829)">
<path d="M54.8605 29.7141C53.2137 29.7141 51.9129 29.4277 50.9583 28.8549C50.0036 28.2582 49.2756 27.5661 48.7744 26.7785C48.2971 25.9909 47.9987 25.1913 47.8794 24.3798C47.7601 23.5683 47.7004 22.9359 47.7004 22.4824V14.1408H51.2089V22.6256C51.2089 22.912 51.2447 23.27 51.3163 23.6996C51.3879 24.1292 51.543 24.5469 51.7817 24.9526C52.0442 25.3584 52.4141 25.7045 52.8915 25.9909C53.3927 26.2773 54.049 26.4205 54.8605 26.4205C55.672 26.4205 56.3164 26.2773 56.7938 25.9909C57.295 25.7045 57.6649 25.3584 57.9036 24.9526C58.1661 24.5469 58.3332 24.1292 58.4048 23.6996C58.4764 23.27 58.5122 22.912 58.5122 22.6256V14.1408H62.0206V22.4824C62.0206 22.9359 61.961 23.5683 61.8416 24.3798C61.7223 25.1913 61.412 25.9909 60.9108 26.7785C60.4335 27.5661 59.7175 28.2582 58.7628 28.8549C57.8081 29.4277 56.5074 29.7141 54.8605 29.7141Z" fill="white"/>
</g>
<g filter="url(#filter1_d_2451_1829)">
<path d="M16.1789 27.7809C15.6539 28.2582 15.1288 28.6282 14.6037 28.8907C14.0786 29.1532 13.5774 29.3442 13.1001 29.4635C12.6227 29.5829 12.1693 29.6545 11.7397 29.6783C11.3339 29.7022 10.9759 29.7141 10.6656 29.7141C9.59162 29.7141 8.57727 29.5112 7.62258 29.1055C6.69177 28.6759 5.86835 28.1031 5.15234 27.3871C4.4602 26.6472 3.89932 25.7999 3.46971 24.8452C3.06397 23.8667 2.8611 22.8285 2.8611 21.7306C2.8611 20.6327 3.06397 19.6064 3.46971 18.6517C3.89932 17.6732 4.4602 16.8259 5.15234 16.1099C5.86835 15.37 6.69177 14.7972 7.62258 14.3915C8.57727 13.9618 9.59162 13.747 10.6656 13.747C10.9759 13.747 11.3339 13.759 11.7397 13.7828C12.1693 13.8067 12.6227 13.8783 13.1001 13.9976C13.5774 14.117 14.0786 14.3079 14.6037 14.5705C15.1288 14.833 15.6539 15.2029 16.1789 15.6803V7.91154H19.6874V29.3203H16.1789V27.7809ZM11.2384 26.4205C11.9306 26.4205 12.575 26.3131 13.1717 26.0983C13.7684 25.8596 14.2815 25.5374 14.7111 25.1316C15.1646 24.702 15.5226 24.2008 15.7851 23.628C16.0477 23.0552 16.1789 22.4227 16.1789 21.7306C16.1789 21.0384 16.0477 20.406 15.7851 19.8331C15.5226 19.2603 15.1646 18.7711 14.7111 18.3653C14.2815 17.9357 13.7684 17.6135 13.1717 17.3987C12.575 17.16 11.9306 17.0407 11.2384 17.0407C10.5702 17.0407 9.93769 17.16 9.34101 17.3987C8.74434 17.6135 8.21926 17.9357 7.76579 18.3653C7.33618 18.7711 6.99011 19.2603 6.72757 19.8331C6.4889 20.406 6.36956 21.0384 6.36956 21.7306C6.36956 22.4227 6.4889 23.0552 6.72757 23.628C6.99011 24.2008 7.33618 24.702 7.76579 25.1316C8.21926 25.5374 8.74434 25.8596 9.34101 26.0983C9.93769 26.3131 10.5702 26.4205 11.2384 26.4205Z" fill="white"/>
</g>
<g filter="url(#filter2_d_2451_1829)">
<path d="M34.7202 23.2342H22.6196C22.8105 23.8786 23.073 24.4037 23.4072 24.8094C23.7413 25.2152 24.1113 25.5374 24.517 25.7761C24.9466 26.0147 25.3881 26.1818 25.8416 26.2773C26.2951 26.3727 26.7366 26.4205 27.1662 26.4205C27.5481 26.4205 27.9538 26.3847 28.3835 26.3131C28.7892 26.2653 29.2069 26.1818 29.6365 26.0625C30.0661 25.9431 30.5076 25.7761 30.9611 25.5612L32.9301 28.3537C32.3812 28.6162 31.7964 28.843 31.1759 29.0339C30.6031 29.2248 29.9706 29.38 29.2785 29.4993C28.6102 29.6425 27.8942 29.7141 27.1304 29.7141C25.9848 29.7141 24.9227 29.5232 23.9442 29.1413C22.9656 28.7594 22.1183 28.2224 21.4023 27.5303C20.6863 26.8143 20.1254 25.967 19.7197 24.9884C19.314 24.0099 19.1111 22.9239 19.1111 21.7306C19.1111 20.6327 19.302 19.6064 19.6839 18.6517C20.0658 17.6732 20.6028 16.8259 21.2949 16.1099C21.9871 15.37 22.8105 14.7972 23.7652 14.3915C24.7199 13.9618 25.77 13.747 26.9156 13.747C27.918 13.747 28.8847 13.926 29.8155 14.2841C30.7463 14.6182 31.5697 15.1433 32.2857 15.8593C33.0256 16.5514 33.6103 17.4226 34.04 18.4727C34.4934 19.499 34.7202 20.6924 34.7202 22.0528V23.2342ZM26.9156 17.0407C26.0803 17.0407 25.2449 17.2913 24.4096 17.7925C23.5742 18.2937 22.9895 19.1052 22.6554 20.227H31.1759C30.8656 19.1052 30.2809 18.2937 29.4217 17.7925C28.5863 17.2913 27.751 17.0407 26.9156 17.0407ZM25.1614 12.1002L27.5958 7.58934H31.6055L28.6341 12.1002H25.1614Z" fill="white"/>
</g>
<g filter="url(#filter3_d_2451_1829)">
<path d="M44.9121 20.8356C44.9121 20.5492 44.8883 20.1912 44.8405 19.7615C44.7928 19.3319 44.6496 18.9143 44.4109 18.5085C44.1961 18.1028 43.862 17.7567 43.4085 17.4703C42.955 17.1839 42.3106 17.0407 41.4753 17.0407C40.7354 17.0407 40.1148 17.2078 39.6136 17.5419C39.1124 17.8522 38.7186 18.2341 38.4322 18.6875C38.1458 19.1171 37.9429 19.5706 37.8236 20.048C37.7043 20.5014 37.6446 20.8594 37.6446 21.122V29.3203H34.1361V7.91154H37.6446V15.6803C38.0503 15.2029 38.5038 14.833 39.005 14.5705C39.5301 14.3079 40.0194 14.117 40.4729 13.9976C40.9502 13.8783 41.3559 13.8067 41.6901 13.7828C42.0481 13.759 42.2509 13.747 42.2987 13.747C43.8262 13.747 45.0076 14.0334 45.8429 14.6063C46.6783 15.1791 47.2869 15.8115 47.6688 16.5037C48.0506 17.1958 48.2655 17.8402 48.3132 18.4369C48.3848 19.0336 48.4206 19.3677 48.4206 19.4393V29.3203H44.9121V20.8356Z" fill="white"/>
</g>
<g filter="url(#filter4_d_2451_1829)">
<path d="M63.5319 25.0958C63.7945 25.4538 64.1167 25.7403 64.4986 25.9551C64.9043 26.146 65.2981 26.2773 65.68 26.3489C66.1096 26.4682 66.5631 26.5398 67.0404 26.5637C67.1836 26.5637 67.4223 26.5637 67.7564 26.5637C68.1144 26.5398 68.4724 26.4801 68.8304 26.3847C69.2123 26.2892 69.5345 26.1579 69.7971 25.9909C70.0835 25.7999 70.2267 25.5254 70.2267 25.1674C70.2267 24.7378 70.0119 24.4156 69.5822 24.2008C69.1526 23.9622 68.6037 23.7593 67.9354 23.5922C67.291 23.4251 66.5869 23.2461 65.8232 23.0552C65.0833 22.8643 64.3792 22.5898 63.7109 22.2318C63.0665 21.8499 62.5295 21.3606 62.0999 20.764C61.6703 20.1673 61.4555 19.3677 61.4555 18.3653C61.4555 17.8402 61.5748 17.3032 61.8135 16.7543C62.0522 16.2054 62.4221 15.7161 62.9233 15.2865C63.4245 14.833 64.0451 14.4631 64.785 14.1767C65.5487 13.8902 66.4318 13.747 67.4342 13.747C68.1502 13.747 68.7946 13.8306 69.3674 13.9976C69.9403 14.1408 70.4415 14.3318 70.8711 14.5705C71.3007 14.7853 71.6706 15.0239 71.9809 15.2865C72.2912 15.549 72.5418 15.7996 72.7327 16.0383L70.5847 18.1147C70.2983 17.8999 69.988 17.697 69.6539 17.5061C69.3197 17.3629 68.9617 17.2316 68.5798 17.1123C68.2218 16.993 67.828 16.9333 67.3984 16.9333C67.1597 16.9333 66.8972 16.9572 66.6108 17.0049C66.3244 17.0526 66.0499 17.1362 65.7874 17.2555C65.5487 17.351 65.3458 17.4942 65.1788 17.6851C65.0356 17.876 64.964 18.1147 64.964 18.4011C64.964 18.9023 65.1788 19.2842 65.6084 19.5467C66.038 19.8093 66.575 20.036 67.2194 20.227C67.8877 20.394 68.5918 20.573 69.3316 20.764C70.0954 20.931 70.7995 21.1816 71.4439 21.5158C72.1122 21.8499 72.6611 22.3153 73.0907 22.912C73.5203 23.4848 73.7351 24.2605 73.7351 25.239C73.7351 25.7164 73.5919 26.2176 73.3055 26.7427C73.043 27.2677 72.6372 27.757 72.0883 28.2105C71.5632 28.6401 70.9069 28.9981 70.1193 29.2845C69.3316 29.5709 68.4128 29.7141 67.3626 29.7141C66.4795 29.7141 65.6919 29.6187 64.9998 29.4277C64.3076 29.2368 63.699 28.9981 63.1739 28.7117C62.6489 28.4014 62.2073 28.0673 61.8493 27.7093C61.5152 27.3513 61.2407 27.0171 61.0259 26.7069L63.5319 25.0958Z" fill="white"/>
</g>
<g filter="url(#filter5_d_2451_1829)">
<path d="M71.341 14.1408H74.5988V8.87816C75.291 8.71109 75.8877 8.55595 76.3889 8.41275C76.8901 8.24568 77.4629 8.07861 78.1073 7.91154V14.1408H82.2602V17.4345H78.1073V23.5564C78.1073 23.7235 78.1192 23.9622 78.1431 24.2724C78.1908 24.5588 78.2982 24.8452 78.4653 25.1316C78.6324 25.418 78.9069 25.6686 79.2887 25.8835C79.6706 26.0983 80.1957 26.2057 80.864 26.2057C81.031 26.2057 81.1981 26.2057 81.3652 26.2057C81.5322 26.2057 81.6874 26.2057 81.8306 26.2057C81.9738 26.1818 82.105 26.1699 82.2244 26.1699V29.2129C82.0096 29.2368 81.7709 29.2487 81.5084 29.2487C81.2697 29.2726 80.9952 29.2964 80.685 29.3203C80.3985 29.3203 80.0644 29.3203 79.6825 29.3203C79.4916 29.3203 79.1097 29.2964 78.5369 29.2487C77.988 29.1771 77.4152 28.9623 76.8185 28.6043C76.2457 28.2224 75.7325 27.6377 75.2791 26.8501C74.8256 26.0625 74.5988 24.9407 74.5988 23.4848V17.4345H71.341V14.1408Z" fill="white"/>
</g>
<g filter="url(#filter6_d_2451_1829)">
<path d="M101.795 23.2342H89.6948C89.8857 23.8786 90.1482 24.4037 90.4824 24.8094C90.8165 25.2152 91.1864 25.5374 91.5922 25.7761C92.0218 26.0147 92.4633 26.1818 92.9168 26.2773C93.3703 26.3727 93.8118 26.4205 94.2414 26.4205C94.6233 26.4205 95.029 26.3847 95.4587 26.3131C95.8644 26.2653 96.2821 26.1818 96.7117 26.0625C97.1413 25.9431 97.5828 25.7761 98.0363 25.5612L100.005 28.3537C99.4564 28.6162 98.8716 28.843 98.2511 29.0339C97.6783 29.2248 97.0458 29.38 96.3537 29.4993C95.6854 29.6425 94.9694 29.7141 94.2056 29.7141C93.06 29.7141 91.9979 29.5232 91.0194 29.1413C90.0408 28.7594 89.1935 28.2224 88.4775 27.5303C87.7615 26.8143 87.2006 25.967 86.7949 24.9884C86.3892 24.0099 86.1863 22.9239 86.1863 21.7306C86.1863 20.6327 86.3772 19.6064 86.7591 18.6517C87.141 17.6732 87.678 16.8259 88.3701 16.1099C89.0623 15.37 89.8857 14.7972 90.8404 14.3915C91.7951 13.9618 92.8452 13.747 93.9908 13.747C94.9932 13.747 95.9599 13.926 96.8907 14.2841C97.8215 14.6182 98.6449 15.1433 99.3609 15.8593C100.101 16.5514 100.686 17.4226 101.115 18.4727C101.569 19.499 101.795 20.6924 101.795 22.0528V23.2342ZM93.9908 17.0407C93.1555 17.0407 92.3201 17.2913 91.4848 17.7925C90.6494 18.2937 90.0647 19.1052 89.7306 20.227H98.2511C97.9408 19.1052 97.3561 18.2937 96.4969 17.7925C95.6615 17.2913 94.8262 17.0407 93.9908 17.0407Z" fill="white"/>
</g>
<g filter="url(#filter7_d_2451_1829)">
<path d="M102.858 11.1129H103.372V9.08942H104.177V8.51367H102.036V9.08942H102.858V11.1129ZM107.458 9.29065V11.1129H107.972V8.51367H107.413L106.418 9.78814L105.423 8.51367H104.859V11.1129H105.379V9.29065L106.374 10.5539H106.463L107.458 9.29065Z" fill="white"/>
</g>
<g filter="url(#filter8_d_2451_1829)">
<path d="M83.8183 7.91154H87.3268V29.3203H83.8183V7.91154Z" fill="white"/>
</g>
<path d="M1.9432 34.0719H2.71125V39.4951H1.9432V34.0719ZM10.9507 34.0719H11.7188V39.4951H10.9414L7.78486 35.3271V39.4951H7.01681V34.0719H7.79423L10.9507 38.2306V34.0719ZM17.8407 39.5981C17.541 39.5981 17.2787 39.5669 17.0539 39.5045C16.8291 39.442 16.6324 39.3671 16.4638 39.2797C16.3015 39.186 16.1641 39.0861 16.0517 38.98C15.9393 38.8676 15.8488 38.7645 15.7801 38.6709L16.3327 38.2306C16.4014 38.3056 16.4888 38.3836 16.595 38.4648C16.7011 38.5397 16.8197 38.6115 16.9509 38.6802C17.0882 38.7427 17.235 38.7958 17.3911 38.8395C17.5472 38.8769 17.7127 38.8957 17.8875 38.8957C18.1373 38.8957 18.3371 38.8613 18.487 38.7926C18.6431 38.7239 18.7617 38.6459 18.8429 38.5585C18.9303 38.4648 18.9896 38.3743 19.0209 38.2868C19.0521 38.1932 19.0677 38.1276 19.0677 38.0902C19.0677 37.9028 18.9896 37.753 18.8335 37.6406C18.6774 37.5282 18.4807 37.4283 18.2434 37.3408C18.0062 37.2534 17.7501 37.166 17.4754 37.0786C17.2069 36.9912 16.954 36.8788 16.7167 36.7414C16.4794 36.604 16.2827 36.4292 16.1266 36.2169C15.9705 36.0046 15.8925 35.7298 15.8925 35.3926C15.8925 35.2677 15.9174 35.1241 15.9674 34.9618C16.0236 34.7994 16.1173 34.6464 16.2484 34.5028C16.3858 34.3529 16.5731 34.2281 16.8104 34.1281C17.0477 34.0282 17.3536 33.9783 17.7283 33.9783C17.9968 33.9783 18.2341 34.0064 18.4401 34.0626C18.6462 34.1188 18.8242 34.1875 18.974 34.2686C19.1239 34.3498 19.2488 34.4372 19.3487 34.5309C19.4486 34.6246 19.5266 34.7089 19.5828 34.7838C19.4767 34.8525 19.3861 34.9212 19.3112 34.9899C19.2363 35.0523 19.1489 35.1179 19.049 35.1866C18.8679 35.0055 18.6493 34.8775 18.3933 34.8025C18.1435 34.7214 17.9 34.6808 17.6627 34.6808C17.5316 34.6808 17.4067 34.6964 17.2881 34.7276C17.1694 34.7588 17.0633 34.8088 16.9696 34.8775C16.8759 34.9399 16.801 35.0211 16.7448 35.121C16.6886 35.2147 16.6605 35.3271 16.6605 35.4582C16.6605 35.6892 16.7386 35.8703 16.8947 36.0014C17.0508 36.1326 17.2475 36.245 17.4848 36.3386C17.722 36.4323 17.9749 36.5197 18.2434 36.6009C18.5182 36.6758 18.7742 36.7757 19.0115 36.9006C19.2488 37.0255 19.4455 37.1847 19.6016 37.3783C19.7577 37.5719 19.8357 37.831 19.8357 38.1557C19.8357 38.2806 19.8014 38.4273 19.7327 38.5959C19.6703 38.7583 19.561 38.9144 19.4049 39.0643C19.255 39.2141 19.0521 39.3421 18.7961 39.4483C18.54 39.5482 18.2216 39.5981 17.8407 39.5981ZM23.351 34.7744V34.0719H27.7345V34.7744H25.9268V39.4951H25.1587V34.7744H23.351ZM31.8053 34.0719H32.5734V39.4951H31.8053V34.0719ZM36.6448 34.7744V34.0719H41.0283V34.7744H39.2205V39.4951H38.4525V34.7744H36.6448ZM47.244 39.5981C47.2253 39.5981 47.1566 39.595 47.0379 39.5888C46.9193 39.5825 46.7788 39.5576 46.6164 39.5139C46.4541 39.4764 46.2793 39.4139 46.0919 39.3265C45.9108 39.2391 45.7422 39.1142 45.5861 38.9519C45.43 38.7895 45.2989 38.5835 45.1927 38.3337C45.0928 38.0839 45.0429 37.7779 45.0429 37.4158V34.0719H45.8109V37.4158C45.8109 37.472 45.8203 37.5812 45.839 37.7436C45.8578 37.9059 45.914 38.0745 46.0076 38.2494C46.1013 38.418 46.2449 38.5678 46.4385 38.699C46.6321 38.8301 46.9006 38.8957 47.244 38.8957C47.5937 38.8957 47.8622 38.8301 48.0495 38.699C48.2431 38.5678 48.3867 38.418 48.4804 38.2494C48.574 38.0745 48.6302 37.9059 48.649 37.7436C48.6677 37.5812 48.6771 37.472 48.6771 37.4158V34.0719H49.4451V37.4158C49.4451 37.7779 49.392 38.0839 49.2859 38.3337C49.186 38.5835 49.058 38.7895 48.9019 38.9519C48.7457 39.1142 48.574 39.2391 48.3867 39.3265C48.2056 39.4139 48.0339 39.4764 47.8715 39.5139C47.7092 39.5576 47.5687 39.5825 47.4501 39.5888C47.3314 39.595 47.2627 39.5981 47.244 39.5981ZM53.4601 34.7744V34.0719H57.8436V34.7744H56.0359V39.4951H55.2678V34.7744H53.4601ZM65.4736 38.7926V39.4951H61.9144V34.0719H65.4736V34.7744H62.6825V36.4979H65.2676V37.2003H62.6825V38.7926H65.4736Z" fill="white"/>
<path d="M73.417 39.5348H72.8925L72.3305 38.8136H71.7404V39.5348H71.2814V36.9029H72.2743C72.3492 36.9029 72.4491 36.9091 72.574 36.9216C72.6989 36.9279 72.8175 36.9591 72.9299 37.0153C73.0486 37.0715 73.1485 37.162 73.2297 37.2869C73.3171 37.4055 73.3608 37.5773 73.3608 37.8021C73.3608 38.1018 73.3202 38.3203 73.239 38.4577C73.1578 38.5888 73.0111 38.6856 72.7988 38.7481L73.417 39.5348ZM71.7404 38.3921H72.2836C72.4647 38.3921 72.6115 38.3609 72.7239 38.2985C72.8425 38.2298 72.9018 38.0893 72.9018 37.877C72.9018 37.7521 72.8831 37.6553 72.8456 37.5866C72.8082 37.5179 72.7582 37.4649 72.6958 37.4274C72.6396 37.3899 72.574 37.3681 72.4991 37.3618C72.4241 37.3493 72.3523 37.3431 72.2836 37.3431H71.7404V38.3921ZM72.2743 35.3855C72.6614 35.3855 73.0236 35.4604 73.3608 35.6103C73.7042 35.7539 74.0039 35.9537 74.26 36.2098C74.516 36.4595 74.7158 36.7561 74.8594 37.0996C75.0093 37.443 75.0842 37.8083 75.0842 38.1954C75.0842 38.5826 75.0093 38.9479 74.8594 39.2913C74.7158 39.6348 74.516 39.9345 74.26 40.1905C74.0039 40.4403 73.7042 40.6401 73.3608 40.7899C73.0236 40.9336 72.6614 41.0054 72.2743 41.0054C71.8871 41.0054 71.5218 40.9336 71.1784 40.7899C70.835 40.6401 70.5352 40.4403 70.2792 40.1905C70.0232 39.9345 69.8203 39.6348 69.6704 39.2913C69.5268 38.9479 69.455 38.5826 69.455 38.1954C69.455 37.8083 69.5268 37.443 69.6704 37.0996C69.8203 36.7561 70.0232 36.4595 70.2792 36.2098C70.5352 35.9537 70.835 35.7539 71.1784 35.6103C71.5218 35.4604 71.8871 35.3855 72.2743 35.3855ZM72.2743 40.6494C72.6115 40.6494 72.9299 40.587 73.2297 40.4621C73.5294 40.331 73.7885 40.1562 74.0071 39.9376C74.2319 39.7128 74.4067 39.4505 74.5316 39.1508C74.6627 38.8511 74.7283 38.5326 74.7283 38.1954C74.7283 37.8583 74.6627 37.5398 74.5316 37.2401C74.4067 36.9403 74.2319 36.6812 74.0071 36.4627C73.7885 36.2379 73.5294 36.063 73.2297 35.9381C72.9299 35.807 72.6115 35.7414 72.2743 35.7414C71.9308 35.7414 71.6093 35.807 71.3095 35.9381C71.0161 36.063 70.7569 36.2379 70.5321 36.4627C70.3136 36.6812 70.1387 36.9403 70.0076 37.2401C69.8827 37.5398 69.8203 37.8583 69.8203 38.1954C69.8203 38.5326 69.8827 38.8511 70.0076 39.1508C70.1387 39.4505 70.3136 39.7128 70.5321 39.9376C70.7569 40.1562 71.0161 40.331 71.3095 40.4621C71.6093 40.587 71.9308 40.6494 72.2743 40.6494Z" fill="white"/>
<defs>
<filter id="filter0_d_2451_1829" x="45.6193" y="14.1406" width="18.4826" height="19.7361" filterUnits="userSpaceOnUse" color-interpolation-filters="sRGB">
<feFlood flood-opacity="0" result="BackgroundImageFix"/>
<feColorMatrix in="SourceAlpha" type="matrix" values="0 0 0 0 0 0 0 0 0 0 0 0 0 0 0 0 0 0 127 0" result="hardAlpha"/>
<feOffset dy="2.08119"/>
<feGaussianBlur stdDeviation="1.04059"/>
<feComposite in2="hardAlpha" operator="out"/>
<feColorMatrix type="matrix" values="0 0 0 0 0 0 0 0 0 0 0 0 0 0 0 0 0 0 0.15 0"/>
<feBlend mode="normal" in2="BackgroundImageFix" result="effect1_dropShadow_2451_1829"/>
<feBlend mode="normal" in="SourceGraphic" in2="effect1_dropShadow_2451_1829" result="shape"/>
</filter>
<filter id="filter1_d_2451_1829" x="0.779899" y="7.91162" width="20.9887" height="25.9651" filterUnits="userSpaceOnUse" color-interpolation-filters="sRGB">
<feFlood flood-opacity="0" result="BackgroundImageFix"/>
<feColorMatrix in="SourceAlpha" type="matrix" values="0 0 0 0 0 0 0 0 0 0 0 0 0 0 0 0 0 0 127 0" result="hardAlpha"/>
<feOffset dy="2.08119"/>
<feGaussianBlur stdDeviation="1.04059"/>
<feComposite in2="hardAlpha" operator="out"/>
<feColorMatrix type="matrix" values="0 0 0 0 0 0 0 0 0 0 0 0 0 0 0 0 0 0 0.15 0"/>
<feBlend mode="normal" in2="BackgroundImageFix" result="effect1_dropShadow_2451_1829"/>
<feBlend mode="normal" in="SourceGraphic" in2="effect1_dropShadow_2451_1829" result="shape"/>
</filter>
<filter id="filter2_d_2451_1829" x="17.0299" y="7.58936" width="19.7715" height="26.2874" filterUnits="userSpaceOnUse" color-interpolation-filters="sRGB">
<feFlood flood-opacity="0" result="BackgroundImageFix"/>
<feColorMatrix in="SourceAlpha" type="matrix" values="0 0 0 0 0 0 0 0 0 0 0 0 0 0 0 0 0 0 127 0" result="hardAlpha"/>
<feOffset dy="2.08119"/>
<feGaussianBlur stdDeviation="1.04059"/>
<feComposite in2="hardAlpha" operator="out"/>
<feColorMatrix type="matrix" values="0 0 0 0 0 0 0 0 0 0 0 0 0 0 0 0 0 0 0.15 0"/>
<feBlend mode="normal" in2="BackgroundImageFix" result="effect1_dropShadow_2451_1829"/>
<feBlend mode="normal" in="SourceGraphic" in2="effect1_dropShadow_2451_1829" result="shape"/>
</filter>
<filter id="filter3_d_2451_1829" x="32.0549" y="7.91162" width="18.4468" height="25.5711" filterUnits="userSpaceOnUse" color-interpolation-filters="sRGB">
<feFlood flood-opacity="0" result="BackgroundImageFix"/>
<feColorMatrix in="SourceAlpha" type="matrix" values="0 0 0 0 0 0 0 0 0 0 0 0 0 0 0 0 0 0 127 0" result="hardAlpha"/>
<feOffset dy="2.08119"/>
<feGaussianBlur stdDeviation="1.04059"/>
<feComposite in2="hardAlpha" operator="out"/>
<feColorMatrix type="matrix" values="0 0 0 0 0 0 0 0 0 0 0 0 0 0 0 0 0 0 0.15 0"/>
<feBlend mode="normal" in2="BackgroundImageFix" result="effect1_dropShadow_2451_1829"/>
<feBlend mode="normal" in="SourceGraphic" in2="effect1_dropShadow_2451_1829" result="shape"/>
</filter>
<filter id="filter4_d_2451_1829" x="58.9447" y="13.7471" width="16.8716" height="20.1297" filterUnits="userSpaceOnUse" color-interpolation-filters="sRGB">
<feFlood flood-opacity="0" result="BackgroundImageFix"/>
<feColorMatrix in="SourceAlpha" type="matrix" values="0 0 0 0 0 0 0 0 0 0 0 0 0 0 0 0 0 0 127 0" result="hardAlpha"/>
<feOffset dy="2.08119"/>
<feGaussianBlur stdDeviation="1.04059"/>
<feComposite in2="hardAlpha" operator="out"/>
<feColorMatrix type="matrix" values="0 0 0 0 0 0 0 0 0 0 0 0 0 0 0 0 0 0 0.15 0"/>
<feBlend mode="normal" in2="BackgroundImageFix" result="effect1_dropShadow_2451_1829"/>
<feBlend mode="normal" in="SourceGraphic" in2="effect1_dropShadow_2451_1829" result="shape"/>
</filter>
<filter id="filter5_d_2451_1829" x="69.2598" y="7.91162" width="15.0816" height="25.5711" filterUnits="userSpaceOnUse" color-interpolation-filters="sRGB">
<feFlood flood-opacity="0" result="BackgroundImageFix"/>
<feColorMatrix in="SourceAlpha" type="matrix" values="0 0 0 0 0 0 0 0 0 0 0 0 0 0 0 0 0 0 127 0" result="hardAlpha"/>
<feOffset dy="2.08119"/>
<feGaussianBlur stdDeviation="1.04059"/>
<feComposite in2="hardAlpha" operator="out"/>
<feColorMatrix type="matrix" values="0 0 0 0 0 0 0 0 0 0 0 0 0 0 0 0 0 0 0.15 0"/>
<feBlend mode="normal" in2="BackgroundImageFix" result="effect1_dropShadow_2451_1829"/>
<feBlend mode="normal" in="SourceGraphic" in2="effect1_dropShadow_2451_1829" result="shape"/>
</filter>
<filter id="filter6_d_2451_1829" x="84.1051" y="13.7471" width="19.7715" height="20.1297" filterUnits="userSpaceOnUse" color-interpolation-filters="sRGB">
<feFlood flood-opacity="0" result="BackgroundImageFix"/>
<feColorMatrix in="SourceAlpha" type="matrix" values="0 0 0 0 0 0 0 0 0 0 0 0 0 0 0 0 0 0 127 0" result="hardAlpha"/>
<feOffset dy="2.08119"/>
<feGaussianBlur stdDeviation="1.04059"/>
<feComposite in2="hardAlpha" operator="out"/>
<feColorMatrix type="matrix" values="0 0 0 0 0 0 0 0 0 0 0 0 0 0 0 0 0 0 0.15 0"/>
<feBlend mode="normal" in2="BackgroundImageFix" result="effect1_dropShadow_2451_1829"/>
<feBlend mode="normal" in="SourceGraphic" in2="effect1_dropShadow_2451_1829" result="shape"/>
</filter>
<filter id="filter7_d_2451_1829" x="100.407" y="8.51367" width="9.19462" height="5.85734" filterUnits="userSpaceOnUse" color-interpolation-filters="sRGB">
<feFlood flood-opacity="0" result="BackgroundImageFix"/>
<feColorMatrix in="SourceAlpha" type="matrix" values="0 0 0 0 0 0 0 0 0 0 0 0 0 0 0 0 0 0 127 0" result="hardAlpha"/>
<feOffset dy="1.62911"/>
<feGaussianBlur stdDeviation="0.814554"/>
<feComposite in2="hardAlpha" operator="out"/>
<feColorMatrix type="matrix" values="0 0 0 0 0 0 0 0 0 0 0 0 0 0 0 0 0 0 0.06 0"/>
<feBlend mode="normal" in2="BackgroundImageFix" result="effect1_dropShadow_2451_1829"/>
<feBlend mode="normal" in="SourceGraphic" in2="effect1_dropShadow_2451_1829" result="shape"/>
</filter>
<filter id="filter8_d_2451_1829" x="81.7372" y="7.91162" width="7.67079" height="25.5711" filterUnits="userSpaceOnUse" color-interpolation-filters="sRGB">
<feFlood flood-opacity="0" result="BackgroundImageFix"/>
<feColorMatrix in="SourceAlpha" type="matrix" values="0 0 0 0 0 0 0 0 0 0 0 0 0 0 0 0 0 0 127 0" result="hardAlpha"/>
<feOffset dy="2.08119"/>
<feGaussianBlur stdDeviation="1.04059"/>
<feComposite in2="hardAlpha" operator="out"/>
<feColorMatrix type="matrix" values="0 0 0 0 0 0 0 0 0 0 0 0 0 0 0 0 0 0 0.15 0"/>
<feBlend mode="normal" in2="BackgroundImageFix" result="effect1_dropShadow_2451_1829"/>
<feBlend mode="normal" in="SourceGraphic" in2="effect1_dropShadow_2451_1829" result="shape"/>
</filter>
</defs>
</svg>
