<svg width="111" height="44" viewBox="0 0 111 44" fill="none" xmlns="http://www.w3.org/2000/svg">
<g filter="url(#filter0_d_2133_578)">
<path d="M16.1263 28.4481C15.6012 28.9255 15.0762 29.2954 14.5511 29.5579C14.026 29.8205 13.5248 30.0114 13.0475 30.1308C12.5701 30.2501 12.1167 30.3217 11.687 30.3456C11.2813 30.3694 10.9233 30.3814 10.613 30.3814C9.53901 30.3814 8.52466 30.1785 7.56997 29.7727C6.63916 29.3431 5.81574 28.7703 5.09973 28.0543C4.40758 27.3144 3.84671 26.4672 3.4171 25.5125C3.01136 24.5339 2.80849 23.4957 2.80849 22.3978C2.80849 21.2999 3.01136 20.2736 3.4171 19.319C3.84671 18.3404 4.40758 17.4931 5.09973 16.7771C5.81574 16.0372 6.63916 15.4644 7.56997 15.0587C8.52466 14.6291 9.53901 14.4143 10.613 14.4143C10.9233 14.4143 11.2813 14.4262 11.687 14.4501C12.1167 14.4739 12.5701 14.5455 13.0475 14.6649C13.5248 14.7842 14.026 14.9752 14.5511 15.2377C15.0762 15.5002 15.6012 15.8702 16.1263 16.3475V8.57878H19.6348V29.9875H16.1263V28.4481ZM11.1858 27.0877C11.878 27.0877 12.5224 26.9803 13.1191 26.7655C13.7157 26.5268 14.2289 26.2046 14.6585 25.7989C15.112 25.3693 15.47 24.8681 15.7325 24.2953C15.9951 23.7224 16.1263 23.09 16.1263 22.3978C16.1263 21.7057 15.9951 21.0732 15.7325 20.5004C15.47 19.9276 15.112 19.4383 14.6585 19.0326C14.2289 18.603 13.7157 18.2807 13.1191 18.0659C12.5224 17.8273 11.878 17.7079 11.1858 17.7079C10.5176 17.7079 9.88508 17.8273 9.2884 18.0659C8.69172 18.2807 8.16665 18.603 7.71317 19.0326C7.28357 19.4383 6.93749 19.9276 6.67496 20.5004C6.43629 21.0732 6.31695 21.7057 6.31695 22.3978C6.31695 23.09 6.43629 23.7224 6.67496 24.2953C6.93749 24.8681 7.28357 25.3693 7.71317 25.7989C8.16665 26.2046 8.69172 26.5268 9.2884 26.7655C9.88508 26.9803 10.5176 27.0877 11.1858 27.0877Z" fill="white"/>
</g>
<g filter="url(#filter1_d_2133_578)">
<path d="M34.6673 23.9014H22.5667C22.7576 24.5459 23.0202 25.0709 23.3543 25.4767C23.6885 25.8824 24.0584 26.2046 24.4641 26.4433C24.8937 26.682 25.3353 26.849 25.7888 26.9445C26.2422 27.04 26.6838 27.0877 27.1134 27.0877C27.4953 27.0877 27.901 27.0519 28.3306 26.9803C28.7363 26.9326 29.154 26.849 29.5836 26.7297C30.0132 26.6104 30.4548 26.4433 30.9082 26.2285L32.8773 29.0209C32.3283 29.2835 31.7436 29.5102 31.123 29.7011C30.5502 29.8921 29.9178 30.0472 29.2256 30.1666C28.5573 30.3098 27.8413 30.3814 27.0776 30.3814C25.932 30.3814 24.8699 30.1904 23.8913 29.8085C22.9128 29.4267 22.0655 28.8897 21.3495 28.1975C20.6335 27.4815 20.0726 26.6342 19.6669 25.6557C19.2611 24.6771 19.0582 23.5912 19.0582 22.3978C19.0582 21.2999 19.2492 20.2736 19.6311 19.319C20.0129 18.3404 20.5499 17.4931 21.2421 16.7771C21.9342 16.0372 22.7576 15.4644 23.7123 15.0587C24.667 14.6291 25.7172 14.4143 26.8628 14.4143C27.8652 14.4143 28.8318 14.5933 29.7626 14.9513C30.6934 15.2854 31.5169 15.8105 32.2329 16.5265C32.9727 17.2187 33.5575 18.0898 33.9871 19.14C34.4406 20.1662 34.6673 21.3596 34.6673 22.72V23.9014ZM26.8628 17.7079C26.0274 17.7079 25.1921 17.9585 24.3567 18.4597C23.5214 18.961 22.9366 19.7724 22.6025 20.8942H31.123C30.8128 19.7724 30.228 18.961 29.3688 18.4597C28.5335 17.9585 27.6981 17.7079 26.8628 17.7079ZM25.1085 12.7675L27.543 8.25657H31.5527L28.5812 12.7675H25.1085Z" fill="white"/>
</g>
<g filter="url(#filter2_d_2133_578)">
<path d="M42.7619 29.9875H38.5374L32.5587 14.8081H36.3894L40.6496 26.0853L44.9099 14.8081H48.7406L42.7619 29.9875Z" fill="white"/>
</g>
<g filter="url(#filter3_d_2133_578)">
<path d="M93.597 31.7418C93.1913 32.7203 92.7259 33.496 92.2008 34.0688C91.6996 34.6655 91.1626 35.119 90.5898 35.4292C90.0408 35.7634 89.48 35.9782 88.9072 36.0737C88.3343 36.193 87.7735 36.2527 87.2245 36.2527C86.7233 36.2527 86.3295 36.2527 86.0431 36.2527C85.7567 36.2527 85.518 36.2407 85.3271 36.2169V33.0306C85.4703 33.0783 85.6254 33.1022 85.7925 33.1022C85.9834 33.1022 86.1863 33.1022 86.4011 33.1022C87.3081 33.1022 88.1076 32.9709 88.7998 32.7084C89.5158 32.4459 90.0289 31.7895 90.3392 30.7394L84.0741 14.8081H87.9047L92.165 26.0853L96.4253 14.8081H100.256L93.597 31.7418Z" fill="white"/>
</g>
<g filter="url(#filter4_d_2133_578)">
<path d="M63.7867 8.57878H67.2952V29.9875H63.7867V8.57878Z" fill="white"/>
</g>
<g filter="url(#filter5_d_2133_578)">
<path d="M69.5108 8.57878H73.0193V29.9875H69.5108V8.57878Z" fill="white"/>
</g>
<g filter="url(#filter6_d_2133_578)">
<path d="M57.9184 28.4481C57.3934 28.9255 56.8683 29.2954 56.3432 29.5579C55.8181 29.8205 55.3169 30.0114 54.8396 30.1308C54.3622 30.2501 53.9088 30.3217 53.4792 30.3456C53.0734 30.3694 52.7154 30.3814 52.4051 30.3814C51.3311 30.3814 50.3168 30.1785 49.3621 29.7727C48.4313 29.3431 47.6079 28.7703 46.8918 28.0543C46.1997 27.3144 45.6388 26.4672 45.2092 25.5125C44.8035 24.5339 44.6006 23.4957 44.6006 22.3978C44.6006 21.2999 44.8035 20.2736 45.2092 19.319C45.6388 18.3404 46.1997 17.4931 46.8918 16.7771C47.6079 16.0372 48.4313 15.4644 49.3621 15.0587C50.3168 14.6291 51.3311 14.4143 52.4051 14.4143C52.7154 14.4143 53.0734 14.4262 53.4792 14.4501C53.9088 14.4739 54.3622 14.5455 54.8396 14.6649C55.3169 14.7842 55.8181 14.9752 56.3432 15.2377C56.8683 15.5002 57.3934 15.8702 57.9184 16.3475V14.8081H61.4269V29.9875H57.9184V28.4481ZM52.9779 27.0877C53.6701 27.0877 54.3145 26.9803 54.9112 26.7655C55.5079 26.5268 56.021 26.2046 56.4506 25.7989C56.9041 25.3693 57.2621 24.8681 57.5246 24.2953C57.7872 23.7224 57.9184 23.09 57.9184 22.3978C57.9184 21.7057 57.7872 21.0732 57.5246 20.5004C57.2621 19.9276 56.9041 19.4383 56.4506 19.0326C56.021 18.603 55.5079 18.2807 54.9112 18.0659C54.3145 17.8273 53.6701 17.7079 52.9779 17.7079C52.3097 17.7079 51.6772 17.8273 51.0805 18.0659C50.4838 18.2807 49.9588 18.603 49.5053 19.0326C49.0757 19.4383 48.7296 19.9276 48.4671 20.5004C48.2284 21.0732 48.1091 21.7057 48.1091 22.3978C48.1091 23.09 48.2284 23.7224 48.4671 24.2953C48.7296 24.8681 49.0757 25.3693 49.5053 25.7989C49.9588 26.2046 50.4838 26.5268 51.0805 26.7655C51.6772 26.9803 52.3097 27.0877 52.9779 27.0877Z" fill="white"/>
</g>
<g filter="url(#filter7_d_2133_578)">
<path d="M87.2045 23.9014H75.1039C75.2949 24.5459 75.5574 25.0709 75.8915 25.4767C76.2257 25.8824 76.5956 26.2046 77.0014 26.4433C77.431 26.682 77.8725 26.849 78.326 26.9445C78.7795 27.04 79.221 27.0877 79.6506 27.0877C80.0325 27.0877 80.4382 27.0519 80.8678 26.9803C81.2736 26.9326 81.6912 26.849 82.1209 26.7297C82.5505 26.6104 82.992 26.4433 83.4455 26.2285L85.4145 29.0209C84.8656 29.2835 84.2808 29.5102 83.6603 29.7011C83.0875 29.8921 82.455 30.0472 81.7628 30.1666C81.0946 30.3098 80.3786 30.3814 79.6148 30.3814C78.4692 30.3814 77.4071 30.1904 76.4286 29.8085C75.45 29.4267 74.6027 28.8897 73.8867 28.1975C73.1707 27.4815 72.6098 26.6342 72.2041 25.6557C71.7983 24.6771 71.5955 23.5912 71.5955 22.3978C71.5955 21.2999 71.7864 20.2736 72.1683 19.319C72.5502 18.3404 73.0872 17.4931 73.7793 16.7771C74.4715 16.0372 75.2949 15.4644 76.2496 15.0587C77.2042 14.6291 78.2544 14.4143 79.4 14.4143C80.4024 14.4143 81.369 14.5933 82.2999 14.9513C83.2307 15.2854 84.0541 15.8105 84.7701 16.5265C85.51 17.2187 86.0947 18.0898 86.5243 19.14C86.9778 20.1662 87.2045 21.3596 87.2045 22.72V23.9014ZM79.4 17.7079C78.5647 17.7079 77.7293 17.9585 76.894 18.4597C76.0586 18.961 75.4739 19.7724 75.1397 20.8942H83.6603C83.35 19.7724 82.7653 18.961 81.9061 18.4597C81.0707 17.9585 80.2354 17.7079 79.4 17.7079Z" fill="white"/>
</g>
<path d="M3.4573 40.1624L1.38732 34.7392H2.21156L4.00055 39.4224L5.78954 34.7392H6.61379L4.54381 40.1624H3.4573ZM14.0906 39.4599V40.1624H10.5314V34.7392H14.0906V35.4417H11.2994V37.1651H13.8846V37.8676H11.2994V39.4599H14.0906ZM22.1824 34.7392H22.9504V40.1624H22.173L19.0165 35.9943V40.1624H18.2484V34.7392H19.0259L22.1824 38.8979V34.7392ZM27.0211 35.4417V34.7392H31.4046V35.4417H29.5968V40.1624H28.8288V35.4417H27.0211ZM37.6203 40.2654C37.6016 40.2654 37.5329 40.2623 37.4142 40.256C37.2956 40.2498 37.1551 40.2248 36.9927 40.1811C36.8304 40.1436 36.6556 40.0812 36.4682 39.9938C36.2871 39.9063 36.1185 39.7815 35.9624 39.6191C35.8063 39.4567 35.6752 39.2507 35.569 39.0009C35.4691 38.7511 35.4192 38.4452 35.4192 38.083V34.7392H36.1872V38.083C36.1872 38.1392 36.1966 38.2485 36.2153 38.4108C36.2341 38.5732 36.2903 38.7418 36.3839 38.9166C36.4776 39.0852 36.6212 39.2351 36.8148 39.3662C37.0084 39.4973 37.2769 39.5629 37.6203 39.5629C37.97 39.5629 38.2385 39.4973 38.4258 39.3662C38.6194 39.2351 38.763 39.0852 38.8567 38.9166C38.9503 38.7418 39.0065 38.5732 39.0253 38.4108C39.044 38.2485 39.0534 38.1392 39.0534 38.083V34.7392H39.8214V38.083C39.8214 38.4452 39.7683 38.7511 39.6622 39.0009C39.5623 39.2507 39.4343 39.4567 39.2782 39.6191C39.122 39.7815 38.9503 39.9063 38.763 39.9938C38.5819 40.0812 38.4102 40.1436 38.2478 40.1811C38.0855 40.2248 37.945 40.2498 37.8264 40.256C37.7077 40.2623 37.639 40.2654 37.6203 40.2654ZM48.1169 36.6125C48.1169 36.9309 48.0731 37.1994 47.9857 37.418C47.8983 37.6303 47.789 37.8051 47.6579 37.9425C47.5268 38.0799 47.38 38.186 47.2177 38.261C47.0616 38.3359 46.9117 38.3921 46.7681 38.4296L48.1169 40.1624H47.2364L45.9345 38.4951H44.8386V40.1624H44.0706V34.7392H46.1593C46.2092 34.7392 46.2904 34.7423 46.4028 34.7486C46.5152 34.7548 46.6432 34.7766 46.7868 34.8141C46.9367 34.8516 47.0897 34.9078 47.2458 34.9827C47.4019 35.0576 47.5424 35.1638 47.6673 35.3012C47.7984 35.4385 47.9045 35.6134 47.9857 35.8257C48.0731 36.038 48.1169 36.3003 48.1169 36.6125ZM44.8386 37.7926H46.178C46.3466 37.7926 46.4996 37.7739 46.637 37.7364C46.7806 37.6927 46.9055 37.6272 47.0116 37.5398C47.1178 37.4461 47.1989 37.3243 47.2551 37.1745C47.3176 37.0246 47.3488 36.8404 47.3488 36.6218C47.3488 36.4033 47.3176 36.2191 47.2551 36.0692C47.1989 35.9194 47.1178 35.7976 47.0116 35.7039C46.9055 35.6103 46.7806 35.5447 46.637 35.5072C46.4996 35.4635 46.3466 35.4417 46.178 35.4417H44.8386V37.7926ZM55.5938 39.4599V40.1624H52.0346V34.7392H55.5938V35.4417H52.8026V37.1651H55.3878V37.8676H52.8026V39.4599H55.5938ZM61.5687 40.2654C61.269 40.2654 61.0068 40.2342 60.782 40.1717C60.5572 40.1093 60.3605 40.0343 60.1919 39.9469C60.0295 39.8533 59.8922 39.7534 59.7798 39.6472C59.6674 39.5348 59.5768 39.4318 59.5081 39.3381L60.0608 38.8979C60.1294 38.9728 60.2169 39.0509 60.323 39.132C60.4292 39.207 60.5478 39.2788 60.6789 39.3475C60.8163 39.4099 60.9631 39.463 61.1192 39.5067C61.2753 39.5442 61.4407 39.5629 61.6156 39.5629C61.8654 39.5629 62.0652 39.5286 62.215 39.4599C62.3711 39.3912 62.4898 39.3131 62.571 39.2257C62.6584 39.132 62.7177 39.0415 62.7489 38.9541C62.7801 38.8604 62.7958 38.7949 62.7958 38.7574C62.7958 38.5701 62.7177 38.4202 62.5616 38.3078C62.4055 38.1954 62.2088 38.0955 61.9715 38.0081C61.7342 37.9207 61.4782 37.8332 61.2035 37.7458C60.935 37.6584 60.6821 37.546 60.4448 37.4086C60.2075 37.2712 60.0108 37.0964 59.8547 36.8841C59.6986 36.6718 59.6205 36.397 59.6205 36.0599C59.6205 35.935 59.6455 35.7913 59.6955 35.629C59.7517 35.4666 59.8453 35.3137 59.9765 35.17C60.1138 35.0202 60.3012 34.8953 60.5384 34.7954C60.7757 34.6955 61.0817 34.6455 61.4564 34.6455C61.7249 34.6455 61.9621 34.6736 62.1682 34.7298C62.3743 34.786 62.5522 34.8547 62.7021 34.9359C62.852 35.0171 62.9768 35.1045 63.0767 35.1981C63.1767 35.2918 63.2547 35.3761 63.3109 35.451C63.2048 35.5197 63.1142 35.5884 63.0393 35.6571C62.9643 35.7195 62.8769 35.7851 62.777 35.8538C62.5959 35.6727 62.3774 35.5447 62.1214 35.4698C61.8716 35.3886 61.6281 35.348 61.3908 35.348C61.2597 35.348 61.1348 35.3636 61.0161 35.3948C60.8975 35.4261 60.7913 35.476 60.6977 35.5447C60.604 35.6071 60.5291 35.6883 60.4729 35.7882C60.4167 35.8819 60.3886 35.9943 60.3886 36.1254C60.3886 36.3565 60.4666 36.5375 60.6227 36.6687C60.7788 36.7998 60.9755 36.9122 61.2128 37.0059C61.4501 37.0995 61.703 37.1869 61.9715 37.2681C62.2463 37.3431 62.5023 37.443 62.7396 37.5678C62.9768 37.6927 63.1735 37.852 63.3296 38.0455C63.4857 38.2391 63.5638 38.4982 63.5638 38.823C63.5638 38.9478 63.5295 39.0946 63.4608 39.2632C63.3983 39.4255 63.2891 39.5816 63.1329 39.7315C62.9831 39.8814 62.7801 40.0094 62.5241 40.1155C62.2681 40.2154 61.9497 40.2654 61.5687 40.2654Z" fill="white"/>
<path d="M73.0937 38.7949H72.5691L72.0071 38.0736H71.4171V38.7949H70.9581V36.1629H71.951C72.0259 36.1629 72.1258 36.1691 72.2507 36.1816C72.3756 36.1879 72.4942 36.2191 72.6066 36.2753C72.7252 36.3315 72.8252 36.422 72.9063 36.5469C72.9937 36.6655 73.0375 36.8373 73.0375 37.0621C73.0375 37.3618 72.9969 37.5803 72.9157 37.7177C72.8345 37.8488 72.6878 37.9456 72.4755 38.0081L73.0937 38.7949ZM71.4171 37.6521H71.9603C72.1414 37.6521 72.2881 37.6209 72.4005 37.5585C72.5192 37.4898 72.5785 37.3493 72.5785 37.137C72.5785 37.0121 72.5598 36.9153 72.5223 36.8466C72.4848 36.7779 72.4349 36.7249 72.3724 36.6874C72.3162 36.6499 72.2507 36.6281 72.1757 36.6218C72.1008 36.6094 72.029 36.6031 71.9603 36.6031H71.4171V37.6521ZM71.951 34.6455C72.3381 34.6455 72.7003 34.7205 73.0375 34.8703C73.3809 35.0139 73.6806 35.2138 73.9366 35.4698C74.1927 35.7195 74.3925 36.0161 74.5361 36.3596C74.686 36.703 74.7609 37.0683 74.7609 37.4555C74.7609 37.8426 74.686 38.2079 74.5361 38.5513C74.3925 38.8948 74.1927 39.1945 73.9366 39.4505C73.6806 39.7003 73.3809 39.9001 73.0375 40.05C72.7003 40.1936 72.3381 40.2654 71.951 40.2654C71.5638 40.2654 71.1985 40.1936 70.8551 40.05C70.5116 39.9001 70.2119 39.7003 69.9559 39.4505C69.6999 39.1945 69.4969 38.8948 69.3471 38.5513C69.2035 38.2079 69.1317 37.8426 69.1317 37.4555C69.1317 37.0683 69.2035 36.703 69.3471 36.3596C69.4969 36.0161 69.6999 35.7195 69.9559 35.4698C70.2119 35.2138 70.5116 35.0139 70.8551 34.8703C71.1985 34.7205 71.5638 34.6455 71.951 34.6455ZM71.951 39.9095C72.2881 39.9095 72.6066 39.847 72.9063 39.7221C73.2061 39.591 73.4652 39.4162 73.6837 39.1976C73.9085 38.9728 74.0834 38.7106 74.2083 38.4108C74.3394 38.1111 74.405 37.7926 74.405 37.4555C74.405 37.1183 74.3394 36.7998 74.2083 36.5001C74.0834 36.2003 73.9085 35.9412 73.6837 35.7227C73.4652 35.4979 73.2061 35.323 72.9063 35.1981C72.6066 35.067 72.2881 35.0014 71.951 35.0014C71.6075 35.0014 71.2859 35.067 70.9862 35.1981C70.6927 35.323 70.4336 35.4979 70.2088 35.7227C69.9902 35.9412 69.8154 36.2003 69.6843 36.5001C69.5594 36.7998 69.4969 37.1183 69.4969 37.4555C69.4969 37.7926 69.5594 38.1111 69.6843 38.4108C69.8154 38.7106 69.9902 38.9728 70.2088 39.1976C70.4336 39.4162 70.6927 39.591 70.9862 39.7221C71.2859 39.847 71.6075 39.9095 71.951 39.9095Z" fill="white"/>
<path d="M105.757 12.547H106.272V10.5235H107.077V9.94775H104.936V10.5235H105.757V12.547ZM110.358 10.7247V12.547H110.872V9.94775H110.313L109.318 11.2222L108.323 9.94775H107.759V12.547H108.278V10.7247L109.273 11.988H109.363L110.358 10.7247Z" fill="white"/>
<defs>
<filter id="filter0_d_2133_578" x="0.727286" y="8.57886" width="20.9887" height="25.9649" filterUnits="userSpaceOnUse" color-interpolation-filters="sRGB">
<feFlood flood-opacity="0" result="BackgroundImageFix"/>
<feColorMatrix in="SourceAlpha" type="matrix" values="0 0 0 0 0 0 0 0 0 0 0 0 0 0 0 0 0 0 127 0" result="hardAlpha"/>
<feOffset dy="2.08119"/>
<feGaussianBlur stdDeviation="1.04059"/>
<feComposite in2="hardAlpha" operator="out"/>
<feColorMatrix type="matrix" values="0 0 0 0 0 0 0 0 0 0 0 0 0 0 0 0 0 0 0.15 0"/>
<feBlend mode="normal" in2="BackgroundImageFix" result="effect1_dropShadow_2133_578"/>
<feBlend mode="normal" in="SourceGraphic" in2="effect1_dropShadow_2133_578" result="shape"/>
</filter>
<filter id="filter1_d_2133_578" x="16.977" y="8.25659" width="19.7715" height="26.2871" filterUnits="userSpaceOnUse" color-interpolation-filters="sRGB">
<feFlood flood-opacity="0" result="BackgroundImageFix"/>
<feColorMatrix in="SourceAlpha" type="matrix" values="0 0 0 0 0 0 0 0 0 0 0 0 0 0 0 0 0 0 127 0" result="hardAlpha"/>
<feOffset dy="2.08119"/>
<feGaussianBlur stdDeviation="1.04059"/>
<feComposite in2="hardAlpha" operator="out"/>
<feColorMatrix type="matrix" values="0 0 0 0 0 0 0 0 0 0 0 0 0 0 0 0 0 0 0.15 0"/>
<feBlend mode="normal" in2="BackgroundImageFix" result="effect1_dropShadow_2133_578"/>
<feBlend mode="normal" in="SourceGraphic" in2="effect1_dropShadow_2133_578" result="shape"/>
</filter>
<filter id="filter2_d_2133_578" x="30.4775" y="14.8081" width="20.3443" height="19.3418" filterUnits="userSpaceOnUse" color-interpolation-filters="sRGB">
<feFlood flood-opacity="0" result="BackgroundImageFix"/>
<feColorMatrix in="SourceAlpha" type="matrix" values="0 0 0 0 0 0 0 0 0 0 0 0 0 0 0 0 0 0 127 0" result="hardAlpha"/>
<feOffset dy="2.08119"/>
<feGaussianBlur stdDeviation="1.04059"/>
<feComposite in2="hardAlpha" operator="out"/>
<feColorMatrix type="matrix" values="0 0 0 0 0 0 0 0 0 0 0 0 0 0 0 0 0 0 0.15 0"/>
<feBlend mode="normal" in2="BackgroundImageFix" result="effect1_dropShadow_2133_578"/>
<feBlend mode="normal" in="SourceGraphic" in2="effect1_dropShadow_2133_578" result="shape"/>
</filter>
<filter id="filter3_d_2133_578" x="81.9929" y="14.8081" width="20.3443" height="25.607" filterUnits="userSpaceOnUse" color-interpolation-filters="sRGB">
<feFlood flood-opacity="0" result="BackgroundImageFix"/>
<feColorMatrix in="SourceAlpha" type="matrix" values="0 0 0 0 0 0 0 0 0 0 0 0 0 0 0 0 0 0 127 0" result="hardAlpha"/>
<feOffset dy="2.08119"/>
<feGaussianBlur stdDeviation="1.04059"/>
<feComposite in2="hardAlpha" operator="out"/>
<feColorMatrix type="matrix" values="0 0 0 0 0 0 0 0 0 0 0 0 0 0 0 0 0 0 0.15 0"/>
<feBlend mode="normal" in2="BackgroundImageFix" result="effect1_dropShadow_2133_578"/>
<feBlend mode="normal" in="SourceGraphic" in2="effect1_dropShadow_2133_578" result="shape"/>
</filter>
<filter id="filter4_d_2133_578" x="61.7056" y="8.57886" width="7.67079" height="25.5711" filterUnits="userSpaceOnUse" color-interpolation-filters="sRGB">
<feFlood flood-opacity="0" result="BackgroundImageFix"/>
<feColorMatrix in="SourceAlpha" type="matrix" values="0 0 0 0 0 0 0 0 0 0 0 0 0 0 0 0 0 0 127 0" result="hardAlpha"/>
<feOffset dy="2.08119"/>
<feGaussianBlur stdDeviation="1.04059"/>
<feComposite in2="hardAlpha" operator="out"/>
<feColorMatrix type="matrix" values="0 0 0 0 0 0 0 0 0 0 0 0 0 0 0 0 0 0 0.15 0"/>
<feBlend mode="normal" in2="BackgroundImageFix" result="effect1_dropShadow_2133_578"/>
<feBlend mode="normal" in="SourceGraphic" in2="effect1_dropShadow_2133_578" result="shape"/>
</filter>
<filter id="filter5_d_2133_578" x="67.4297" y="8.57886" width="7.67079" height="25.5711" filterUnits="userSpaceOnUse" color-interpolation-filters="sRGB">
<feFlood flood-opacity="0" result="BackgroundImageFix"/>
<feColorMatrix in="SourceAlpha" type="matrix" values="0 0 0 0 0 0 0 0 0 0 0 0 0 0 0 0 0 0 127 0" result="hardAlpha"/>
<feOffset dy="2.08119"/>
<feGaussianBlur stdDeviation="1.04059"/>
<feComposite in2="hardAlpha" operator="out"/>
<feColorMatrix type="matrix" values="0 0 0 0 0 0 0 0 0 0 0 0 0 0 0 0 0 0 0.15 0"/>
<feBlend mode="normal" in2="BackgroundImageFix" result="effect1_dropShadow_2133_578"/>
<feBlend mode="normal" in="SourceGraphic" in2="effect1_dropShadow_2133_578" result="shape"/>
</filter>
<filter id="filter6_d_2133_578" x="42.5194" y="14.4143" width="20.9887" height="20.1294" filterUnits="userSpaceOnUse" color-interpolation-filters="sRGB">
<feFlood flood-opacity="0" result="BackgroundImageFix"/>
<feColorMatrix in="SourceAlpha" type="matrix" values="0 0 0 0 0 0 0 0 0 0 0 0 0 0 0 0 0 0 127 0" result="hardAlpha"/>
<feOffset dy="2.08119"/>
<feGaussianBlur stdDeviation="1.04059"/>
<feComposite in2="hardAlpha" operator="out"/>
<feColorMatrix type="matrix" values="0 0 0 0 0 0 0 0 0 0 0 0 0 0 0 0 0 0 0.15 0"/>
<feBlend mode="normal" in2="BackgroundImageFix" result="effect1_dropShadow_2133_578"/>
<feBlend mode="normal" in="SourceGraphic" in2="effect1_dropShadow_2133_578" result="shape"/>
</filter>
<filter id="filter7_d_2133_578" x="69.5143" y="14.4143" width="19.7715" height="20.1294" filterUnits="userSpaceOnUse" color-interpolation-filters="sRGB">
<feFlood flood-opacity="0" result="BackgroundImageFix"/>
<feColorMatrix in="SourceAlpha" type="matrix" values="0 0 0 0 0 0 0 0 0 0 0 0 0 0 0 0 0 0 127 0" result="hardAlpha"/>
<feOffset dy="2.08119"/>
<feGaussianBlur stdDeviation="1.04059"/>
<feComposite in2="hardAlpha" operator="out"/>
<feColorMatrix type="matrix" values="0 0 0 0 0 0 0 0 0 0 0 0 0 0 0 0 0 0 0.15 0"/>
<feBlend mode="normal" in2="BackgroundImageFix" result="effect1_dropShadow_2133_578"/>
<feBlend mode="normal" in="SourceGraphic" in2="effect1_dropShadow_2133_578" result="shape"/>
</filter>
</defs>
</svg>
