<svg width="126" height="44" viewBox="0 0 126 44" fill="none" xmlns="http://www.w3.org/2000/svg">
<g filter="url(#filter0_d_2133_594)">
<path d="M16.2175 29.2809C15.6924 29.7582 15.1674 30.1282 14.6423 30.3907C14.1172 30.6532 13.616 30.8442 13.1387 30.9635C12.6613 31.0829 12.2078 31.1545 11.7782 31.1783C11.3725 31.2022 11.0145 31.2141 10.7042 31.2141C9.63019 31.2141 8.61584 31.0112 7.66116 30.6055C6.73034 30.1759 5.90693 29.6031 5.19092 28.8871C4.49877 28.1472 3.93789 27.2999 3.50829 26.3452C3.10255 25.3667 2.89968 24.3285 2.89968 23.2306C2.89968 22.1327 3.10255 21.1064 3.50829 20.1517C3.93789 19.1732 4.49877 18.3259 5.19092 17.6099C5.90693 16.87 6.73034 16.2972 7.66116 15.8915C8.61584 15.4618 9.63019 15.247 10.7042 15.247C11.0145 15.247 11.3725 15.259 11.7782 15.2828C12.2078 15.3067 12.6613 15.3783 13.1387 15.4976C13.616 15.617 14.1172 15.8079 14.6423 16.0705C15.1674 16.333 15.6924 16.7029 16.2175 17.1803V9.41154H19.726V30.8203H16.2175V29.2809ZM11.277 27.9205C11.9692 27.9205 12.6136 27.8131 13.2103 27.5983C13.8069 27.3596 14.3201 27.0374 14.7497 26.6316C15.2032 26.202 15.5612 25.7008 15.8237 25.128C16.0862 24.5552 16.2175 23.9227 16.2175 23.2306C16.2175 22.5384 16.0862 21.906 15.8237 21.3331C15.5612 20.7603 15.2032 20.2711 14.7497 19.8653C14.3201 19.4357 13.8069 19.1135 13.2103 18.8987C12.6136 18.66 11.9692 18.5407 11.277 18.5407C10.6087 18.5407 9.97626 18.66 9.37959 18.8987C8.78291 19.1135 8.25784 19.4357 7.80436 19.8653C7.37475 20.2711 7.02868 20.7603 6.76614 21.3331C6.52747 21.906 6.40814 22.5384 6.40814 23.2306C6.40814 23.9227 6.52747 24.5552 6.76614 25.128C7.02868 25.7008 7.37475 26.202 7.80436 26.6316C8.25784 27.0374 8.78291 27.3596 9.37959 27.5983C9.97626 27.8131 10.6087 27.9205 11.277 27.9205Z" fill="white"/>
</g>
<g filter="url(#filter1_d_2133_594)">
<path d="M34.7586 24.7342H22.658C22.8489 25.3786 23.1115 25.9037 23.4456 26.3094C23.7798 26.7152 24.1497 27.0374 24.5554 27.2761C24.9851 27.5147 25.4266 27.6818 25.8801 27.7773C26.3335 27.8727 26.7751 27.9205 27.2047 27.9205C27.5866 27.9205 27.9923 27.8847 28.4219 27.8131C28.8277 27.7653 29.2453 27.6818 29.6749 27.5625C30.1045 27.4431 30.5461 27.2761 30.9996 27.0612L32.9686 29.8537C32.4196 30.1162 31.8349 30.343 31.2144 30.5339C30.6415 30.7248 30.0091 30.88 29.3169 30.9993C28.6486 31.1425 27.9326 31.2141 27.1689 31.2141C26.0233 31.2141 24.9612 31.0232 23.9826 30.6413C23.0041 30.2594 22.1568 29.7224 21.4408 29.0303C20.7248 28.3143 20.1639 27.467 19.7582 26.4884C19.3524 25.5099 19.1495 24.4239 19.1495 23.2306C19.1495 22.1327 19.3405 21.1064 19.7224 20.1517C20.1042 19.1732 20.6412 18.3259 21.3334 17.6099C22.0255 16.87 22.8489 16.2972 23.8036 15.8915C24.7583 15.4618 25.8085 15.247 26.9541 15.247C27.9565 15.247 28.9231 15.426 29.8539 15.7841C30.7848 16.1182 31.6082 16.6433 32.3242 17.3593C33.0641 18.0514 33.6488 18.9226 34.0784 19.9727C34.5319 20.999 34.7586 22.1924 34.7586 23.5528V24.7342ZM26.9541 18.5407C26.1187 18.5407 25.2834 18.7913 24.448 19.2925C23.6127 19.7937 23.0279 20.6052 22.6938 21.727H31.2144C30.9041 20.6052 30.3193 19.7937 29.4601 19.2925C28.6248 18.7913 27.7894 18.5407 26.9541 18.5407ZM25.1999 13.6002L27.6343 9.08934H31.644L28.6725 13.6002H25.1999Z" fill="white"/>
</g>
<g filter="url(#filter2_d_2133_594)">
<path d="M42.4457 30.8203H38.2212L32.2425 15.6408H36.0732L40.3335 26.918L44.5937 15.6408H48.4244L42.4457 30.8203Z" fill="white"/>
</g>
<g filter="url(#filter3_d_2133_594)">
<path d="M49.0457 14.8262H52.5542V30.0056H49.0457V14.8262ZM48.7593 11.3893C48.7593 10.8165 48.9622 10.3272 49.3679 9.92147C49.7737 9.49186 50.251 9.27706 50.8 9.27706C51.3728 9.27706 51.862 9.49186 52.2678 9.92147C52.6974 10.3272 52.9122 10.8165 52.9122 11.3893C52.9122 11.9382 52.6974 12.4156 52.2678 12.8213C51.862 13.2271 51.3728 13.4299 50.8 13.4299C50.251 13.4299 49.7737 13.2271 49.3679 12.8213C48.9622 12.4156 48.7593 11.9382 48.7593 11.3893Z" fill="white"/>
</g>
<g filter="url(#filter4_d_2133_594)">
<path d="M64.0924 21.5209C64.0924 21.2345 64.0686 20.8765 64.0208 20.4468C63.9731 20.0172 63.8299 19.5996 63.5912 19.1938C63.3764 18.7881 63.0423 18.442 62.5888 18.1556C62.1353 17.8692 61.4909 17.726 60.6556 17.726C59.9157 17.726 59.2951 17.8931 58.7939 18.2272C58.2927 18.5375 57.8989 18.9194 57.6125 19.3728C57.3261 19.8024 57.1232 20.2559 57.0039 20.7333C56.8846 21.1867 56.8249 21.5447 56.8249 21.8073V30.0056H53.3164V14.8262H56.8249V16.3656C57.2306 15.8882 57.6841 15.5183 58.1853 15.2558C58.7104 14.9932 59.1997 14.8023 59.6531 14.6829C60.1305 14.5636 60.5362 14.492 60.8704 14.4681C61.2284 14.4443 61.4312 14.4323 61.479 14.4323C63.0065 14.4323 64.1879 14.7188 65.0232 15.2916C65.8586 15.8644 66.4672 16.4968 66.8491 17.189C67.2309 17.8811 67.4458 18.5255 67.4935 19.1222C67.5651 19.7189 67.6009 20.053 67.6009 20.1246V30.0056H64.0924V21.5209Z" fill="white"/>
</g>
<g filter="url(#filter5_d_2133_594)">
<path d="M66.698 22.4159C66.698 21.318 66.9128 20.2917 67.3424 19.337C67.772 18.3585 68.3448 17.5112 69.0608 16.7952C69.8007 16.0553 70.6719 15.4825 71.6743 15.0768C72.6767 14.6471 73.7507 14.4323 74.8963 14.4323C75.8271 14.4323 76.7102 14.5636 77.5456 14.8262C78.3809 15.0887 79.1327 15.4706 79.801 15.9718C80.4932 16.4491 81.0898 17.0458 81.591 17.7618C82.1161 18.4778 82.498 19.2893 82.7367 20.1962H79.0134C78.6793 19.3609 78.1303 18.7404 77.3666 18.3346C76.6267 17.9289 75.7794 17.726 74.8247 17.726C74.2042 17.726 73.6075 17.8453 73.0347 18.084C72.4858 18.3227 71.9965 18.6449 71.5669 19.0506C71.1611 19.4564 70.827 19.9456 70.5645 20.5185C70.3258 21.0913 70.2064 21.7237 70.2064 22.4159C70.2064 23.0842 70.3258 23.7166 70.5645 24.3133C70.827 24.8861 71.1611 25.3754 71.5669 25.7811C71.9965 26.1869 72.4858 26.5091 73.0347 26.7478C73.6075 26.9864 74.2042 27.1058 74.8247 27.1058C75.7794 27.1058 76.6267 26.9029 77.3666 26.4972C78.1303 26.0914 78.6793 25.4709 79.0134 24.6355H82.7367C82.498 25.5425 82.1161 26.354 81.591 27.07C81.0898 27.786 80.4932 28.3946 79.801 28.8958C79.1327 29.3731 78.3809 29.7431 77.5456 30.0056C76.7102 30.2682 75.8271 30.3994 74.8963 30.3994C73.7507 30.3994 72.6767 30.1966 71.6743 29.7908C70.6719 29.3612 69.8007 28.7884 69.0608 28.0724C68.3448 27.3325 67.772 26.4852 67.3424 25.5305C66.9128 24.552 66.698 23.5138 66.698 22.4159Z" fill="white"/>
</g>
<g filter="url(#filter6_d_2133_594)">
<path d="M83.6641 14.8262H87.1726V30.0056H83.6641V14.8262ZM83.3777 11.3893C83.3777 10.8165 83.5806 10.3272 83.9863 9.92147C84.3921 9.49186 84.8694 9.27706 85.4184 9.27706C85.9912 9.27706 86.4805 9.49186 86.8862 9.92147C87.3158 10.3272 87.5306 10.8165 87.5306 11.3893C87.5306 11.9382 87.3158 12.4156 86.8862 12.8213C86.4805 13.2271 85.9912 13.4299 85.4184 13.4299C84.8694 13.4299 84.3921 13.2271 83.9863 12.8213C83.5806 12.4156 83.3777 11.9382 83.3777 11.3893Z" fill="white"/>
</g>
<g filter="url(#filter7_d_2133_594)">
<path d="M90.9525 30.0056H87.4441V8.59684H90.9525V16.3656C91.4776 15.8882 92.0027 15.5183 92.5277 15.2558C93.0528 14.9932 93.554 14.8023 94.0314 14.6829C94.5087 14.5636 94.9503 14.492 95.356 14.4681C95.7856 14.4443 96.1555 14.4323 96.4658 14.4323C97.5398 14.4323 98.5422 14.6471 99.4731 15.0768C100.428 15.4825 101.251 16.0553 101.943 16.7952C102.659 17.5112 103.22 18.3585 103.626 19.337C104.056 20.2917 104.27 21.318 104.27 22.4159C104.27 23.5138 104.056 24.552 103.626 25.5305C103.22 26.4852 102.659 27.3325 101.943 28.0724C101.251 28.7884 100.428 29.3612 99.4731 29.7908C98.5422 30.1966 97.5398 30.3994 96.4658 30.3994C96.1555 30.3994 95.7856 30.3875 95.356 30.3636C94.9503 30.3398 94.5087 30.2682 94.0314 30.1488C93.554 30.0295 93.0528 29.8385 92.5277 29.576C92.0027 29.3135 91.4776 28.9435 90.9525 28.4662V30.0056ZM95.893 27.1058C96.5613 27.1058 97.1938 26.9984 97.7904 26.7836C98.3871 26.5449 98.9003 26.2227 99.3299 25.8169C99.7833 25.3873 100.129 24.8861 100.368 24.3133C100.631 23.7405 100.762 23.108 100.762 22.4159C100.762 21.7237 100.631 21.0913 100.368 20.5185C100.129 19.9456 99.7833 19.4564 99.3299 19.0506C98.9003 18.621 98.3871 18.2988 97.7904 18.084C97.1938 17.8453 96.5613 17.726 95.893 17.726C95.2247 17.726 94.5803 17.8453 93.9598 18.084C93.3631 18.2988 92.838 18.621 92.3845 19.0506C91.9549 19.4564 91.6089 19.9456 91.3463 20.5185C91.0838 21.0913 90.9525 21.7237 90.9525 22.4159C90.9525 23.108 91.0838 23.7405 91.3463 24.3133C91.6089 24.8861 91.9549 25.3873 92.3845 25.8169C92.838 26.2227 93.3631 26.5449 93.9598 26.7836C94.5803 26.9984 95.2247 27.1058 95.893 27.1058Z" fill="white"/>
</g>
<g filter="url(#filter8_d_2133_594)">
<path d="M104.843 8.59684H108.351V30.0056H104.843V8.59684Z" fill="white"/>
</g>
<g filter="url(#filter9_d_2133_594)">
<path d="M123.634 23.4759H111.533C111.724 24.1203 111.987 24.6454 112.321 25.0511C112.655 25.4569 113.025 25.7791 113.431 26.0178C113.861 26.2564 114.302 26.4235 114.756 26.519C115.209 26.6144 115.651 26.6622 116.08 26.6622C116.462 26.6622 116.868 26.6264 117.297 26.5548C117.703 26.507 118.121 26.4235 118.55 26.3042C118.98 26.1848 119.422 26.0178 119.875 25.8029L121.844 28.5954C121.295 28.8579 120.71 29.0847 120.09 29.2756C119.517 29.4665 118.885 29.6217 118.192 29.741C117.524 29.8842 116.808 29.9558 116.044 29.9558C114.899 29.9558 113.837 29.7649 112.858 29.383C111.88 29.0011 111.032 28.4641 110.316 27.772C109.6 27.056 109.039 26.2087 108.634 25.2301C108.228 24.2516 108.025 23.1656 108.025 21.9723C108.025 20.8744 108.216 19.8481 108.598 18.8934C108.98 17.9149 109.517 17.0676 110.209 16.3516C110.901 15.6117 111.724 15.0389 112.679 14.6332C113.634 14.2035 114.684 13.9887 115.83 13.9887C116.832 13.9887 117.799 14.1677 118.729 14.5258C119.66 14.8599 120.484 15.385 121.2 16.101C121.94 16.7931 122.524 17.6643 122.954 18.7144C123.407 19.7407 123.634 20.9341 123.634 22.2945V23.4759ZM115.83 17.2824C114.994 17.2824 114.159 17.533 113.324 18.0342C112.488 18.5354 111.903 19.3469 111.569 20.4687H120.09C119.78 19.3469 119.195 18.5354 118.336 18.0342C117.5 17.533 116.665 17.2824 115.83 17.2824Z" fill="white"/>
</g>
<path d="M5.52819 37.0474C5.52819 36.8288 5.49697 36.6446 5.43453 36.4948C5.37833 36.3449 5.29715 36.2231 5.191 36.1295C5.08484 36.0358 4.95996 35.9702 4.81634 35.9328C4.67897 35.8891 4.52598 35.8672 4.35738 35.8672H3.01798V38.2182H4.35738C4.52598 38.2182 4.67897 38.1994 4.81634 38.162C4.95996 38.1183 5.08484 38.0527 5.191 37.9653C5.29715 37.8716 5.37833 37.7499 5.43453 37.6C5.49697 37.4501 5.52819 37.2659 5.52819 37.0474ZM6.29624 37.038C6.29624 37.3502 6.25253 37.6125 6.16511 37.8248C6.08393 38.0371 5.97778 38.2151 5.84665 38.3587C5.72176 38.4961 5.58127 38.6022 5.42516 38.6771C5.26905 38.7521 5.11607 38.8083 4.9662 38.8457C4.82258 38.8832 4.69145 38.9051 4.57281 38.9113C4.46042 38.9175 4.38236 38.9207 4.33865 38.9207H3.01798V40.5879H2.24993V35.1647H4.33865C4.38861 35.1647 4.46978 35.1678 4.58218 35.1741C4.69458 35.1803 4.82258 35.2022 4.9662 35.2397C5.11607 35.2771 5.26905 35.3333 5.42516 35.4082C5.58127 35.4832 5.72176 35.5893 5.84665 35.7267C5.97778 35.8641 6.08393 36.0389 6.16511 36.2512C6.25253 36.4635 6.29624 36.7258 6.29624 37.038ZM14.2786 37.038C14.2786 37.3565 14.2349 37.625 14.1474 37.8435C14.06 38.0558 13.9507 38.2307 13.8196 38.368C13.6885 38.5054 13.5417 38.6116 13.3794 38.6865C13.2233 38.7614 13.0734 38.8176 12.9298 38.8551L14.2786 40.5879H13.3981L12.0962 38.9207H11.0003V40.5879H10.2323V35.1647H12.321C12.3709 35.1647 12.4521 35.1678 12.5645 35.1741C12.6769 35.1803 12.8049 35.2022 12.9485 35.2397C13.0984 35.2771 13.2514 35.3333 13.4075 35.4082C13.5636 35.4832 13.7041 35.5893 13.829 35.7267C13.9601 35.8641 14.0663 36.0389 14.1474 36.2512C14.2349 36.4635 14.2786 36.7258 14.2786 37.038ZM11.0003 38.2182H12.3397C12.5083 38.2182 12.6613 38.1994 12.7987 38.162C12.9423 38.1183 13.0672 38.0527 13.1733 37.9653C13.2795 37.8716 13.3607 37.7499 13.4169 37.6C13.4793 37.4501 13.5105 37.2659 13.5105 37.0474C13.5105 36.8288 13.4793 36.6446 13.4169 36.4948C13.3607 36.3449 13.2795 36.2231 13.1733 36.1295C13.0672 36.0358 12.9423 35.9702 12.7987 35.9328C12.6613 35.8891 12.5083 35.8672 12.3397 35.8672H11.0003V38.2182ZM20.8773 35.0711C21.2769 35.0711 21.6485 35.146 21.9919 35.2959C22.3416 35.4395 22.6444 35.6393 22.9004 35.8953C23.1627 36.1451 23.3688 36.4417 23.5186 36.7851C23.6685 37.1286 23.7434 37.4938 23.7434 37.881C23.7434 38.2681 23.6685 38.6334 23.5186 38.9769C23.3688 39.3203 23.1627 39.62 22.9004 39.876C22.6444 40.1258 22.3416 40.3256 21.9919 40.4755C21.6485 40.6191 21.2769 40.6909 20.8773 40.6909C20.4777 40.6909 20.103 40.6191 19.7533 40.4755C19.4099 40.3256 19.107 40.1258 18.8448 39.876C18.5888 39.62 18.3858 39.3203 18.236 38.9769C18.0861 38.6334 18.0112 38.2681 18.0112 37.881C18.0112 37.4938 18.0861 37.1286 18.236 36.7851C18.3858 36.4417 18.5888 36.1451 18.8448 35.8953C19.107 35.6393 19.4099 35.4395 19.7533 35.2959C20.103 35.146 20.4777 35.0711 20.8773 35.0711ZM20.8773 39.9884C21.1645 39.9884 21.433 39.9322 21.6828 39.8198C21.9388 39.7074 22.1605 39.5576 22.3478 39.3703C22.5414 39.1767 22.6944 38.9519 22.8068 38.6959C22.9192 38.4399 22.9754 38.1682 22.9754 37.881C22.9754 37.5813 22.9192 37.3034 22.8068 37.0474C22.6944 36.7914 22.5414 36.5697 22.3478 36.3824C22.1605 36.1888 21.9388 36.0389 21.6828 35.9328C21.433 35.8266 21.1645 35.7735 20.8773 35.7735C20.5901 35.7735 20.3184 35.8266 20.0624 35.9328C19.8126 36.0389 19.591 36.1888 19.3974 36.3824C19.2101 36.5697 19.0602 36.7914 18.9478 37.0474C18.8354 37.3034 18.7792 37.5813 18.7792 37.881C18.7792 38.1682 18.8354 38.4399 18.9478 38.6959C19.0602 38.9519 19.2101 39.1767 19.3974 39.3703C19.591 39.5576 19.8126 39.7074 20.0624 39.8198C20.3184 39.9322 20.5901 39.9884 20.8773 39.9884ZM28.7303 37.7967H31.3155V38.4992H28.7303V40.5879H27.9623V35.1647H31.5215V35.8672H28.7303V37.7967ZM39.202 39.8854V40.5879H35.6428V35.1647H39.202V35.8672H36.4108V37.5906H38.9959V38.2931H36.4108V39.8854H39.202ZM45.1769 40.6909C44.8772 40.6909 44.6149 40.6597 44.3901 40.5973C44.1653 40.5348 43.9686 40.4599 43.8001 40.3725C43.6377 40.2788 43.5003 40.1789 43.3879 40.0727C43.2755 39.9603 43.185 39.8573 43.1163 39.7636L43.6689 39.3234C43.7376 39.3984 43.825 39.4764 43.9312 39.5576C44.0373 39.6325 44.156 39.7043 44.2871 39.773C44.4245 39.8355 44.5712 39.8885 44.7273 39.9322C44.8834 39.9697 45.0489 39.9884 45.2238 39.9884C45.4735 39.9884 45.6733 39.9541 45.8232 39.8854C45.9793 39.8167 46.098 39.7387 46.1791 39.6512C46.2665 39.5576 46.3259 39.467 46.3571 39.3796C46.3883 39.286 46.4039 39.2204 46.4039 39.1829C46.4039 38.9956 46.3259 38.8457 46.1698 38.7333C46.0137 38.6209 45.817 38.521 45.5797 38.4336C45.3424 38.3462 45.0864 38.2588 44.8116 38.1713C44.5431 38.0839 44.2902 37.9715 44.0529 37.8342C43.8157 37.6968 43.619 37.5219 43.4629 37.3096C43.3068 37.0973 43.2287 36.8226 43.2287 36.4854C43.2287 36.3605 43.2537 36.2169 43.3036 36.0545C43.3598 35.8922 43.4535 35.7392 43.5846 35.5956C43.722 35.4457 43.9093 35.3208 44.1466 35.2209C44.3839 35.121 44.6899 35.0711 45.0645 35.0711C45.333 35.0711 45.5703 35.0992 45.7764 35.1554C45.9824 35.2116 46.1604 35.2802 46.3103 35.3614C46.4601 35.4426 46.585 35.53 46.6849 35.6237C46.7848 35.7173 46.8629 35.8016 46.9191 35.8766C46.8129 35.9453 46.7224 36.0139 46.6474 36.0826C46.5725 36.1451 46.4851 36.2106 46.3852 36.2793C46.2041 36.0982 45.9856 35.9702 45.7295 35.8953C45.4798 35.8141 45.2362 35.7735 44.999 35.7735C44.8678 35.7735 44.7429 35.7892 44.6243 35.8204C44.5057 35.8516 44.3995 35.9015 44.3058 35.9702C44.2122 36.0327 44.1372 36.1139 44.081 36.2138C44.0248 36.3074 43.9967 36.4198 43.9967 36.551C43.9967 36.782 44.0748 36.9631 44.2309 37.0942C44.387 37.2253 44.5837 37.3377 44.821 37.4314C45.0583 37.5251 45.3112 37.6125 45.5797 37.6937C45.8544 37.7686 46.1104 37.8685 46.3477 37.9934C46.585 38.1183 46.7817 38.2775 46.9378 38.4711C47.0939 38.6646 47.172 38.9238 47.172 39.2485C47.172 39.3734 47.1376 39.5201 47.0689 39.6887C47.0065 39.8511 46.8972 40.0072 46.7411 40.157C46.5913 40.3069 46.3883 40.4349 46.1323 40.5411C45.8763 40.641 45.5578 40.6909 45.1769 40.6909ZM53.1135 40.6909C52.8138 40.6909 52.5515 40.6597 52.3267 40.5973C52.1019 40.5348 51.9052 40.4599 51.7366 40.3725C51.5743 40.2788 51.4369 40.1789 51.3245 40.0727C51.2121 39.9603 51.1216 39.8573 51.0529 39.7636L51.6055 39.3234C51.6742 39.3984 51.7616 39.4764 51.8678 39.5576C51.9739 39.6325 52.0926 39.7043 52.2237 39.773C52.3611 39.8355 52.5078 39.8885 52.6639 39.9322C52.82 39.9697 52.9855 39.9884 53.1603 39.9884C53.4101 39.9884 53.6099 39.9541 53.7598 39.8854C53.9159 39.8167 54.0345 39.7387 54.1157 39.6512C54.2031 39.5576 54.2625 39.467 54.2937 39.3796C54.3249 39.286 54.3405 39.2204 54.3405 39.1829C54.3405 38.9956 54.2625 38.8457 54.1064 38.7333C53.9502 38.6209 53.7536 38.521 53.5163 38.4336C53.279 38.3462 53.023 38.2588 52.7482 38.1713C52.4797 38.0839 52.2268 37.9715 51.9895 37.8342C51.7523 37.6968 51.5556 37.5219 51.3995 37.3096C51.2433 37.0973 51.1653 36.8226 51.1653 36.4854C51.1653 36.3605 51.1903 36.2169 51.2402 36.0545C51.2964 35.8922 51.3901 35.7392 51.5212 35.5956C51.6586 35.4457 51.8459 35.3208 52.0832 35.2209C52.3205 35.121 52.6265 35.0711 53.0011 35.0711C53.2696 35.0711 53.5069 35.0992 53.713 35.1554C53.919 35.2116 54.097 35.2802 54.2469 35.3614C54.3967 35.4426 54.5216 35.53 54.6215 35.6237C54.7214 35.7173 54.7995 35.8016 54.8557 35.8766C54.7495 35.9453 54.659 36.0139 54.584 36.0826C54.5091 36.1451 54.4217 36.2106 54.3218 36.2793C54.1407 36.0982 53.9222 35.9702 53.6661 35.8953C53.4164 35.8141 53.1728 35.7735 52.9356 35.7735C52.8044 35.7735 52.6795 35.7892 52.5609 35.8204C52.4423 35.8516 52.3361 35.9015 52.2424 35.9702C52.1488 36.0327 52.0738 36.1139 52.0176 36.2138C51.9614 36.3074 51.9333 36.4198 51.9333 36.551C51.9333 36.782 52.0114 36.9631 52.1675 37.0942C52.3236 37.2253 52.5203 37.3377 52.7576 37.4314C52.9949 37.5251 53.2478 37.6125 53.5163 37.6937C53.791 37.7686 54.047 37.8685 54.2843 37.9934C54.5216 38.1183 54.7183 38.2775 54.8744 38.4711C55.0305 38.6646 55.1086 38.9238 55.1086 39.2485C55.1086 39.3734 55.0742 39.5201 55.0055 39.6887C54.9431 39.8511 54.8338 40.0072 54.6777 40.157C54.5278 40.3069 54.3249 40.4349 54.0689 40.5411C53.8129 40.641 53.4944 40.6909 53.1135 40.6909ZM59.233 35.1647H60.0011V40.5879H59.233V35.1647ZM67.0791 35.0711C67.4787 35.0711 67.8503 35.146 68.1937 35.2959C68.5434 35.4395 68.8462 35.6393 69.1022 35.8953C69.3645 36.1451 69.5706 36.4417 69.7204 36.7851C69.8703 37.1286 69.9452 37.4938 69.9452 37.881C69.9452 38.2681 69.8703 38.6334 69.7204 38.9769C69.5706 39.3203 69.3645 39.62 69.1022 39.876C68.8462 40.1258 68.5434 40.3256 68.1937 40.4755C67.8503 40.6191 67.4787 40.6909 67.0791 40.6909C66.6795 40.6909 66.3048 40.6191 65.9551 40.4755C65.6117 40.3256 65.3088 40.1258 65.0466 39.876C64.7906 39.62 64.5876 39.3203 64.4378 38.9769C64.2879 38.6334 64.213 38.2681 64.213 37.881C64.213 37.4938 64.2879 37.1286 64.4378 36.7851C64.5876 36.4417 64.7906 36.1451 65.0466 35.8953C65.3088 35.6393 65.6117 35.4395 65.9551 35.2959C66.3048 35.146 66.6795 35.0711 67.0791 35.0711ZM67.0791 39.9884C67.3663 39.9884 67.6348 39.9322 67.8846 39.8198C68.1406 39.7074 68.3623 39.5576 68.5496 39.3703C68.7432 39.1767 68.8962 38.9519 69.0086 38.6959C69.121 38.4399 69.1772 38.1682 69.1772 37.881C69.1772 37.5813 69.121 37.3034 69.0086 37.0474C68.8962 36.7914 68.7432 36.5697 68.5496 36.3824C68.3623 36.1888 68.1406 36.0389 67.8846 35.9328C67.6348 35.8266 67.3663 35.7735 67.0791 35.7735C66.7919 35.7735 66.5202 35.8266 66.2642 35.9328C66.0144 36.0389 65.7928 36.1888 65.5992 36.3824C65.4119 36.5697 65.262 36.7914 65.1496 37.0474C65.0372 37.3034 64.981 37.5813 64.981 37.881C64.981 38.1682 65.0372 38.4399 65.1496 38.6959C65.262 38.9519 65.4119 39.1767 65.5992 39.3703C65.7928 39.5576 66.0144 39.7074 66.2642 39.8198C66.5202 39.9322 66.7919 39.9884 67.0791 39.9884ZM78.098 35.1647H78.866V40.5879H78.0886L74.9321 36.4198V40.5879H74.1641V35.1647H74.9415L78.098 39.3234V35.1647ZM85.934 35.1647L88.0039 40.5879H87.1797L86.7863 39.5576H83.9951L83.6017 40.5879H82.7775L84.8475 35.1647H85.934ZM84.2574 38.8551H86.5147L85.3907 35.9047L84.2574 38.8551ZM92.6896 39.8854H95.4808V40.5879H91.9215V35.1647H92.6896V39.8854ZM101.282 40.6909C100.982 40.6909 100.72 40.6597 100.495 40.5973C100.27 40.5348 100.074 40.4599 99.905 40.3725C99.7427 40.2788 99.6053 40.1789 99.4929 40.0727C99.3805 39.9603 99.29 39.8573 99.2213 39.7636L99.7739 39.3234C99.8426 39.3984 99.93 39.4764 100.036 39.5576C100.142 39.6325 100.261 39.7043 100.392 39.773C100.529 39.8355 100.676 39.8885 100.832 39.9322C100.988 39.9697 101.154 39.9884 101.329 39.9884C101.579 39.9884 101.778 39.9541 101.928 39.8854C102.084 39.8167 102.203 39.7387 102.284 39.6512C102.372 39.5576 102.431 39.467 102.462 39.3796C102.493 39.286 102.509 39.2204 102.509 39.1829C102.509 38.9956 102.431 38.8457 102.275 38.7333C102.119 38.6209 101.922 38.521 101.685 38.4336C101.447 38.3462 101.191 38.2588 100.917 38.1713C100.648 38.0839 100.395 37.9715 100.158 37.8342C99.9206 37.6968 99.7239 37.5219 99.5678 37.3096C99.4117 37.0973 99.3337 36.8226 99.3337 36.4854C99.3337 36.3605 99.3587 36.2169 99.4086 36.0545C99.4648 35.8922 99.5585 35.7392 99.6896 35.5956C99.827 35.4457 100.014 35.3208 100.252 35.2209C100.489 35.121 100.795 35.0711 101.17 35.0711C101.438 35.0711 101.675 35.0992 101.881 35.1554C102.087 35.2116 102.265 35.2802 102.415 35.3614C102.565 35.4426 102.69 35.53 102.79 35.6237C102.89 35.7173 102.968 35.8016 103.024 35.8766C102.918 35.9453 102.827 36.0139 102.752 36.0826C102.677 36.1451 102.59 36.2106 102.49 36.2793C102.309 36.0982 102.091 35.9702 101.835 35.8953C101.585 35.8141 101.341 35.7735 101.104 35.7735C100.973 35.7735 100.848 35.7892 100.729 35.8204C100.611 35.8516 100.504 35.9015 100.411 35.9702C100.317 36.0327 100.242 36.1139 100.186 36.2138C100.13 36.3074 100.102 36.4198 100.102 36.551C100.102 36.782 100.18 36.9631 100.336 37.0942C100.492 37.2253 100.689 37.3377 100.926 37.4314C101.163 37.5251 101.416 37.6125 101.685 37.6937C101.959 37.7686 102.215 37.8685 102.453 37.9934C102.69 38.1183 102.887 38.2775 103.043 38.4711C103.199 38.6646 103.277 38.9238 103.277 39.2485C103.277 39.3734 103.243 39.5201 103.174 39.6887C103.111 39.8511 103.002 40.0072 102.846 40.157C102.696 40.3069 102.493 40.4349 102.237 40.5411C101.981 40.641 101.663 40.6909 101.282 40.6909Z" fill="white"/>
<path d="M112.283 39.0348H111.759L111.197 38.3136H110.607V39.0348H110.148V36.4029H111.141C111.216 36.4029 111.316 36.4091 111.44 36.4216C111.565 36.4279 111.684 36.4591 111.796 36.5153C111.915 36.5715 112.015 36.662 112.096 36.7869C112.184 36.9055 112.227 37.0773 112.227 37.3021C112.227 37.6018 112.187 37.8203 112.106 37.9577C112.024 38.0888 111.878 38.1856 111.665 38.2481L112.283 39.0348ZM110.607 37.8921H111.15C111.331 37.8921 111.478 37.8609 111.59 37.7985C111.709 37.7298 111.768 37.5893 111.768 37.377C111.768 37.2521 111.75 37.1553 111.712 37.0866C111.675 37.0179 111.625 36.9649 111.562 36.9274C111.506 36.8899 111.44 36.8681 111.366 36.8618C111.291 36.8493 111.219 36.8431 111.15 36.8431H110.607V37.8921ZM111.141 34.8855C111.528 34.8855 111.89 34.9604 112.227 35.1103C112.571 35.2539 112.87 35.4537 113.126 35.7098C113.382 35.9595 113.582 36.2561 113.726 36.5996C113.876 36.943 113.951 37.3083 113.951 37.6954C113.951 38.0826 113.876 38.4479 113.726 38.7913C113.582 39.1348 113.382 39.4345 113.126 39.6905C112.87 39.9403 112.571 40.1401 112.227 40.2899C111.89 40.4336 111.528 40.5054 111.141 40.5054C110.754 40.5054 110.388 40.4336 110.045 40.2899C109.701 40.1401 109.402 39.9403 109.146 39.6905C108.89 39.4345 108.687 39.1348 108.537 38.7913C108.393 38.4479 108.321 38.0826 108.321 37.6954C108.321 37.3083 108.393 36.943 108.537 36.5996C108.687 36.2561 108.89 35.9595 109.146 35.7098C109.402 35.4537 109.701 35.2539 110.045 35.1103C110.388 34.9604 110.754 34.8855 111.141 34.8855ZM111.141 40.1494C111.478 40.1494 111.796 40.087 112.096 39.9621C112.396 39.831 112.655 39.6562 112.874 39.4376C113.098 39.2128 113.273 38.9505 113.398 38.6508C113.529 38.3511 113.595 38.0326 113.595 37.6954C113.595 37.3583 113.529 37.0398 113.398 36.7401C113.273 36.4403 113.098 36.1812 112.874 35.9627C112.655 35.7379 112.396 35.563 112.096 35.4381C111.796 35.307 111.478 35.2414 111.141 35.2414C110.797 35.2414 110.476 35.307 110.176 35.4381C109.883 35.563 109.623 35.7379 109.399 35.9627C109.18 36.1812 109.005 36.4403 108.874 36.7401C108.749 37.0398 108.687 37.3583 108.687 37.6954C108.687 38.0326 108.749 38.3511 108.874 38.6508C109.005 38.9505 109.18 39.2128 109.399 39.4376C109.623 39.6562 109.883 39.831 110.176 39.9621C110.476 40.087 110.797 40.1494 111.141 40.1494Z" fill="white"/>
<defs>
<filter id="filter0_d_2133_594" x="0.818473" y="9.41162" width="20.9888" height="25.9649" filterUnits="userSpaceOnUse" color-interpolation-filters="sRGB">
<feFlood flood-opacity="0" result="BackgroundImageFix"/>
<feColorMatrix in="SourceAlpha" type="matrix" values="0 0 0 0 0 0 0 0 0 0 0 0 0 0 0 0 0 0 127 0" result="hardAlpha"/>
<feOffset dy="2.08119"/>
<feGaussianBlur stdDeviation="1.04059"/>
<feComposite in2="hardAlpha" operator="out"/>
<feColorMatrix type="matrix" values="0 0 0 0 0 0 0 0 0 0 0 0 0 0 0 0 0 0 0.15 0"/>
<feBlend mode="normal" in2="BackgroundImageFix" result="effect1_dropShadow_2133_594"/>
<feBlend mode="normal" in="SourceGraphic" in2="effect1_dropShadow_2133_594" result="shape"/>
</filter>
<filter id="filter1_d_2133_594" x="17.0685" y="9.08936" width="19.7713" height="26.2871" filterUnits="userSpaceOnUse" color-interpolation-filters="sRGB">
<feFlood flood-opacity="0" result="BackgroundImageFix"/>
<feColorMatrix in="SourceAlpha" type="matrix" values="0 0 0 0 0 0 0 0 0 0 0 0 0 0 0 0 0 0 127 0" result="hardAlpha"/>
<feOffset dy="2.08119"/>
<feGaussianBlur stdDeviation="1.04059"/>
<feComposite in2="hardAlpha" operator="out"/>
<feColorMatrix type="matrix" values="0 0 0 0 0 0 0 0 0 0 0 0 0 0 0 0 0 0 0.15 0"/>
<feBlend mode="normal" in2="BackgroundImageFix" result="effect1_dropShadow_2133_594"/>
<feBlend mode="normal" in="SourceGraphic" in2="effect1_dropShadow_2133_594" result="shape"/>
</filter>
<filter id="filter2_d_2133_594" x="30.1612" y="15.6409" width="20.3443" height="19.3418" filterUnits="userSpaceOnUse" color-interpolation-filters="sRGB">
<feFlood flood-opacity="0" result="BackgroundImageFix"/>
<feColorMatrix in="SourceAlpha" type="matrix" values="0 0 0 0 0 0 0 0 0 0 0 0 0 0 0 0 0 0 127 0" result="hardAlpha"/>
<feOffset dy="2.08119"/>
<feGaussianBlur stdDeviation="1.04059"/>
<feComposite in2="hardAlpha" operator="out"/>
<feColorMatrix type="matrix" values="0 0 0 0 0 0 0 0 0 0 0 0 0 0 0 0 0 0 0.15 0"/>
<feBlend mode="normal" in2="BackgroundImageFix" result="effect1_dropShadow_2133_594"/>
<feBlend mode="normal" in="SourceGraphic" in2="effect1_dropShadow_2133_594" result="shape"/>
</filter>
<filter id="filter3_d_2133_594" x="46.6781" y="9.2771" width="8.3152" height="24.8909" filterUnits="userSpaceOnUse" color-interpolation-filters="sRGB">
<feFlood flood-opacity="0" result="BackgroundImageFix"/>
<feColorMatrix in="SourceAlpha" type="matrix" values="0 0 0 0 0 0 0 0 0 0 0 0 0 0 0 0 0 0 127 0" result="hardAlpha"/>
<feOffset dy="2.08119"/>
<feGaussianBlur stdDeviation="1.04059"/>
<feComposite in2="hardAlpha" operator="out"/>
<feColorMatrix type="matrix" values="0 0 0 0 0 0 0 0 0 0 0 0 0 0 0 0 0 0 0.15 0"/>
<feBlend mode="normal" in2="BackgroundImageFix" result="effect1_dropShadow_2133_594"/>
<feBlend mode="normal" in="SourceGraphic" in2="effect1_dropShadow_2133_594" result="shape"/>
</filter>
<filter id="filter4_d_2133_594" x="51.2352" y="14.4324" width="18.4468" height="19.7356" filterUnits="userSpaceOnUse" color-interpolation-filters="sRGB">
<feFlood flood-opacity="0" result="BackgroundImageFix"/>
<feColorMatrix in="SourceAlpha" type="matrix" values="0 0 0 0 0 0 0 0 0 0 0 0 0 0 0 0 0 0 127 0" result="hardAlpha"/>
<feOffset dy="2.08119"/>
<feGaussianBlur stdDeviation="1.04059"/>
<feComposite in2="hardAlpha" operator="out"/>
<feColorMatrix type="matrix" values="0 0 0 0 0 0 0 0 0 0 0 0 0 0 0 0 0 0 0.15 0"/>
<feBlend mode="normal" in2="BackgroundImageFix" result="effect1_dropShadow_2133_594"/>
<feBlend mode="normal" in="SourceGraphic" in2="effect1_dropShadow_2133_594" result="shape"/>
</filter>
<filter id="filter5_d_2133_594" x="64.6168" y="14.4324" width="20.2009" height="20.1294" filterUnits="userSpaceOnUse" color-interpolation-filters="sRGB">
<feFlood flood-opacity="0" result="BackgroundImageFix"/>
<feColorMatrix in="SourceAlpha" type="matrix" values="0 0 0 0 0 0 0 0 0 0 0 0 0 0 0 0 0 0 127 0" result="hardAlpha"/>
<feOffset dy="2.08119"/>
<feGaussianBlur stdDeviation="1.04059"/>
<feComposite in2="hardAlpha" operator="out"/>
<feColorMatrix type="matrix" values="0 0 0 0 0 0 0 0 0 0 0 0 0 0 0 0 0 0 0.15 0"/>
<feBlend mode="normal" in2="BackgroundImageFix" result="effect1_dropShadow_2133_594"/>
<feBlend mode="normal" in="SourceGraphic" in2="effect1_dropShadow_2133_594" result="shape"/>
</filter>
<filter id="filter6_d_2133_594" x="81.2965" y="9.2771" width="8.3152" height="24.8909" filterUnits="userSpaceOnUse" color-interpolation-filters="sRGB">
<feFlood flood-opacity="0" result="BackgroundImageFix"/>
<feColorMatrix in="SourceAlpha" type="matrix" values="0 0 0 0 0 0 0 0 0 0 0 0 0 0 0 0 0 0 127 0" result="hardAlpha"/>
<feOffset dy="2.08119"/>
<feGaussianBlur stdDeviation="1.04059"/>
<feComposite in2="hardAlpha" operator="out"/>
<feColorMatrix type="matrix" values="0 0 0 0 0 0 0 0 0 0 0 0 0 0 0 0 0 0 0.15 0"/>
<feBlend mode="normal" in2="BackgroundImageFix" result="effect1_dropShadow_2133_594"/>
<feBlend mode="normal" in="SourceGraphic" in2="effect1_dropShadow_2133_594" result="shape"/>
</filter>
<filter id="filter7_d_2133_594" x="85.3629" y="8.59692" width="20.9885" height="25.9649" filterUnits="userSpaceOnUse" color-interpolation-filters="sRGB">
<feFlood flood-opacity="0" result="BackgroundImageFix"/>
<feColorMatrix in="SourceAlpha" type="matrix" values="0 0 0 0 0 0 0 0 0 0 0 0 0 0 0 0 0 0 127 0" result="hardAlpha"/>
<feOffset dy="2.08119"/>
<feGaussianBlur stdDeviation="1.04059"/>
<feComposite in2="hardAlpha" operator="out"/>
<feColorMatrix type="matrix" values="0 0 0 0 0 0 0 0 0 0 0 0 0 0 0 0 0 0 0.15 0"/>
<feBlend mode="normal" in2="BackgroundImageFix" result="effect1_dropShadow_2133_594"/>
<feBlend mode="normal" in="SourceGraphic" in2="effect1_dropShadow_2133_594" result="shape"/>
</filter>
<filter id="filter8_d_2133_594" x="102.762" y="8.59692" width="7.67092" height="25.5711" filterUnits="userSpaceOnUse" color-interpolation-filters="sRGB">
<feFlood flood-opacity="0" result="BackgroundImageFix"/>
<feColorMatrix in="SourceAlpha" type="matrix" values="0 0 0 0 0 0 0 0 0 0 0 0 0 0 0 0 0 0 127 0" result="hardAlpha"/>
<feOffset dy="2.08119"/>
<feGaussianBlur stdDeviation="1.04059"/>
<feComposite in2="hardAlpha" operator="out"/>
<feColorMatrix type="matrix" values="0 0 0 0 0 0 0 0 0 0 0 0 0 0 0 0 0 0 0.15 0"/>
<feBlend mode="normal" in2="BackgroundImageFix" result="effect1_dropShadow_2133_594"/>
<feBlend mode="normal" in="SourceGraphic" in2="effect1_dropShadow_2133_594" result="shape"/>
</filter>
<filter id="filter9_d_2133_594" x="105.944" y="13.9888" width="19.7713" height="20.1294" filterUnits="userSpaceOnUse" color-interpolation-filters="sRGB">
<feFlood flood-opacity="0" result="BackgroundImageFix"/>
<feColorMatrix in="SourceAlpha" type="matrix" values="0 0 0 0 0 0 0 0 0 0 0 0 0 0 0 0 0 0 127 0" result="hardAlpha"/>
<feOffset dy="2.08119"/>
<feGaussianBlur stdDeviation="1.04059"/>
<feComposite in2="hardAlpha" operator="out"/>
<feColorMatrix type="matrix" values="0 0 0 0 0 0 0 0 0 0 0 0 0 0 0 0 0 0 0.15 0"/>
<feBlend mode="normal" in2="BackgroundImageFix" result="effect1_dropShadow_2133_594"/>
<feBlend mode="normal" in="SourceGraphic" in2="effect1_dropShadow_2133_594" result="shape"/>
</filter>
</defs>
</svg>
