<svg width="160" height="46" viewBox="0 0 160 46" fill="none" xmlns="http://www.w3.org/2000/svg">
<path d="M3.93325 42.8945C3.53361 42.8945 3.15583 42.8227 2.79991 42.6791C2.45023 42.5292 2.14426 42.3294 1.882 42.0797C1.61974 41.8236 1.41368 41.5239 1.26381 41.1805C1.11395 40.837 1.03902 40.4717 1.03902 40.0846C1.03902 39.6975 1.11395 39.3322 1.26381 38.9887C1.41368 38.6453 1.61974 38.3487 1.882 38.0989C2.14426 37.8429 2.45023 37.6431 2.79991 37.4995C3.15583 37.3496 3.53361 37.2747 3.93325 37.2747C4.25171 37.2747 4.55456 37.3215 4.84179 37.4152C5.12903 37.5088 5.39129 37.64 5.62857 37.8086C5.86586 37.9709 6.07192 38.1676 6.24676 38.3986C6.42784 38.6297 6.56834 38.8826 6.66825 39.1573H5.79717C5.61609 38.8014 5.36319 38.5173 5.03849 38.305C4.71379 38.0864 4.34537 37.9772 3.93325 37.9772C3.64601 37.9772 3.37126 38.0302 3.109 38.1364C2.85299 38.2425 2.62819 38.3924 2.43462 38.586C2.24104 38.7733 2.08806 38.995 1.97566 39.251C1.86327 39.507 1.80707 39.7849 1.80707 40.0846C1.80707 40.3718 1.86327 40.6435 1.97566 40.8995C2.08806 41.1555 2.24104 41.3803 2.43462 41.5739C2.62819 41.7612 2.85299 41.9111 3.109 42.0235C3.37126 42.1359 3.64601 42.1921 3.93325 42.1921C4.34537 42.1921 4.71379 42.0859 5.03849 41.8736C5.36319 41.655 5.61609 41.3678 5.79717 41.0119H6.66825C6.56834 41.2929 6.42784 41.5489 6.24676 41.7799C6.07192 42.011 5.86586 42.2108 5.62857 42.3794C5.39129 42.5417 5.12903 42.6697 4.84179 42.7634C4.55456 42.8508 4.25171 42.8945 3.93325 42.8945ZM13.2959 37.3683L15.3659 42.7915H14.5416L14.1482 41.7612H11.357L10.9636 42.7915H10.1394L12.2094 37.3683H13.2959ZM11.6193 41.0587H13.8766L12.7526 38.1083L11.6193 41.0587ZM22.5617 39.251C22.5617 39.0324 22.5305 38.8482 22.468 38.6984C22.4118 38.5485 22.3307 38.4267 22.2245 38.3331C22.1184 38.2394 21.9935 38.1738 21.8499 38.1364C21.7125 38.0927 21.5595 38.0708 21.3909 38.0708H20.0515V40.4218H21.3909C21.5595 40.4218 21.7125 40.4031 21.8499 40.3656C21.9935 40.3219 22.1184 40.2563 22.2245 40.1689C22.3307 40.0752 22.4118 39.9535 22.468 39.8036C22.5305 39.6537 22.5617 39.4695 22.5617 39.251ZM23.3298 39.2416C23.3298 39.5538 23.286 39.8161 23.1986 40.0284C23.1175 40.2407 23.0113 40.4187 22.8802 40.5623C22.7553 40.6997 22.6148 40.8058 22.4587 40.8807C22.3026 40.9557 22.1496 41.0119 21.9997 41.0493C21.8561 41.0868 21.725 41.1087 21.6063 41.1149C21.4939 41.1212 21.4159 41.1243 21.3722 41.1243H20.0515V42.7915H19.2835V37.3683H21.3722C21.4221 37.3683 21.5033 37.3715 21.6157 37.3777C21.7281 37.3839 21.8561 37.4058 21.9997 37.4433C22.1496 37.4807 22.3026 37.5369 22.4587 37.6119C22.6148 37.6868 22.7553 37.7929 22.8802 37.9303C23.0113 38.0677 23.1175 38.2425 23.1986 38.4548C23.286 38.6671 23.3298 38.9294 23.3298 39.2416ZM27.2658 37.3683H28.0338V42.7915H27.2658V37.3683ZM32.1052 38.0708V37.3683H36.4887V38.0708H34.681V42.7915H33.913V38.0708H32.1052ZM42.3897 37.3683L44.4596 42.7915H43.6354L43.242 41.7612H40.4508L40.0574 42.7915H39.2332L41.3032 37.3683H42.3897ZM40.7131 41.0587H42.9704L41.8464 38.1083L40.7131 41.0587ZM49.1453 42.089H51.9365V42.7915H48.3772V37.3683H49.1453V42.089Z" fill="white"/>
<path d="M62.8318 41.424H62.3073L61.7453 40.7028H61.1553V41.424H60.6963V38.792H61.6891C61.7641 38.792 61.864 38.7983 61.9889 38.8108C62.1138 38.817 62.2324 38.8482 62.3448 38.9044C62.4634 38.9606 62.5633 39.0512 62.6445 39.1761C62.7319 39.2947 62.7757 39.4664 62.7757 39.6912C62.7757 39.9909 62.7351 40.2095 62.6539 40.3469C62.5727 40.478 62.426 40.5748 62.2137 40.6372L62.8318 41.424ZM61.1553 40.2813H61.6985C61.8796 40.2813 62.0263 40.2501 62.1387 40.1876C62.2574 40.1189 62.3167 39.9784 62.3167 39.7661C62.3167 39.6413 62.298 39.5445 62.2605 39.4758C62.223 39.4071 62.1731 39.354 62.1106 39.3166C62.0544 39.2791 61.9889 39.2572 61.9139 39.251C61.839 39.2385 61.7672 39.2323 61.6985 39.2323H61.1553V40.2813ZM61.6891 37.2747C62.0763 37.2747 62.4385 37.3496 62.7757 37.4995C63.1191 37.6431 63.4188 37.8429 63.6748 38.0989C63.9308 38.3487 64.1307 38.6453 64.2743 38.9887C64.4241 39.3322 64.4991 39.6975 64.4991 40.0846C64.4991 40.4717 64.4241 40.837 64.2743 41.1805C64.1307 41.5239 63.9308 41.8236 63.6748 42.0797C63.4188 42.3294 63.1191 42.5292 62.7757 42.6791C62.4385 42.8227 62.0763 42.8945 61.6891 42.8945C61.302 42.8945 60.9367 42.8227 60.5933 42.6791C60.2498 42.5292 59.9501 42.3294 59.6941 42.0797C59.4381 41.8236 59.2351 41.5239 59.0853 41.1805C58.9417 40.837 58.8698 40.4717 58.8698 40.0846C58.8698 39.6975 58.9417 39.3322 59.0853 38.9887C59.2351 38.6453 59.4381 38.3487 59.6941 38.0989C59.9501 37.8429 60.2498 37.6431 60.5933 37.4995C60.9367 37.3496 61.302 37.2747 61.6891 37.2747ZM61.6891 42.5386C62.0263 42.5386 62.3448 42.4762 62.6445 42.3513C62.9442 42.2202 63.2034 42.0453 63.4219 41.8268C63.6467 41.602 63.8216 41.3397 63.9465 41.04C64.0776 40.7403 64.1432 40.4218 64.1432 40.0846C64.1432 39.7474 64.0776 39.429 63.9465 39.1292C63.8216 38.8295 63.6467 38.5704 63.4219 38.3518C63.2034 38.127 62.9442 37.9522 62.6445 37.8273C62.3448 37.6962 62.0263 37.6306 61.6891 37.6306C61.3457 37.6306 61.0241 37.6962 60.7244 37.8273C60.4309 37.9522 60.1718 38.127 59.947 38.3518C59.7284 38.5704 59.5536 38.8295 59.4225 39.1292C59.2976 39.429 59.2351 39.7474 59.2351 40.0846C59.2351 40.4218 59.2976 40.7403 59.4225 41.04C59.5536 41.3397 59.7284 41.602 59.947 41.8268C60.1718 42.0453 60.4309 42.2202 60.7244 42.3513C61.0241 42.4762 61.3457 42.5386 61.6891 42.5386Z" fill="white"/>
<path d="M154.045 12.6671H154.559V10.6436H155.364V10.0679H153.223V10.6436H154.045V12.6671ZM158.645 10.8449V12.6671H159.159V10.0679H158.6L157.605 11.3423L156.61 10.0679H156.046V12.6671H156.566V10.8449L157.561 12.1081H157.65L158.645 10.8449Z" fill="white"/>
<g filter="url(#filter0_d_2133_610)">
<path d="M65.3559 27.819C64.8309 28.2963 64.3058 28.6663 63.7807 28.9288C63.2556 29.1913 62.7544 29.3823 62.2771 29.5016C61.7997 29.6209 61.3463 29.6925 60.9167 29.7164C60.5109 29.7403 60.1529 29.7522 59.8426 29.7522C58.7686 29.7522 57.7543 29.5493 56.7996 29.1436C55.8688 28.714 55.0454 28.1412 54.3293 27.4252C53.6372 26.6853 53.0763 25.838 52.6467 24.8833C52.241 23.9048 52.0381 22.8666 52.0381 21.7687C52.0381 20.6708 52.241 19.6445 52.6467 18.6898C53.0763 17.7113 53.6372 16.864 54.3293 16.148C55.0454 15.4081 55.8688 14.8353 56.7996 14.4295C57.7543 13.9999 58.7686 13.7851 59.8426 13.7851C60.1529 13.7851 60.5109 13.7971 60.9167 13.8209C61.3463 13.8448 61.7997 13.9164 62.2771 14.0357C62.7544 14.1551 63.2556 14.346 63.7807 14.6085C64.3058 14.8711 64.8309 15.241 65.3559 15.7184V14.1789H68.8644V29.3584H65.3559V27.819ZM60.4154 26.4585C61.1076 26.4585 61.752 26.3511 62.3487 26.1363C62.9454 25.8977 63.4585 25.5755 63.8881 25.1697C64.3416 24.7401 64.6996 24.2389 64.9621 23.6661C65.2247 23.0933 65.3559 22.4608 65.3559 21.7687C65.3559 21.0765 65.2247 20.444 64.9621 19.8712C64.6996 19.2984 64.3416 18.8091 63.8881 18.4034C63.4585 17.9738 62.9454 17.6516 62.3487 17.4368C61.752 17.1981 61.1076 17.0788 60.4154 17.0788C59.7472 17.0788 59.1147 17.1981 58.518 17.4368C57.9213 17.6516 57.3963 17.9738 56.9428 18.4034C56.5132 18.8091 56.1671 19.2984 55.9046 19.8712C55.6659 20.444 55.5466 21.0765 55.5466 21.7687C55.5466 22.4608 55.6659 23.0933 55.9046 23.6661C56.1671 24.2389 56.5132 24.7401 56.9428 25.1697C57.3963 25.5755 57.9213 25.8977 58.518 26.1363C59.1147 26.3511 59.7472 26.4585 60.4154 26.4585Z" fill="white"/>
</g>
<g filter="url(#filter1_d_2133_610)">
<path d="M15.4182 27.819C14.8931 28.2963 14.368 28.6663 13.843 28.9288C13.3179 29.1913 12.8167 29.3823 12.3393 29.5016C11.862 29.6209 11.4085 29.6925 10.9789 29.7164C10.5732 29.7403 10.2152 29.7522 9.90489 29.7522C8.83088 29.7522 7.81653 29.5493 6.86184 29.1436C5.93103 28.714 5.10761 28.1412 4.3916 27.4252C3.69945 26.6853 3.13858 25.838 2.70897 24.8833C2.30323 23.9048 2.10036 22.8666 2.10036 21.7687C2.10036 20.6708 2.30323 19.6445 2.70897 18.6898C3.13858 17.7113 3.69945 16.864 4.3916 16.148C5.10761 15.4081 5.93103 14.8353 6.86184 14.4295C7.81653 13.9999 8.83088 13.7851 9.90489 13.7851C10.2152 13.7851 10.5732 13.7971 10.9789 13.8209C11.4085 13.8448 11.862 13.9164 12.3393 14.0357C12.8167 14.1551 13.3179 14.346 13.843 14.6085C14.368 14.8711 14.8931 15.241 15.4182 15.7184V7.94963H18.9267V29.3584H15.4182V27.819ZM10.4777 26.4585C11.1698 26.4585 11.8143 26.3511 12.4109 26.1363C13.0076 25.8977 13.5208 25.5755 13.9504 25.1697C14.4038 24.7401 14.7618 24.2389 15.0244 23.6661C15.2869 23.0933 15.4182 22.4608 15.4182 21.7687C15.4182 21.0765 15.2869 20.444 15.0244 19.8712C14.7618 19.2984 14.4038 18.8091 13.9504 18.4034C13.5208 17.9738 13.0076 17.6516 12.4109 17.4368C11.8143 17.1981 11.1698 17.0788 10.4777 17.0788C9.80943 17.0788 9.17695 17.1981 8.58027 17.4368C7.98359 17.6516 7.45852 17.9738 7.00504 18.4034C6.57544 18.8091 6.22936 19.2984 5.96683 19.8712C5.72816 20.444 5.60882 21.0765 5.60882 21.7687C5.60882 22.4608 5.72816 23.0933 5.96683 23.6661C6.22936 24.2389 6.57544 24.7401 7.00504 25.1697C7.45852 25.5755 7.98359 25.8977 8.58027 26.1363C9.17695 26.3511 9.80943 26.4585 10.4777 26.4585Z" fill="white"/>
</g>
<g filter="url(#filter2_d_2133_610)">
<path d="M33.9595 23.2723H21.8589C22.0499 23.9167 22.3124 24.4418 22.6466 24.8475C22.9807 25.2533 23.3506 25.5755 23.7564 25.8141C24.186 26.0528 24.6275 26.2199 25.081 26.3153C25.5345 26.4108 25.976 26.4585 26.4056 26.4585C26.7875 26.4585 27.1932 26.4227 27.6228 26.3511C28.0286 26.3034 28.4463 26.2199 28.8759 26.1005C29.3055 25.9812 29.747 25.8141 30.2005 25.5993L32.1695 28.3918C31.6206 28.6543 31.0358 28.8811 30.4153 29.072C29.8425 29.2629 29.21 29.4181 28.5179 29.5374C27.8496 29.6806 27.1336 29.7522 26.3698 29.7522C25.2242 29.7522 24.1621 29.5613 23.1836 29.1794C22.205 28.7975 21.3577 28.2605 20.6417 27.5684C19.9257 26.8524 19.3648 26.0051 18.9591 25.0265C18.5533 24.048 18.3505 22.962 18.3505 21.7687C18.3505 20.6708 18.5414 19.6445 18.9233 18.6898C19.3052 17.7113 19.8422 16.864 20.5343 16.148C21.2265 15.4081 22.0499 14.8353 23.0046 14.4295C23.9592 13.9999 25.0094 13.7851 26.155 13.7851C27.1574 13.7851 28.124 13.9641 29.0549 14.3221C29.9857 14.6563 30.8091 15.1814 31.5251 15.8974C32.265 16.5895 32.8497 17.4607 33.2793 18.5108C33.7328 19.5371 33.9595 20.7304 33.9595 22.0909V23.2723ZM26.155 17.0788C25.3197 17.0788 24.4843 17.3294 23.649 17.8306C22.8136 18.3318 22.2289 19.1433 21.8947 20.265H30.4153C30.105 19.1433 29.5203 18.3318 28.6611 17.8306C27.8257 17.3294 26.9904 17.0788 26.155 17.0788ZM24.4008 12.1383L26.8352 7.62742H30.8449L27.8734 12.1383H24.4008Z" fill="white"/>
</g>
<g filter="url(#filter3_d_2133_610)">
<path d="M124.375 23.2723H112.274C112.465 23.9167 112.728 24.4418 113.062 24.8475C113.396 25.2533 113.766 25.5755 114.172 25.8141C114.602 26.0528 115.043 26.2199 115.497 26.3153C115.95 26.4108 116.392 26.4585 116.821 26.4585C117.203 26.4585 117.609 26.4227 118.038 26.3511C118.444 26.3034 118.862 26.2199 119.291 26.1005C119.721 25.9812 120.163 25.8141 120.616 25.5993L122.585 28.3918C122.036 28.6543 121.451 28.8811 120.831 29.072C120.258 29.2629 119.626 29.4181 118.933 29.5374C118.265 29.6806 117.549 29.7522 116.785 29.7522C115.64 29.7522 114.578 29.5613 113.599 29.1794C112.621 28.7975 111.773 28.2605 111.057 27.5684C110.341 26.8524 109.78 26.0051 109.375 25.0265C108.969 24.048 108.766 22.962 108.766 21.7687C108.766 20.6708 108.957 19.6445 109.339 18.6898C109.721 17.7113 110.258 16.864 110.95 16.148C111.642 15.4081 112.465 14.8353 113.42 14.4295C114.375 13.9999 115.425 13.7851 116.571 13.7851C117.573 13.7851 118.54 13.9641 119.47 14.3221C120.401 14.6563 121.225 15.1814 121.941 15.8974C122.681 16.5895 123.265 17.4607 123.695 18.5108C124.148 19.5371 124.375 20.7304 124.375 22.0909V23.2723ZM116.571 17.0788C115.735 17.0788 114.9 17.3294 114.064 17.8306C113.229 18.3318 112.644 19.1433 112.31 20.265H120.831C120.521 19.1433 119.936 18.3318 119.077 17.8306C118.241 17.3294 117.406 17.0788 116.571 17.0788Z" fill="white"/>
</g>
<g filter="url(#filter4_d_2133_610)">
<path d="M139.037 23.2723H126.936C127.127 23.9167 127.39 24.4418 127.724 24.8475C128.058 25.2533 128.428 25.5755 128.834 25.8141C129.263 26.0528 129.705 26.2199 130.158 26.3153C130.612 26.4108 131.053 26.4585 131.483 26.4585C131.865 26.4585 132.271 26.4227 132.7 26.3511C133.106 26.3034 133.524 26.2199 133.953 26.1005C134.383 25.9812 134.824 25.8141 135.278 25.5993L137.247 28.3918C136.698 28.6543 136.113 28.8811 135.493 29.072C134.92 29.2629 134.287 29.4181 133.595 29.5374C132.927 29.6806 132.211 29.7522 131.447 29.7522C130.302 29.7522 129.24 29.5613 128.261 29.1794C127.282 28.7975 126.435 28.2605 125.719 27.5684C125.003 26.8524 124.442 26.0051 124.036 25.0265C123.631 24.048 123.428 22.962 123.428 21.7687C123.428 20.6708 123.619 19.6445 124.001 18.6898C124.383 17.7113 124.92 16.864 125.612 16.148C126.304 15.4081 127.127 14.8353 128.082 14.4295C129.037 13.9999 130.087 13.7851 131.232 13.7851C132.235 13.7851 133.201 13.9641 134.132 14.3221C135.063 14.6563 135.886 15.1814 136.602 15.8974C137.342 16.5895 137.927 17.4607 138.357 18.5108C138.81 19.5371 139.037 20.7304 139.037 22.0909V23.2723ZM131.232 17.0788C130.397 17.0788 129.562 17.3294 128.726 17.8306C127.891 18.3318 127.306 19.1433 126.972 20.265H135.493C135.182 19.1433 134.598 18.3318 133.738 17.8306C132.903 17.3294 132.068 17.0788 131.232 17.0788Z" fill="white"/>
</g>
<g filter="url(#filter5_d_2133_610)">
<path d="M40.8272 29.3584H36.1373L31.6622 14.1789H35.4213L38.4286 25.6351L41.5074 14.1789H45.3739L48.4527 25.6351L51.46 14.1789H55.219L50.744 29.3584H46.0541L43.4406 19.37L40.8272 29.3584Z" fill="white"/>
</g>
<g filter="url(#filter6_d_2133_610)">
<path d="M71.2244 7.94963H74.7329V29.3584H71.2244V7.94963Z" fill="white"/>
</g>
<g filter="url(#filter7_d_2133_610)">
<path d="M76.9486 7.94963H80.457V29.3584H76.9486V7.94963Z" fill="white"/>
</g>
<g filter="url(#filter8_d_2133_610)">
<path d="M90.5368 14.1789H93.7946V8.91624C94.4868 8.74918 95.0835 8.59404 95.5847 8.45084C96.0859 8.28377 96.6587 8.1167 97.3031 7.94963V14.1789H101.456V17.4726H97.3031V23.5945C97.3031 23.7616 97.315 24.0002 97.3389 24.3105C97.3866 24.5969 97.494 24.8833 97.6611 25.1697C97.8282 25.4561 98.1027 25.7067 98.4845 25.9215C98.8664 26.1363 99.3915 26.2437 100.06 26.2437C100.227 26.2437 100.394 26.2437 100.561 26.2437C100.728 26.2437 100.883 26.2437 101.026 26.2437C101.17 26.2199 101.301 26.2079 101.42 26.2079V29.251C101.205 29.2749 100.967 29.2868 100.704 29.2868C100.465 29.3107 100.191 29.3345 99.8808 29.3584C99.5943 29.3584 99.2602 29.3584 98.8783 29.3584C98.6874 29.3584 98.3055 29.3345 97.7327 29.2868C97.1838 29.2152 96.611 29.0004 96.0143 28.6424C95.4415 28.2605 94.9283 27.6758 94.4749 26.8882C94.0214 26.1005 93.7946 24.9788 93.7946 23.5229V17.4726H90.5368V14.1789Z" fill="white"/>
</g>
<g filter="url(#filter9_d_2133_610)">
<path d="M136.559 14.1789H139.817V8.91624C140.509 8.74918 141.106 8.59404 141.607 8.45084C142.108 8.28377 142.681 8.1167 143.326 7.94963V14.1789H147.478V17.4726H143.326V23.5945C143.326 23.7616 143.338 24.0002 143.361 24.3105C143.409 24.5969 143.517 24.8833 143.684 25.1697C143.851 25.4561 144.125 25.7067 144.507 25.9215C144.889 26.1363 145.414 26.2437 146.082 26.2437C146.249 26.2437 146.416 26.2437 146.583 26.2437C146.75 26.2437 146.906 26.2437 147.049 26.2437C147.192 26.2199 147.323 26.2079 147.443 26.2079V29.251C147.228 29.2749 146.989 29.2868 146.727 29.2868C146.488 29.3107 146.213 29.3345 145.903 29.3584C145.617 29.3584 145.283 29.3584 144.901 29.3584C144.71 29.3584 144.328 29.3345 143.755 29.2868C143.206 29.2152 142.633 29.0004 142.037 28.6424C141.464 28.2605 140.951 27.6758 140.497 26.8882C140.044 26.1005 139.817 24.9788 139.817 23.5229V17.4726H136.559V14.1789Z" fill="white"/>
</g>
<g filter="url(#filter10_d_2133_610)">
<path d="M102.147 14.1789H105.656V16.6134C106.109 15.969 106.61 15.4678 107.159 15.1098C107.708 14.7517 108.233 14.4892 108.735 14.3221C109.236 14.1551 109.689 14.0596 110.095 14.0357C110.501 14.0119 110.775 13.9999 110.918 13.9999C111.086 13.9999 111.265 13.9999 111.456 13.9999C111.67 13.9999 111.873 14.0119 112.064 14.0357V17.401C111.802 17.3533 111.587 17.3175 111.42 17.2936C111.324 17.2936 111.253 17.2936 111.205 17.2936C110.25 17.2936 109.415 17.5084 108.699 17.938C108.007 18.3437 107.434 18.8569 106.98 19.4774C106.527 20.098 106.193 20.7663 105.978 21.4823C105.763 22.1983 105.656 22.8546 105.656 23.4513V29.3584H102.147V14.1789Z" fill="white"/>
</g>
<g filter="url(#filter11_d_2133_610)">
<path d="M82.3427 25.1339C82.6053 25.4919 82.9275 25.7783 83.3094 25.9931C83.7151 26.1841 84.1089 26.3153 84.4908 26.3869C84.9204 26.5063 85.3739 26.5779 85.8512 26.6018C85.9944 26.6018 86.2331 26.6018 86.5672 26.6018C86.9252 26.5779 87.2832 26.5182 87.6412 26.4227C88.0231 26.3273 88.3453 26.196 88.6078 26.0289C88.8942 25.838 89.0375 25.5635 89.0375 25.2055C89.0375 24.7759 88.8226 24.4537 88.393 24.2389C87.9634 24.0002 87.4145 23.7974 86.7462 23.6303C86.1018 23.4632 85.3977 23.2842 84.634 23.0933C83.8941 22.9024 83.19 22.6279 82.5217 22.2699C81.8773 21.888 81.3403 21.3987 80.9107 20.8021C80.4811 20.2054 80.2663 19.4058 80.2663 18.4034C80.2663 17.8783 80.3856 17.3413 80.6243 16.7924C80.863 16.2434 81.2329 15.7542 81.7341 15.3246C82.2353 14.8711 82.8559 14.5011 83.5958 14.2147C84.3595 13.9283 85.2426 13.7851 86.245 13.7851C86.961 13.7851 87.6054 13.8687 88.1782 14.0357C88.751 14.1789 89.2523 14.3699 89.6819 14.6085C90.1115 14.8233 90.4814 15.062 90.7917 15.3246C91.102 15.5871 91.3526 15.8377 91.5435 16.0764L89.3955 18.1528C89.1091 17.938 88.7988 17.7351 88.4646 17.5442C88.1305 17.401 87.7725 17.2697 87.3906 17.1504C87.0326 17.0311 86.6388 16.9714 86.2092 16.9714C85.9705 16.9714 85.708 16.9953 85.4216 17.043C85.1352 17.0907 84.8607 17.1743 84.5982 17.2936C84.3595 17.3891 84.1566 17.5323 83.9896 17.7232C83.8464 17.9141 83.7748 18.1528 83.7748 18.4392C83.7748 18.9404 83.9896 19.3223 84.4192 19.5848C84.8488 19.8474 85.3858 20.0741 86.0302 20.265C86.6985 20.4321 87.4026 20.6111 88.1424 20.8021C88.9062 20.9691 89.6103 21.2197 90.2547 21.5539C90.923 21.888 91.4719 22.3534 91.9015 22.9501C92.3311 23.5229 92.5459 24.2986 92.5459 25.2771C92.5459 25.7545 92.4027 26.2557 92.1163 26.7808C91.8538 27.3058 91.448 27.7951 90.8991 28.2486C90.374 28.6782 89.7177 29.0362 88.9301 29.3226C88.1424 29.609 87.2236 29.7522 86.1734 29.7522C85.2903 29.7522 84.5027 29.6567 83.8106 29.4658C83.1184 29.2749 82.5098 29.0362 81.9847 28.7498C81.4597 28.4395 81.0181 28.1054 80.6601 27.7474C80.326 27.3894 80.0515 27.0552 79.8367 26.745L82.3427 25.1339Z" fill="white"/>
</g>
<defs>
<filter id="filter0_d_2133_610" x="49.9569" y="13.7852" width="20.9888" height="20.1294" filterUnits="userSpaceOnUse" color-interpolation-filters="sRGB">
<feFlood flood-opacity="0" result="BackgroundImageFix"/>
<feColorMatrix in="SourceAlpha" type="matrix" values="0 0 0 0 0 0 0 0 0 0 0 0 0 0 0 0 0 0 127 0" result="hardAlpha"/>
<feOffset dy="2.08119"/>
<feGaussianBlur stdDeviation="1.04059"/>
<feComposite in2="hardAlpha" operator="out"/>
<feColorMatrix type="matrix" values="0 0 0 0 0 0 0 0 0 0 0 0 0 0 0 0 0 0 0.15 0"/>
<feBlend mode="normal" in2="BackgroundImageFix" result="effect1_dropShadow_2133_610"/>
<feBlend mode="normal" in="SourceGraphic" in2="effect1_dropShadow_2133_610" result="shape"/>
</filter>
<filter id="filter1_d_2133_610" x="0.0191565" y="7.94971" width="20.9888" height="25.9649" filterUnits="userSpaceOnUse" color-interpolation-filters="sRGB">
<feFlood flood-opacity="0" result="BackgroundImageFix"/>
<feColorMatrix in="SourceAlpha" type="matrix" values="0 0 0 0 0 0 0 0 0 0 0 0 0 0 0 0 0 0 127 0" result="hardAlpha"/>
<feOffset dy="2.08119"/>
<feGaussianBlur stdDeviation="1.04059"/>
<feComposite in2="hardAlpha" operator="out"/>
<feColorMatrix type="matrix" values="0 0 0 0 0 0 0 0 0 0 0 0 0 0 0 0 0 0 0.15 0"/>
<feBlend mode="normal" in2="BackgroundImageFix" result="effect1_dropShadow_2133_610"/>
<feBlend mode="normal" in="SourceGraphic" in2="effect1_dropShadow_2133_610" result="shape"/>
</filter>
<filter id="filter2_d_2133_610" x="16.2694" y="7.62744" width="19.7713" height="26.2871" filterUnits="userSpaceOnUse" color-interpolation-filters="sRGB">
<feFlood flood-opacity="0" result="BackgroundImageFix"/>
<feColorMatrix in="SourceAlpha" type="matrix" values="0 0 0 0 0 0 0 0 0 0 0 0 0 0 0 0 0 0 127 0" result="hardAlpha"/>
<feOffset dy="2.08119"/>
<feGaussianBlur stdDeviation="1.04059"/>
<feComposite in2="hardAlpha" operator="out"/>
<feColorMatrix type="matrix" values="0 0 0 0 0 0 0 0 0 0 0 0 0 0 0 0 0 0 0.15 0"/>
<feBlend mode="normal" in2="BackgroundImageFix" result="effect1_dropShadow_2133_610"/>
<feBlend mode="normal" in="SourceGraphic" in2="effect1_dropShadow_2133_610" result="shape"/>
</filter>
<filter id="filter3_d_2133_610" x="106.685" y="13.7852" width="19.7713" height="20.1294" filterUnits="userSpaceOnUse" color-interpolation-filters="sRGB">
<feFlood flood-opacity="0" result="BackgroundImageFix"/>
<feColorMatrix in="SourceAlpha" type="matrix" values="0 0 0 0 0 0 0 0 0 0 0 0 0 0 0 0 0 0 127 0" result="hardAlpha"/>
<feOffset dy="2.08119"/>
<feGaussianBlur stdDeviation="1.04059"/>
<feComposite in2="hardAlpha" operator="out"/>
<feColorMatrix type="matrix" values="0 0 0 0 0 0 0 0 0 0 0 0 0 0 0 0 0 0 0.15 0"/>
<feBlend mode="normal" in2="BackgroundImageFix" result="effect1_dropShadow_2133_610"/>
<feBlend mode="normal" in="SourceGraphic" in2="effect1_dropShadow_2133_610" result="shape"/>
</filter>
<filter id="filter4_d_2133_610" x="121.347" y="13.7852" width="19.7713" height="20.1294" filterUnits="userSpaceOnUse" color-interpolation-filters="sRGB">
<feFlood flood-opacity="0" result="BackgroundImageFix"/>
<feColorMatrix in="SourceAlpha" type="matrix" values="0 0 0 0 0 0 0 0 0 0 0 0 0 0 0 0 0 0 127 0" result="hardAlpha"/>
<feOffset dy="2.08119"/>
<feGaussianBlur stdDeviation="1.04059"/>
<feComposite in2="hardAlpha" operator="out"/>
<feColorMatrix type="matrix" values="0 0 0 0 0 0 0 0 0 0 0 0 0 0 0 0 0 0 0.15 0"/>
<feBlend mode="normal" in2="BackgroundImageFix" result="effect1_dropShadow_2133_610"/>
<feBlend mode="normal" in="SourceGraphic" in2="effect1_dropShadow_2133_610" result="shape"/>
</filter>
<filter id="filter5_d_2133_610" x="29.5812" y="14.179" width="27.719" height="19.3418" filterUnits="userSpaceOnUse" color-interpolation-filters="sRGB">
<feFlood flood-opacity="0" result="BackgroundImageFix"/>
<feColorMatrix in="SourceAlpha" type="matrix" values="0 0 0 0 0 0 0 0 0 0 0 0 0 0 0 0 0 0 127 0" result="hardAlpha"/>
<feOffset dy="2.08119"/>
<feGaussianBlur stdDeviation="1.04059"/>
<feComposite in2="hardAlpha" operator="out"/>
<feColorMatrix type="matrix" values="0 0 0 0 0 0 0 0 0 0 0 0 0 0 0 0 0 0 0.15 0"/>
<feBlend mode="normal" in2="BackgroundImageFix" result="effect1_dropShadow_2133_610"/>
<feBlend mode="normal" in="SourceGraphic" in2="effect1_dropShadow_2133_610" result="shape"/>
</filter>
<filter id="filter6_d_2133_610" x="69.1432" y="7.94971" width="7.67092" height="25.5711" filterUnits="userSpaceOnUse" color-interpolation-filters="sRGB">
<feFlood flood-opacity="0" result="BackgroundImageFix"/>
<feColorMatrix in="SourceAlpha" type="matrix" values="0 0 0 0 0 0 0 0 0 0 0 0 0 0 0 0 0 0 127 0" result="hardAlpha"/>
<feOffset dy="2.08119"/>
<feGaussianBlur stdDeviation="1.04059"/>
<feComposite in2="hardAlpha" operator="out"/>
<feColorMatrix type="matrix" values="0 0 0 0 0 0 0 0 0 0 0 0 0 0 0 0 0 0 0.15 0"/>
<feBlend mode="normal" in2="BackgroundImageFix" result="effect1_dropShadow_2133_610"/>
<feBlend mode="normal" in="SourceGraphic" in2="effect1_dropShadow_2133_610" result="shape"/>
</filter>
<filter id="filter7_d_2133_610" x="74.8673" y="7.94971" width="7.67092" height="25.5711" filterUnits="userSpaceOnUse" color-interpolation-filters="sRGB">
<feFlood flood-opacity="0" result="BackgroundImageFix"/>
<feColorMatrix in="SourceAlpha" type="matrix" values="0 0 0 0 0 0 0 0 0 0 0 0 0 0 0 0 0 0 127 0" result="hardAlpha"/>
<feOffset dy="2.08119"/>
<feGaussianBlur stdDeviation="1.04059"/>
<feComposite in2="hardAlpha" operator="out"/>
<feColorMatrix type="matrix" values="0 0 0 0 0 0 0 0 0 0 0 0 0 0 0 0 0 0 0.15 0"/>
<feBlend mode="normal" in2="BackgroundImageFix" result="effect1_dropShadow_2133_610"/>
<feBlend mode="normal" in="SourceGraphic" in2="effect1_dropShadow_2133_610" result="shape"/>
</filter>
<filter id="filter8_d_2133_610" x="88.4557" y="7.94971" width="15.0816" height="25.5711" filterUnits="userSpaceOnUse" color-interpolation-filters="sRGB">
<feFlood flood-opacity="0" result="BackgroundImageFix"/>
<feColorMatrix in="SourceAlpha" type="matrix" values="0 0 0 0 0 0 0 0 0 0 0 0 0 0 0 0 0 0 127 0" result="hardAlpha"/>
<feOffset dy="2.08119"/>
<feGaussianBlur stdDeviation="1.04059"/>
<feComposite in2="hardAlpha" operator="out"/>
<feColorMatrix type="matrix" values="0 0 0 0 0 0 0 0 0 0 0 0 0 0 0 0 0 0 0.15 0"/>
<feBlend mode="normal" in2="BackgroundImageFix" result="effect1_dropShadow_2133_610"/>
<feBlend mode="normal" in="SourceGraphic" in2="effect1_dropShadow_2133_610" result="shape"/>
</filter>
<filter id="filter9_d_2133_610" x="134.478" y="7.94971" width="15.0816" height="25.5711" filterUnits="userSpaceOnUse" color-interpolation-filters="sRGB">
<feFlood flood-opacity="0" result="BackgroundImageFix"/>
<feColorMatrix in="SourceAlpha" type="matrix" values="0 0 0 0 0 0 0 0 0 0 0 0 0 0 0 0 0 0 127 0" result="hardAlpha"/>
<feOffset dy="2.08119"/>
<feGaussianBlur stdDeviation="1.04059"/>
<feComposite in2="hardAlpha" operator="out"/>
<feColorMatrix type="matrix" values="0 0 0 0 0 0 0 0 0 0 0 0 0 0 0 0 0 0 0.15 0"/>
<feBlend mode="normal" in2="BackgroundImageFix" result="effect1_dropShadow_2133_610"/>
<feBlend mode="normal" in="SourceGraphic" in2="effect1_dropShadow_2133_610" result="shape"/>
</filter>
<filter id="filter10_d_2133_610" x="100.066" y="14" width="14.0791" height="19.5208" filterUnits="userSpaceOnUse" color-interpolation-filters="sRGB">
<feFlood flood-opacity="0" result="BackgroundImageFix"/>
<feColorMatrix in="SourceAlpha" type="matrix" values="0 0 0 0 0 0 0 0 0 0 0 0 0 0 0 0 0 0 127 0" result="hardAlpha"/>
<feOffset dy="2.08119"/>
<feGaussianBlur stdDeviation="1.04059"/>
<feComposite in2="hardAlpha" operator="out"/>
<feColorMatrix type="matrix" values="0 0 0 0 0 0 0 0 0 0 0 0 0 0 0 0 0 0 0.15 0"/>
<feBlend mode="normal" in2="BackgroundImageFix" result="effect1_dropShadow_2133_610"/>
<feBlend mode="normal" in="SourceGraphic" in2="effect1_dropShadow_2133_610" result="shape"/>
</filter>
<filter id="filter11_d_2133_610" x="77.7555" y="13.7852" width="16.8716" height="20.1294" filterUnits="userSpaceOnUse" color-interpolation-filters="sRGB">
<feFlood flood-opacity="0" result="BackgroundImageFix"/>
<feColorMatrix in="SourceAlpha" type="matrix" values="0 0 0 0 0 0 0 0 0 0 0 0 0 0 0 0 0 0 127 0" result="hardAlpha"/>
<feOffset dy="2.08119"/>
<feGaussianBlur stdDeviation="1.04059"/>
<feComposite in2="hardAlpha" operator="out"/>
<feColorMatrix type="matrix" values="0 0 0 0 0 0 0 0 0 0 0 0 0 0 0 0 0 0 0.15 0"/>
<feBlend mode="normal" in2="BackgroundImageFix" result="effect1_dropShadow_2133_610"/>
<feBlend mode="normal" in="SourceGraphic" in2="effect1_dropShadow_2133_610" result="shape"/>
</filter>
</defs>
</svg>
