<svg width="427" height="427" viewBox="0 0 427 427" fill="none" xmlns="http://www.w3.org/2000/svg">
<g filter="url(#filter0_i_2524_229)">
<path d="M73.2233 0.22332C26.3392 47.1074 -2.10758e-06 110.696 0 177C2.10758e-06 243.304 26.3392 306.893 73.2233 353.777C120.107 400.661 183.696 427 250 427C316.304 427 379.893 400.661 426.777 353.777L391.421 318.421C353.914 355.929 303.043 377 250 377C196.957 377 146.086 355.929 108.579 318.421C71.0714 280.914 50 230.043 50 177C50 123.957 71.0714 73.0859 108.579 35.5787L73.2233 0.22332Z" fill="#F2F2F2"/>
</g>
<defs>
<filter id="filter0_i_2524_229" x="0" y="0.223145" width="426.777" height="426.777" filterUnits="userSpaceOnUse" color-interpolation-filters="sRGB">
<feFlood flood-opacity="0" result="BackgroundImageFix"/>
<feBlend mode="normal" in="SourceGraphic" in2="BackgroundImageFix" result="shape"/>
<feColorMatrix in="SourceAlpha" type="matrix" values="0 0 0 0 0 0 0 0 0 0 0 0 0 0 0 0 0 0 127 0" result="hardAlpha"/>
<feOffset/>
<feGaussianBlur stdDeviation="15"/>
<feComposite in2="hardAlpha" operator="arithmetic" k2="-1" k3="1"/>
<feColorMatrix type="matrix" values="0 0 0 0 0 0 0 0 0 0 0 0 0 0 0 0 0 0 0.1 0"/>
<feBlend mode="normal" in2="shape" result="effect1_innerShadow_2524_229"/>
</filter>
</defs>
</svg>
