<svg width="427" height="427" viewBox="0 0 427 427" fill="none" xmlns="http://www.w3.org/2000/svg">
<g filter="url(#filter0_i_2524_232)">
<path d="M426.777 73.2233C379.893 26.3392 316.304 -7.1134e-06 250 0C183.696 7.1134e-06 120.107 26.3392 73.2233 73.2233C26.3392 120.107 -2.10758e-06 183.696 0 250C2.10758e-06 316.304 26.3392 379.893 73.2233 426.777L108.579 391.421C71.0714 353.914 50 303.043 50 250C50 196.957 71.0714 146.086 108.579 108.579C146.086 71.0714 196.957 50 250 50C303.043 50 353.914 71.0714 391.421 108.579L426.777 73.2233Z" fill="#F2F2F2"/>
</g>
<defs>
<filter id="filter0_i_2524_232" x="0" y="0" width="426.777" height="426.777" filterUnits="userSpaceOnUse" color-interpolation-filters="sRGB">
<feFlood flood-opacity="0" result="BackgroundImageFix"/>
<feBlend mode="normal" in="SourceGraphic" in2="BackgroundImageFix" result="shape"/>
<feColorMatrix in="SourceAlpha" type="matrix" values="0 0 0 0 0 0 0 0 0 0 0 0 0 0 0 0 0 0 127 0" result="hardAlpha"/>
<feOffset/>
<feGaussianBlur stdDeviation="15"/>
<feComposite in2="hardAlpha" operator="arithmetic" k2="-1" k3="1"/>
<feColorMatrix type="matrix" values="0 0 0 0 0 0 0 0 0 0 0 0 0 0 0 0 0 0 0.1 0"/>
<feBlend mode="normal" in2="shape" result="effect1_innerShadow_2524_232"/>
</filter>
</defs>
</svg>
