<svg width="25" height="24" viewBox="0 0 25 24" fill="none" xmlns="http://www.w3.org/2000/svg">
<path d="M18.5125 8C18.5125 6.4087 17.8797 4.88258 16.7533 3.75736C15.6269 2.63214 14.0992 2 12.5062 2C10.9132 2 9.38553 2.63214 8.25914 3.75736C7.13275 4.88258 6.49995 6.4087 6.49995 8C6.49995 15 3.49683 17 3.49683 17H21.5156C21.5156 17 18.5125 15 18.5125 8Z" stroke="#8a8a8a" stroke-linecap="round" stroke-linejoin="round"/>
<path d="M14.2379 21C14.0619 21.3031 13.8093 21.5547 13.5054 21.7295C13.2014 21.9044 12.8568 21.9965 12.5061 21.9965C12.1553 21.9965 11.8108 21.9044 11.5068 21.7295C11.2029 21.5547 10.9503 21.3031 10.7743 21" stroke="#8a8a8a" stroke-linecap="round" stroke-linejoin="round"/>
</svg>
