<svg width="30" height="31" viewBox="0 0 30 31" fill="none" xmlns="http://www.w3.org/2000/svg">
<path d="M3.86566 12.3213H26.1456" stroke="url(#paint0_radial_2507_142)" stroke-linecap="round" stroke-linejoin="round"/>
<path d="M9.44733 15.7666C8.65342 15.7666 8.00983 16.4102 8.00983 17.2041C8.00983 17.998 8.65342 18.6416 9.44733 18.6416H9.45891C10.2528 18.6416 10.8964 17.998 10.8964 17.2041C10.8964 16.4102 10.2528 15.7666 9.45891 15.7666H9.44733ZM15.0058 15.7666C14.2119 15.7666 13.5683 16.4102 13.5683 17.2041C13.5683 17.998 14.2119 18.6416 15.0058 18.6416H15.0173C15.8113 18.6416 16.4548 17.998 16.4548 17.2041C16.4548 16.4103 15.8113 15.7666 15.0173 15.7666H15.0058ZM20.5525 15.7666C19.7586 15.7666 19.115 16.4102 19.115 17.2041C19.115 17.998 19.7586 18.6416 20.5525 18.6416H20.5641C21.358 18.6416 22.0016 17.998 22.0016 17.2041C22.0016 16.4102 21.358 15.7666 20.5641 15.7666H20.5525ZM20.5525 20.6247C19.7586 20.6247 19.115 21.2683 19.115 22.0622C19.115 22.8561 19.7586 23.4997 20.5525 23.4997H20.5641C21.358 23.4997 22.0016 22.8561 22.0016 22.0622C22.0016 21.2683 21.358 20.6247 20.5641 20.6247H20.5525ZM15.0058 20.6247C14.2119 20.6247 13.5683 21.2683 13.5683 22.0622C13.5683 22.8561 14.2119 23.4997 15.0058 23.4997H15.0173C15.8113 23.4997 16.4548 22.8561 16.4548 22.0622C16.4548 21.2684 15.8113 20.6247 15.0173 20.6247H15.0058ZM9.44733 20.6247C8.65342 20.6247 8.00983 21.2683 8.00983 22.0622C8.00983 22.8561 8.65342 23.4997 9.44733 23.4997H9.45891C10.2528 23.4997 10.8964 22.8561 10.8964 22.0622C10.8964 21.2683 10.2528 20.6247 9.45891 20.6247H9.44733Z" stroke="url(#paint1_radial_2507_142)"/>
<path d="M20.0547 3.06641V7.17988" stroke="white" stroke-linecap="round" stroke-linejoin="round"/>
<path d="M9.95673 3.06641V7.17988" stroke="white" stroke-linecap="round" stroke-linejoin="round"/>
<path fill-rule="evenodd" clip-rule="evenodd" d="M20.2979 5.04004H9.7137C6.04284 5.04004 3.75 7.08496 3.75 10.8438V22.1559C3.75 25.9738 6.04284 28.066 9.7137 28.066H20.2863C23.9688 28.066 26.25 26.0093 26.25 22.2504V10.8438C26.2615 7.08496 23.9803 5.04004 20.2979 5.04004Z" stroke="white" stroke-linecap="round" stroke-linejoin="round"/>
<defs>
<radialGradient id="paint0_radial_2507_142" cx="0" cy="0" r="1" gradientUnits="userSpaceOnUse" gradientTransform="translate(4.58437 12.5809) rotate(1.26766) scale(21.297 21.9636)">
<stop stop-color="#293EFF"/>
<stop offset="0.470486" stop-color="#8F00FF"/>
<stop offset="1" stop-color="#FF7A00"/>
<stop offset="1" stop-color="#0047FF"/>
</radialGradient>
<radialGradient id="paint1_radial_2507_142" cx="0" cy="0" r="1" gradientUnits="userSpaceOnUse" gradientTransform="translate(8.92892 18.0146) rotate(14.3332) scale(12.8144 143.316)">
<stop stop-color="#293EFF"/>
<stop offset="0.470486" stop-color="#8F00FF"/>
<stop offset="1" stop-color="#FF7A00"/>
<stop offset="1" stop-color="#0047FF"/>
</radialGradient>
</defs>
</svg>
