<svg width="19" height="18" viewBox="0 0 19 18" fill="none" xmlns="http://www.w3.org/2000/svg">
<path d="M17.6634 12.7919V15.0659C17.6644 15.277 17.616 15.486 17.5213 15.6794C17.4267 15.8729 17.2879 16.0465 17.1138 16.1892C16.9397 16.3319 16.7342 16.4406 16.5104 16.5082C16.2865 16.5758 16.0494 16.601 15.8141 16.582C13.2037 16.3285 10.6962 15.5315 8.49312 14.2549C6.44344 13.0911 4.70567 11.5383 3.40321 9.70685C1.96954 7.72937 1.07733 5.47793 0.798878 3.13495C0.777679 2.92533 0.805558 2.71407 0.880741 2.51461C0.955923 2.31515 1.07676 2.13187 1.23556 1.97643C1.39436 1.82098 1.58765 1.69679 1.80311 1.61175C2.01857 1.52671 2.25149 1.48269 2.48703 1.4825H5.03198C5.44368 1.47887 5.8428 1.60914 6.15495 1.84902C6.46711 2.08889 6.671 2.422 6.72862 2.78626C6.83603 3.514 7.03524 4.22854 7.32244 4.91626C7.43658 5.18757 7.46128 5.48242 7.39362 5.76589C7.32596 6.04936 7.16878 6.30955 6.9407 6.51565L5.86333 7.47831C7.07096 9.37601 8.82944 10.9473 10.9532 12.0263L12.0306 11.0637C12.2613 10.8599 12.5524 10.7194 12.8697 10.659C13.1869 10.5985 13.5169 10.6206 13.8206 10.7226C14.5902 10.9792 15.3899 11.1572 16.2043 11.2532C16.6164 11.3051 16.9928 11.4906 17.2618 11.7743C17.5308 12.058 17.6738 12.4202 17.6634 12.7919Z" stroke="#787878" stroke-width="1.01798" stroke-linecap="round" stroke-linejoin="round"/>
</svg>
