<svg width="26" height="20" viewBox="0 0 26 20" fill="none" xmlns="http://www.w3.org/2000/svg">
<path d="M23.3862 17.135C25.745 14.575 25.5075 11.2875 25.5 11.25V1.25C25.5 0.918479 25.3683 0.600537 25.1339 0.366117C24.8995 0.131696 24.5815 0 24.25 0H16.75C15.3712 0 14.25 1.12125 14.25 2.5V11.25C14.25 11.5815 14.3817 11.8995 14.6161 12.1339C14.8505 12.3683 15.1685 12.5 15.5 12.5H19.3475C19.3211 13.118 19.1364 13.7188 18.8112 14.245C18.1762 15.2462 16.98 15.93 15.2537 16.275L14.25 16.475V20H15.5C18.9787 20 21.6325 19.0362 23.3862 17.135ZM9.62749 17.135C11.9875 14.575 11.7487 11.2875 11.7412 11.25V1.25C11.7412 0.918479 11.6095 0.600537 11.3751 0.366117C11.1407 0.131696 10.8228 0 10.4912 0H2.99124C1.61249 0 0.491241 1.12125 0.491241 2.5V11.25C0.491241 11.5815 0.622937 11.8995 0.857358 12.1339C1.09178 12.3683 1.40972 12.5 1.74124 12.5H5.58874C5.56233 13.118 5.37769 13.7188 5.05249 14.245C4.41749 15.2462 3.22124 15.93 1.49499 16.275L0.491241 16.475V20H1.74124C5.21999 20 7.87374 19.0362 9.62749 17.135V17.135Z" fill="#AAAAAA"/>
</svg>
