<svg width="30" height="30" viewBox="0 0 30 30" fill="none" xmlns="http://www.w3.org/2000/svg">
<path d="M26.25 12.5C26.25 21.25 15 28.75 15 28.75C15 28.75 3.75 21.25 3.75 12.5C3.75 9.51631 4.93526 6.65483 7.04505 4.54505C9.15483 2.43526 12.0163 1.25 15 1.25C17.9837 1.25 20.8452 2.43526 22.955 4.54505C25.0647 6.65483 26.25 9.51631 26.25 12.5Z" stroke="white" stroke-linecap="round" stroke-linejoin="round"/>
<path d="M15 16.25C17.0711 16.25 18.75 14.5711 18.75 12.5C18.75 10.4289 17.0711 8.75 15 8.75C12.9289 8.75 11.25 10.4289 11.25 12.5C11.25 14.5711 12.9289 16.25 15 16.25Z" stroke="url(#paint0_radial_2584_181)" stroke-linecap="round" stroke-linejoin="round"/>
<defs>
<radialGradient id="paint0_radial_2584_181" cx="0" cy="0" r="1" gradientUnits="userSpaceOnUse" gradientTransform="translate(11.4919 10.6971) rotate(26.2443) scale(7.99109 147.783)">
<stop stop-color="#293EFF"/>
<stop offset="0.470486" stop-color="#8F00FF"/>
<stop offset="1" stop-color="#FF7A00"/>
<stop offset="1" stop-color="#0047FF"/>
</radialGradient>
</defs>
</svg>
