<svg width="26" height="21" viewBox="0 0 26 21" fill="none" xmlns="http://www.w3.org/2000/svg">
<path d="M2.95995 3.60251C4.65524 1.76463 7.22053 0.833008 10.5833 0.833008H11.7917V4.2393L10.8202 4.43384C9.16474 4.76492 8.0132 5.41621 7.39695 6.37201C7.0754 6.88691 6.89304 7.47648 6.8677 8.08301H10.5833C10.9038 8.08301 11.2111 8.21031 11.4377 8.43692C11.6643 8.66353 11.7917 8.97087 11.7917 9.29134V17.7497C11.7917 19.0825 10.7078 20.1663 9.37499 20.1663H2.12499C1.80452 20.1663 1.49717 20.039 1.27057 19.8124C1.04396 19.5858 0.916655 19.2785 0.916655 18.958V12.9163L0.92028 9.38922C0.909405 9.25509 0.679822 6.07717 2.95995 3.60251ZM22.6667 20.1663H15.4167C15.0962 20.1663 14.7888 20.039 14.5622 19.8124C14.3356 19.5858 14.2083 19.2785 14.2083 18.958V12.9163L14.2119 9.38922C14.2011 9.25509 13.9715 6.07717 16.2516 3.60251C17.9469 1.76463 20.5122 0.833008 23.875 0.833008H25.0833V4.2393L24.1118 4.43384C22.4564 4.76492 21.3049 5.41621 20.6886 6.37201C20.3671 6.88691 20.1847 7.47648 20.1594 8.08301H23.875C24.1955 8.08301 24.5028 8.21031 24.7294 8.43692C24.956 8.66353 25.0833 8.97087 25.0833 9.29134V17.7497C25.0833 19.0825 23.9994 20.1663 22.6667 20.1663Z" fill="#AAAAAA"/>
</svg>
