<svg width="31" height="30" viewBox="0 0 31 30" fill="none" xmlns="http://www.w3.org/2000/svg">
<g clip-path="url(#clip0_2585_186)">
<path d="M29.25 10H26.75C26.0596 10 25.5 10.5596 25.5 11.25C25.5 11.9404 26.0596 12.5 26.75 12.5H28V18.75H26.7262C26.5587 17.4304 25.494 16.391 24.1623 16.2635L23.3016 4.5757C23.1545 2.00883 20.9634 0 18.3275 0H12.6725C10.0366 0 7.84549 2.00883 7.69707 4.59592L6.83768 16.2635C5.50596 16.391 4.44119 17.4304 4.27379 18.75H2.99996V12.5H4.25C4.94035 12.5 5.49998 11.9404 5.49998 11.25C5.49998 10.5596 4.94035 10 4.25 10H1.74998C1.05963 10 0.5 10.5596 0.5 11.25V20C0.5 20.6903 1.05963 21.25 1.74998 21.25H4.25V22.5C4.25 23.1903 4.80963 23.75 5.49998 23.75H6.74996V28.75C6.74996 29.4403 7.30959 29.9999 7.99994 29.9999H11.7499C12.4403 29.9999 12.9999 29.4403 12.9999 28.75V23.75H17.9999V28.75C17.9999 29.4403 18.5595 29.9999 19.2499 29.9999H22.9999C23.6902 29.9999 24.2499 29.4403 24.2499 28.75V23.75H25.4998C26.1902 23.75 26.7498 23.1903 26.7498 22.5V21.25H29.2498C29.9402 21.25 30.4998 20.6904 30.4998 20V11.25C30.5 10.5596 29.9404 10 29.25 10ZM10.1916 4.75928C10.2645 3.49131 11.3458 2.49996 12.6725 2.49996H18.3275C19.6542 2.49996 20.7355 3.49125 20.8071 4.73906L21.6546 16.25H9.34543L10.1916 4.75928ZM10.5 27.5H9.25004V23.75H10.5V27.5ZM21.75 27.5H20.5V23.75H21.75V27.5ZM24.25 21.25H23H19.25H11.75H8H6.75002V19.1137C6.75002 18.9128 6.91285 18.75 7.11377 18.75H8H23H23.8862C24.0871 18.75 24.25 18.9128 24.25 19.1137V21.25Z" fill="white"/>
</g>
<defs>
<clipPath id="clip0_2585_186">
<rect width="30" height="30" fill="white" transform="translate(0.5)"/>
</clipPath>
</defs>
</svg>
