<svg width="100" height="101" viewBox="0 0 100 101" fill="none" xmlns="http://www.w3.org/2000/svg">
<path d="M91.8983 73.6365L78.9367 71.8215L73.15 60.5215C72.58 59.4082 70.7533 59.4082 70.185 60.5215L64.3983 71.8215L51.4367 73.6365C50.8017 73.7265 50.2733 74.1699 50.08 74.7832C49.8867 75.3965 50.06 76.0632 50.5283 76.5015L59.87 85.2799L57.6667 97.6565C57.5567 98.2782 57.8067 98.9099 58.3133 99.2865C58.82 99.6649 59.5 99.7232 60.0617 99.4349L71.6667 93.5532L83.2733 99.4332C83.5117 99.5549 83.77 99.6132 84.0267 99.6132C84.3783 99.6132 84.7283 99.5032 85.0217 99.2849C85.5283 98.9082 85.7783 98.2782 85.6683 97.6549L83.4667 85.2765L92.8083 76.4982C93.275 76.0582 93.45 75.3915 93.2567 74.7799C93.0633 74.1682 92.5333 73.7265 91.8983 73.6365ZM80.525 83.4665C80.115 83.8515 79.9267 84.4182 80.025 84.9715L81.7983 94.9499L72.4183 90.1965C72.18 90.0765 71.9233 90.0165 71.665 90.0165C71.4067 90.0165 71.1483 90.0765 70.9117 90.1965L61.5317 94.9499L63.305 84.9715C63.405 84.4182 63.215 83.8515 62.805 83.4665L55.34 76.4549L65.715 75.0015C66.2517 74.9265 66.72 74.5949 66.9667 74.1115L71.6667 64.9382L76.3633 74.1115C76.61 74.5949 77.0783 74.9265 77.615 75.0015L87.99 76.4549L80.525 83.4665Z" fill="url(#paint0_radial_2507_111)"/>
<path d="M52.3967 59.6079C53.965 59.6079 55.475 58.9879 56.5933 57.8679C57.8217 56.6396 58.45 54.9413 58.315 53.2063C58.18 51.4713 57.295 49.8896 55.8833 48.8629L34.31 33.2579C33.65 32.7829 32.735 32.8529 32.155 33.4313C31.575 34.0113 31.5033 34.9246 31.9817 35.5863L47.59 57.1646C48.6133 58.5713 50.195 59.4563 51.93 59.5913C52.0883 59.6013 52.2433 59.6079 52.3967 59.6079ZM50.29 55.2046L40.7683 42.0429L53.9267 51.5613C54.545 52.0113 54.9333 52.7063 54.9933 53.4679C55.0533 54.2279 54.7767 54.9729 54.2383 55.5129C53.6983 56.0529 52.9433 56.3213 52.1933 56.2679C51.43 56.2079 50.735 55.8179 50.29 55.2046Z" fill="white"/>
<path d="M50 1.27441C49.0783 1.27441 48.3333 2.01941 48.3333 2.94108V25.0927C48.3333 26.0144 49.0783 26.7594 50 26.7594C50.9217 26.7594 51.6667 26.0144 51.6667 25.0927V4.63608C76.6317 5.51775 96.6667 26.0994 96.6667 51.2744C96.6667 57.0544 95.61 62.7127 93.5283 68.0977C93.1967 68.9561 93.6233 69.9211 94.4817 70.2527C94.6783 70.3294 94.8817 70.3644 95.0817 70.3644C95.7483 70.3644 96.38 69.9594 96.6367 69.2977C98.8683 63.5294 100 57.4661 100 51.2744C100 23.7044 77.57 1.27441 50 1.27441Z" fill="white"/>
<path d="M38.7383 96.573C17.8917 91.4097 3.33333 72.7813 3.33333 51.2747C3.33333 38.8413 8.16667 27.143 16.9433 18.333C17.595 17.6797 17.5917 16.6263 16.94 15.9763C16.2867 15.323 15.2333 15.3297 14.5833 15.9797C5.17833 25.4197 0 37.9547 0 51.2747C0 74.3163 15.6 94.2747 37.9383 99.8097C38.0717 99.843 38.2067 99.858 38.34 99.858C39.0867 99.858 39.7667 99.3497 39.9567 98.5913C40.1767 97.698 39.6317 96.7947 38.7383 96.573Z" fill="white"/>
<defs>
<radialGradient id="paint0_radial_2507_111" cx="0" cy="0" r="1" gradientUnits="userSpaceOnUse" gradientTransform="translate(51.4 70.053) rotate(24.4331) scale(45.4833 798.665)">
<stop stop-color="#293EFF"/>
<stop offset="0.470486" stop-color="#8F00FF"/>
<stop offset="1" stop-color="#FF7A00"/>
<stop offset="1" stop-color="#0047FF"/>
</radialGradient>
</defs>
</svg>
