<svg width="25" height="25" viewBox="0 0 25 25" fill="none" xmlns="http://www.w3.org/2000/svg">
<path d="M15.2 6.79998C15.0167 6.98691 14.9141 7.23823 14.9141 7.49998C14.9141 7.76173 15.0167 8.01305 15.2 8.19998L16.8 9.79998C16.9869 9.98321 17.2382 10.0858 17.5 10.0858C17.7617 10.0858 18.013 9.98321 18.2 9.79998L21.97 6.02998C22.4728 7.14117 22.6251 8.37921 22.4064 9.57913C22.1878 10.779 21.6087 11.8838 20.7463 12.7463C19.8838 13.6087 18.779 14.1878 17.5791 14.4064C16.3792 14.6251 15.1412 14.4728 14.03 13.97L7.11998 20.88C6.72215 21.2778 6.18259 21.5013 5.61998 21.5013C5.05737 21.5013 4.5178 21.2778 4.11998 20.88C3.72215 20.4822 3.49866 19.9426 3.49866 19.38C3.49866 18.8174 3.72215 18.2778 4.11998 17.88L11.03 10.97C10.5271 9.85879 10.3749 8.62075 10.5935 7.42083C10.8121 6.22092 11.3913 5.11614 12.2537 4.2537C13.1161 3.39127 14.2209 2.81215 15.4208 2.59352C16.6207 2.3749 17.8588 2.52714 18.97 3.02998L15.21 6.78998L15.2 6.79998Z" stroke="#0066FF" stroke-linecap="round" stroke-linejoin="round"/>
</svg>
