<svg width="208" height="72" viewBox="0 0 208 72" fill="none" xmlns="http://www.w3.org/2000/svg">
<path d="M11 35.5L6 39.5H2V45.5H6L11 49.5V35.5Z" stroke="#00CE53" stroke-width="2" stroke-linecap="round" stroke-linejoin="round"/>
<path d="M19.07 35.4299C20.9447 37.3052 21.9978 39.8483 21.9978 42.4999C21.9978 45.1516 20.9447 47.6947 19.07 49.5699M15.54 38.9599C16.4773 39.8976 17.0039 41.1691 17.0039 42.4949C17.0039 43.8208 16.4773 45.0923 15.54 46.0299" stroke="#00CE53" stroke-width="2" stroke-linecap="round" stroke-linejoin="round"/>
<g filter="url(#filter0_d_2439_72)">
<path d="M42.8624 33.05C43.0457 33.3 43.2707 33.5 43.5374 33.65C43.8207 33.7833 44.0957 33.875 44.3624 33.925C44.6624 34.0083 44.9791 34.0583 45.3124 34.075C45.4124 34.075 45.5791 34.075 45.8124 34.075C46.0624 34.0583 46.3124 34.0167 46.5624 33.95C46.8291 33.8833 47.0541 33.7917 47.2374 33.675C47.4374 33.5417 47.5374 33.35 47.5374 33.1C47.5374 32.8 47.3874 32.575 47.0874 32.425C46.7874 32.2583 46.4041 32.1167 45.9374 32C45.4874 31.8833 44.9957 31.7583 44.4624 31.625C43.9457 31.4917 43.4541 31.3 42.9874 31.05C42.5374 30.7833 42.1624 30.4417 41.8624 30.025C41.5624 29.6083 41.4124 29.05 41.4124 28.35C41.4124 27.9833 41.4957 27.6083 41.6624 27.225C41.8291 26.8417 42.0874 26.5 42.4374 26.2C42.7874 25.8833 43.2207 25.625 43.7374 25.425C44.2707 25.225 44.8874 25.125 45.5874 25.125C46.0874 25.125 46.5374 25.1833 46.9374 25.3C47.3374 25.4 47.6874 25.5333 47.9874 25.7C48.2874 25.85 48.5457 26.0167 48.7624 26.2C48.9791 26.3833 49.1541 26.5583 49.2874 26.725L47.7874 28.175C47.5874 28.025 47.3707 27.8833 47.1374 27.75C46.9041 27.65 46.6541 27.5583 46.3874 27.475C46.1374 27.3917 45.8624 27.35 45.5624 27.35C45.3957 27.35 45.2124 27.3667 45.0124 27.4C44.8124 27.4333 44.6207 27.4917 44.4374 27.575C44.2707 27.6417 44.1291 27.7417 44.0124 27.875C43.9124 28.0083 43.8624 28.175 43.8624 28.375C43.8624 28.725 44.0124 28.9917 44.3124 29.175C44.6124 29.3583 44.9874 29.5167 45.4374 29.65C45.9041 29.7667 46.3957 29.8917 46.9124 30.025C47.4457 30.1417 47.9374 30.3167 48.3874 30.55C48.8541 30.7833 49.2374 31.1083 49.5374 31.525C49.8374 31.925 49.9874 32.4667 49.9874 33.15C49.9874 33.4833 49.8874 33.8333 49.6874 34.2C49.5041 34.5667 49.2207 34.9083 48.8374 35.225C48.4707 35.525 48.0124 35.775 47.4624 35.975C46.9124 36.175 46.2707 36.275 45.5374 36.275C44.9207 36.275 44.3707 36.2083 43.8874 36.075C43.4041 35.9417 42.9791 35.775 42.6124 35.575C42.2457 35.3583 41.9374 35.125 41.6874 34.875C41.4541 34.625 41.2624 34.3917 41.1124 34.175L42.8624 33.05ZM57.6872 30.075C57.6872 29.875 57.6705 29.625 57.6372 29.325C57.6039 29.025 57.5039 28.7333 57.3372 28.45C57.1872 28.1667 56.9539 27.925 56.6372 27.725C56.3205 27.525 55.8705 27.425 55.2872 27.425C54.7705 27.425 54.3372 27.5417 53.9872 27.775C53.6372 27.9917 53.3622 28.2583 53.1622 28.575C52.9622 28.875 52.8205 29.1917 52.7372 29.525C52.6539 29.8417 52.6122 30.0917 52.6122 30.275V36H50.1622V21.05H52.6122V26.475C52.8955 26.1417 53.2122 25.8833 53.5622 25.7C53.9289 25.5167 54.2705 25.3833 54.5872 25.3C54.9205 25.2167 55.2039 25.1667 55.4372 25.15C55.6872 25.1333 55.8289 25.125 55.8622 25.125C56.9289 25.125 57.7539 25.325 58.3372 25.725C58.9205 26.125 59.3455 26.5667 59.6122 27.05C59.8789 27.5333 60.0289 27.9833 60.0622 28.4C60.1122 28.8167 60.1372 29.05 60.1372 29.1V36H57.6872V30.075ZM66.2493 25.125C67.066 25.125 67.8243 25.275 68.5243 25.575C69.2243 25.8583 69.8327 26.2583 70.3493 26.775C70.8827 27.275 71.2993 27.8667 71.5993 28.55C71.8993 29.2167 72.0493 29.9333 72.0493 30.7C72.0493 31.4667 71.8993 32.1917 71.5993 32.875C71.2993 33.5417 70.8827 34.1333 70.3493 34.65C69.8327 35.15 69.2243 35.55 68.5243 35.85C67.8243 36.1333 67.066 36.275 66.2493 36.275C65.4327 36.275 64.6743 36.1333 63.9743 35.85C63.2743 35.55 62.6576 35.15 62.1243 34.65C61.6076 34.1333 61.1993 33.5417 60.8993 32.875C60.5993 32.1917 60.4493 31.4667 60.4493 30.7C60.4493 29.9333 60.5993 29.2167 60.8993 28.55C61.1993 27.8667 61.6076 27.275 62.1243 26.775C62.6576 26.2583 63.2743 25.8583 63.9743 25.575C64.6743 25.275 65.4327 25.125 66.2493 25.125ZM66.2493 33.975C66.716 33.975 67.1493 33.8917 67.5493 33.725C67.966 33.5583 68.3243 33.3333 68.6243 33.05C68.9243 32.7667 69.1577 32.425 69.3243 32.025C69.5077 31.6083 69.5993 31.1667 69.5993 30.7C69.5993 30.2167 69.5077 29.775 69.3243 29.375C69.1577 28.975 68.9243 28.6333 68.6243 28.35C68.3243 28.0667 67.966 27.8417 67.5493 27.675C67.1493 27.5083 66.716 27.425 66.2493 27.425C65.7826 27.425 65.341 27.5083 64.9243 27.675C64.5243 27.8417 64.1743 28.0667 63.8743 28.35C63.5743 28.6333 63.3326 28.975 63.1493 29.375C62.9827 29.775 62.8993 30.2167 62.8993 30.7C62.8993 31.1667 62.9827 31.6083 63.1493 32.025C63.3326 32.425 63.5743 32.7667 63.8743 33.05C64.1743 33.3333 64.5243 33.5583 64.9243 33.725C65.341 33.8917 65.7826 33.975 66.2493 33.975ZM77.4659 36.275C76.3159 36.275 75.4076 36.075 74.7409 35.675C74.0743 35.2583 73.5659 34.775 73.2159 34.225C72.8826 33.675 72.6743 33.1167 72.5909 32.55C72.5076 31.9833 72.4659 31.5417 72.4659 31.225V25.4H74.9159V31.325C74.9159 31.525 74.9409 31.775 74.9909 32.075C75.0409 32.375 75.1493 32.6667 75.3159 32.95C75.4993 33.2333 75.7576 33.475 76.0909 33.675C76.4409 33.875 76.8993 33.975 77.4659 33.975C78.0326 33.975 78.4826 33.875 78.8159 33.675C79.1659 33.475 79.4243 33.2333 79.5909 32.95C79.7743 32.6667 79.8909 32.375 79.9409 32.075C79.9909 31.775 80.0159 31.525 80.0159 31.325V25.4H82.4659V31.225C82.4659 31.5417 82.4243 31.9833 82.3409 32.55C82.2576 33.1167 82.0409 33.675 81.6909 34.225C81.3576 34.775 80.8576 35.2583 80.1909 35.675C79.5243 36.075 78.6159 36.275 77.4659 36.275ZM82.5024 25.4H84.7774V21.725C85.2608 21.6083 85.6774 21.5 86.0274 21.4C86.3774 21.2833 86.7774 21.1667 87.2274 21.05V25.4H90.1274V27.7H87.2274V31.975C87.2274 32.0917 87.2358 32.2583 87.2524 32.475C87.2858 32.675 87.3608 32.875 87.4774 33.075C87.5941 33.275 87.7858 33.45 88.0524 33.6C88.3191 33.75 88.6858 33.825 89.1524 33.825C89.2691 33.825 89.3858 33.825 89.5024 33.825C89.6191 33.825 89.7274 33.825 89.8274 33.825C89.9274 33.8083 90.0191 33.8 90.1024 33.8V35.925C89.9524 35.9417 89.7858 35.95 89.6024 35.95C89.4358 35.9667 89.2441 35.9833 89.0274 36C88.8274 36 88.5941 36 88.3274 36C88.1941 36 87.9274 35.9833 87.5274 35.95C87.1441 35.9 86.7441 35.75 86.3274 35.5C85.9274 35.2333 85.5691 34.825 85.2524 34.275C84.9358 33.725 84.7774 32.9417 84.7774 31.925V27.7H82.5024V25.4ZM91.5489 33.05C91.7323 33.3 91.9573 33.5 92.2239 33.65C92.5073 33.7833 92.7823 33.875 93.0489 33.925C93.3489 34.0083 93.6656 34.0583 93.9989 34.075C94.0989 34.075 94.2656 34.075 94.4989 34.075C94.7489 34.0583 94.9989 34.0167 95.2489 33.95C95.5156 33.8833 95.7406 33.7917 95.9239 33.675C96.1239 33.5417 96.2239 33.35 96.2239 33.1C96.2239 32.8 96.0739 32.575 95.7739 32.425C95.4739 32.2583 95.0906 32.1167 94.6239 32C94.1739 31.8833 93.6823 31.7583 93.1489 31.625C92.6323 31.4917 92.1406 31.3 91.6739 31.05C91.2239 30.7833 90.8489 30.4417 90.5489 30.025C90.2489 29.6083 90.0989 29.05 90.0989 28.35C90.0989 27.9833 90.1823 27.6083 90.3489 27.225C90.5156 26.8417 90.7739 26.5 91.1239 26.2C91.4739 25.8833 91.9073 25.625 92.4239 25.425C92.9573 25.225 93.5739 25.125 94.2739 25.125C94.7739 25.125 95.2239 25.1833 95.6239 25.3C96.0239 25.4 96.3739 25.5333 96.6739 25.7C96.9739 25.85 97.2323 26.0167 97.4489 26.2C97.6656 26.3833 97.8406 26.5583 97.9739 26.725L96.4739 28.175C96.2739 28.025 96.0573 27.8833 95.8239 27.75C95.5906 27.65 95.3406 27.5583 95.0739 27.475C94.8239 27.3917 94.5489 27.35 94.2489 27.35C94.0823 27.35 93.8989 27.3667 93.6989 27.4C93.4989 27.4333 93.3073 27.4917 93.1239 27.575C92.9573 27.6417 92.8156 27.7417 92.6989 27.875C92.5989 28.0083 92.5489 28.175 92.5489 28.375C92.5489 28.725 92.6989 28.9917 92.9989 29.175C93.2989 29.3583 93.6739 29.5167 94.1239 29.65C94.5906 29.7667 95.0823 29.8917 95.5989 30.025C96.1323 30.1417 96.6239 30.3167 97.0739 30.55C97.5406 30.7833 97.9239 31.1083 98.2239 31.525C98.5239 31.925 98.6739 32.4667 98.6739 33.15C98.6739 33.4833 98.5739 33.8333 98.3739 34.2C98.1906 34.5667 97.9073 34.9083 97.5239 35.225C97.1573 35.525 96.6989 35.775 96.1489 35.975C95.5989 36.175 94.9573 36.275 94.2239 36.275C93.6073 36.275 93.0573 36.2083 92.5739 36.075C92.0906 35.9417 91.6656 35.775 91.2989 35.575C90.9323 35.3583 90.6239 35.125 90.3739 34.875C90.1406 34.625 89.9489 34.3917 89.7989 34.175L91.5489 33.05ZM101.299 40.375H98.8487V25.4H101.299V26.475C101.665 26.1417 102.032 25.8833 102.399 25.7C102.765 25.5167 103.115 25.3833 103.449 25.3C103.782 25.2167 104.09 25.1667 104.374 25.15C104.674 25.1333 104.932 25.125 105.149 25.125C105.899 25.125 106.599 25.275 107.249 25.575C107.915 25.8583 108.49 26.2583 108.974 26.775C109.474 27.275 109.865 27.8667 110.149 28.55C110.449 29.2167 110.599 29.9333 110.599 30.7C110.599 31.4667 110.449 32.1917 110.149 32.875C109.865 33.5417 109.474 34.1333 108.974 34.65C108.49 35.15 107.915 35.55 107.249 35.85C106.599 36.1333 105.899 36.275 105.149 36.275C104.932 36.275 104.674 36.2667 104.374 36.25C104.09 36.2333 103.782 36.1833 103.449 36.1C103.115 36.0167 102.765 35.8833 102.399 35.7C102.032 35.5167 101.665 35.2583 101.299 34.925V40.375ZM104.749 33.975C105.215 33.975 105.657 33.9 106.074 33.75C106.49 33.5833 106.849 33.3583 107.149 33.075C107.465 32.775 107.707 32.425 107.874 32.025C108.057 31.625 108.149 31.1833 108.149 30.7C108.149 30.2167 108.057 29.775 107.874 29.375C107.707 28.975 107.465 28.6333 107.149 28.35C106.849 28.05 106.49 27.825 106.074 27.675C105.657 27.5083 105.215 27.425 104.749 27.425C104.282 27.425 103.832 27.5083 103.399 27.675C102.982 27.825 102.615 28.05 102.299 28.35C101.999 28.6333 101.757 28.975 101.574 29.375C101.39 29.775 101.299 30.2167 101.299 30.7C101.299 31.1833 101.39 31.625 101.574 32.025C101.757 32.425 101.999 32.775 102.299 33.075C102.615 33.3583 102.982 33.5833 103.399 33.75C103.832 33.9 104.282 33.975 104.749 33.975ZM116.45 25.125C117.266 25.125 118.025 25.275 118.725 25.575C119.425 25.8583 120.033 26.2583 120.55 26.775C121.083 27.275 121.5 27.8667 121.8 28.55C122.1 29.2167 122.25 29.9333 122.25 30.7C122.25 31.4667 122.1 32.1917 121.8 32.875C121.5 33.5417 121.083 34.1333 120.55 34.65C120.033 35.15 119.425 35.55 118.725 35.85C118.025 36.1333 117.266 36.275 116.45 36.275C115.633 36.275 114.875 36.1333 114.175 35.85C113.475 35.55 112.858 35.15 112.325 34.65C111.808 34.1333 111.4 33.5417 111.1 32.875C110.8 32.1917 110.65 31.4667 110.65 30.7C110.65 29.9333 110.8 29.2167 111.1 28.55C111.4 27.8667 111.808 27.275 112.325 26.775C112.858 26.2583 113.475 25.8583 114.175 25.575C114.875 25.275 115.633 25.125 116.45 25.125ZM116.45 33.975C116.916 33.975 117.35 33.8917 117.75 33.725C118.166 33.5583 118.525 33.3333 118.825 33.05C119.125 32.7667 119.358 32.425 119.525 32.025C119.708 31.6083 119.8 31.1667 119.8 30.7C119.8 30.2167 119.708 29.775 119.525 29.375C119.358 28.975 119.125 28.6333 118.825 28.35C118.525 28.0667 118.166 27.8417 117.75 27.675C117.35 27.5083 116.916 27.425 116.45 27.425C115.983 27.425 115.541 27.5083 115.125 27.675C114.725 27.8417 114.375 28.0667 114.075 28.35C113.775 28.6333 113.533 28.975 113.35 29.375C113.183 29.775 113.1 30.2167 113.1 30.7C113.1 31.1667 113.183 31.6083 113.35 32.025C113.533 32.425 113.775 32.7667 114.075 33.05C114.375 33.3333 114.725 33.5583 115.125 33.725C115.541 33.8917 115.983 33.975 116.45 33.975ZM121.891 25.4H124.166V21.725C124.649 21.6083 125.066 21.5 125.416 21.4C125.766 21.2833 126.166 21.1667 126.616 21.05V25.4H129.516V27.7H126.616V31.975C126.616 32.0917 126.624 32.2583 126.641 32.475C126.674 32.675 126.749 32.875 126.866 33.075C126.983 33.275 127.174 33.45 127.441 33.6C127.708 33.75 128.074 33.825 128.541 33.825C128.658 33.825 128.774 33.825 128.891 33.825C129.008 33.825 129.116 33.825 129.216 33.825C129.316 33.8083 129.408 33.8 129.491 33.8V35.925C129.341 35.9417 129.174 35.95 128.991 35.95C128.824 35.9667 128.633 35.9833 128.416 36C128.216 36 127.983 36 127.716 36C127.583 36 127.316 35.9833 126.916 35.95C126.533 35.9 126.133 35.75 125.716 35.5C125.316 35.2333 124.958 34.825 124.641 34.275C124.324 33.725 124.166 32.9417 124.166 31.925V27.7H121.891V25.4Z" fill="white"/>
</g>
<path d="M51.91 58.74C51.57 59.12 51.2 59.42 50.8 59.64C50.42 59.86 50.04 60.02 49.66 60.12C49.3 60.22 48.94 60.28 48.58 60.3C48.24 60.32 47.94 60.33 47.68 60.33C46.78 60.33 45.94 60.16 45.16 59.82C44.38 59.46 43.7 58.98 43.12 58.38C42.54 57.76 42.08 57.05 41.74 56.25C41.42 55.43 41.26 54.56 41.26 53.64C41.26 52.72 41.42 51.86 41.74 51.06C42.08 50.24 42.54 49.53 43.12 48.93C43.7 48.31 44.38 47.83 45.16 47.49C45.94 47.13 46.78 46.95 47.68 46.95C47.94 46.95 48.24 46.96 48.58 46.98C48.94 47 49.3 47.06 49.66 47.16C50.04 47.26 50.42 47.42 50.8 47.64C51.2 47.84 51.57 48.14 51.91 48.54V47.28H55.54V60H51.91V58.74ZM48.37 57.09C49.39 57.09 50.23 56.77 50.89 56.13C51.57 55.49 51.91 54.66 51.91 53.64C51.91 52.62 51.57 51.79 50.89 51.15C50.23 50.51 49.39 50.19 48.37 50.19C47.39 50.19 46.56 50.51 45.88 51.15C45.22 51.79 44.89 52.62 44.89 53.64C44.89 54.66 45.22 55.49 45.88 56.13C46.56 56.77 47.39 57.09 48.37 57.09ZM65.1723 52.92C65.1723 52.72 65.1623 52.47 65.1423 52.17C65.1223 51.85 65.0323 51.55 64.8723 51.27C64.7323 50.97 64.5023 50.72 64.1823 50.52C63.8623 50.3 63.4123 50.19 62.8323 50.19C62.2923 50.19 61.8523 50.31 61.5123 50.55C61.1723 50.79 60.9023 51.07 60.7023 51.39C60.5023 51.71 60.3623 52.04 60.2823 52.38C60.2223 52.7 60.1923 52.96 60.1923 53.16V60H56.5623V47.28H60.1923V48.39C60.5123 48.03 60.8623 47.75 61.2423 47.55C61.6423 47.35 62.0223 47.21 62.3823 47.13C62.7423 47.03 63.0523 46.98 63.3123 46.98C63.5723 46.96 63.7323 46.95 63.7923 46.95C64.9923 46.95 65.9223 47.2 66.5823 47.7C67.2623 48.18 67.7623 48.72 68.0823 49.32C68.4223 49.9 68.6223 50.45 68.6823 50.97C68.7623 51.47 68.8023 51.75 68.8023 51.81V60H65.1723V52.92ZM78.1462 52.92C78.1462 52.72 78.1362 52.47 78.1162 52.17C78.0962 51.85 78.0062 51.55 77.8462 51.27C77.7062 50.97 77.4762 50.72 77.1562 50.52C76.8362 50.3 76.3862 50.19 75.8062 50.19C75.2662 50.19 74.8262 50.31 74.4862 50.55C74.1462 50.79 73.8762 51.07 73.6762 51.39C73.4762 51.71 73.3362 52.04 73.2562 52.38C73.1962 52.7 73.1662 52.96 73.1662 53.16V60H69.5362V47.28H73.1662V48.39C73.4862 48.03 73.8362 47.75 74.2162 47.55C74.6162 47.35 74.9962 47.21 75.3562 47.13C75.7162 47.03 76.0262 46.98 76.2862 46.98C76.5462 46.96 76.7062 46.95 76.7662 46.95C77.9662 46.95 78.8962 47.2 79.5562 47.7C80.2362 48.18 80.7362 48.72 81.0562 49.32C81.3962 49.9 81.5962 50.45 81.6562 50.97C81.7362 51.47 81.7762 51.75 81.7762 51.81V60H78.1462V52.92ZM88.96 46.95C89.94 46.95 90.85 47.13 91.69 47.49C92.55 47.83 93.3 48.31 93.94 48.93C94.58 49.53 95.08 50.24 95.44 51.06C95.82 51.86 96.01 52.72 96.01 53.64C96.01 54.56 95.82 55.43 95.44 56.25C95.08 57.05 94.58 57.76 93.94 58.38C93.3 58.98 92.55 59.46 91.69 59.82C90.85 60.16 89.94 60.33 88.96 60.33C87.98 60.33 87.06 60.16 86.2 59.82C85.36 59.46 84.62 58.98 83.98 58.38C83.34 57.76 82.83 57.05 82.45 56.25C82.09 55.43 81.91 54.56 81.91 53.64C81.91 52.72 82.09 51.86 82.45 51.06C82.83 50.24 83.34 49.53 83.98 48.93C84.62 48.31 85.36 47.83 86.2 47.49C87.06 47.13 87.98 46.95 88.96 46.95ZM88.96 57.09C89.44 57.09 89.89 57.01 90.31 56.85C90.73 56.67 91.1 56.43 91.42 56.13C91.74 55.81 91.99 55.44 92.17 55.02C92.35 54.6 92.44 54.14 92.44 53.64C92.44 53.14 92.35 52.68 92.17 52.26C91.99 51.84 91.74 51.48 91.42 51.18C91.1 50.86 90.73 50.62 90.31 50.46C89.89 50.28 89.44 50.19 88.96 50.19C88.48 50.19 88.03 50.28 87.61 50.46C87.19 50.62 86.82 50.86 86.5 51.18C86.18 51.48 85.93 51.84 85.75 52.26C85.57 52.68 85.48 53.14 85.48 53.64C85.48 54.14 85.57 54.6 85.75 55.02C85.93 55.44 86.18 55.81 86.5 56.13C86.82 56.43 87.19 56.67 87.61 56.85C88.03 57.01 88.48 57.09 88.96 57.09ZM102.421 60.33C101.021 60.33 99.9113 60.09 99.0913 59.61C98.2913 59.11 97.6813 58.53 97.2613 57.87C96.8413 57.21 96.5713 56.54 96.4513 55.86C96.3313 55.18 96.2713 54.64 96.2713 54.24V47.28H99.9013V54.36C99.9013 54.56 99.9213 54.82 99.9613 55.14C100.001 55.44 100.101 55.74 100.261 56.04C100.441 56.32 100.701 56.57 101.041 56.79C101.381 56.99 101.841 57.09 102.421 57.09C103.001 57.09 103.461 56.99 103.801 56.79C104.141 56.57 104.391 56.32 104.551 56.04C104.731 55.74 104.841 55.44 104.881 55.14C104.921 54.82 104.941 54.56 104.941 54.36V47.28H108.571V54.24C108.571 54.64 108.511 55.18 108.391 55.86C108.271 56.54 108.001 57.21 107.581 57.87C107.161 58.53 106.541 59.11 105.721 59.61C104.921 60.09 103.821 60.33 102.421 60.33ZM118.064 52.92C118.064 52.72 118.054 52.47 118.034 52.17C118.014 51.85 117.924 51.55 117.764 51.27C117.624 50.97 117.394 50.72 117.074 50.52C116.754 50.3 116.304 50.19 115.724 50.19C115.184 50.19 114.744 50.31 114.404 50.55C114.064 50.79 113.794 51.07 113.594 51.39C113.394 51.71 113.254 52.04 113.174 52.38C113.114 52.7 113.084 52.96 113.084 53.16V60H109.454V47.28H113.084V48.39C113.404 48.03 113.754 47.75 114.134 47.55C114.534 47.35 114.914 47.21 115.274 47.13C115.634 47.03 115.944 46.98 116.204 46.98C116.464 46.96 116.624 46.95 116.684 46.95C117.884 46.95 118.814 47.2 119.474 47.7C120.154 48.18 120.654 48.72 120.974 49.32C121.314 49.9 121.514 50.45 121.574 50.97C121.654 51.47 121.694 51.75 121.694 51.81V60H118.064V52.92ZM135.478 55.32C135.278 56.04 134.968 56.71 134.548 57.33C134.128 57.93 133.618 58.46 133.018 58.92C132.438 59.36 131.788 59.71 131.068 59.97C130.348 60.21 129.588 60.33 128.788 60.33C127.828 60.33 126.928 60.16 126.088 59.82C125.248 59.46 124.508 58.98 123.868 58.38C123.248 57.76 122.748 57.05 122.368 56.25C122.008 55.43 121.828 54.56 121.828 53.64C121.828 52.72 122.008 51.86 122.368 51.06C122.748 50.24 123.248 49.53 123.868 48.93C124.508 48.31 125.248 47.83 126.088 47.49C126.928 47.13 127.828 46.95 128.788 46.95C129.588 46.95 130.348 47.08 131.068 47.34C131.788 47.58 132.438 47.93 133.018 48.39C133.618 48.83 134.128 49.36 134.548 49.98C134.968 50.58 135.278 51.24 135.478 51.96H131.608C131.368 51.42 130.998 50.99 130.498 50.67C130.018 50.35 129.428 50.19 128.728 50.19C128.268 50.19 127.828 50.28 127.408 50.46C127.008 50.62 126.658 50.86 126.358 51.18C126.058 51.48 125.818 51.84 125.638 52.26C125.478 52.68 125.398 53.14 125.398 53.64C125.398 54.14 125.478 54.6 125.638 55.02C125.818 55.44 126.058 55.81 126.358 56.13C126.658 56.43 127.008 56.67 127.408 56.85C127.828 57.01 128.268 57.09 128.728 57.09C129.448 57.09 130.058 56.93 130.558 56.61C131.058 56.29 131.418 55.86 131.638 55.32H135.478ZM148.356 55.14H138.816C138.936 55.54 139.106 55.87 139.326 56.13C139.546 56.39 139.796 56.59 140.076 56.73C140.356 56.87 140.656 56.97 140.976 57.03C141.296 57.07 141.606 57.09 141.906 57.09C142.226 57.09 142.556 57.05 142.896 56.97C143.216 56.93 143.556 56.86 143.916 56.76C144.276 56.64 144.636 56.47 144.996 56.25L147.156 58.83C146.656 59.11 146.116 59.36 145.536 59.58C145.016 59.78 144.456 59.95 143.856 60.09C143.256 60.25 142.626 60.33 141.966 60.33C141.006 60.33 140.106 60.16 139.266 59.82C138.426 59.46 137.686 58.98 137.046 58.38C136.426 57.76 135.926 57.05 135.546 56.25C135.186 55.43 135.006 54.56 135.006 53.64C135.006 52.72 135.186 51.86 135.546 51.06C135.926 50.24 136.426 49.53 137.046 48.93C137.686 48.31 138.426 47.83 139.266 47.49C140.106 47.13 141.006 46.95 141.966 46.95C142.806 46.95 143.606 47.1 144.366 47.4C145.146 47.68 145.826 48.12 146.406 48.72C147.006 49.3 147.476 50.03 147.816 50.91C148.176 51.77 148.356 52.77 148.356 53.91V55.14ZM141.906 50.19C141.266 50.19 140.666 50.35 140.106 50.67C139.566 50.99 139.156 51.52 138.876 52.26H144.936C144.636 51.52 144.216 50.99 143.676 50.67C143.136 50.35 142.546 50.19 141.906 50.19ZM162.171 50.19C161.691 50.19 161.311 50.3 161.031 50.52C160.751 50.72 160.531 50.97 160.371 51.27C160.231 51.55 160.141 51.85 160.101 52.17C160.061 52.49 160.031 52.76 160.011 52.98V60H156.381V52.59C156.381 52.39 156.361 52.16 156.321 51.9C156.281 51.62 156.191 51.36 156.051 51.12C155.911 50.86 155.711 50.64 155.451 50.46C155.191 50.28 154.831 50.19 154.371 50.19C153.871 50.19 153.471 50.31 153.171 50.55C152.871 50.79 152.651 51.07 152.511 51.39C152.371 51.71 152.281 52.04 152.241 52.38C152.201 52.7 152.181 52.96 152.181 53.16V60H148.551V47.28H152.181V48.42C152.481 48.06 152.801 47.78 153.141 47.58C153.501 47.38 153.841 47.24 154.161 47.16C154.481 47.06 154.761 47 155.001 46.98C155.241 46.96 155.411 46.95 155.511 46.95C156.351 46.95 157.101 47.12 157.761 47.46C158.441 47.8 158.961 48.28 159.321 48.9C159.701 48.42 160.081 48.05 160.461 47.79C160.841 47.51 161.201 47.31 161.541 47.19C161.881 47.07 162.191 47 162.471 46.98C162.751 46.96 162.981 46.95 163.161 46.95C164.141 46.95 164.931 47.14 165.531 47.52C166.151 47.9 166.621 48.35 166.941 48.87C167.281 49.39 167.511 49.93 167.631 50.49C167.751 51.03 167.811 51.47 167.811 51.81V60H164.181V52.59C164.181 52.39 164.161 52.16 164.121 51.9C164.081 51.62 163.991 51.36 163.851 51.12C163.711 50.86 163.501 50.64 163.221 50.46C162.961 50.28 162.611 50.19 162.171 50.19ZM181.277 55.14H171.737C171.857 55.54 172.027 55.87 172.247 56.13C172.467 56.39 172.717 56.59 172.997 56.73C173.277 56.87 173.577 56.97 173.897 57.03C174.217 57.07 174.527 57.09 174.827 57.09C175.147 57.09 175.477 57.05 175.817 56.97C176.137 56.93 176.477 56.86 176.837 56.76C177.197 56.64 177.557 56.47 177.917 56.25L180.077 58.83C179.577 59.11 179.037 59.36 178.457 59.58C177.937 59.78 177.377 59.95 176.777 60.09C176.177 60.25 175.547 60.33 174.887 60.33C173.927 60.33 173.027 60.16 172.187 59.82C171.347 59.46 170.607 58.98 169.967 58.38C169.347 57.76 168.847 57.05 168.467 56.25C168.107 55.43 167.927 54.56 167.927 53.64C167.927 52.72 168.107 51.86 168.467 51.06C168.847 50.24 169.347 49.53 169.967 48.93C170.607 48.31 171.347 47.83 172.187 47.49C173.027 47.13 173.927 46.95 174.887 46.95C175.727 46.95 176.527 47.1 177.287 47.4C178.067 47.68 178.747 48.12 179.327 48.72C179.927 49.3 180.397 50.03 180.737 50.91C181.097 51.77 181.277 52.77 181.277 53.91V55.14ZM174.827 50.19C174.187 50.19 173.587 50.35 173.027 50.67C172.487 50.99 172.077 51.52 171.797 52.26H177.857C177.557 51.52 177.137 50.99 176.597 50.67C176.057 50.35 175.467 50.19 174.827 50.19ZM190.081 52.92C190.081 52.72 190.071 52.47 190.051 52.17C190.031 51.85 189.941 51.55 189.781 51.27C189.641 50.97 189.411 50.72 189.091 50.52C188.771 50.3 188.321 50.19 187.741 50.19C187.201 50.19 186.761 50.31 186.421 50.55C186.081 50.79 185.811 51.07 185.611 51.39C185.411 51.71 185.271 52.04 185.191 52.38C185.131 52.7 185.101 52.96 185.101 53.16V60H181.471V47.28H185.101V48.39C185.421 48.03 185.771 47.75 186.151 47.55C186.551 47.35 186.931 47.21 187.291 47.13C187.651 47.03 187.961 46.98 188.221 46.98C188.481 46.96 188.641 46.95 188.701 46.95C189.901 46.95 190.831 47.2 191.491 47.7C192.171 48.18 192.671 48.72 192.991 49.32C193.331 49.9 193.531 50.45 193.591 50.97C193.671 51.47 193.711 51.75 193.711 51.81V60H190.081V52.92ZM193.365 47.28H195.855V42.87L199.485 42.03V47.28H202.665V50.52H199.485V55.23C199.505 55.55 199.595 55.83 199.755 56.07C199.875 56.29 200.075 56.49 200.355 56.67C200.655 56.83 201.075 56.91 201.615 56.91C201.715 56.91 201.815 56.9 201.915 56.88C202.015 56.88 202.125 56.88 202.245 56.88C202.365 56.86 202.495 56.84 202.635 56.82V59.88C202.415 59.9 202.185 59.92 201.945 59.94C201.705 59.96 201.445 59.98 201.165 60C200.905 60 200.625 60 200.325 60C200.165 60 199.835 59.98 199.335 59.94C198.855 59.88 198.355 59.7 197.835 59.4C197.315 59.08 196.855 58.59 196.455 57.93C196.055 57.25 195.855 56.29 195.855 55.05V50.52H193.365V47.28ZM202.483 58.29C202.483 57.73 202.683 57.25 203.083 56.85C203.483 56.45 203.963 56.25 204.523 56.25C205.083 56.25 205.563 56.45 205.963 56.85C206.363 57.25 206.563 57.73 206.563 58.29C206.563 58.85 206.363 59.33 205.963 59.73C205.563 60.13 205.083 60.33 204.523 60.33C203.963 60.33 203.483 60.13 203.083 59.73C202.683 59.33 202.483 58.85 202.483 58.29Z" fill="white"/>
<defs>
<filter id="filter0_d_2439_72" x="12.1124" y="-7.94995" width="148.404" height="79.325" filterUnits="userSpaceOnUse" color-interpolation-filters="sRGB">
<feFlood flood-opacity="0" result="BackgroundImageFix"/>
<feColorMatrix in="SourceAlpha" type="matrix" values="0 0 0 0 0 0 0 0 0 0 0 0 0 0 0 0 0 0 127 0" result="hardAlpha"/>
<feOffset dx="1" dy="1"/>
<feGaussianBlur stdDeviation="15"/>
<feComposite in2="hardAlpha" operator="out"/>
<feColorMatrix type="matrix" values="0 0 0 0 0.716667 0 0 0 0 0.716667 0 0 0 0 0.716667 0 0 0 0.5 0"/>
<feBlend mode="normal" in2="BackgroundImageFix" result="effect1_dropShadow_2439_72"/>
<feBlend mode="normal" in="SourceGraphic" in2="effect1_dropShadow_2439_72" result="shape"/>
</filter>
</defs>
</svg>
