<svg width="105" height="26" viewBox="0 0 105 26" fill="none" xmlns="http://www.w3.org/2000/svg">
<rect x="32.6936" y="3.85107" width="0.247686" height="18.8241" fill="white"/>
<path d="M40.1458 10.0383H40.7359V14.2056H40.1458V10.0383ZM47.0673 10.0383H47.6574V14.2056H47.0601L44.6346 11.0028V14.2056H44.0444V10.0383H44.6418L47.0673 13.2339V10.0383ZM51.5555 10.5781V13.6658H52.5703C52.7958 13.6658 52.995 13.6298 53.1677 13.5578C53.3452 13.481 53.4964 13.3755 53.6211 13.2411C53.7459 13.102 53.8394 12.9388 53.9018 12.7517C53.969 12.5598 54.0026 12.3511 54.0026 12.1255C54.0026 11.9 53.969 11.6937 53.9018 11.5066C53.8394 11.3147 53.7459 11.1515 53.6211 11.0172C53.4964 10.878 53.3452 10.7701 53.1677 10.6933C52.995 10.6165 52.7958 10.5781 52.5703 10.5781H51.5555ZM54.5928 12.1184C54.5928 12.4158 54.5472 12.6917 54.456 12.946C54.3648 13.2003 54.2305 13.4211 54.053 13.6082C53.8802 13.7953 53.6667 13.9417 53.4124 14.0472C53.1581 14.1528 52.8678 14.2056 52.5415 14.2056H50.9653V10.0383H52.5415C52.8678 10.0383 53.1581 10.0911 53.4124 10.1967C53.6667 10.3022 53.8802 10.4486 54.053 10.6357C54.2305 10.8228 54.3648 11.0436 54.456 11.2979C54.5472 11.5474 54.5928 11.8209 54.5928 12.1184ZM59.4079 14.2847C59.3935 14.2847 59.3407 14.2823 59.2496 14.2775C59.1584 14.2727 59.0505 14.2535 58.9257 14.22C58.801 14.1912 58.6666 14.1432 58.5227 14.076C58.3835 14.0088 58.254 13.9129 58.134 13.7881C58.014 13.6634 57.9133 13.505 57.8317 13.3131C57.7549 13.1212 57.7166 12.8861 57.7166 12.6078V10.0383H58.3067V12.6078C58.3067 12.651 58.3139 12.7349 58.3283 12.8597C58.3427 12.9844 58.3859 13.114 58.4579 13.2483C58.5299 13.3779 58.6402 13.493 58.789 13.5938C58.9377 13.6946 59.144 13.7449 59.4079 13.7449C59.6766 13.7449 59.8829 13.6946 60.0269 13.5938C60.1756 13.493 60.286 13.3779 60.358 13.2483C60.4299 13.114 60.4731 12.9844 60.4875 12.8597C60.5019 12.7349 60.5091 12.651 60.5091 12.6078V10.0383H61.0993V12.6078C61.0993 12.8861 61.0585 13.1212 60.9769 13.3131C60.9002 13.505 60.8018 13.6634 60.6818 13.7881C60.5619 13.9129 60.4299 14.0088 60.286 14.076C60.1468 14.1432 60.0149 14.1912 59.8901 14.22C59.7654 14.2535 59.6574 14.2727 59.5663 14.2775C59.4751 14.2823 59.4223 14.2847 59.4079 14.2847ZM65.7607 14.2847C65.5303 14.2847 65.3288 14.2607 65.1561 14.2128C64.9834 14.1648 64.8322 14.1072 64.7027 14.04C64.5779 13.9681 64.4723 13.8913 64.386 13.8097C64.2996 13.7233 64.23 13.6442 64.1773 13.5722L64.6019 13.2339C64.6547 13.2915 64.7218 13.3515 64.8034 13.4139C64.885 13.4714 64.9762 13.5266 65.0769 13.5794C65.1825 13.6274 65.2952 13.6682 65.4152 13.7018C65.5351 13.7305 65.6623 13.7449 65.7966 13.7449C65.9886 13.7449 66.1421 13.7185 66.2573 13.6658C66.3772 13.613 66.4684 13.553 66.5308 13.4858C66.5979 13.4139 66.6435 13.3443 66.6675 13.2771C66.6915 13.2051 66.7035 13.1548 66.7035 13.126C66.7035 12.982 66.6435 12.8669 66.5236 12.7805C66.4036 12.6941 66.2525 12.6174 66.0701 12.5502C65.8878 12.483 65.6911 12.4158 65.48 12.3487C65.2736 12.2815 65.0793 12.1951 64.897 12.0896C64.7147 11.984 64.5635 11.8497 64.4436 11.6865C64.3236 11.5234 64.2636 11.3123 64.2636 11.0532C64.2636 10.9572 64.2828 10.8468 64.3212 10.7221C64.3644 10.5973 64.4364 10.4798 64.5371 10.3694C64.6427 10.2543 64.7866 10.1583 64.969 10.0815C65.1513 10.0047 65.3864 9.96636 65.6743 9.96636C65.8806 9.96636 66.0629 9.98795 66.2213 10.0311C66.3796 10.0743 66.5164 10.1271 66.6315 10.1895C66.7467 10.2519 66.8427 10.319 66.9194 10.391C66.9962 10.463 67.0562 10.5277 67.0994 10.5853C67.0178 10.6381 66.9482 10.6909 66.8906 10.7437C66.8331 10.7916 66.7659 10.842 66.6891 10.8948C66.55 10.7557 66.382 10.6573 66.1853 10.5997C65.9934 10.5373 65.8062 10.5062 65.6239 10.5062C65.5231 10.5062 65.4272 10.5182 65.336 10.5421C65.2449 10.5661 65.1633 10.6045 65.0913 10.6573C65.0193 10.7053 64.9618 10.7677 64.9186 10.8444C64.8754 10.9164 64.8538 11.0028 64.8538 11.1035C64.8538 11.2811 64.9138 11.4202 65.0337 11.521C65.1537 11.6217 65.3048 11.7081 65.4872 11.7801C65.6695 11.8521 65.8638 11.9192 66.0701 11.9816C66.2813 12.0392 66.478 12.116 66.6603 12.2119C66.8427 12.3079 66.9938 12.4302 67.1137 12.579C67.2337 12.7277 67.2937 12.9268 67.2937 13.1764C67.2937 13.2723 67.2673 13.3851 67.2145 13.5146C67.1665 13.6394 67.0826 13.7593 66.9626 13.8745C66.8474 13.9896 66.6915 14.088 66.4948 14.1696C66.2981 14.2464 66.0533 14.2847 65.7607 14.2847ZM69.9949 10.5781V10.0383H73.3632V10.5781H71.9741V14.2056H71.3839V10.5781H69.9949ZM79.6005 11.4778C79.6005 11.7225 79.5669 11.9288 79.4997 12.0968C79.4326 12.2599 79.3486 12.3942 79.2478 12.4998C79.1471 12.6054 79.0343 12.6869 78.9096 12.7445C78.7896 12.8021 78.6744 12.8453 78.5641 12.8741L79.6005 14.2056H78.9239L77.9235 12.9244H77.0814V14.2056H76.4913V10.0383H78.0963C78.1346 10.0383 78.197 10.0407 78.2834 10.0455C78.3698 10.0503 78.4681 10.0671 78.5785 10.0959C78.6936 10.1247 78.8112 10.1679 78.9311 10.2255C79.0511 10.283 79.1591 10.3646 79.255 10.4702C79.3558 10.5757 79.4374 10.7101 79.4997 10.8732C79.5669 11.0364 79.6005 11.2379 79.6005 11.4778ZM77.0814 12.3847H78.1107C78.2402 12.3847 78.3578 12.3703 78.4633 12.3415C78.5737 12.3079 78.6696 12.2575 78.7512 12.1903C78.8328 12.1184 78.8952 12.0248 78.9383 11.9096C78.9863 11.7945 79.0103 11.6529 79.0103 11.485C79.0103 11.3171 78.9863 11.1755 78.9383 11.0603C78.8952 10.9452 78.8328 10.8516 78.7512 10.7797C78.6696 10.7077 78.5737 10.6573 78.4633 10.6285C78.3578 10.5949 78.2402 10.5781 78.1107 10.5781H77.0814V12.3847ZM82.6109 10.0383H83.2011V14.2056H82.6109V10.0383ZM89.2445 13.6658V14.2056H86.5096V10.0383H89.2445V10.5781H87.0997V11.9024H89.0862V12.4422H87.0997V13.6658H89.2445ZM93.8357 14.2847C93.6054 14.2847 93.4039 14.2607 93.2312 14.2128C93.0584 14.1648 92.9073 14.1072 92.7777 14.04C92.653 13.9681 92.5474 13.8913 92.461 13.8097C92.3747 13.7233 92.3051 13.6442 92.2523 13.5722L92.677 13.2339C92.7297 13.2915 92.7969 13.3515 92.8785 13.4139C92.9601 13.4714 93.0512 13.5266 93.152 13.5794C93.2575 13.6274 93.3703 13.6682 93.4903 13.7018C93.6102 13.7305 93.7374 13.7449 93.8717 13.7449C94.0636 13.7449 94.2172 13.7185 94.3323 13.6658C94.4523 13.613 94.5435 13.553 94.6058 13.4858C94.673 13.4139 94.7186 13.3443 94.7426 13.2771C94.7666 13.2051 94.7786 13.1548 94.7786 13.126C94.7786 12.982 94.7186 12.8669 94.5986 12.7805C94.4787 12.6941 94.3275 12.6174 94.1452 12.5502C93.9629 12.483 93.7662 12.4158 93.555 12.3487C93.3487 12.2815 93.1544 12.1951 92.9721 12.0896C92.7897 11.984 92.6386 11.8497 92.5186 11.6865C92.3987 11.5234 92.3387 11.3123 92.3387 11.0532C92.3387 10.9572 92.3579 10.8468 92.3963 10.7221C92.4395 10.5973 92.5114 10.4798 92.6122 10.3694C92.7177 10.2543 92.8617 10.1583 93.044 10.0815C93.2264 10.0047 93.4615 9.96636 93.7494 9.96636C93.9557 9.96636 94.138 9.98795 94.2964 10.0311C94.4547 10.0743 94.5914 10.1271 94.7066 10.1895C94.8218 10.2519 94.9177 10.319 94.9945 10.391C95.0713 10.463 95.1312 10.5277 95.1744 10.5853C95.0929 10.6381 95.0233 10.6909 94.9657 10.7437C94.9081 10.7916 94.8409 10.842 94.7642 10.8948C94.625 10.7557 94.4571 10.6573 94.2604 10.5997C94.0684 10.5373 93.8813 10.5062 93.699 10.5062C93.5982 10.5062 93.5023 10.5182 93.4111 10.5421C93.3199 10.5661 93.2384 10.6045 93.1664 10.6573C93.0944 10.7053 93.0368 10.7677 92.9936 10.8444C92.9505 10.9164 92.9289 11.0028 92.9289 11.1035C92.9289 11.2811 92.9888 11.4202 93.1088 11.521C93.2288 11.6217 93.3799 11.7081 93.5622 11.7801C93.7446 11.8521 93.9389 11.9192 94.1452 11.9816C94.3563 12.0392 94.5531 12.116 94.7354 12.2119C94.9177 12.3079 95.0689 12.4302 95.1888 12.579C95.3088 12.7277 95.3688 12.9268 95.3688 13.1764C95.3688 13.2723 95.3424 13.3851 95.2896 13.5146C95.2416 13.6394 95.1576 13.7593 95.0377 13.8745C94.9225 13.9896 94.7666 14.088 94.5699 14.1696C94.3731 14.2464 94.1284 14.2847 93.8357 14.2847Z" fill="white"/>
<path d="M102.11 13.3896H101.707L101.275 12.8354H100.822V13.3896H100.469V11.3672H101.232C101.29 11.3672 101.366 11.372 101.462 11.3816C101.558 11.3864 101.65 11.4104 101.736 11.4536C101.827 11.4967 101.904 11.5663 101.966 11.6623C102.033 11.7534 102.067 11.8854 102.067 12.0581C102.067 12.2884 102.036 12.4564 101.973 12.5619C101.911 12.6627 101.798 12.7371 101.635 12.7851L102.11 13.3896ZM100.822 12.5116H101.239C101.378 12.5116 101.491 12.4876 101.578 12.4396C101.669 12.3868 101.714 12.2788 101.714 12.1157C101.714 12.0197 101.7 11.9454 101.671 11.8926C101.642 11.8398 101.604 11.799 101.556 11.7702C101.513 11.7414 101.462 11.7247 101.405 11.7199C101.347 11.7103 101.292 11.7055 101.239 11.7055H100.822V12.5116ZM101.232 10.2012C101.53 10.2012 101.808 10.2588 102.067 10.374C102.331 10.4843 102.561 10.6379 102.758 10.8346C102.955 11.0265 103.108 11.2544 103.219 11.5183C103.334 11.7822 103.391 12.0629 103.391 12.3604C103.391 12.6579 103.334 12.9386 103.219 13.2025C103.108 13.4664 102.955 13.6967 102.758 13.8934C102.561 14.0854 102.331 14.2389 102.067 14.3541C101.808 14.4644 101.53 14.5196 101.232 14.5196C100.935 14.5196 100.654 14.4644 100.39 14.3541C100.126 14.2389 99.8959 14.0854 99.6991 13.8934C99.5024 13.6967 99.3465 13.4664 99.2313 13.2025C99.1209 12.9386 99.0658 12.6579 99.0658 12.3604C99.0658 12.0629 99.1209 11.7822 99.2313 11.5183C99.3465 11.2544 99.5024 11.0265 99.6991 10.8346C99.8959 10.6379 100.126 10.4843 100.39 10.374C100.654 10.2588 100.935 10.2012 101.232 10.2012ZM101.232 14.2461C101.491 14.2461 101.736 14.1981 101.966 14.1022C102.197 14.0014 102.396 13.867 102.564 13.6991C102.736 13.5264 102.871 13.3248 102.967 13.0945C103.067 12.8642 103.118 12.6195 103.118 12.3604C103.118 12.1013 103.067 11.8566 102.967 11.6263C102.871 11.396 102.736 11.1968 102.564 11.0289C102.396 10.8562 102.197 10.7218 101.966 10.6259C101.736 10.5251 101.491 10.4747 101.232 10.4747C100.968 10.4747 100.721 10.5251 100.491 10.6259C100.265 10.7218 100.066 10.8562 99.8935 11.0289C99.7255 11.1968 99.5912 11.396 99.4904 11.6263C99.3944 11.8566 99.3465 12.1013 99.3465 12.3604C99.3465 12.6195 99.3944 12.8642 99.4904 13.0945C99.5912 13.3248 99.7255 13.5264 99.8935 13.6991C100.066 13.867 100.265 14.0014 100.491 14.1022C100.721 14.1981 100.968 14.2461 101.232 14.2461Z" fill="white"/>
<g filter="url(#filter0_d_2137_1049)">
<path d="M9.09384 17.8553C8.77451 18.1456 8.45519 18.3706 8.13586 18.5302C7.81654 18.6899 7.51173 18.806 7.22143 18.8786C6.93114 18.9512 6.65536 18.9947 6.39409 19.0092C6.14734 19.0237 5.92962 19.031 5.74093 19.031C5.08776 19.031 4.47088 18.9076 3.89029 18.6609C3.32422 18.3996 2.82346 18.0513 2.38802 17.6158C1.96709 17.1659 1.62599 16.6506 1.36472 16.07C1.11797 15.4749 0.994598 14.8435 0.994598 14.1758C0.994598 13.5081 1.11797 12.884 1.36472 12.3034C1.62599 11.7083 1.96709 11.193 2.38802 10.7576C2.82346 10.3076 3.32422 9.95927 3.89029 9.71252C4.47088 9.45125 5.08776 9.32062 5.74093 9.32062C5.92962 9.32062 6.14734 9.32788 6.39409 9.34239C6.65536 9.35691 6.93114 9.40045 7.22143 9.47302C7.51173 9.5456 7.81654 9.66172 8.13586 9.82138C8.45519 9.98104 8.77451 10.206 9.09384 10.4963V5.77176H11.2275V18.7915H9.09384V17.8553ZM6.08928 17.028C6.51021 17.028 6.90211 16.9626 7.26498 16.832C7.62785 16.6869 7.93991 16.4909 8.20118 16.2442C8.47696 15.9829 8.69468 15.6781 8.85434 15.3297C9.01401 14.9814 9.09384 14.5967 9.09384 14.1758C9.09384 13.7549 9.01401 13.3702 8.85434 13.0219C8.69468 12.6735 8.47696 12.376 8.20118 12.1292C7.93991 11.868 7.62785 11.672 7.26498 11.5414C6.90211 11.3962 6.51021 11.3237 6.08928 11.3237C5.68287 11.3237 5.29823 11.3962 4.93536 11.5414C4.57249 11.672 4.25316 11.868 3.97738 12.1292C3.71612 12.376 3.50565 12.6735 3.34599 13.0219C3.20084 13.3702 3.12827 13.7549 3.12827 14.1758C3.12827 14.5967 3.20084 14.9814 3.34599 15.3297C3.50565 15.6781 3.71612 15.9829 3.97738 16.2442C4.25316 16.4909 4.57249 16.6869 4.93536 16.832C5.29823 16.9626 5.68287 17.028 6.08928 17.028Z" fill="white"/>
</g>
<g filter="url(#filter1_d_2137_1049)">
<path d="M20.3443 15.0902H12.9853C13.1014 15.4821 13.2611 15.8015 13.4643 16.0482C13.6675 16.295 13.8925 16.4909 14.1392 16.6361C14.4005 16.7812 14.669 16.8828 14.9448 16.9409C15.2206 16.9989 15.4891 17.028 15.7504 17.028C15.9826 17.028 16.2294 17.0062 16.4906 16.9626C16.7374 16.9336 16.9914 16.8828 17.2526 16.8102C17.5139 16.7377 17.7824 16.6361 18.0582 16.5054L19.2557 18.2037C18.9218 18.3633 18.5662 18.5012 18.1889 18.6173C17.8405 18.7334 17.4559 18.8278 17.0349 18.9004C16.6285 18.9875 16.1931 19.031 15.7286 19.031C15.0319 19.031 14.386 18.9149 13.7909 18.6826C13.1958 18.4504 12.6805 18.1238 12.2451 17.7029C11.8096 17.2675 11.4685 16.7522 11.2218 16.1571C10.975 15.562 10.8516 14.9015 10.8516 14.1758C10.8516 13.5081 10.9678 12.884 11.2 12.3034C11.4322 11.7083 11.7588 11.193 12.1797 10.7576C12.6007 10.3076 13.1014 9.95927 13.682 9.71252C14.2626 9.45125 14.9013 9.32062 15.598 9.32062C16.2076 9.32062 16.7954 9.42948 17.3615 9.6472C17.9276 9.85041 18.4283 10.1697 18.8638 10.6052C19.3137 11.0261 19.6694 11.5559 19.9306 12.1945C20.2064 12.8187 20.3443 13.5444 20.3443 14.3718V15.0902ZM15.598 11.3237C15.0899 11.3237 14.5819 11.4761 14.0739 11.7809C13.5659 12.0857 13.2103 12.5792 13.0071 13.2614H18.1889C18.0002 12.5792 17.6445 12.0857 17.122 11.7809C16.614 11.4761 16.106 11.3237 15.598 11.3237ZM14.5311 8.3191L16.0116 5.57581H18.4501L16.643 8.3191H14.5311Z" fill="white"/>
</g>
<g filter="url(#filter2_d_2137_1049)">
<path d="M21.986 6.11638H22.2988V4.88579H22.7883V4.53564H21.4863V4.88579H21.986V6.11638ZM24.7838 5.00816V6.11638H25.0965V4.53564H24.7566L24.1515 5.31071L23.5464 4.53564H23.203V6.11638H23.5192V5.00816L24.1243 5.77643H24.1787L24.7838 5.00816Z" fill="white"/>
</g>
<defs>
<filter id="filter0_d_2137_1049" x="0.00388664" y="5.77197" width="12.2144" height="15.2403" filterUnits="userSpaceOnUse" color-interpolation-filters="sRGB">
<feFlood flood-opacity="0" result="BackgroundImageFix"/>
<feColorMatrix in="SourceAlpha" type="matrix" values="0 0 0 0 0 0 0 0 0 0 0 0 0 0 0 0 0 0 127 0" result="hardAlpha"/>
<feOffset dy="0.990742"/>
<feGaussianBlur stdDeviation="0.495371"/>
<feComposite in2="hardAlpha" operator="out"/>
<feColorMatrix type="matrix" values="0 0 0 0 0 0 0 0 0 0 0 0 0 0 0 0 0 0 0.06 0"/>
<feBlend mode="normal" in2="BackgroundImageFix" result="effect1_dropShadow_2137_1049"/>
<feBlend mode="normal" in="SourceGraphic" in2="effect1_dropShadow_2137_1049" result="shape"/>
</filter>
<filter id="filter1_d_2137_1049" x="9.86082" y="5.57568" width="11.4742" height="15.4366" filterUnits="userSpaceOnUse" color-interpolation-filters="sRGB">
<feFlood flood-opacity="0" result="BackgroundImageFix"/>
<feColorMatrix in="SourceAlpha" type="matrix" values="0 0 0 0 0 0 0 0 0 0 0 0 0 0 0 0 0 0 127 0" result="hardAlpha"/>
<feOffset dy="0.990742"/>
<feGaussianBlur stdDeviation="0.495371"/>
<feComposite in2="hardAlpha" operator="out"/>
<feColorMatrix type="matrix" values="0 0 0 0 0 0 0 0 0 0 0 0 0 0 0 0 0 0 0.06 0"/>
<feBlend mode="normal" in2="BackgroundImageFix" result="effect1_dropShadow_2137_1049"/>
<feBlend mode="normal" in="SourceGraphic" in2="effect1_dropShadow_2137_1049" result="shape"/>
</filter>
<filter id="filter2_d_2137_1049" x="20.4956" y="4.53564" width="5.59159" height="3.56205" filterUnits="userSpaceOnUse" color-interpolation-filters="sRGB">
<feFlood flood-opacity="0" result="BackgroundImageFix"/>
<feColorMatrix in="SourceAlpha" type="matrix" values="0 0 0 0 0 0 0 0 0 0 0 0 0 0 0 0 0 0 127 0" result="hardAlpha"/>
<feOffset dy="0.990742"/>
<feGaussianBlur stdDeviation="0.495371"/>
<feComposite in2="hardAlpha" operator="out"/>
<feColorMatrix type="matrix" values="0 0 0 0 0 0 0 0 0 0 0 0 0 0 0 0 0 0 0.06 0"/>
<feBlend mode="normal" in2="BackgroundImageFix" result="effect1_dropShadow_2137_1049"/>
<feBlend mode="normal" in="SourceGraphic" in2="effect1_dropShadow_2137_1049" result="shape"/>
</filter>
</defs>
</svg>
