<svg width="120" height="41" viewBox="0 0 120 41" fill="none" xmlns="http://www.w3.org/2000/svg">
<path d="M15.1409 27.4606C14.6159 27.9379 14.0908 28.3079 13.5657 28.5704C13.0406 28.8329 12.5394 29.0239 12.0621 29.1432C11.5847 29.2625 11.1313 29.3341 10.7017 29.358C10.2959 29.3819 9.93792 29.3938 9.62764 29.3938C8.55363 29.3938 7.53928 29.1909 6.58459 28.7852C5.65378 28.3556 4.83036 27.7828 4.11435 27.0668C3.4222 26.3269 2.86133 25.4796 2.43172 24.5249C2.02598 23.5464 1.82311 22.5082 1.82311 21.4103C1.82311 20.3124 2.02598 19.2861 2.43172 18.3314C2.86133 17.3529 3.4222 16.5056 4.11435 15.7896C4.83036 15.0497 5.65378 14.4769 6.58459 14.0711C7.53928 13.6415 8.55363 13.4267 9.62764 13.4267C9.93792 13.4267 10.2959 13.4387 10.7017 13.4625C11.1313 13.4864 11.5847 13.558 12.0621 13.6773C12.5394 13.7967 13.0406 13.9876 13.5657 14.2501C14.0908 14.5127 14.6159 14.8826 15.1409 15.36V7.59123H18.6494V29H15.1409V27.4606ZM10.2005 26.1001C10.8926 26.1001 11.537 25.9927 12.1337 25.7779C12.7304 25.5393 13.2435 25.2171 13.6731 24.8113C14.1266 24.3817 14.4846 23.8805 14.7471 23.3077C15.0097 22.7349 15.1409 22.1024 15.1409 21.4103C15.1409 20.7181 15.0097 20.0856 14.7471 19.5128C14.4846 18.94 14.1266 18.4508 13.6731 18.045C13.2435 17.6154 12.7304 17.2932 12.1337 17.0784C11.537 16.8397 10.8926 16.7204 10.2005 16.7204C9.53218 16.7204 8.8997 16.8397 8.30302 17.0784C7.70635 17.2932 7.18127 17.6154 6.7278 18.045C6.29819 18.4508 5.95212 18.94 5.68958 19.5128C5.45091 20.0856 5.33157 20.7181 5.33157 21.4103C5.33157 22.1024 5.45091 22.7349 5.68958 23.3077C5.95212 23.8805 6.29819 24.3817 6.7278 24.8113C7.18127 25.2171 7.70635 25.5393 8.30302 25.7779C8.8997 25.9927 9.53218 26.1001 10.2005 26.1001Z" fill="#1E1E1E"/>
<path d="M33.6281 22.9139H21.5275C21.7184 23.5583 21.981 24.0834 22.3151 24.4891C22.6493 24.8949 23.0192 25.2171 23.4249 25.4557C23.8546 25.6944 24.2961 25.8615 24.7496 25.9569C25.203 26.0524 25.6446 26.1001 26.0742 26.1001C26.4561 26.1001 26.8618 26.0643 27.2914 25.9927C27.6972 25.945 28.1148 25.8615 28.5444 25.7421C28.974 25.6228 29.4156 25.4557 29.8691 25.2409L31.8381 28.0334C31.2891 28.2959 30.7044 28.5227 30.0839 28.7136C29.5111 28.9045 28.8786 29.0597 28.1864 29.179C27.5181 29.3222 26.8021 29.3938 26.0384 29.3938C24.8928 29.3938 23.8307 29.2029 22.8521 28.821C21.8736 28.4391 21.0263 27.9021 20.3103 27.21C19.5943 26.494 19.0334 25.6467 18.6277 24.6681C18.2219 23.6896 18.0191 22.6036 18.0191 21.4103C18.0191 20.3124 18.21 19.2861 18.5919 18.3314C18.9737 17.3529 19.5107 16.5056 20.2029 15.7896C20.895 15.0497 21.7184 14.4769 22.6731 14.0711C23.6278 13.6415 24.678 13.4267 25.8236 13.4267C26.826 13.4267 27.7926 13.6057 28.7234 13.9637C29.6543 14.2979 30.4777 14.823 31.1937 15.539C31.9336 16.2311 32.5183 17.1023 32.9479 18.1524C33.4014 19.1787 33.6281 20.3721 33.6281 21.7325V22.9139ZM25.8236 16.7204C24.9882 16.7204 24.1529 16.971 23.3175 17.4722C22.4822 17.9734 21.8975 18.7849 21.5633 19.9066H30.0839C29.7736 18.7849 29.1888 17.9734 28.3296 17.4722C27.4943 16.971 26.6589 16.7204 25.8236 16.7204ZM24.0694 11.7799L26.5038 7.26902H30.5135L27.542 11.7799H24.0694Z" fill="#1E1E1E"/>
<path d="M33.3759 13.8205H36.6337V12.8897C36.6337 11.4338 36.8605 10.3121 37.3139 9.52446C37.7674 8.71298 38.2806 8.11631 38.8534 7.73443C39.45 7.32869 40.0229 7.09002 40.5718 7.01842C41.1446 6.92295 41.5265 6.87522 41.7174 6.87522C42.4812 6.87522 43.3284 6.94682 44.2593 7.09002V10.2763C44.0445 10.2524 43.8655 10.2405 43.7223 10.2405C43.6029 10.2166 43.5075 10.2047 43.4358 10.2047C43.3404 10.2047 43.2688 10.2047 43.221 10.2047C42.4573 10.2047 41.8606 10.3479 41.431 10.6343C41.0253 10.9207 40.7269 11.231 40.536 11.5651C40.2973 11.947 40.1661 12.3885 40.1422 12.8897V13.8205H44.2951V17.1142H40.1422V29H36.6337V17.1142H33.3759V13.8205Z" fill="#1E1E1E"/>
<path d="M52.5583 29.3938C50.9114 29.3938 49.6107 29.1074 48.656 28.5346C47.7013 27.9379 46.9734 27.2458 46.4722 26.4582C45.9948 25.6705 45.6965 24.871 45.5772 24.0595C45.4578 23.248 45.3982 22.6156 45.3982 22.1621V13.8205H48.9066V22.3053C48.9066 22.5917 48.9424 22.9497 49.014 23.3793C49.0856 23.8089 49.2408 24.2266 49.4794 24.6323C49.742 25.0381 50.1119 25.3841 50.5892 25.6705C51.0904 25.9569 51.7468 26.1001 52.5583 26.1001C53.3698 26.1001 54.0142 25.9569 54.4915 25.6705C54.9927 25.3841 55.3627 25.0381 55.6013 24.6323C55.8639 24.2266 56.0309 23.8089 56.1025 23.3793C56.1741 22.9497 56.2099 22.5917 56.2099 22.3053V13.8205H59.7184V22.1621C59.7184 22.6156 59.6587 23.248 59.5394 24.0595C59.4201 24.871 59.1098 25.6705 58.6086 26.4582C58.1312 27.2458 57.4152 27.9379 56.4605 28.5346C55.5059 29.1074 54.2051 29.3938 52.5583 29.3938Z" fill="#1E1E1E"/>
<path d="M59.2516 13.8205H62.5094V8.55785C63.2016 8.39078 63.7983 8.23564 64.2995 8.09244C64.8007 7.92537 65.3735 7.7583 66.0179 7.59123V13.8205H70.1708V17.1142H66.0179V23.2361C66.0179 23.4032 66.0298 23.6418 66.0537 23.9521C66.1014 24.2385 66.2088 24.5249 66.3759 24.8113C66.543 25.0977 66.8174 25.3483 67.1993 25.5631C67.5812 25.7779 68.1063 25.8853 68.7745 25.8853C68.9416 25.8853 69.1087 25.8853 69.2757 25.8853C69.4428 25.8853 69.598 25.8853 69.7412 25.8853C69.8844 25.8615 70.0156 25.8495 70.135 25.8495V28.8926C69.9202 28.9165 69.6815 28.9284 69.419 28.9284C69.1803 28.9523 68.9058 28.9761 68.5955 29C68.3091 29 67.975 29 67.5931 29C67.4022 29 67.0203 28.9761 66.4475 28.9284C65.8986 28.8568 65.3257 28.642 64.7291 28.284C64.1563 27.9021 63.6431 27.3174 63.1896 26.5298C62.7362 25.7421 62.5094 24.6204 62.5094 23.1645V17.1142H59.2516V13.8205Z" fill="#1E1E1E"/>
<path d="M78.2304 29.3938C76.5835 29.3938 75.2828 29.1074 74.3281 28.5346C73.3734 27.9379 72.6455 27.2458 72.1443 26.4582C71.6669 25.6705 71.3686 24.871 71.2492 24.0595C71.1299 23.248 71.0702 22.6156 71.0702 22.1621V13.8205H74.5787V22.3053C74.5787 22.5917 74.6145 22.9497 74.6861 23.3793C74.7577 23.8089 74.9128 24.2266 75.1515 24.6323C75.4141 25.0381 75.784 25.3841 76.2613 25.6705C76.7625 25.9569 77.4189 26.1001 78.2304 26.1001C79.0419 26.1001 79.6863 25.9569 80.1636 25.6705C80.6648 25.3841 81.0348 25.0381 81.2734 24.6323C81.536 24.2266 81.703 23.8089 81.7746 23.3793C81.8462 22.9497 81.882 22.5917 81.882 22.3053V13.8205H85.3905V22.1621C85.3905 22.6156 85.3308 23.248 85.2115 24.0595C85.0922 24.871 84.7819 25.6705 84.2807 26.4582C83.8033 27.2458 83.0873 27.9379 82.1326 28.5346C81.178 29.1074 79.8772 29.3938 78.2304 29.3938Z" fill="#1E1E1E"/>
<path d="M86.6325 13.8205H90.1409V16.255C90.5944 15.6106 91.0956 15.1094 91.6446 14.7514C92.1935 14.3933 92.7186 14.1308 93.2198 13.9637C93.721 13.7967 94.1745 13.7012 94.5802 13.6773C94.986 13.6535 95.2604 13.6415 95.4036 13.6415C95.5707 13.6415 95.7497 13.6415 95.9406 13.6415C96.1554 13.6415 96.3583 13.6535 96.5492 13.6773V17.0426C96.2867 16.9949 96.0719 16.9591 95.9048 16.9352C95.8094 16.9352 95.7378 16.9352 95.69 16.9352C94.7353 16.9352 93.9 17.15 93.184 17.5796C92.4918 17.9853 91.919 18.4985 91.4656 19.119C91.0121 19.7396 90.6779 20.4079 90.4631 21.1239C90.2483 21.8399 90.1409 22.4962 90.1409 23.0929V29H86.6325V13.8205Z" fill="#1E1E1E"/>
<path d="M107.234 27.4606C106.709 27.9379 106.184 28.3079 105.659 28.5704C105.134 28.8329 104.633 29.0239 104.155 29.1432C103.678 29.2625 103.225 29.3341 102.795 29.358C102.389 29.3819 102.031 29.3938 101.721 29.3938C100.647 29.3938 99.6327 29.1909 98.678 28.7852C97.7472 28.3556 96.9237 27.7828 96.2077 27.0668C95.5156 26.3269 94.9547 25.4796 94.5251 24.5249C94.1194 23.5464 93.9165 22.5082 93.9165 21.4103C93.9165 20.3124 94.1194 19.2861 94.5251 18.3314C94.9547 17.3529 95.5156 16.5056 96.2077 15.7896C96.9237 15.0497 97.7472 14.4769 98.678 14.0711C99.6327 13.6415 100.647 13.4267 101.721 13.4267C102.031 13.4267 102.389 13.4387 102.795 13.4625C103.225 13.4864 103.678 13.558 104.155 13.6773C104.633 13.7967 105.134 13.9876 105.659 14.2501C106.184 14.5127 106.709 14.8826 107.234 15.36V13.8205H110.743V29H107.234V27.4606ZM102.294 26.1001C102.986 26.1001 103.63 25.9927 104.227 25.7779C104.824 25.5393 105.337 25.2171 105.766 24.8113C106.22 24.3817 106.578 23.8805 106.841 23.3077C107.103 22.7349 107.234 22.1024 107.234 21.4103C107.234 20.7181 107.103 20.0856 106.841 19.5128C106.578 18.94 106.22 18.4508 105.766 18.045C105.337 17.6154 104.824 17.2932 104.227 17.0784C103.63 16.8397 102.986 16.7204 102.294 16.7204C101.626 16.7204 100.993 16.8397 100.396 17.0784C99.7997 17.2932 99.2746 17.6154 98.8212 18.045C98.3916 18.4508 98.0455 18.94 97.783 19.5128C97.5443 20.0856 97.4249 20.7181 97.4249 21.4103C97.4249 22.1024 97.5443 22.7349 97.783 23.3077C98.0455 23.8805 98.3916 24.3817 98.8212 24.8113C99.2746 25.2171 99.7997 25.5393 100.396 25.7779C100.993 25.9927 101.626 26.1001 102.294 26.1001Z" fill="#1E1E1E"/>
<path d="M3.80119 38.145C3.40155 38.145 3.02377 38.0732 2.66785 37.9296C2.31817 37.7797 2.0122 37.5799 1.74994 37.3301C1.48768 37.0741 1.28161 36.7744 1.13175 36.431C0.981889 36.0875 0.906957 35.7222 0.906957 35.3351C0.906957 34.9479 0.981889 34.5827 1.13175 34.2392C1.28161 33.8958 1.48768 33.5992 1.74994 33.3494C2.0122 33.0934 2.31817 32.8936 2.66785 32.75C3.02377 32.6001 3.40155 32.5252 3.80119 32.5252C4.11965 32.5252 4.42249 32.572 4.70973 32.6657C4.99697 32.7593 5.25923 32.8904 5.49651 33.059C5.7338 33.2214 5.93986 33.4181 6.1147 33.6491C6.29578 33.8802 6.43628 34.1331 6.53619 34.4078H5.66511C5.48402 34.0519 5.23113 33.7678 4.90643 33.5555C4.58172 33.3369 4.21331 33.2276 3.80119 33.2276C3.51395 33.2276 3.2392 33.2807 2.97694 33.3869C2.72092 33.493 2.49613 33.6429 2.30256 33.8365C2.10898 34.0238 1.956 34.2455 1.8436 34.5015C1.7312 34.7575 1.67501 35.0354 1.67501 35.3351C1.67501 35.6223 1.7312 35.894 1.8436 36.15C1.956 36.406 2.10898 36.6308 2.30256 36.8244C2.49613 37.0117 2.72092 37.1615 2.97694 37.2739C3.2392 37.3863 3.51395 37.4425 3.80119 37.4425C4.21331 37.4425 4.58172 37.3364 4.90643 37.1241C5.23113 36.9055 5.48402 36.6183 5.66511 36.2624H6.53619C6.43628 36.5434 6.29578 36.7994 6.1147 37.0304C5.93986 37.2615 5.7338 37.4613 5.49651 37.6299C5.25923 37.7922 4.99697 37.9202 4.70973 38.0139C4.42249 38.1013 4.11965 38.145 3.80119 38.145ZM11.3517 37.3395H14.1429V38.042H10.5837V32.6188H11.3517V37.3395ZM20.8079 32.5252C21.2076 32.5252 21.5791 32.6001 21.9225 32.75C22.2722 32.8936 22.5751 33.0934 22.8311 33.3494C23.0933 33.5992 23.2994 33.8958 23.4493 34.2392C23.5991 34.5827 23.6741 34.9479 23.6741 35.3351C23.6741 35.7222 23.5991 36.0875 23.4493 36.431C23.2994 36.7744 23.0933 37.0741 22.8311 37.3301C22.5751 37.5799 22.2722 37.7797 21.9225 37.9296C21.5791 38.0732 21.2076 38.145 20.8079 38.145C20.4083 38.145 20.0336 38.0732 19.684 37.9296C19.3405 37.7797 19.0377 37.5799 18.7754 37.3301C18.5194 37.0741 18.3165 36.7744 18.1666 36.431C18.0167 36.0875 17.9418 35.7222 17.9418 35.3351C17.9418 34.9479 18.0167 34.5827 18.1666 34.2392C18.3165 33.8958 18.5194 33.5992 18.7754 33.3494C19.0377 33.0934 19.3405 32.8936 19.684 32.75C20.0336 32.6001 20.4083 32.5252 20.8079 32.5252ZM20.8079 37.4425C21.0952 37.4425 21.3637 37.3863 21.6134 37.2739C21.8695 37.1615 22.0911 37.0117 22.2785 36.8244C22.472 36.6308 22.625 36.406 22.7374 36.15C22.8498 35.894 22.906 35.6223 22.906 35.3351C22.906 35.0354 22.8498 34.7575 22.7374 34.5015C22.625 34.2455 22.472 34.0238 22.2785 33.8365C22.0911 33.6429 21.8695 33.493 21.6134 33.3869C21.3637 33.2807 21.0952 33.2276 20.8079 33.2276C20.5207 33.2276 20.2491 33.2807 19.9931 33.3869C19.7433 33.493 19.5216 33.6429 19.328 33.8365C19.1407 34.0238 18.9908 34.2455 18.8784 34.5015C18.7661 34.7575 18.7099 35.0354 18.7099 35.3351C18.7099 35.6223 18.7661 35.894 18.8784 36.15C18.9908 36.406 19.1407 36.6308 19.328 36.8244C19.5216 37.0117 19.7433 37.1615 19.9931 37.2739C20.2491 37.3863 20.5207 37.4425 20.8079 37.4425ZM30.0378 38.145C30.0191 38.145 29.9504 38.1419 29.8318 38.1357C29.7131 38.1294 29.5726 38.1044 29.4103 38.0607C29.2479 38.0233 29.0731 37.9608 28.8858 37.8734C28.7047 37.786 28.5361 37.6611 28.38 37.4987C28.2239 37.3364 28.0927 37.1303 27.9866 36.8806C27.8867 36.6308 27.8367 36.3248 27.8367 35.9626V32.6188H28.6048V35.9626C28.6048 36.0188 28.6141 36.1281 28.6329 36.2905C28.6516 36.4528 28.7078 36.6214 28.8015 36.7963C28.8951 36.9649 29.0387 37.1147 29.2323 37.2458C29.4259 37.377 29.6944 37.4425 30.0378 37.4425C30.3875 37.4425 30.656 37.377 30.8433 37.2458C31.0369 37.1147 31.1805 36.9649 31.2742 36.7963C31.3679 36.6214 31.4241 36.4528 31.4428 36.2905C31.4615 36.1281 31.4709 36.0188 31.4709 35.9626V32.6188H32.2389V35.9626C32.2389 36.3248 32.1859 36.6308 32.0797 36.8806C31.9798 37.1303 31.8518 37.3364 31.6957 37.4987C31.5396 37.6611 31.3679 37.786 31.1805 37.8734C30.9995 37.9608 30.8277 38.0233 30.6654 38.0607C30.503 38.1044 30.3625 38.1294 30.2439 38.1357C30.1253 38.1419 30.0566 38.145 30.0378 38.145ZM37.2561 33.3213V37.3395H38.5768C38.8703 37.3395 39.1294 37.2927 39.3542 37.199C39.5853 37.0991 39.782 36.9617 39.9443 36.7869C40.1067 36.6058 40.2284 36.3935 40.3096 36.15C40.397 35.9002 40.4407 35.6286 40.4407 35.3351C40.4407 35.0416 40.397 34.7731 40.3096 34.5296C40.2284 34.2798 40.1067 34.0675 39.9443 33.8927C39.782 33.7116 39.5853 33.5711 39.3542 33.4712C39.1294 33.3713 38.8703 33.3213 38.5768 33.3213H37.2561ZM41.2088 35.3257C41.2088 35.7129 41.1495 36.0719 41.0308 36.4029C40.9122 36.7338 40.7373 37.0211 40.5063 37.2646C40.2815 37.5081 40.0036 37.6986 39.6727 37.8359C39.3417 37.9733 38.964 38.042 38.5393 38.042H36.4881V32.6188H38.5393C38.964 32.6188 39.3417 32.6875 39.6727 32.8249C40.0036 32.9623 40.2815 33.1527 40.5063 33.3962C40.7373 33.6398 40.9122 33.927 41.0308 34.2579C41.1495 34.5827 41.2088 34.9386 41.2088 35.3257Z" fill="#1E1E1E"/>
<path d="M50.454 36.6745H49.9295L49.3675 35.9533H48.7774V36.6745H48.3185V34.0425H49.3113C49.3863 34.0425 49.4862 34.0488 49.6111 34.0613C49.7359 34.0675 49.8546 34.0987 49.967 34.1549C50.0856 34.2111 50.1855 34.3017 50.2667 34.4265C50.3541 34.5452 50.3978 34.7169 50.3978 34.9417C50.3978 35.2414 50.3572 35.46 50.2761 35.5974C50.1949 35.7285 50.0482 35.8253 49.8358 35.8877L50.454 36.6745ZM48.7774 35.5318H49.3207C49.5018 35.5318 49.6485 35.5006 49.7609 35.4381C49.8796 35.3694 49.9389 35.2289 49.9389 35.0166C49.9389 34.8917 49.9201 34.795 49.8827 34.7263C49.8452 34.6576 49.7953 34.6045 49.7328 34.567C49.6766 34.5296 49.6111 34.5077 49.5361 34.5015C49.4612 34.489 49.3894 34.4827 49.3207 34.4827H48.7774V35.5318ZM49.3113 32.5252C49.6985 32.5252 50.0606 32.6001 50.3978 32.75C50.7413 32.8936 51.041 33.0934 51.297 33.3494C51.553 33.5992 51.7528 33.8958 51.8965 34.2392C52.0463 34.5827 52.1213 34.9479 52.1213 35.3351C52.1213 35.7222 52.0463 36.0875 51.8965 36.431C51.7528 36.7744 51.553 37.0741 51.297 37.3301C51.041 37.5799 50.7413 37.7797 50.3978 37.9296C50.0606 38.0732 49.6985 38.145 49.3113 38.145C48.9242 38.145 48.5589 38.0732 48.2155 37.9296C47.872 37.7797 47.5723 37.5799 47.3163 37.3301C47.0603 37.0741 46.8573 36.7744 46.7075 36.431C46.5638 36.0875 46.492 35.7222 46.492 35.3351C46.492 34.9479 46.5638 34.5827 46.7075 34.2392C46.8573 33.8958 47.0603 33.5992 47.3163 33.3494C47.5723 33.0934 47.872 32.8936 48.2155 32.75C48.5589 32.6001 48.9242 32.5252 49.3113 32.5252ZM49.3113 37.7891C49.6485 37.7891 49.967 37.7267 50.2667 37.6018C50.5664 37.4706 50.8256 37.2958 51.0441 37.0772C51.2689 36.8525 51.4438 36.5902 51.5686 36.2905C51.6998 35.9907 51.7653 35.6723 51.7653 35.3351C51.7653 34.9979 51.6998 34.6794 51.5686 34.3797C51.4438 34.08 51.2689 33.8208 51.0441 33.6023C50.8256 33.3775 50.5664 33.2027 50.2667 33.0778C49.967 32.9466 49.6485 32.8811 49.3113 32.8811C48.9679 32.8811 48.6463 32.9466 48.3466 33.0778C48.0531 33.2027 47.794 33.3775 47.5692 33.6023C47.3506 33.8208 47.1758 34.08 47.0446 34.3797C46.9198 34.6794 46.8573 34.9979 46.8573 35.3351C46.8573 35.6723 46.9198 35.9907 47.0446 36.2905C47.1758 36.5902 47.3506 36.8525 47.5692 37.0772C47.794 37.2958 48.0531 37.4706 48.3466 37.6018C48.6463 37.7267 48.9679 37.7891 49.3113 37.7891Z" fill="#1E1E1E"/>
<path d="M114.883 10.5885H115.397V8.57336H116.203V8H114.061V8.57336H114.883V10.5885ZM119.485 8.77376V10.5885H120V8H119.441L118.445 9.26919L117.45 8H116.885V10.5885H117.405V8.77376L118.4 10.0318H118.49L119.485 8.77376Z" fill="#1E1E1E"/>
</svg>
