<svg width="446" height="169" viewBox="0 0 446 169" fill="none" xmlns="http://www.w3.org/2000/svg">
<path d="M151.016 51.2654H155.966C156.907 51.2654 157.761 51.4246 158.528 51.743C159.295 52.0615 159.954 52.5029 160.504 53.0674C161.068 53.6318 161.502 54.2976 161.806 55.0647C162.11 55.8318 162.262 56.664 162.262 57.5614C162.262 58.4587 162.11 59.2909 161.806 60.058C161.502 60.8251 161.068 61.4909 160.504 62.0554C159.954 62.6054 159.295 63.0396 158.528 63.358C157.761 63.6764 156.907 63.8356 155.966 63.8356H151.016V51.2654ZM153.926 53.9358V61.1652H155.966C156.487 61.1652 156.95 61.0784 157.356 60.9047C157.761 60.7166 158.101 60.4633 158.376 60.1449C158.666 59.8265 158.883 59.4501 159.027 59.0159C159.172 58.5673 159.245 58.0824 159.245 57.5614C159.245 57.0403 159.172 56.5627 159.027 56.1285C158.883 55.6798 158.666 55.2963 158.376 54.9779C158.101 54.645 157.761 54.3917 157.356 54.218C156.95 54.0298 156.487 53.9358 155.966 53.9358H153.926ZM180.07 61.1652V63.8356H171.299V51.2654H180.07V53.9358H174.208V56.3239H179.614V58.9942H174.208V61.1652H180.07ZM196.72 59.4719H192.096V63.8356H189.186V51.2654H192.096V56.8232H196.72V51.2654H199.629V63.8356H196.72V59.4719ZM216.534 51.2654H219.465V59.0159C219.465 59.6528 219.385 60.2172 219.226 60.7093C219.081 61.187 218.886 61.6067 218.64 61.9685C218.394 62.3304 218.112 62.6343 217.793 62.8803C217.489 63.1119 217.171 63.3073 216.838 63.4665C216.071 63.8284 215.195 64.031 214.211 64.0744C213.227 64.031 212.351 63.8284 211.584 63.4665C211.121 63.2784 210.752 63.0685 210.477 62.8369C210.217 62.6054 209.97 62.3159 209.739 61.9685C209.507 61.6067 209.319 61.187 209.174 60.7093C209.03 60.2172 208.957 59.6528 208.957 59.0159V51.2654H211.888V58.9508C211.917 59.414 212.018 59.8192 212.192 60.1666C212.351 60.5139 212.583 60.8106 212.887 61.0567C213.191 61.2883 213.632 61.4041 214.211 61.4041C214.79 61.4041 215.232 61.281 215.535 61.035C215.854 60.7745 216.085 60.485 216.23 60.1666C216.404 59.8192 216.505 59.414 216.534 58.9508V51.2654ZM230.47 59.5804C230.513 59.6817 230.614 59.8265 230.774 60.0146C230.933 60.2028 231.135 60.3909 231.382 60.5791C231.628 60.7528 231.924 60.912 232.272 61.0567C232.633 61.187 233.031 61.2521 233.466 61.2521C233.856 61.2521 234.168 61.2159 234.399 61.1435C234.645 61.0567 234.833 60.9626 234.964 60.8613C235.094 60.7455 235.181 60.637 235.224 60.5357C235.282 60.4199 235.311 60.333 235.311 60.2751C235.311 59.9567 235.145 59.7034 234.812 59.5153C234.479 59.3271 234.066 59.1607 233.574 59.0159C233.082 58.8567 232.547 58.6903 231.968 58.5166C231.389 58.3285 230.853 58.0824 230.361 57.7785C229.869 57.4601 229.457 57.0548 229.124 56.5627C228.791 56.0706 228.624 55.4338 228.624 54.6522C228.624 54.3483 228.689 53.9937 228.82 53.5884C228.95 53.1687 229.182 52.7707 229.514 52.3944C229.862 52.018 230.325 51.6996 230.904 51.4391C231.483 51.1786 232.228 51.0483 233.14 51.0483C234.037 51.0483 234.783 51.1786 235.376 51.4391C235.97 51.6996 236.447 51.9819 236.809 52.2858C237.229 52.6621 237.562 53.0818 237.808 53.545L235.767 55.1081C235.492 54.616 235.087 54.2831 234.551 54.1095C234.03 53.9213 233.516 53.8272 233.01 53.8272C232.619 53.8272 232.272 53.9213 231.968 54.1095C231.678 54.2831 231.533 54.5147 231.533 54.8042C231.533 55.166 231.7 55.4555 232.033 55.6726C232.366 55.8752 232.778 56.0561 233.27 56.2153C233.762 56.3601 234.298 56.5193 234.877 56.693C235.456 56.8522 235.991 57.0765 236.483 57.366C236.975 57.6554 237.388 58.039 237.721 58.5166C238.054 58.9942 238.22 59.6238 238.22 60.4054C238.22 60.7238 238.141 61.1001 237.981 61.5343C237.822 61.954 237.554 62.3521 237.178 62.7284C236.802 63.0902 236.302 63.4014 235.68 63.6619C235.058 63.9224 234.283 64.0527 233.357 64.0527C232.532 64.0527 231.816 63.9514 231.208 63.7488C230.614 63.5317 230.115 63.2784 229.71 62.9889C229.305 62.685 228.986 62.381 228.755 62.0771C228.523 61.7587 228.349 61.4981 228.234 61.2955L230.47 59.5804ZM246.058 53.9358V51.2654H256.587V53.9358H252.788V63.8356H249.857V53.9358H246.058ZM268.414 61.1652H274.276V63.8356H265.505V51.2654H268.414V61.1652ZM291.76 61.1652V63.8356H282.989V51.2654H291.76V53.9358H285.899V56.3239H291.304V58.9942H285.899V61.1652H291.76Z" fill="white"/>
<g filter="url(#filter0_i_2726_47)">
<path d="M73.9245 53.4335C73.649 51.9184 73.0981 50.8166 71.4453 50.4034C71.1698 50.2657 70.8944 49.9902 70.4812 49.8525C69.9303 49.577 69.3793 49.4393 68.8284 49.577C67.1757 49.8525 65.9361 50.5411 65.1097 51.9184C64.1456 53.5712 63.1815 55.3617 62.3551 57.0145C61.9419 57.5654 61.6664 58.254 61.2532 58.805C58.3609 63.4878 55.3308 68.1707 52.3007 72.7158C48.582 78.225 45.001 83.872 41.5578 89.5189C39.905 92.1358 38.3899 94.7527 36.7372 97.2318C36.5994 97.645 36.324 97.9205 36.1863 98.3337L35.9108 98.0582C35.4976 96.9564 36.0485 95.8545 35.7731 94.7527C36.0485 92.9622 36.0485 91.3094 36.1863 89.5189C36.4617 87.0398 36.7372 84.5606 37.1504 82.0815C37.7013 79.3268 38.1145 76.5722 38.6654 73.8176C39.7673 69.1348 40.7314 64.4519 41.6955 59.7691C41.8332 59.0804 42.1087 58.3918 41.9709 57.8409C41.8332 57.1522 41.6955 56.4636 41.8332 55.7749C41.8332 55.6372 41.6955 55.3617 41.5578 55.224C40.8691 54.1221 39.4918 53.5712 38.2522 53.8467C36.7372 54.2599 35.6353 55.0862 34.809 56.4636C34.258 57.1522 34.1203 57.9786 33.7071 58.6672C33.1562 59.4936 32.6053 60.1823 32.1921 61.0087V61.1464L31.6411 61.9728C29.9884 62.2482 29.2997 62.5237 28.6111 63.7633C28.1979 64.5897 27.5092 65.416 26.9583 66.2424C26.4074 67.2065 25.8565 68.1707 25.3055 69.2725C23.7905 72.1648 22.2755 75.0572 20.8982 77.9495C19.7963 80.1532 18.8322 82.3569 17.8681 84.6983C16.353 88.1416 14.838 91.5849 13.4607 95.0281C11.5325 99.5732 9.60421 104.256 7.53825 108.801C6.8496 110.041 6.29867 111.418 5.74775 112.658C5.33456 113.897 4.92137 115.137 4.50818 116.239V116.927C4.78364 117.203 5.19683 117.065 5.0591 117.478C4.92137 117.478 4.64591 117.616 4.78364 118.029H5.88548C5.88548 117.616 5.88548 117.34 5.88548 117.065H7.40052C7.53825 117.616 7.40052 118.029 6.71187 118.305C6.43641 118.305 6.29867 118.442 6.16094 118.58C5.88548 118.993 5.47229 119.544 5.61002 119.957C5.88548 120.508 5.61002 120.921 5.88548 121.335C6.16094 121.61 6.57414 121.886 6.98733 122.161C8.2269 123.263 9.60421 123.538 11.1193 122.85C11.9457 123.538 12.6343 123.263 13.323 122.712C14.7003 121.886 15.6644 120.508 16.0776 118.993C16.4908 117.478 17.0417 116.101 17.3172 114.724C18.1435 111.831 18.9699 108.939 19.934 106.046C20.485 104.394 20.7604 102.879 21.3113 101.364C21.8623 99.711 22.5509 98.1959 23.1018 96.5432C24.066 94.064 24.8923 91.5849 25.8565 89.1057C25.8565 88.968 25.9942 88.6925 26.2697 88.8303C26.4074 89.6566 26.2697 90.483 26.1319 91.3094L25.7187 96.8186C25.581 99.1601 25.581 101.501 25.4433 103.843C25.3055 106.46 25.581 109.077 26.2697 111.693L27.3715 112.107C27.2338 112.933 27.2338 113.071 28.7488 113.071C28.7488 112.933 28.6111 112.658 28.6111 112.658C29.0243 112.244 29.0243 111.693 29.7129 111.556C29.7129 112.382 29.9884 113.071 29.4375 113.622C29.4375 113.622 29.4375 113.897 29.5752 114.035L29.9884 114.999C29.8506 115.412 29.5752 115.688 29.0243 115.55C28.8865 114.861 29.0243 114.448 29.5752 114.035C29.2997 114.035 29.0243 114.173 28.8865 114.035C28.6111 114.035 28.3356 113.759 28.0601 113.622C27.7847 113.484 27.3715 113.759 27.5092 114.035C27.7847 115.137 28.0601 116.101 28.8865 116.789C30.1261 117.754 31.6411 118.029 33.1562 118.305H33.5694C34.9467 118.029 36.1863 117.616 37.2881 116.652C38.2522 115.825 39.0786 114.724 39.6295 113.622C41.1446 111.143 42.5219 108.526 43.8992 105.909C45.4142 102.879 46.9292 99.8487 48.3066 96.8186C48.9952 95.3036 49.8216 93.7886 49.9593 92.1358C49.9593 91.9981 50.0971 91.8603 50.0971 91.7226C50.5102 91.0339 51.0612 90.2076 51.4744 89.5189L52.0253 88.968C52.3007 89.5189 52.5762 89.7944 52.163 90.2076C52.0253 90.3453 51.8876 90.7585 51.8876 90.8962C52.0253 91.4471 51.8876 91.8603 51.7498 92.4113C51.1989 94.3395 50.648 96.2677 50.0971 98.1959L48.4443 104.807C48.4443 105.22 48.3066 105.633 48.3066 106.046C48.4443 107.424 48.0311 108.663 47.8934 110.041C47.6179 111.556 47.067 113.071 47.067 114.586C47.067 114.861 46.9292 114.999 46.9292 115.137C46.5161 116.927 46.1029 118.855 45.8274 120.784C45.5519 121.886 45.4142 123.125 45.2765 124.365C44.8633 126.706 44.3124 129.048 44.1746 131.389C44.7256 131.664 44.5878 130.838 45.001 130.838V131.527C45.4142 131.802 45.4142 132.078 45.2765 132.353C45.1388 132.766 45.1388 133.179 45.001 133.593C44.8633 134.832 44.8633 136.072 44.4501 137.311L43.7614 140.892C43.486 141.994 43.6237 143.234 43.0728 144.336V145.024C43.3483 145.3 43.2105 145.575 43.0728 145.988C42.9351 146.402 42.7973 146.677 42.9351 147.09C42.9351 147.366 42.7973 147.503 42.7973 147.641C42.3841 148.192 42.5219 148.743 42.5219 149.294C42.3841 149.845 42.2464 150.396 42.2464 150.947C42.1087 152.049 42.1087 153.288 41.9709 154.39C41.9709 155.767 41.9709 157.007 42.3841 158.246C42.6596 158.935 43.0728 159.486 43.486 160.037C43.7614 160.45 44.4501 160.588 45.1388 160.45C45.8274 160.312 46.2406 159.761 46.3783 159.073C46.3783 158.66 46.3783 158.246 46.2406 157.971C45.6897 156.731 45.6897 155.492 45.6897 154.252C45.6897 151.36 46.2406 148.605 46.6538 145.851C47.6179 139.515 49.1329 133.042 50.3725 126.706C50.7857 124.916 51.0612 123.263 51.6121 121.61C52.0253 119.82 52.3007 118.167 52.8517 116.376C53.2649 114.999 53.4026 113.622 53.8158 112.244C53.9535 111.556 54.229 111.005 54.3667 110.316C54.5044 109.214 54.9176 108.25 55.0554 107.286C55.4686 105.358 56.4327 103.705 56.5704 101.915C56.5704 101.639 56.7081 101.501 56.7081 101.364C57.259 99.711 57.9477 98.1959 58.3609 96.5432L59.6005 92.549C60.0137 91.5849 60.4269 90.6208 60.5646 89.5189C60.7023 88.968 60.84 88.2793 61.2532 87.8661L61.5287 87.4529C62.4928 84.4229 63.4569 81.5305 64.5588 78.6382C65.5229 76.159 66.487 73.6799 67.5888 71.2007L68.002 69.9612C68.2775 69.2725 68.553 68.5839 68.9662 67.8952C69.5171 67.2065 69.6548 66.5179 70.068 65.6915C70.4812 65.1406 70.6189 64.5897 70.7567 63.901C70.4812 63.0746 71.583 62.9369 71.583 62.2482C71.7208 62.1105 71.8585 61.9728 71.8585 61.835C71.8585 61.2841 72.134 60.8709 72.2717 60.32C73.0981 58.6672 73.649 56.8767 73.9245 55.0862C74.0622 54.5353 74.0622 53.9844 73.9245 53.4335ZM9.46648 112.658C9.32875 112.658 9.32875 112.658 9.32875 112.658V112.52H9.46648V112.658ZM9.05329 114.035L8.6401 113.759C8.6401 113.759 8.6401 113.622 8.6401 113.484L8.91556 113.346C9.05329 113.484 9.19102 113.759 9.19102 113.897L9.05329 114.035ZM8.50237 117.065L8.08917 116.789C8.2269 116.789 8.36463 116.652 8.36463 116.652C8.50237 116.652 8.6401 116.652 8.91556 116.789L8.50237 117.065ZM30.4016 117.065L30.2638 116.927C30.2638 116.927 30.4016 116.789 30.4016 116.652C30.4016 116.789 30.5393 116.789 30.5393 116.789C30.5393 116.927 30.4016 116.927 30.4016 117.065ZM46.2406 127.808H45.9651C46.1029 127.67 46.1029 127.532 46.1029 127.532C46.1029 127.395 46.1029 127.395 46.2406 127.395V127.808ZM45.5519 130.563L45.4142 130.425C45.4142 130.287 45.4142 130.149 45.4142 130.012H45.5519C45.6897 130.149 45.6897 130.287 45.6897 130.563H45.5519ZM102.721 91.0339C102.032 91.1717 101.481 90.0698 100.517 90.6208C100.38 91.0339 100.242 91.4471 99.9663 91.8603C99.2777 91.9981 99.2777 92.549 99.1399 93.0999C98.7267 94.2018 98.1758 95.3036 97.2117 95.9923C95.8344 97.0941 94.4571 98.1959 92.942 99.1601C92.1157 99.9864 90.8761 100.262 89.912 100.813C87.5706 102.19 85.0914 103.292 82.6122 104.118C80.4086 105.082 78.2049 105.771 75.7257 106.046C74.0729 106.322 72.5579 106.046 71.0429 105.633C70.0788 105.358 69.2524 104.669 68.8392 103.843C68.2883 102.741 67.8751 101.501 68.0128 100.262C68.2883 99.1601 68.5637 98.0582 69.1146 96.9564C69.3901 96.8186 69.8033 96.6809 70.0788 96.6809C71.0429 96.9564 71.8693 96.6809 72.8334 96.6809C73.6598 96.5432 74.4861 96.5432 75.3125 96.2677C77.9294 95.5791 80.5463 94.6149 82.75 92.9622C83.3009 92.6867 83.7141 92.2735 84.265 92.1358C84.1273 92.549 83.8518 92.6867 83.8518 93.0999C83.1632 93.2376 83.3009 93.7886 83.1632 94.2018C82.4745 94.2018 82.4745 94.2018 82.0613 94.6149C81.9236 94.7527 81.6481 94.8904 81.5104 94.8904C80.1331 96.13 78.3426 96.4054 76.5521 97.0941H76.2766C76.2766 97.2318 76.1389 97.2318 76.0012 97.3696H76.4144C79.9954 96.8186 83.3009 95.3036 86.0555 92.9622C87.1574 92.1358 88.1215 91.0339 88.2592 89.5189C88.6724 89.1057 88.3969 88.4171 88.6724 88.0039C89.2233 87.3152 89.2233 86.4888 89.3611 85.6624C89.7742 84.6983 89.6365 83.7342 89.2233 82.9078C88.8101 81.806 87.9837 80.8419 87.0196 80.1532C85.7801 79.3268 84.5405 78.9136 83.1632 78.7759C80.4086 78.6382 77.9294 79.3268 75.588 80.291C69.8033 82.7701 65.3959 86.7643 62.5036 92.2735C61.4017 94.3395 60.7131 96.5432 60.4376 98.7469C60.1622 99.9864 60.7131 101.226 60.5753 102.465C60.9885 103.016 61.4017 103.567 61.6772 104.118C61.8149 104.118 61.8149 104.256 61.9526 104.394C62.6413 105.909 63.7431 107.148 64.1563 108.939C64.2941 109.352 64.5695 109.765 64.4318 110.178C64.4318 110.316 64.4318 110.592 64.5695 110.592C65.3959 111.418 66.0846 112.382 67.3241 112.795C68.9769 113.484 70.7674 114.035 72.5579 114.173C79.169 114.586 84.9537 112.52 90.0497 108.526C91.2893 107.699 92.3911 106.873 93.493 106.046C94.7325 104.945 96.1099 103.843 97.2117 102.741C98.0381 101.915 99.0022 101.088 99.8286 99.8487L95.8344 102.879C95.4212 103.154 95.1457 103.292 94.5948 103.43C94.3194 103.567 94.0439 104.118 93.7684 104.256C93.493 104.531 92.942 104.531 92.6666 104.531C92.3911 104.669 91.9779 104.531 91.8402 104.669L89.7742 106.046C88.5347 106.873 87.2951 107.562 85.9178 108.112L85.2291 108.526C84.265 108.939 83.4386 109.627 82.3368 109.765C81.6481 109.903 81.0972 110.178 80.4086 110.454C79.8576 110.729 79.0313 110.867 78.3426 110.454C79.0313 109.903 79.5822 109.765 80.2708 109.627C81.2349 109.352 82.1991 109.077 83.1632 108.663C85.5046 107.562 87.846 106.322 90.3252 105.082C90.4629 104.945 90.8761 104.807 91.0138 104.669C91.5647 103.981 92.3911 103.705 93.2175 103.567H93.0798C93.2175 103.43 93.3552 103.154 93.493 103.154C94.3194 102.879 94.8703 102.328 95.4212 101.777C95.9721 101.364 96.6608 100.95 97.074 100.537C97.9004 99.8487 99.0022 99.4355 99.5531 98.4714C100.93 97.2318 102.032 95.5791 102.859 93.9263C103.272 92.9622 103.41 91.9981 102.721 91.0339ZM74.0729 88.0039C75.0371 87.4529 76.0012 87.0398 76.8276 86.4888C77.6539 85.9379 78.4803 85.8002 79.4444 85.6624C79.9954 85.5247 80.5463 85.5247 81.0972 85.5247C81.2349 85.387 81.2349 85.5247 81.5104 85.9379C80.684 86.2134 79.9954 86.3511 79.3067 86.6266C78.7558 86.902 78.0671 87.0398 77.3785 87.3152C75.8634 87.8661 74.4861 88.6925 73.1088 89.3812C72.9711 89.5189 72.6956 89.5189 72.2824 89.5189C72.9711 88.8303 73.522 88.4171 74.0729 88.0039ZM81.7859 86.902C82.0613 87.1775 81.9236 87.3152 81.6481 87.4529C81.0972 88.1416 80.5463 88.8303 79.8576 89.3812C77.7917 91.0339 74.7616 92.1358 72.1447 92.4113C73.3843 89.9321 79.169 86.6266 81.7859 86.902ZM86.1932 91.1717C86.331 91.0339 86.6064 91.0339 86.8819 91.0339C86.7442 91.3094 86.7442 91.4471 86.7442 91.4471C86.6064 91.7226 86.4687 91.9981 86.1932 91.8603H86.0555C85.9178 91.5849 86.0555 91.3094 86.1932 91.1717ZM84.9537 92.4113C84.6782 92.2735 84.5405 92.2735 84.265 92.1358H84.4027C84.8159 91.9981 84.8159 91.9981 84.9537 92.4113ZM83.7141 93.6508C83.8518 93.5131 83.8518 93.3754 83.8518 93.2376C83.9896 93.0999 84.1273 93.0999 84.4027 92.9622C84.4027 93.3754 84.265 93.6508 83.7141 93.6508ZM169.896 29.1929C169.62 28.091 169.207 27.8156 168.105 27.9533L158.74 28.7797C155.159 29.1929 151.578 29.6061 148.134 29.8815L140.146 30.7079C139.182 30.8456 138.218 30.8456 137.116 30.8456C137.116 30.2947 137.254 29.8815 137.529 29.6061C137.942 29.1929 138.218 28.9174 138.493 28.5042C139.733 26.8515 140.972 25.061 142.074 23.2705L144.553 19.0008C144.967 18.3122 145.104 17.6235 144.829 16.9348C144.553 16.7971 144.278 16.6594 144.14 16.5217C144.278 16.1085 144.553 15.5575 144.829 15.1444L144.416 14.4557C143.314 12.8029 141.11 12.252 139.32 13.2161C138.356 13.6293 137.667 14.318 136.978 15.0066C134.912 17.4858 132.709 19.8272 130.918 22.4441L125.271 31.1211C124.72 31.9475 124.169 32.223 123.343 32.223L121.001 32.4984C118.247 32.7739 115.492 33.0493 112.738 33.1871C109.983 33.4625 107.228 33.6003 104.474 33.738C99.9287 34.0135 95.2458 34.0135 90.563 33.8757C88.2215 33.738 85.8801 33.6003 83.5387 33.4625H82.7123C82.2991 33.3248 82.0237 33.3248 81.7482 33.0493C82.4369 32.3607 83.401 32.4984 84.0896 31.9475L83.8142 31.2588C84.3651 31.1211 84.916 30.8456 85.4669 30.7079C89.4611 29.7438 93.593 28.7797 97.725 28.2288C98.9645 28.091 100.066 28.091 101.168 28.5042C101.306 28.5042 101.306 28.5042 101.581 28.3665V27.8156C100.617 27.2647 99.6532 27.4024 98.5513 27.5401C96.4854 27.9533 94.4194 28.3665 92.3535 28.642C91.3893 28.7797 90.563 28.9174 89.5989 28.642C89.1857 28.642 88.7725 28.642 88.3593 28.642L82.85 29.4683C80.7841 29.7438 78.8559 30.157 76.7899 30.157C75.8258 30.157 74.8617 30.4325 74.0353 30.8456C73.2089 31.2588 72.9334 31.8098 72.7957 32.6361C72.7957 33.3248 73.2089 33.738 73.4844 34.2889C73.4844 34.5644 74.0353 34.5644 74.173 34.8398C74.5862 35.5285 75.4126 35.9417 76.1012 36.3549C76.6522 36.6303 77.0654 37.0435 77.4786 37.319C77.3408 37.4567 77.3408 37.4567 77.3408 37.5945C76.6522 38.1454 76.6522 38.1454 76.7899 38.9718C76.9276 39.1095 76.9276 39.2472 76.9276 39.5227C77.3408 39.6604 77.754 39.7981 78.1672 40.0736C78.5804 40.2113 79.1313 40.3491 79.1313 40.9C79.1313 41.4509 79.4068 41.5886 79.6822 41.7264L82.85 42.5528C85.7424 43.3791 88.9102 43.7923 91.9403 43.7923C94.5572 43.9301 97.174 43.9301 99.6532 43.9301C103.785 43.9301 107.779 43.5169 111.773 43.1037C113.702 42.8282 115.492 42.5528 117.42 42.415C117.834 42.2773 118.247 42.2773 118.66 42.5528C118.522 42.8282 118.385 42.9659 118.247 43.2414L116.594 46.5469C113.702 52.1939 111.223 57.9786 108.881 63.7633C107.366 67.6197 105.989 71.4762 104.611 75.3327C103.785 77.5363 103.096 79.74 102.408 81.9437C102.27 82.3569 101.995 82.7701 102.132 83.1833C102.27 83.872 102.27 84.5606 101.857 85.1115C101.444 85.6624 101.719 86.3511 101.581 86.902V87.0398C100.893 88.5548 100.617 89.9321 100.48 91.9981L99.9287 93.2376C99.5155 93.3754 99.5155 93.6508 99.3777 94.064C99.24 94.8904 98.8268 95.8545 98.6891 96.8186C98.2759 99.5732 97.8627 102.328 97.8627 105.22C97.8627 107.286 98.1382 109.352 98.8268 111.28C99.6532 113.759 101.168 115.55 103.51 116.652C105.3 117.34 107.091 117.478 109.019 116.789C109.432 116.652 109.845 116.376 110.258 116.376C111.636 115.963 112.875 115.274 113.977 114.31C115.217 113.346 116.319 112.244 117.283 111.005C119.073 108.801 120.588 106.322 121.966 103.843C125.271 97.5073 128.439 91.0339 131.469 84.5606C132.433 82.3569 133.535 80.1532 134.224 77.8118H134.086C133.81 77.9495 133.673 78.3627 133.259 78.0873C133.259 77.8118 133.259 77.6741 133.397 77.5363C133.535 77.1231 133.81 76.8477 133.81 76.5722C133.948 75.8836 134.224 75.3327 134.775 74.7817V74.3685C134.086 74.644 133.81 75.1949 133.673 75.7458C133.397 76.4345 133.122 77.1231 132.433 77.6741C132.158 77.8118 131.882 78.0873 131.882 78.225C132.02 78.9136 131.331 79.0514 131.194 79.4646C131.056 80.4287 130.918 81.2551 130.505 82.2192C130.367 82.7701 130.092 83.1833 129.541 83.4588C128.99 83.7342 128.577 84.1474 128.301 84.6983C128.714 84.5606 128.99 84.5606 129.403 84.6983L128.577 85.9379V85.8002C128.577 86.3511 128.301 86.3511 128.026 86.3511C128.026 86.7643 128.163 87.0398 128.163 87.3152C128.026 88.0039 127.75 88.5548 127.337 88.968C127.199 88.968 127.062 88.968 127.062 88.8303C127.062 88.5548 127.062 88.2793 127.199 87.8661H126.511C125.822 88.0039 125.133 88.1416 124.72 88.6925C124.445 89.2434 124.169 89.5189 123.756 89.9321H123.618C123.343 90.0698 123.067 90.483 123.067 90.7585C123.067 91.5849 122.792 92.1358 122.103 92.6867C121.966 92.8244 121.828 93.2376 121.69 93.5131C121.415 93.7886 121.415 94.2018 121.001 94.4772C120.726 94.6149 120.726 95.0281 120.588 95.4413C120.313 95.3036 120.037 95.3036 119.762 95.3036C119.486 95.5791 119.486 95.7168 119.211 95.8545C118.66 96.4054 117.971 96.8186 117.834 97.7827C117.834 97.9205 117.696 98.0582 117.558 98.0582C117.007 98.4714 116.594 99.0223 116.319 99.5732C115.63 100.813 114.941 102.052 113.977 103.154C113.702 103.43 113.564 103.843 113.426 104.118C112.738 105.358 111.911 106.322 110.672 106.873L110.396 107.148C110.396 107.286 110.534 107.562 110.534 107.975C110.258 107.975 109.845 107.975 109.708 108.25C109.432 108.25 109.294 108.526 109.157 108.663C107.779 108.25 107.366 107.286 107.091 106.046C106.677 104.256 106.54 102.328 106.815 100.4C107.091 97.0941 107.779 93.7886 108.743 90.483C110.258 84.5606 112.462 78.7759 114.804 72.9912C116.732 68.0329 119.073 63.0746 121.415 58.254C124.169 52.4694 127.337 46.8224 130.643 41.1755C131.056 40.3491 131.744 40.0736 132.709 39.7981C134.637 39.5227 136.565 39.1095 138.493 38.6963C140.697 38.2831 143.038 37.7322 145.242 37.1813L152.266 35.9417C153.23 35.804 154.057 35.5285 154.883 34.7021C153.506 34.9776 152.266 35.1153 151.164 35.253C149.925 35.5285 148.685 35.6662 147.583 35.804C146.344 35.9417 145.242 36.0794 144.002 36.0794C144.278 35.804 144.553 35.6662 144.829 35.5285C145.104 35.5285 145.517 35.5285 145.931 35.3908C147.308 35.253 148.685 34.9776 150.063 34.8398C150.614 34.8398 151.164 34.8398 151.44 34.4266C151.715 34.1512 151.991 34.4266 152.266 34.5644H152.542C152.542 34.2889 152.679 34.1512 152.679 33.738L153.919 34.4266C154.057 34.1512 154.332 34.0135 154.47 33.738C155.021 33.0493 155.847 32.9116 156.674 32.7739C158.464 32.6361 160.255 32.4984 161.907 32.223C162.458 32.223 162.872 32.0852 163.285 31.8098L164.8 31.3966C165.626 31.2588 166.453 31.2588 167.141 30.8456C167.968 30.4325 168.656 30.0193 169.483 29.8815C169.758 29.7438 170.034 29.4683 169.896 29.1929ZM138.356 36.9058L138.218 36.7681V36.6303H138.493C138.493 36.6303 138.631 36.6303 138.631 36.7681C138.631 36.7681 138.493 36.9058 138.356 36.9058ZM133.948 37.5945L133.81 37.4567H133.948V37.5945ZM118.935 48.4752C118.798 48.7506 118.66 49.0261 118.385 49.3016C118.247 48.4752 118.247 48.4752 118.935 48.4752C118.935 48.3374 118.935 48.1997 118.935 48.1997H119.073C119.073 48.1997 118.935 48.3374 118.935 48.4752ZM117.42 51.643L116.87 51.2298C117.145 51.7807 117.145 52.3316 116.732 52.8826C116.594 53.158 116.594 53.4335 116.456 53.7089C116.456 54.6731 115.905 55.224 115.217 55.6372C115.079 56.1881 114.941 56.739 114.941 57.2899C114.39 57.4277 114.39 57.0145 114.115 56.739C114.666 55.9126 114.941 54.9485 115.63 54.1221C116.043 53.5712 116.319 53.0203 116.594 52.3316C116.594 51.9184 116.732 51.643 116.87 51.2298C117.145 50.9543 117.283 50.8166 117.42 50.5411C117.558 50.4034 117.696 50.1279 117.834 49.8525C117.971 50.5411 117.696 50.9543 117.42 51.643ZM112.875 61.2841C112.738 62.1105 112.462 62.7992 111.911 63.3501C111.36 63.901 111.085 64.7274 110.947 65.5538C110.809 65.8292 110.672 66.2424 110.396 66.3802C110.396 66.9311 110.534 67.6197 109.708 67.8952C109.708 66.9311 109.708 66.9311 110.396 66.3802C110.258 65.416 110.672 64.5897 111.085 63.7633C111.223 63.3501 111.636 63.0746 111.498 62.5237C112.324 61.4219 112.6 59.9068 113.426 58.6672C113.426 58.5295 113.564 58.3918 113.702 58.254C113.977 58.9427 113.977 58.9427 113.977 59.7691C113.289 60.0445 112.875 60.4577 112.875 61.2841ZM109.432 68.997C109.294 68.997 109.157 68.8593 109.294 68.8593C109.294 68.7216 109.432 68.7216 109.57 68.5839C109.57 68.7216 109.57 68.7216 109.708 68.8593C109.57 68.8593 109.432 68.997 109.432 68.997ZM108.33 71.063C108.055 70.3743 108.468 70.2366 108.881 69.9612C108.881 70.5121 108.881 70.9253 108.33 71.063ZM107.228 73.8176C107.228 73.6799 107.091 73.6799 107.091 73.5422C107.228 73.5422 107.228 73.5422 107.366 73.4044C107.366 73.5422 107.504 73.6799 107.504 73.6799C107.366 73.6799 107.228 73.8176 107.228 73.8176ZM106.402 75.6081L106.127 75.4704L106.264 75.3327H106.54C106.402 75.4704 106.402 75.4704 106.402 75.6081ZM132.571 78.3627V78.5005H132.433H132.295C132.433 78.3627 132.433 78.3627 132.571 78.3627ZM104.749 80.7041V80.8419C104.749 80.7041 104.611 80.7041 104.611 80.7041L104.749 80.5664V80.7041ZM124.032 89.7944V89.9321H123.894L124.032 89.7944ZM104.061 102.19C103.923 102.19 103.923 102.19 103.785 102.052L103.923 101.915H104.198C104.198 102.052 104.061 102.19 104.061 102.19ZM103.51 106.322H103.647C103.785 106.322 103.785 106.46 103.785 106.46C103.647 106.597 103.647 106.597 103.51 106.597V106.322ZM103.785 108.801C103.785 108.801 103.647 108.801 103.647 108.663L103.785 108.526L103.923 108.663C103.923 108.801 103.923 108.801 103.785 108.801ZM177.782 99.1601L175.303 100.813C174.752 101.088 174.752 101.364 174.614 101.777H174.201C173.512 101.915 172.961 102.19 172.273 102.328C172.273 103.016 171.722 102.879 171.309 102.879C171.171 102.879 171.033 103.016 170.895 103.016C170.345 103.43 169.794 103.154 169.243 103.016V102.19C169.243 102.052 169.243 101.777 169.38 101.639C169.931 101.501 170.482 101.226 171.033 101.088V100.4C171.309 100.4 171.584 100.262 171.86 100.124L172.273 99.1601C171.309 99.1601 170.62 99.2978 170.069 99.9864C169.931 100.124 169.656 100.124 169.518 100.4C168.829 100.813 168.003 100.675 167.452 101.088L164.698 102.328C163.871 102.603 162.907 102.603 162.218 102.879C161.53 103.154 160.841 103.154 160.152 103.016C159.877 103.016 159.739 103.016 159.464 102.879C158.637 102.879 158.224 102.328 157.949 101.501C157.949 100.813 157.811 100.124 157.949 99.4355C158.086 97.0941 158.637 94.8904 159.739 92.6867C160.29 91.5849 160.841 90.3453 161.53 89.2434C161.667 88.968 161.667 88.8303 161.392 88.5548C161.117 88.6925 160.703 88.6925 160.428 88.8303C160.152 89.5189 160.015 89.5189 159.464 89.3812C159.326 89.3812 159.188 89.2434 159.188 89.1057C159.188 89.1057 159.326 88.8303 159.464 88.8303H160.428C160.29 88.8303 160.152 88.6925 160.015 88.6925C159.464 88.2793 159.188 87.8661 159.602 87.3152C160.015 86.7643 160.428 86.2134 160.979 85.8002C161.53 85.387 162.081 84.8361 162.081 84.1474C161.667 83.5965 161.254 83.1833 160.566 83.321C160.015 83.321 159.464 83.5965 159.051 84.1474V84.2851C158.913 84.4229 158.775 84.5606 158.637 84.5606C158.086 84.5606 157.673 84.9738 157.122 85.1115C156.985 85.2493 156.709 85.2493 156.571 85.1115C156.021 84.6983 155.607 85.1115 155.194 85.5247C153.679 86.7643 152.164 88.2793 151.062 90.0698C150.649 90.8962 150.098 91.5849 149.547 92.2735C148.859 92.4113 148.721 93.0999 148.445 93.3754C148.032 93.7886 147.619 94.2018 147.619 94.7527C147.619 94.8904 147.481 95.0281 147.344 95.0281C146.793 95.1659 146.517 95.7168 146.104 95.9923L145.828 96.2677C145.14 96.13 145.278 96.6809 145.14 96.8186C145.278 96.9564 145.415 97.0941 145.691 97.2318C146.655 96.5432 147.619 95.8545 148.721 95.1659C148.859 96.6809 148.308 97.9205 148.032 99.4355C147.619 99.2978 147.344 99.0223 147.068 98.8846H146.517C145.966 99.1601 145.415 99.5732 144.727 99.2978C144.313 99.711 143.9 100.124 143.349 100.537C143.349 100.537 143.212 100.675 142.936 100.675C142.523 100.124 142.247 99.5732 142.661 98.8846C142.798 98.7469 142.523 98.3337 142.523 98.0582C142.247 98.3337 141.972 98.6091 141.834 98.7469V99.711C141.972 100.262 141.283 100.124 141.283 100.537V100.675C141.008 100.95 140.87 101.088 140.595 100.813C140.457 100.675 140.319 100.4 140.182 100.262L139.768 100.813C139.906 100.95 140.182 100.95 140.319 101.088C139.631 102.19 139.631 102.19 138.942 102.741C138.391 103.154 137.978 103.705 137.151 103.705C136.876 103.705 136.738 103.981 136.463 104.118L135.636 105.082C134.672 105.082 134.259 105.496 133.57 106.597C133.295 106.46 133.157 106.46 132.882 106.46C132.744 106.322 132.469 106.322 132.193 106.322C132.055 104.807 132.193 103.43 133.708 102.603C133.846 102.465 133.984 102.19 133.984 102.052C133.433 101.639 133.846 101.226 134.121 100.95C135.223 99.4355 136.325 98.0582 137.565 96.6809C139.355 94.6149 141.421 92.9622 143.9 91.7226C145.278 90.8962 145.278 90.8962 146.93 91.1717H147.206V90.483C148.17 90.3453 148.17 90.3453 148.445 90.6208C149.134 90.8962 149.134 90.8962 149.96 90.8962L149.547 89.2434C149.409 88.8303 148.996 88.5548 148.583 88.4171H147.481C147.068 88.4171 146.793 88.4171 146.379 88.4171V88.968C145.691 89.2434 145.14 89.5189 144.451 89.5189C143.763 89.5189 143.074 89.2434 142.523 89.1057C141.697 89.2434 141.146 89.9321 140.182 89.5189C141.834 88.1416 143.212 86.902 145.415 87.3152C145.553 87.3152 145.691 87.0398 145.828 86.902C146.104 86.7643 146.379 86.4888 146.655 86.2134C146.793 86.0756 146.379 85.8002 146.793 85.5247C147.068 85.6624 147.481 85.6624 147.894 85.8002C147.894 86.0756 147.619 86.0756 147.481 86.2134C147.068 86.2134 147.068 86.2134 147.206 86.7643C147.757 86.6266 148.445 86.4888 148.859 86.7643C149.134 87.0398 149.409 87.3152 149.547 87.5907C149.823 88.0039 149.823 88.2793 149.96 88.5548C150.098 88.8303 150.374 88.8303 150.649 88.968C150.787 88.4171 151.062 88.0039 151.2 87.4529C151.062 87.0398 150.787 86.6266 150.511 86.0756C149.96 84.4229 148.721 83.4588 146.93 83.0456C145.14 82.4946 143.349 82.9078 141.559 83.4588C140.182 83.7342 138.804 84.5606 137.565 85.2493C134.672 87.1775 132.193 89.3812 129.852 91.8603C127.923 94.064 126.271 96.2677 125.031 98.8846C124.48 99.8487 123.654 100.813 124.067 102.052C123.654 102.603 123.654 103.292 123.654 103.981C123.378 105.633 123.654 107.286 124.618 108.801C125.444 110.041 126.546 110.867 128.199 111.28C128.474 111.28 128.75 111.418 129.025 111.556C129.301 111.556 129.576 111.693 129.714 111.556C131.091 111.418 132.606 111.28 133.846 110.592C136.05 109.352 138.253 107.975 140.319 106.597L142.798 104.531C144.451 103.154 145.828 101.777 147.344 100.4C147.619 100.262 147.757 99.9864 148.17 99.9864C148.17 100.262 148.308 100.537 148.308 100.675C148.17 103.43 148.996 105.771 150.649 107.837C152.164 109.765 154.092 111.005 156.434 111.556C157.26 111.693 158.086 111.831 158.775 111.556C159.326 111.418 159.877 111.418 160.29 111.418C161.254 111.418 162.218 111.418 163.045 111.143C164.422 110.729 165.799 110.178 167.177 109.49C168.829 108.801 170.207 107.837 171.446 106.597C174.201 104.394 176.956 102.052 179.572 99.711C180.537 98.8846 181.363 97.9205 182.327 97.0941C182.878 96.6809 183.016 96.13 183.016 95.3036C181.638 96.5432 180.123 97.5073 178.608 98.4714C178.333 98.6091 178.057 98.8846 177.782 99.1601ZM148.583 85.8002C148.859 85.8002 148.996 86.0756 148.859 86.2134C148.859 86.2134 148.721 86.3511 148.583 86.2134L148.308 85.9379C148.445 85.9379 148.583 85.8002 148.583 85.8002ZM146.517 87.1775C146.517 87.1775 146.517 87.0398 146.655 86.902H146.242C146.104 86.902 145.966 87.0398 145.828 87.0398C146.242 87.5907 146.242 87.5907 146.517 87.1775ZM151.475 88.4171H151.338L151.475 88.5548V88.4171ZM135.774 89.2434C135.774 89.2434 135.774 89.2434 135.774 89.3812H135.636C135.636 89.3812 135.499 89.3812 135.499 89.2434H135.774ZM134.121 90.3453L134.397 90.0698C134.259 90.3453 134.397 90.6208 133.984 90.6208C134.121 90.483 134.121 90.483 134.121 90.3453ZM152.853 91.5849C152.715 91.8603 152.715 92.1358 152.577 92.4113C152.44 92.549 152.302 92.549 152.026 92.4113C152.164 91.9981 152.44 91.7226 152.853 91.5849V91.1717C152.99 90.8962 153.128 90.7585 153.404 90.483C153.404 91.4471 153.404 91.4471 152.853 91.5849ZM133.984 90.7585C133.846 90.7585 133.846 90.8962 133.846 90.8962C133.708 90.8962 133.708 90.7585 133.708 90.7585H133.984ZM132.193 91.9981C132.606 91.7226 132.744 91.1717 133.433 91.3094V92.4113C133.433 92.549 133.157 92.6867 133.157 92.6867C132.469 92.2735 132.193 92.8244 131.918 93.2376C131.642 93.5131 131.918 93.9263 132.193 94.2018H131.229C130.954 93.0999 131.918 92.6867 132.193 91.9981ZM183.842 92.6867C184.255 92.4113 184.669 92.1358 184.806 91.3094C183.567 92.1358 182.603 92.6867 181.914 93.6508H183.153C183.016 92.9622 183.429 92.8244 183.842 92.6867ZM149.272 93.3754L149.134 93.2376C149.134 93.0999 149.272 93.0999 149.272 92.9622L149.547 93.2376C149.409 93.2376 149.409 93.3754 149.272 93.3754ZM184.255 93.9263H184.669L184.806 93.7886H184.669C184.531 93.7886 184.393 93.7886 184.255 93.9263ZM184.255 93.9263C184.118 94.2018 183.842 94.4772 183.567 94.8904C184.255 94.7527 184.531 94.4772 184.255 93.9263ZM132.331 94.6149L132.193 94.4772V94.3395C132.193 94.3395 132.331 94.3395 132.331 94.4772V94.6149ZM148.721 94.4772C148.721 94.4772 148.721 94.3395 148.583 94.3395C148.721 94.3395 148.721 94.3395 148.721 94.3395H148.859C148.859 94.4772 148.721 94.4772 148.721 94.4772ZM181.914 94.4772H182.052V94.3395L181.914 94.4772ZM181.363 94.7527C181.363 94.6149 181.225 94.4772 181.225 94.4772C181.088 94.4772 180.95 94.6149 180.812 94.7527C180.95 94.7527 180.95 94.8904 181.088 94.8904C181.225 94.8904 181.225 94.7527 181.363 94.7527ZM130.816 95.5791C130.816 95.5791 130.816 95.5791 130.816 95.7168H130.403C130.54 95.7168 130.678 95.5791 130.816 95.5791C130.816 95.4413 130.403 95.1659 130.816 94.8904V95.5791ZM180.123 95.4413L179.986 95.1659C179.572 95.3036 179.297 95.5791 179.159 96.13C179.71 95.9923 179.986 95.8545 180.123 95.4413ZM129.163 96.2677C129.025 96.2677 129.025 96.2677 129.025 96.2677H128.888C128.888 96.13 129.025 95.9923 129.025 95.9923H129.301C129.163 96.13 129.163 96.13 129.163 96.2677ZM178.746 97.0941C178.884 96.9564 179.297 96.8186 179.159 96.4054C178.884 96.6809 178.608 96.8186 178.333 96.9564C178.471 96.9564 178.608 97.2318 178.746 97.0941ZM178.333 96.5432C178.195 96.5432 178.195 96.5432 178.195 96.5432V96.9564C178.333 96.9564 178.333 96.9564 178.333 96.9564V96.5432ZM145.14 97.3696V96.8186C145.14 97.0941 145.14 97.2318 145.002 97.3696H145.14ZM144.313 97.645H144.589C144.589 97.3696 144.864 97.2318 144.589 96.9564C144.176 97.0941 144.313 97.3696 144.313 97.645ZM143.487 97.0941C143.074 97.7827 143.074 97.7827 143.349 98.8846C143.763 98.6091 144.038 98.4714 143.9 97.9205L143.487 97.0941ZM176.68 97.645C176.68 97.645 176.68 97.645 176.68 97.7827H176.818C176.818 97.645 176.68 97.645 176.68 97.645ZM177.369 97.645C177.369 97.7827 177.231 97.7827 177.231 97.7827V97.9205C177.369 97.7827 177.369 97.7827 177.507 97.7827C177.369 97.7827 177.369 97.7827 177.369 97.645ZM174.339 97.7827H174.201V97.9205H174.339V97.7827ZM173.65 99.2978C173.512 99.1601 173.375 99.1601 173.375 99.0223C173.375 98.8846 173.375 98.6091 173.375 98.3337L173.237 98.1959C173.237 98.1959 173.099 98.1959 173.099 98.3337C172.961 98.6091 172.961 99.0223 172.824 99.2978C172.961 99.2978 173.099 99.4355 173.099 99.4355C173.237 99.4355 173.375 99.2978 173.65 99.2978ZM175.854 98.6091H175.716C175.716 98.6091 175.716 98.6091 175.854 98.7469V98.6091ZM174.89 99.0223L174.752 98.8846C174.614 98.8846 174.614 99.0223 174.476 99.0223L174.614 99.1601C174.752 99.1601 174.89 99.1601 174.89 99.0223ZM124.205 99.8487C124.205 99.8487 124.067 99.8487 124.067 99.9864C124.067 99.9864 124.067 99.9864 124.205 99.9864V99.8487ZM147.206 99.9864C147.206 99.9864 147.206 99.9864 147.068 99.9864V99.8487H147.206V99.9864ZM123.103 99.9864H124.067C123.792 99.8487 123.378 99.8487 123.103 99.9864ZM171.997 100.124C171.997 100.262 171.997 100.262 172.135 100.262H172.273C172.273 100.124 172.135 100.124 172.135 100.124H171.997ZM174.339 100.262L174.201 100.124C174.201 100.262 174.063 100.262 174.063 100.4C174.201 100.4 174.201 100.537 174.339 100.537V100.262ZM136.05 100.813H135.912V100.95C135.912 100.95 135.912 100.813 136.05 100.813ZM135.774 101.088C135.774 100.95 135.912 100.95 135.912 100.95C135.774 100.95 135.774 100.95 135.774 100.95V101.088ZM135.223 101.501C135.499 101.364 135.636 101.226 135.774 101.088C135.499 101.088 135.223 100.95 135.223 101.501ZM171.584 101.364C171.584 101.364 171.584 101.501 171.722 101.501C171.722 101.501 171.86 101.364 171.997 101.364C171.86 101.226 171.86 101.088 171.86 101.088C171.722 101.226 171.584 101.226 171.584 101.364ZM169.931 102.052C169.656 101.915 169.38 101.777 169.243 102.19C169.518 102.19 169.794 102.465 169.931 102.052ZM170.895 102.052C170.758 102.052 170.62 101.915 170.62 101.915C170.482 102.052 170.482 102.328 170.482 102.741C170.758 102.328 170.758 102.19 170.895 102.052ZM168.416 103.843C168.416 104.394 167.865 104.669 167.452 104.807C167.039 105.082 166.626 104.945 166.213 104.945C165.937 104.531 166.213 104.256 166.35 103.981C166.764 104.256 167.177 103.981 167.728 103.981C167.59 103.705 167.452 103.43 167.314 103.292C167.039 103.292 166.901 103.43 166.764 103.43V103.292C166.901 103.292 167.039 103.292 167.314 103.292H168.416C168.692 103.016 168.141 102.465 168.967 102.603C168.967 103.016 168.967 103.567 169.105 104.118C168.692 104.256 168.692 103.981 168.416 103.843ZM163.596 104.945V104.807C164.284 104.256 164.973 103.843 165.799 103.705C165.937 103.705 166.075 103.843 166.213 103.981C165.662 104.118 165.248 104.256 164.698 104.669C164.422 104.945 164.009 104.945 163.596 104.945ZM182.603 103.843C182.74 103.843 182.74 103.981 182.74 103.981H183.016C182.878 103.843 182.878 103.843 182.74 103.843H182.603ZM162.494 105.082L162.907 104.531C163.183 104.669 163.32 104.807 163.458 104.945C163.32 105.496 162.907 105.358 162.494 105.082ZM161.117 105.771C160.979 105.358 160.841 105.082 161.392 104.945C161.667 104.945 161.943 104.807 162.218 104.669C162.356 105.771 162.356 105.771 161.117 105.771ZM182.132 115.825C183.096 116.101 184.198 115.963 185.3 115.688C187.091 115.274 188.606 114.31 189.983 113.071C193.426 109.903 196.456 106.322 198.935 102.465C199.624 101.501 200.313 100.537 200.726 99.4355C201.139 98.6091 201.552 97.7827 202.103 96.9564C203.618 93.9263 204.996 90.8962 206.235 87.7284L206.648 86.7643C207.199 87.0398 207.75 87.0398 208.163 87.3152C210.505 88.0039 212.846 88.5548 215.325 88.4171C216.152 88.4171 216.84 88.2793 217.529 88.1416C218.218 87.3152 219.182 87.5907 219.871 87.3152C220.284 87.1775 220.697 87.1775 221.11 87.0398C220.835 86.3511 221.248 85.5247 220.697 84.8361C219.871 84.5606 219.044 84.5606 218.218 84.6983C216.84 84.8361 215.601 84.8361 214.224 84.5606C213.397 84.2851 212.433 84.1474 211.607 83.7342C211.331 83.5965 211.056 83.1833 210.78 82.9078L210.643 82.7701C209.265 82.2192 208.577 81.1173 207.888 79.8778C208.301 78.9136 208.577 77.9495 208.852 77.1231C209.128 76.0213 209.403 74.7817 209.403 73.6799C209.403 72.8535 209.816 72.1648 210.78 71.8894L211.607 74.0931C212.02 73.9553 212.158 73.6799 212.295 73.4044C212.295 72.7158 212.433 72.0271 212.709 71.3385C212.846 71.2007 212.846 70.7875 212.709 70.6498L211.882 68.3084C211.882 67.7575 211.193 67.6197 210.78 67.7575L209.678 68.1707C209.541 68.3084 209.265 68.3084 208.99 68.3084C208.301 68.0329 207.612 68.4461 207.062 68.8593C206.373 69.1348 205.684 69.6857 204.858 69.4102C202.654 71.4762 201.139 73.8176 200.588 76.71C200.175 79.1891 200.588 81.2551 201.966 83.321C202.103 83.5965 202.379 83.872 202.654 84.1474C201.966 85.5247 201.415 86.7643 200.726 88.0039C199.073 91.5849 197.145 95.1659 194.804 98.3337C192.187 101.915 189.57 105.22 186.953 108.663C186.54 109.214 186.127 109.627 185.713 110.041C185.3 110.041 184.749 110.041 184.336 109.627C184.336 109.077 184.198 108.526 184.336 107.837C184.611 105.633 184.887 103.43 185.162 101.088L185.576 99.1601C185.851 98.4714 185.989 97.7827 186.264 97.0941C186.264 96.8186 186.402 96.5432 186.402 96.13C186.402 95.8545 186.402 95.5791 186.54 95.3036C186.953 93.7886 187.917 92.549 188.055 91.1717C188.055 91.0339 188.192 90.8962 188.192 90.8962C189.019 89.3812 189.845 87.7284 190.258 86.2134C190.809 84.5606 191.498 83.0456 192.324 81.6683C192.462 81.3928 192.738 81.2551 192.738 80.9796C192.738 80.291 193.151 79.74 193.426 79.1891C193.289 78.9136 193.289 78.6382 193.151 78.5005C193.839 77.2609 194.528 76.2968 195.217 75.1949C195.492 74.9195 195.63 74.3685 195.768 73.9553C195.905 72.0271 194.528 70.5121 192.6 70.3743C191.498 70.3743 190.534 70.6498 189.708 71.3385C188.743 72.0271 187.779 72.7158 186.953 73.5422C184.474 76.159 182.408 79.0514 180.755 82.3569C180.066 83.7342 179.653 85.1115 178.827 86.4888C178.551 87.0398 178.276 87.7284 178.276 88.2793C178.276 89.1057 178 89.9321 177.725 90.6208C177.449 91.0339 177.449 91.4471 177.312 91.8603C177.449 92.1358 177.725 92.2735 177.863 92.549L177.449 93.0999C177.312 93.2376 177.312 93.5131 177.312 93.6508C177.587 94.064 177.449 94.3395 177.312 94.6149C176.761 97.5073 176.348 100.262 176.348 103.292C176.485 103.292 176.623 103.43 176.899 103.43C176.761 103.705 176.761 103.981 176.761 104.394L176.899 105.358C177.174 106.873 177.174 108.388 177.725 109.903C177.863 110.454 178.276 111.005 178.551 111.556C179.378 111.831 179.515 112.52 179.653 113.208C179.653 113.484 179.929 113.759 180.066 114.035C180.342 114.999 181.03 115.55 182.132 115.825ZM252.826 91.0339C252.137 91.1717 251.586 90.0698 250.622 90.6208C250.484 91.0339 250.347 91.4471 250.071 91.8603C249.383 91.9981 249.383 92.549 249.245 93.0999C248.832 94.2018 248.281 95.3036 247.317 95.9923C245.939 97.0941 244.562 98.1959 243.047 99.1601C242.221 99.9864 240.981 100.262 240.017 100.813C237.675 102.19 235.196 103.292 232.717 104.118C230.513 105.082 228.31 105.771 225.831 106.046C224.178 106.322 222.663 106.046 221.148 105.633C220.184 105.358 219.357 104.669 218.944 103.843C218.393 102.741 217.98 101.501 218.118 100.262C218.393 99.1601 218.669 98.0582 219.22 96.9564C219.495 96.8186 219.908 96.6809 220.184 96.6809C221.148 96.9564 221.974 96.6809 222.938 96.6809C223.765 96.5432 224.591 96.5432 225.417 96.2677C228.034 95.5791 230.651 94.6149 232.855 92.9622C233.406 92.6867 233.819 92.2735 234.37 92.1358C234.232 92.549 233.957 92.6867 233.957 93.0999C233.268 93.2376 233.406 93.7886 233.268 94.2018C232.579 94.2018 232.579 94.2018 232.166 94.6149C232.028 94.7527 231.753 94.8904 231.615 94.8904C230.238 96.13 228.447 96.4054 226.657 97.0941H226.382C226.382 97.2318 226.244 97.2318 226.106 97.3696H226.519C230.1 96.8186 233.406 95.3036 236.16 92.9622C237.262 92.1358 238.226 91.0339 238.364 89.5189C238.777 89.1057 238.502 88.4171 238.777 88.0039C239.328 87.3152 239.328 86.4888 239.466 85.6624C239.879 84.6983 239.741 83.7342 239.328 82.9078C238.915 81.806 238.089 80.8419 237.125 80.1532C235.885 79.3268 234.645 78.9136 233.268 78.7759C230.513 78.6382 228.034 79.3268 225.693 80.291C219.908 82.7701 215.501 86.7643 212.608 92.2735C211.507 94.3395 210.818 96.5432 210.542 98.7469C210.267 99.9864 210.818 101.226 210.68 102.465C211.093 103.016 211.507 103.567 211.782 104.118C211.92 104.118 211.92 104.256 212.058 104.394C212.746 105.909 213.848 107.148 214.261 108.939C214.399 109.352 214.674 109.765 214.537 110.178C214.537 110.316 214.537 110.592 214.674 110.592C215.501 111.418 216.189 112.382 217.429 112.795C219.082 113.484 220.872 114.035 222.663 114.173C229.274 114.586 235.059 112.52 240.155 108.526C241.394 107.699 242.496 106.873 243.598 106.046C244.837 104.945 246.215 103.843 247.317 102.741C248.143 101.915 249.107 101.088 249.933 99.8487L245.939 102.879C245.526 103.154 245.251 103.292 244.7 103.43C244.424 103.567 244.149 104.118 243.873 104.256C243.598 104.531 243.047 104.531 242.771 104.531C242.496 104.669 242.083 104.531 241.945 104.669L239.879 106.046C238.64 106.873 237.4 107.562 236.023 108.112L235.334 108.526C234.37 108.939 233.544 109.627 232.442 109.765C231.753 109.903 231.202 110.178 230.513 110.454C229.963 110.729 229.136 110.867 228.447 110.454C229.136 109.903 229.687 109.765 230.376 109.627C231.34 109.352 232.304 109.077 233.268 108.663C235.609 107.562 237.951 106.322 240.43 105.082C240.568 104.945 240.981 104.807 241.119 104.669C241.67 103.981 242.496 103.705 243.322 103.567H243.185C243.322 103.43 243.46 103.154 243.598 103.154C244.424 102.879 244.975 102.328 245.526 101.777C246.077 101.364 246.766 100.95 247.179 100.537C248.005 99.8487 249.107 99.4355 249.658 98.4714C251.035 97.2318 252.137 95.5791 252.964 93.9263C253.377 92.9622 253.514 91.9981 252.826 91.0339ZM224.178 88.0039C225.142 87.4529 226.106 87.0398 226.932 86.4888C227.759 85.9379 228.585 85.8002 229.549 85.6624C230.1 85.5247 230.651 85.5247 231.202 85.5247C231.34 85.387 231.34 85.5247 231.615 85.9379C230.789 86.2134 230.1 86.3511 229.412 86.6266C228.861 86.902 228.172 87.0398 227.483 87.3152C225.968 87.8661 224.591 88.6925 223.214 89.3812C223.076 89.5189 222.801 89.5189 222.387 89.5189C223.076 88.8303 223.627 88.4171 224.178 88.0039ZM231.891 86.902C232.166 87.1775 232.028 87.3152 231.753 87.4529C231.202 88.1416 230.651 88.8303 229.963 89.3812C227.897 91.0339 224.866 92.1358 222.25 92.4113C223.489 89.9321 229.274 86.6266 231.891 86.902ZM236.298 91.1717C236.436 91.0339 236.711 91.0339 236.987 91.0339C236.849 91.3094 236.849 91.4471 236.849 91.4471C236.711 91.7226 236.574 91.9981 236.298 91.8603H236.16C236.023 91.5849 236.16 91.3094 236.298 91.1717ZM235.059 92.4113C234.783 92.2735 234.645 92.2735 234.37 92.1358H234.508C234.921 91.9981 234.921 91.9981 235.059 92.4113ZM233.819 93.6508C233.957 93.5131 233.957 93.3754 233.957 93.2376C234.094 93.0999 234.232 93.0999 234.508 92.9622C234.508 93.3754 234.37 93.6508 233.819 93.6508ZM261.841 115.688C261.978 114.861 262.392 114.31 262.667 113.622C263.08 112.795 263.631 112.52 264.32 112.795C265.146 112.244 264.458 111.556 264.458 111.005C264.733 110.867 265.009 110.867 265.284 110.867C265.284 110.316 266.11 110.041 265.973 109.49C265.835 108.939 266.248 108.663 266.524 108.25C266.799 107.562 267.488 107.699 267.901 107.562C268.176 107.286 268.314 106.873 268.59 106.597C269.14 106.046 269.14 105.358 269.829 104.945C270.242 104.669 270.655 103.981 270.242 103.292C271.069 102.879 271.62 102.19 272.308 101.501C273.135 100.4 273.686 99.1601 274.787 98.1959C275.201 97.7827 275.338 97.0941 275.614 96.6809C276.027 96.2677 276.578 95.9923 276.991 95.5791C277.267 95.3036 277.129 94.7527 277.542 94.6149C277.955 94.4772 278.231 94.2018 278.506 93.9263C278.644 93.9263 278.644 93.7886 278.782 93.7886C278.919 93.6508 279.057 93.3754 279.057 93.0999C279.057 92.9622 279.057 92.6867 279.195 92.549L280.572 91.3094C280.985 90.7585 281.536 90.483 281.812 89.9321C282.363 89.2434 282.914 88.5548 283.74 88.2793C284.015 88.0039 284.291 87.8661 284.429 87.4529C285.117 86.6266 284.979 85.6624 285.117 84.8361C285.117 84.0097 284.979 83.4588 284.704 82.7701C284.566 82.2192 284.015 81.806 283.602 81.3928C283.189 80.9796 282.776 80.7041 282.225 80.4287C280.848 79.8778 279.47 80.0155 278.093 80.5664C277.129 80.9796 276.165 81.3928 275.338 82.2192C274.65 82.6324 273.961 82.9078 273.272 82.7701C272.997 82.6324 272.859 82.7701 272.584 82.6324L263.08 81.3928C261.152 81.1173 259.086 80.8419 257.02 80.9796C255.643 81.1173 254.128 81.5305 252.888 82.2192C251.098 83.321 250.134 84.6983 250.134 86.7643C250.134 87.3152 250.547 87.3152 250.685 87.4529C250.685 87.8661 250.547 88.1416 250.547 88.5548C250.409 88.6925 250.409 88.968 250.547 89.1057C251.098 89.7944 251.373 90.7585 252.337 91.1717C252.75 91.3094 253.164 91.5849 253.577 91.7226C253.301 92.2735 252.888 92.6867 252.613 92.9622C248.481 97.3696 244.349 101.639 240.079 105.771C238.013 107.975 235.947 110.178 234.019 112.382C233.468 113.071 233.193 113.897 232.917 114.586C232.78 114.999 233.193 115.412 233.606 115.274C233.881 115.274 234.157 115.137 234.432 114.999C235.947 114.31 236.911 112.795 238.289 111.969C238.289 111.969 238.289 111.831 238.426 111.693C238.564 111.418 238.84 111.143 239.115 110.867C241.594 108.25 244.211 105.771 246.69 103.154L249.445 100.262C250.547 99.4355 251.235 98.1959 252.2 97.3696C252.888 96.6809 253.439 95.9923 253.99 95.1659C254.679 94.3395 254.679 94.3395 254.954 93.2376C255.918 93.5131 256.882 93.7886 257.847 93.9263C258.811 94.064 259.775 94.2018 260.739 94.3395H263.907C263.493 94.8904 263.356 95.3036 263.08 95.7168C261.428 98.1959 259.912 100.813 258.811 103.43C257.02 107.424 255.505 111.418 254.403 115.55C253.99 117.34 253.715 119.131 253.301 120.784C253.164 121.61 253.164 122.436 253.301 123.263C253.301 123.814 253.852 124.089 254.128 124.64C254.128 124.778 254.266 124.916 254.266 124.916C254.679 124.916 255.092 124.778 255.367 124.778C255.643 124.778 256.056 124.778 256.056 124.64C256.331 124.227 257.158 124.365 257.158 123.676C257.02 123.538 256.882 123.263 256.607 122.987C257.296 122.712 257.158 122.023 257.709 121.748C257.847 121.748 257.709 121.335 257.571 121.059L258.673 120.37C259.086 120.646 259.499 120.921 259.775 121.335L260.326 120.784C260.05 119.682 260.188 119.682 260.601 118.718C260.877 117.616 261.703 116.789 261.841 115.688ZM256.331 92.4113C256.194 92.4113 256.194 92.4113 256.194 92.2735C256.331 92.2735 256.469 92.1358 256.607 91.9981C256.607 92.1358 256.745 92.1358 256.745 92.2735C256.607 92.2735 256.469 92.4113 256.331 92.4113ZM287.734 95.9923C287.596 95.8545 287.459 95.7168 287.321 95.5791L285.393 97.3696C283.189 99.5732 280.985 101.777 278.919 103.981C278.368 104.394 277.817 104.807 277.404 105.358L275.201 107.424C274.512 107.975 273.961 108.801 273.135 109.352C272.308 109.903 271.895 110.867 270.931 111.28C270.38 111.556 269.829 112.244 269.416 112.795C269.003 113.346 268.176 113.346 267.763 114.035C267.488 114.586 266.799 114.999 266.248 115.274C265.697 115.55 265.422 116.101 264.871 116.514L263.631 117.34C262.529 118.029 261.841 119.131 261.014 120.233C260.877 120.37 261.152 120.784 261.428 120.784H261.841C262.254 120.508 262.805 120.233 263.218 119.82C263.631 119.406 264.044 119.406 264.458 119.269C265.009 118.993 265.559 119.269 266.11 119.131H266.248C265.973 118.993 265.697 118.993 265.422 118.855C265.559 118.167 266.11 118.167 266.524 117.891C266.524 117.754 266.386 117.616 266.386 117.616H266.661C266.661 117.616 266.661 117.754 266.524 117.891C266.661 118.029 266.661 118.167 266.799 118.167C266.799 118.167 266.937 118.167 267.074 118.167V117.754C266.937 117.754 266.937 117.616 266.799 117.478C266.799 117.34 266.799 117.203 266.937 117.203H267.763C267.763 116.927 267.901 116.789 267.901 116.652C267.901 115.963 268.039 115.412 268.865 115.412C269.14 115.412 269.278 115.274 269.416 114.999C269.691 114.173 270.518 113.897 271.206 113.622C271.206 113.484 271.344 113.622 271.482 113.759V113.484C271.757 112.795 272.033 112.244 272.721 111.831C273.272 111.556 273.548 110.867 273.961 110.592C275.338 109.765 276.027 108.388 277.404 107.562C278.368 106.322 279.608 105.358 280.71 104.256C283.051 101.915 285.393 99.5732 287.596 97.2318C287.734 97.0941 287.872 96.9564 288.01 96.6809C288.285 96.5432 288.147 96.2677 287.734 95.9923ZM282.638 103.567C282.087 103.981 281.674 104.394 281.123 104.945C280.848 105.22 280.572 105.496 280.159 105.771C279.47 106.184 278.919 106.873 278.368 107.424C277.817 107.975 277.267 108.801 276.302 109.077C276.991 109.352 277.542 109.352 278.093 108.663C278.644 108.112 279.057 107.424 279.746 107.011C281.123 105.909 282.225 104.669 283.464 103.292L284.291 102.465C283.74 102.603 283.464 102.603 283.327 102.741C283.189 103.016 282.914 103.292 282.638 103.567ZM262.943 104.394H263.08V104.531C263.08 104.531 263.08 104.531 262.943 104.531V104.394ZM262.254 105.771H262.392C262.392 105.771 262.392 105.909 262.254 105.909V105.771ZM260.05 110.867L259.912 111.418C259.224 112.244 258.948 113.208 258.673 114.173C258.535 114.448 258.535 114.724 258.397 114.724C257.984 115.137 257.984 115.55 258.122 115.963C258.122 116.652 257.571 117.065 257.984 117.616L257.02 119.269C256.882 119.269 256.607 119.131 256.607 119.131C256.882 118.167 256.607 117.34 257.158 116.514C257.709 115.412 257.984 114.173 258.397 113.071C258.948 111.28 259.775 109.627 261.014 108.25C261.29 107.975 261.428 107.699 261.565 107.424C261.841 107.424 261.978 107.562 261.841 107.837C261.565 108.112 261.29 108.526 261.014 108.939C260.601 109.49 260.188 110.041 260.05 110.867ZM275.752 109.903C275.752 110.041 275.752 110.178 275.889 110.316C275.889 110.316 276.165 110.454 276.165 110.316C276.44 110.178 276.578 110.041 276.853 109.765C276.578 109.49 276.44 109.214 276.302 109.077C276.302 109.214 276.302 109.352 276.165 109.49C276.165 109.627 275.889 109.765 275.752 109.903ZM273.823 112.244C274.236 111.969 274.65 111.831 274.925 111.556C275.063 111.418 275.338 111.28 275.338 111.005C274.099 111.005 273.961 111.005 273.823 112.244ZM272.584 113.622C272.859 113.484 272.997 113.208 273.41 113.071C273.686 112.933 273.823 112.658 273.823 112.244C272.584 112.52 272.584 112.658 272.584 113.622ZM271.482 113.759L272.446 113.622C272.171 113.484 271.757 113.622 271.482 113.759ZM269.967 114.999C270.931 115.137 270.931 115.137 271.757 114.586C270.931 114.31 270.518 114.586 269.967 114.999ZM269.829 116.101H269.967V115.825H269.829V116.101ZM268.176 116.789C268.314 116.789 268.452 116.927 268.452 117.065L268.727 116.927C268.727 116.789 268.59 116.652 268.59 116.652C268.452 116.652 268.314 116.652 268.176 116.789ZM257.158 121.059C256.745 121.059 256.607 120.921 256.331 120.921C256.469 121.059 256.469 121.335 256.607 121.472C256.607 121.61 256.469 121.61 256.469 121.61H256.331V120.921C256.745 120.646 256.745 119.957 257.571 119.957L257.158 121.059ZM322.202 88.5548C321.514 87.8661 321.238 87.8661 320.412 88.4171C319.861 88.968 319.448 89.3812 318.759 89.7944L311.322 95.0281C307.603 97.5073 303.746 99.8487 299.89 102.328C299.477 102.603 298.926 102.879 298.65 103.567C298.375 103.981 297.962 103.981 297.273 103.843C296.86 102.603 296.309 101.364 295.758 100.124C295.345 99.1601 295.207 98.1959 295.345 97.2318C295.345 96.8186 295.483 96.4054 295.345 95.8545C295.207 95.4413 295.345 94.8904 295.896 94.6149C296.033 94.4772 296.171 94.3395 296.309 94.3395C296.309 93.9263 296.171 93.6508 296.309 93.3754C296.309 93.0999 296.447 92.9622 296.584 92.8244C296.998 92.2735 296.998 92.2735 296.86 91.4471L298.099 91.0339C298.237 89.9321 298.65 89.1057 299.201 88.4171C299.614 87.7284 300.441 87.1775 300.992 86.6266C301.543 85.9379 302.231 85.2493 303.058 84.9738C303.471 84.6983 303.884 84.5606 304.16 84.1474C304.435 83.7342 304.71 83.7342 305.124 83.7342C305.537 83.7342 305.95 83.872 306.363 84.0097C306.501 83.7342 306.501 83.4588 306.639 83.1833C306.914 83.1833 307.19 83.1833 307.465 83.0456C307.465 82.7701 307.603 82.4946 307.741 82.2192C307.878 81.9437 308.016 81.806 308.291 81.5305C308.016 81.2551 307.741 81.1173 307.603 80.8419C307.327 80.291 306.776 80.0155 306.225 79.74C305.399 79.3268 304.435 79.0514 303.471 78.7759C302.92 78.6382 302.369 78.6382 301.68 78.5005C301.129 78.5005 300.579 78.5005 299.89 78.6382C299.339 78.7759 298.788 78.9136 298.237 79.1891C296.171 80.0155 294.381 81.1173 292.59 82.4946C289.56 84.9738 287.081 88.0039 285.566 91.5849C285.015 92.8244 284.602 93.9263 284.602 95.1659C284.602 95.5791 284.464 95.9923 284.464 96.2677C284.326 96.6809 284.189 97.0941 284.189 97.5073C284.189 99.8487 284.602 102.19 285.841 104.256C286.805 105.771 287.632 107.424 288.871 108.801C289.147 109.077 289.285 109.49 289.56 110.041C289.285 110.178 289.009 110.454 288.871 110.592L275.236 120.095C273.721 121.335 272.068 122.436 270.553 123.676C269.314 124.64 268.212 125.604 266.972 126.431C265.182 127.67 263.529 129.048 261.738 130.425L259.673 132.215C259.397 132.491 259.122 132.629 258.846 132.766C258.433 131.664 257.744 131.113 256.78 130.976L256.229 131.389C256.229 131.664 256.229 131.802 256.367 131.94C256.642 132.629 257.056 133.317 257.331 134.144C257.056 134.557 256.642 135.108 256.229 135.521C256.092 135.659 255.954 135.796 255.954 136.072C255.954 136.21 255.954 136.485 256.092 136.623H256.642C256.918 136.485 257.056 136.21 257.331 136.072C257.744 135.796 258.157 135.659 258.571 135.934C258.433 136.21 258.433 136.347 258.295 136.76C258.846 136.623 259.259 136.485 259.535 136.485C260.912 137.174 262.289 137.862 263.667 138C266.835 138.551 269.865 138.275 272.895 137.725C275.649 137.311 278.128 136.347 280.608 135.659C281.985 135.245 283.224 134.694 284.464 134.006C287.356 132.491 289.973 130.563 292.315 128.359C293.141 127.532 293.967 126.706 294.656 125.88C295.758 124.502 296.722 122.85 297.411 121.335C297.548 121.059 297.686 120.646 297.686 120.233C297.411 119.406 297.686 118.58 298.237 117.891C298.513 117.616 298.65 117.203 298.788 116.789C299.339 115.55 300.028 114.31 299.614 112.933C299.477 112.658 299.477 112.52 299.614 112.244C299.89 111.693 299.614 111.143 299.477 110.592C299.339 109.627 299.063 108.801 298.926 107.975C298.788 107.699 298.788 107.286 298.788 107.011L299.752 106.46C301.405 105.633 303.058 104.669 304.573 103.567C308.705 100.675 312.699 97.645 316.693 94.6149C318.346 93.3754 319.999 91.8603 321.514 90.483C321.927 90.0698 322.478 89.7944 322.478 88.968L322.202 88.5548ZM295.62 105.633L295.483 105.496C295.483 105.496 295.483 105.496 295.62 105.496V105.633ZM296.309 108.801H297.411C297.686 109.077 297.548 109.903 297.273 110.592H296.584C296.447 110.041 295.758 109.627 296.309 108.801ZM297.548 112.658H297.135C296.86 112.658 296.722 112.52 296.309 112.382C296.722 112.107 296.86 112.107 297.135 111.969C297.135 111.831 296.998 111.693 296.998 111.556C296.584 111.143 296.584 111.143 297.135 110.867C297.273 110.867 297.273 110.729 297.411 110.592C297.548 110.729 297.686 110.729 297.824 110.867L298.237 112.382C298.237 112.658 298.099 112.795 297.548 112.658ZM291.075 115.274C290.8 116.376 290.249 117.478 289.698 118.442C288.596 119.957 287.494 121.335 286.117 122.574C283.775 125.053 281.021 127.257 278.128 128.91C276.2 130.149 274.134 131.113 272.068 131.802C271.793 131.94 271.517 132.215 271.38 132.491C271.931 132.353 272.757 132.353 273.308 132.078C275.374 131.527 277.302 130.838 279.093 129.874C280.745 129.048 282.398 128.083 284.051 127.257L284.464 126.982C284.74 126.706 285.015 126.431 285.29 126.155H285.566C285.841 125.742 286.117 125.742 286.392 125.88C286.392 125.604 286.53 125.329 286.53 125.053C286.805 125.467 286.805 125.467 286.392 125.88C286.117 126.431 285.704 126.431 285.29 126.155V126.982C285.153 127.67 284.326 127.946 284.051 128.634C283.913 128.772 283.5 128.91 283.362 129.048C282.123 129.598 281.021 130.012 280.057 130.976C279.781 131.251 279.506 131.527 279.093 131.664C277.991 132.078 277.027 132.904 275.925 133.179C275.374 133.317 274.961 133.593 274.41 133.868C273.17 134.557 271.793 134.557 270.553 135.108C268.625 135.245 266.697 135.934 264.769 135.796C264.08 135.796 263.391 135.796 262.84 135.383C262.978 135.108 263.116 134.97 263.254 134.832C265.319 133.593 266.972 132.078 268.9 130.563C272.757 127.395 276.613 124.089 280.47 121.059C283.224 118.718 286.117 116.652 288.871 114.448C289.422 113.897 290.111 113.484 290.662 113.071C291.213 114.035 291.213 114.31 291.075 115.274ZM286.53 125.053C286.805 124.778 287.081 124.502 287.494 124.502C287.356 125.329 287.219 125.329 286.53 125.053ZM269.038 126.155C269.038 126.706 268.763 126.844 268.074 126.982C268.625 126.568 268.763 126.431 269.038 126.155ZM348.271 60.7332C348.133 60.5955 347.858 60.5955 347.858 60.4577C347.72 59.7691 346.894 60.1823 346.894 59.6314C346.343 59.4936 345.93 59.4936 345.516 59.2182C344.552 59.4936 343.313 59.3559 343.037 60.7332L342.899 60.8709C342.211 61.2841 341.798 61.835 341.384 62.5237C341.109 62.9369 341.109 63.2124 341.247 63.4878C341.522 63.901 341.66 64.4519 341.66 65.0029C341.109 65.416 340.558 65.416 339.869 65.2783C339.456 65.6915 338.905 65.967 338.768 66.6556C338.492 66.7934 338.354 67.0688 337.941 67.2065L337.39 68.0329C337.115 68.7216 336.839 69.548 336.288 70.2366C336.151 70.3743 336.288 70.5121 336.288 70.5121C336.426 70.7875 336.564 70.7875 336.151 71.063C335.875 71.3385 335.738 71.8894 335.462 72.1648C335.324 72.578 334.636 72.4403 334.636 73.129C334.636 73.4044 334.222 73.8176 333.947 74.2308C333.672 74.5063 333.534 75.0572 332.983 74.9195C332.983 74.9195 332.845 75.0572 332.845 75.1949C332.432 76.0213 331.743 76.8477 331.192 77.6741C330.779 78.225 330.917 79.6023 331.33 80.1532C331.468 80.4287 331.743 80.5664 332.019 80.5664C332.57 80.7041 333.396 80.9796 333.947 80.291H334.222C334.498 80.4287 334.636 80.5664 335.049 80.7041C335.187 80.5664 335.462 80.4287 335.6 80.1532C336.702 78.3627 338.217 76.8477 339.732 75.3327C341.798 73.129 344.001 70.9253 346.205 68.7216C346.894 67.8952 347.582 66.9311 348.271 65.967C348.96 65.1406 349.235 64.1765 349.235 63.0746C349.373 62.2482 349.235 61.2841 348.271 60.7332ZM345.379 60.4577C345.379 60.4577 345.103 60.5955 345.103 60.4577C344.828 60.32 344.69 60.1823 344.552 60.0445C344.552 59.9068 344.69 59.9068 344.69 59.7691L345.379 60.0445C345.379 60.1823 345.516 60.32 345.379 60.4577ZM347.031 61.4219H346.756C346.756 61.2841 346.756 61.1464 346.756 60.8709H346.894L347.031 61.0087V61.4219ZM345.792 61.1464C345.792 61.1464 345.792 61.1464 345.654 61.1464V61.0087H345.792V61.1464ZM344.001 62.1105C344.139 61.2841 344.139 61.2841 344.828 61.4219C344.828 61.9728 344.277 61.835 344.001 62.1105ZM343.588 62.5237C343.45 62.5237 343.313 62.386 343.175 62.386C343.175 62.7992 343.175 63.2124 343.037 63.6255C343.037 63.2124 342.899 62.7992 343.175 62.386L342.762 61.9728C343.313 61.9728 343.313 61.9728 343.864 62.2482C344.001 62.386 343.864 62.5237 343.588 62.5237ZM345.241 63.4878V63.3501C345.241 63.2124 345.241 63.2124 345.241 63.2124L345.379 63.3501C345.379 63.3501 345.241 63.3501 345.241 63.4878ZM344.001 63.4878V63.3501H344.139L344.001 63.4878ZM342.486 64.0387L341.935 63.6255C342.349 63.3501 342.762 63.6255 343.037 63.7633C342.899 64.0387 342.762 64.1765 342.486 64.0387ZM333.258 80.291V80.1532C333.258 80.1532 333.396 80.1532 333.396 80.291H333.258ZM341.247 91.9981C340.558 92.549 340.007 93.0999 339.456 93.7886C337.115 96.13 334.773 98.6091 332.294 100.813C328.851 103.981 325.408 107.286 321.827 110.592L321 111.28C320.449 111.143 320.036 110.867 319.485 110.592C319.761 110.041 319.761 109.627 320.036 109.214C320.725 107.562 321.414 105.771 322.24 104.118C323.755 100.4 325.821 97.0941 328.025 93.7886L329.264 91.8603C329.677 91.4471 329.677 90.8962 329.402 90.483C330.091 89.6566 330.779 88.8303 331.743 88.2793C332.845 87.5907 333.121 86.6266 332.845 85.5247C332.57 84.4229 331.881 83.5965 331.055 82.9078C330.779 82.6324 330.366 82.4946 329.953 82.4946C328.576 82.2192 327.336 82.3569 326.234 83.1833C324.857 84.0097 323.617 84.8361 322.378 85.9379C319.21 88.968 316.593 92.4113 314.527 96.2677C313.425 98.3337 312.323 100.537 311.635 102.879C310.946 105.633 310.808 108.526 311.084 111.418C311.084 111.418 311.221 111.556 311.359 111.969C311.497 111.28 311.635 110.867 311.635 110.592C311.772 109.49 311.91 108.526 312.599 107.562L312.736 107.011C312.599 105.496 313.012 104.256 313.976 103.016L313.563 102.603C313.976 102.052 314.527 101.639 315.078 100.95C315.078 102.052 315.078 102.741 314.665 103.567C314.389 103.981 314.252 104.531 314.114 104.945C313.976 105.909 313.976 107.011 313.838 107.975C313.701 108.801 313.838 109.49 313.976 110.178C314.252 111.005 314.252 111.969 315.216 112.52C315.629 112.658 315.767 113.208 315.491 113.484C314.94 114.035 315.078 114.724 315.078 115.274C315.216 116.514 315.767 117.754 317.144 118.305C317.282 118.442 317.419 118.442 317.695 118.58C318.246 118.993 318.934 118.993 319.623 118.855C320.863 118.442 321.827 117.754 322.791 117.065C324.995 115.137 327.336 113.208 329.264 111.005C330.228 110.041 331.192 108.939 331.606 107.562C331.606 107.424 331.881 107.286 332.019 107.148C332.294 106.597 332.707 106.184 332.983 105.771C333.396 105.358 333.947 105.22 334.085 104.531C334.085 104.394 334.498 104.256 334.773 103.981C335.049 103.843 334.773 103.43 335.187 103.292C335.6 103.292 335.875 102.879 336.013 102.603C337.253 101.226 338.354 99.8487 339.456 98.3337C340.42 97.2318 341.247 96.2677 341.66 94.7527C341.798 94.3395 342.073 94.064 342.349 93.6508L342.899 92.8244C342.899 92.549 342.762 92.4113 342.624 92.2735C342.211 91.4471 341.935 91.3094 341.247 91.9981ZM410.79 29.1929C410.514 28.091 410.101 27.8156 408.999 27.9533L399.634 28.7797C396.053 29.1929 392.472 29.6061 389.029 29.8815L381.04 30.7079C380.076 30.8456 379.112 30.8456 378.01 30.8456C378.01 30.2947 378.148 29.8815 378.423 29.6061C378.836 29.1929 379.112 28.9174 379.387 28.5042C380.627 26.8515 381.867 25.061 382.968 23.2705L385.448 19.0008C385.861 18.3122 385.998 17.6235 385.723 16.9348C385.448 16.7971 385.172 16.6594 385.034 16.5217C385.172 16.1085 385.448 15.5575 385.723 15.1444L385.31 14.4557C384.208 12.8029 382.004 12.252 380.214 13.2161C379.25 13.6293 378.561 14.318 377.872 15.0066C375.806 17.4858 373.603 19.8272 371.812 22.4441L366.165 31.1211C365.614 31.9475 365.063 32.223 364.237 32.223L361.896 32.4984C359.141 32.7739 356.386 33.0493 353.632 33.1871C350.877 33.4625 348.122 33.6003 345.368 33.738C340.823 34.0135 336.14 34.0135 331.457 33.8757C329.116 33.738 326.774 33.6003 324.433 33.4625H323.606C323.193 33.3248 322.918 33.3248 322.642 33.0493C323.331 32.3607 324.295 32.4984 324.984 31.9475L324.708 31.2588C325.259 31.1211 325.81 30.8456 326.361 30.7079C330.355 29.7438 334.487 28.7797 338.619 28.2288C339.859 28.091 340.961 28.091 342.062 28.5042C342.2 28.5042 342.2 28.5042 342.476 28.3665V27.8156C341.511 27.2647 340.547 27.4024 339.445 27.5401C337.38 27.9533 335.314 28.3665 333.248 28.642C332.283 28.7797 331.457 28.9174 330.493 28.642C330.08 28.642 329.667 28.642 329.253 28.642L323.744 29.4683C321.678 29.7438 319.75 30.157 317.684 30.157C316.72 30.157 315.756 30.4325 314.929 30.8456C314.103 31.2588 313.828 31.8098 313.69 32.6361C313.69 33.3248 314.103 33.738 314.378 34.2889C314.378 34.5644 314.929 34.5644 315.067 34.8398C315.48 35.5285 316.307 35.9417 316.995 36.3549C317.546 36.6303 317.959 37.0435 318.373 37.319C318.235 37.4567 318.235 37.4567 318.235 37.5945C317.546 38.1454 317.546 38.1454 317.684 38.9718C317.822 39.1095 317.822 39.2472 317.822 39.5227C318.235 39.6604 318.648 39.7981 319.061 40.0736C319.475 40.2113 320.025 40.3491 320.025 40.9C320.025 41.4509 320.301 41.5886 320.576 41.7264L323.744 42.5528C326.637 43.3791 329.804 43.7923 332.834 43.7923C335.451 43.9301 338.068 43.9301 340.547 43.9301C344.679 43.9301 348.673 43.5169 352.668 43.1037C354.596 42.8282 356.386 42.5528 358.315 42.415C358.728 42.2773 359.141 42.2773 359.554 42.5528C359.416 42.8282 359.279 42.9659 359.141 43.2414L357.488 46.5469C354.596 52.1939 352.117 57.9786 349.775 63.7633C348.26 67.6197 346.883 71.4762 345.506 75.3327C344.679 77.5363 343.991 79.74 343.302 81.9437C343.164 82.3569 342.889 82.7701 343.026 83.1833C343.164 83.872 343.164 84.5606 342.751 85.1115C342.338 85.6624 342.613 86.3511 342.476 86.902V87.0398C341.787 88.5548 341.511 89.9321 341.374 91.9981L340.823 93.2376C340.41 93.3754 340.41 93.6508 340.272 94.064C340.134 94.8904 339.721 95.8545 339.583 96.8186C339.17 99.5732 338.757 102.328 338.757 105.22C338.757 107.286 339.032 109.352 339.721 111.28C340.547 113.759 342.062 115.55 344.404 116.652C346.194 117.34 347.985 117.478 349.913 116.789C350.326 116.652 350.739 116.376 351.153 116.376C352.53 115.963 353.769 115.274 354.871 114.31C356.111 113.346 357.213 112.244 358.177 111.005C359.967 108.801 361.482 106.322 362.86 103.843C366.165 97.5073 369.333 91.0339 372.363 84.5606C373.327 82.3569 374.429 80.1532 375.118 77.8118H374.98C374.705 77.9495 374.567 78.3627 374.154 78.0873C374.154 77.8118 374.154 77.6741 374.291 77.5363C374.429 77.1231 374.705 76.8477 374.705 76.5722C374.842 75.8836 375.118 75.3327 375.669 74.7817V74.3685C374.98 74.644 374.705 75.1949 374.567 75.7458C374.291 76.4345 374.016 77.1231 373.327 77.6741C373.052 77.8118 372.776 78.0873 372.776 78.225C372.914 78.9136 372.225 79.0514 372.088 79.4646C371.95 80.4287 371.812 81.2551 371.399 82.2192C371.261 82.7701 370.986 83.1833 370.435 83.4588C369.884 83.7342 369.471 84.1474 369.195 84.6983C369.608 84.5606 369.884 84.5606 370.297 84.6983L369.471 85.9379V85.8002C369.471 86.3511 369.195 86.3511 368.92 86.3511C368.92 86.7643 369.058 87.0398 369.058 87.3152C368.92 88.0039 368.644 88.5548 368.231 88.968C368.093 88.968 367.956 88.968 367.956 88.8303C367.956 88.5548 367.956 88.2793 368.093 87.8661H367.405C366.716 88.0039 366.027 88.1416 365.614 88.6925C365.339 89.2434 365.063 89.5189 364.65 89.9321H364.512C364.237 90.0698 363.962 90.483 363.962 90.7585C363.962 91.5849 363.686 92.1358 362.997 92.6867C362.86 92.8244 362.722 93.2376 362.584 93.5131C362.309 93.7886 362.309 94.2018 361.896 94.4772C361.62 94.6149 361.62 95.0281 361.482 95.4413C361.207 95.3036 360.931 95.3036 360.656 95.3036C360.381 95.5791 360.381 95.7168 360.105 95.8545C359.554 96.4054 358.865 96.8186 358.728 97.7827C358.728 97.9205 358.59 98.0582 358.452 98.0582C357.901 98.4714 357.488 99.0223 357.213 99.5732C356.524 100.813 355.835 102.052 354.871 103.154C354.596 103.43 354.458 103.843 354.32 104.118C353.632 105.358 352.805 106.322 351.566 106.873L351.29 107.148C351.29 107.286 351.428 107.562 351.428 107.975C351.153 107.975 350.739 107.975 350.602 108.25C350.326 108.25 350.188 108.526 350.051 108.663C348.673 108.25 348.26 107.286 347.985 106.046C347.572 104.256 347.434 102.328 347.709 100.4C347.985 97.0941 348.673 93.7886 349.638 90.483C351.153 84.5606 353.356 78.7759 355.698 72.9912C357.626 68.0329 359.967 63.0746 362.309 58.254C365.063 52.4694 368.231 46.8224 371.537 41.1755C371.95 40.3491 372.639 40.0736 373.603 39.7981C375.531 39.5227 377.459 39.1095 379.387 38.6963C381.591 38.2831 383.932 37.7322 386.136 37.1813L393.16 35.9417C394.125 35.804 394.951 35.5285 395.777 34.7021C394.4 34.9776 393.16 35.1153 392.059 35.253C390.819 35.5285 389.579 35.6662 388.478 35.804C387.238 35.9417 386.136 36.0794 384.897 36.0794C385.172 35.804 385.448 35.6662 385.723 35.5285C385.998 35.5285 386.412 35.5285 386.825 35.3908C388.202 35.253 389.579 34.9776 390.957 34.8398C391.508 34.8398 392.059 34.8398 392.334 34.4266C392.609 34.1512 392.885 34.4266 393.16 34.5644H393.436C393.436 34.2889 393.574 34.1512 393.574 33.738L394.813 34.4266C394.951 34.1512 395.226 34.0135 395.364 33.738C395.915 33.0493 396.741 32.9116 397.568 32.7739C399.358 32.6361 401.149 32.4984 402.802 32.223C403.352 32.223 403.766 32.0852 404.179 31.8098L405.694 31.3966C406.52 31.2588 407.347 31.2588 408.035 30.8456C408.862 30.4325 409.55 30.0193 410.377 29.8815C410.652 29.7438 410.928 29.4683 410.79 29.1929ZM379.25 36.9058L379.112 36.7681V36.6303H379.387C379.387 36.6303 379.525 36.6303 379.525 36.7681C379.525 36.7681 379.387 36.9058 379.25 36.9058ZM374.842 37.5945L374.705 37.4567H374.842V37.5945ZM359.83 48.4752C359.692 48.7506 359.554 49.0261 359.279 49.3016C359.141 48.4752 359.141 48.4752 359.83 48.4752C359.83 48.3374 359.83 48.1997 359.83 48.1997H359.967C359.967 48.1997 359.83 48.3374 359.83 48.4752ZM358.315 51.643L357.764 51.2298C358.039 51.7807 358.039 52.3316 357.626 52.8826C357.488 53.158 357.488 53.4335 357.35 53.7089C357.35 54.6731 356.8 55.224 356.111 55.6372C355.973 56.1881 355.835 56.739 355.835 57.2899C355.284 57.4277 355.284 57.0145 355.009 56.739C355.56 55.9126 355.835 54.9485 356.524 54.1221C356.937 53.5712 357.213 53.0203 357.488 52.3316C357.488 51.9184 357.626 51.643 357.764 51.2298C358.039 50.9543 358.177 50.8166 358.315 50.5411C358.452 50.4034 358.59 50.1279 358.728 49.8525C358.865 50.5411 358.59 50.9543 358.315 51.643ZM353.769 61.2841C353.632 62.1105 353.356 62.7992 352.805 63.3501C352.254 63.901 351.979 64.7274 351.841 65.5538C351.703 65.8292 351.566 66.2424 351.29 66.3802C351.29 66.9311 351.428 67.6197 350.602 67.8952C350.602 66.9311 350.602 66.9311 351.29 66.3802C351.153 65.416 351.566 64.5897 351.979 63.7633C352.117 63.3501 352.53 63.0746 352.392 62.5237C353.219 61.4219 353.494 59.9068 354.32 58.6672C354.32 58.5295 354.458 58.3918 354.596 58.254C354.871 58.9427 354.871 58.9427 354.871 59.7691C354.183 60.0445 353.769 60.4577 353.769 61.2841ZM350.326 68.997C350.188 68.997 350.051 68.8593 350.188 68.8593C350.188 68.7216 350.326 68.7216 350.464 68.5839C350.464 68.7216 350.464 68.7216 350.602 68.8593C350.464 68.8593 350.326 68.997 350.326 68.997ZM349.224 71.063C348.949 70.3743 349.362 70.2366 349.775 69.9612C349.775 70.5121 349.775 70.9253 349.224 71.063ZM348.122 73.8176C348.122 73.6799 347.985 73.6799 347.985 73.5422C348.122 73.5422 348.122 73.5422 348.26 73.4044C348.26 73.5422 348.398 73.6799 348.398 73.6799C348.26 73.6799 348.122 73.8176 348.122 73.8176ZM347.296 75.6081L347.021 75.4704L347.158 75.3327H347.434C347.296 75.4704 347.296 75.4704 347.296 75.6081ZM373.465 78.3627V78.5005H373.327H373.189C373.327 78.3627 373.327 78.3627 373.465 78.3627ZM345.643 80.7041V80.8419C345.643 80.7041 345.506 80.7041 345.506 80.7041L345.643 80.5664V80.7041ZM364.926 89.7944V89.9321H364.788L364.926 89.7944ZM344.955 102.19C344.817 102.19 344.817 102.19 344.679 102.052L344.817 101.915H345.092C345.092 102.052 344.955 102.19 344.955 102.19ZM344.404 106.322H344.541C344.679 106.322 344.679 106.46 344.679 106.46C344.541 106.597 344.541 106.597 344.404 106.597V106.322ZM344.679 108.801C344.679 108.801 344.541 108.801 344.541 108.663L344.679 108.526L344.817 108.663C344.817 108.801 344.817 108.801 344.679 108.801ZM366.201 145.162C367.854 145.024 369.506 144.887 371.021 144.198C372.674 143.509 374.189 142.683 375.704 141.856C378.596 140.204 381.351 138.138 383.83 135.796C384.381 135.383 384.794 134.832 385.483 134.557C386.172 134.144 386.447 133.455 387.136 133.179C387.274 133.317 387.274 133.593 387.411 133.73C388.1 133.593 388.238 132.904 388.789 132.766C389.064 132.766 389.202 132.491 389.477 132.215C390.166 131.527 391.13 130.838 391.681 130.012C392.232 129.323 392.92 128.772 393.747 128.772C393.885 128.359 394.16 127.946 394.298 127.67C395.124 127.395 395.124 127.395 395.951 126.706C398.843 123.401 401.46 119.82 403.663 115.963C405.041 113.484 406.28 111.005 407.52 108.388C407.795 107.699 408.346 107.148 409.035 106.735C410.412 106.046 411.514 105.358 412.891 104.669C417.574 102.19 422.257 99.5732 427.215 97.5073L429.832 96.2677C430.245 96.13 430.521 95.8545 430.796 95.4413C430.245 95.4413 429.97 95.5791 429.695 95.7168C428.593 96.13 427.353 96.6809 426.114 96.5432C425.838 96.5432 425.425 96.8186 425.149 96.9564L424.323 97.3696C422.946 97.5073 421.844 98.1959 420.604 98.7469C419.64 99.2978 418.538 99.711 417.299 99.8487C416.61 99.8487 415.784 100.262 415.095 100.537C413.442 101.226 412.065 102.052 410.137 102.328C410.275 101.777 410.412 101.501 410.412 101.226C411.514 97.9205 412.616 94.7527 413.58 91.4471C414.957 86.2134 415.922 80.9796 415.922 75.6081C415.922 73.8176 415.922 72.0271 415.508 70.2366C415.371 69.8234 415.371 69.4102 415.095 69.1348C414.957 68.7216 414.406 68.5839 414.131 68.8593C413.856 69.1348 413.718 69.548 413.442 69.8234C413.305 70.0989 413.029 70.2366 412.891 70.3743C412.478 70.0989 412.616 69.4102 412.065 69.4102C411.652 69.4102 411.239 69.4102 410.963 69.4102L410.55 70.3743C410.412 70.0989 410.55 69.8234 410.412 69.6857C410.412 69.1348 410.137 68.7216 409.724 68.8593C409.31 68.8593 409.173 69.2725 409.173 69.548C409.035 69.8234 409.173 69.9612 409.035 70.2366C409.035 70.5121 408.897 70.7875 408.76 71.063C408.622 71.6139 408.346 72.1648 408.209 72.7158C407.933 73.5422 407.658 74.2308 407.107 74.7817C406.005 75.6081 405.179 76.8477 404.352 77.8118C402.975 79.1891 401.735 80.7041 400.358 82.0815C399.532 83.0456 398.567 83.872 397.603 84.8361C395.813 86.7643 394.022 88.8303 392.094 90.7585C387.274 95.8545 382.315 100.813 376.944 105.358C376.393 105.909 375.842 106.184 375.153 106.46V105.771C375.842 101.915 377.357 98.4714 378.872 95.0281C379.423 93.6508 380.112 92.2735 380.8 90.8962L382.04 88.8303C382.591 88.1416 383.142 87.4529 383.555 86.6266C383.968 86.0756 384.243 85.5247 384.794 85.1115C385.208 84.6983 385.621 84.1474 386.034 83.872C386.447 83.872 386.447 84.4229 386.998 84.1474C386.86 83.1833 387.136 82.2192 387.687 81.5305C388.238 80.9796 388.375 80.291 388.651 79.74C388.926 79.0514 388.789 78.6382 388.1 78.5005C387.411 78.225 386.723 78.0873 386.034 77.9495C385.07 77.6741 384.106 77.6741 383.279 78.3627C383.004 78.6382 382.591 78.7759 382.177 79.1891C381.902 79.4646 381.351 79.3268 381.076 79.74C380.938 80.4287 380.249 79.74 379.974 80.291C379.836 80.291 379.561 80.291 379.561 80.4287C379.01 81.2551 378.183 81.6683 377.495 82.2192C376.668 83.321 375.566 84.2851 374.602 85.2493C374.189 85.6624 373.914 86.2134 373.5 86.6266C371.572 89.1057 369.919 91.7226 368.404 94.4772C366.889 96.9564 365.788 99.711 364.961 102.465C364.273 105.082 363.859 107.699 364.135 110.316C364.273 111.556 364.548 112.795 365.099 114.035C365.512 115.137 366.338 115.963 367.027 116.789C367.854 117.616 368.955 118.029 369.919 118.442C370.746 118.58 371.572 118.718 372.261 118.305C372.812 118.167 373.225 118.029 373.638 117.754C374.327 117.478 374.878 116.927 375.566 116.514C376.255 116.239 377.081 116.101 377.77 115.688C379.01 114.999 380.249 114.035 381.351 113.071C382.866 111.693 384.106 110.041 385.483 108.526C385.758 108.112 386.034 107.699 386.172 107.286C386.309 106.322 386.447 106.046 387.136 105.358C387.549 105.082 387.824 104.669 388.1 104.394C389.064 103.43 390.028 102.465 390.717 101.364L390.855 101.226C391.543 101.088 391.681 100.537 392.094 99.9864C392.37 99.711 392.507 99.2978 392.783 98.8846C394.849 96.6809 396.777 94.3395 398.567 91.9981C400.633 89.3812 402.699 86.902 404.765 84.2851L405.454 83.5965C405.454 84.1474 405.454 84.4229 405.316 84.6983L404.903 86.0756C404.214 88.2793 403.663 90.6208 402.975 92.8244C401.184 98.1959 398.981 103.43 396.501 108.526C395.675 110.178 394.436 111.005 392.783 111.418C391.681 111.693 390.717 112.107 389.753 112.658L384.932 115.55C381.627 117.34 378.596 119.406 375.429 121.61C372.123 123.951 369.093 126.844 366.201 129.598C364.41 131.113 362.895 132.766 361.656 134.694C361.105 135.383 360.692 136.21 360.416 136.898C360.141 137.449 360.003 138 360.141 138.689C360.278 139.377 360.416 139.928 360.278 140.617C360.278 140.755 360.278 141.03 360.416 141.168C361.38 142.683 362.62 144.06 364.273 144.611C364.961 144.887 365.65 145.162 366.201 145.162ZM412.891 74.2308C412.616 73.8176 412.754 73.6799 413.305 73.5422L412.891 74.2308ZM372.261 108.388L372.123 108.25L372.261 108.112C372.261 108.112 372.399 108.25 372.261 108.25V108.388ZM367.854 139.377C366.752 139.653 365.65 139.515 364.823 138.413C364.961 137.862 365.374 137.587 365.788 137.174C368.818 134.281 372.123 131.527 375.429 128.91C379.836 125.467 384.243 122.161 388.789 119.131L389.89 118.442L390.028 118.58V118.993C385.896 124.64 381.351 130.012 375.98 134.694C374.602 135.796 373.225 136.898 371.71 137.725C370.47 138.413 369.231 139.102 367.854 139.377ZM432.503 112.382C433.192 112.382 433.743 111.693 434.293 112.107C434.431 112.107 434.569 111.969 434.569 111.969C434.707 111.143 435.395 110.867 436.084 110.454C436.773 110.592 437.048 109.903 437.599 109.627C438.012 108.25 438.425 106.873 438.288 105.358C438.563 104.807 438.15 103.981 438.976 103.705C438.839 103.43 438.425 103.154 438.563 103.016C438.563 102.879 438.976 102.741 439.114 102.465C439.114 101.777 439.114 101.088 438.976 100.4C438.563 98.4714 437.599 96.8186 436.084 95.5791C435.533 95.0281 434.569 94.6149 433.88 94.3395C433.192 94.2018 432.365 94.2018 431.677 94.3395C431.263 94.3395 430.988 94.7527 430.575 94.8904C430.437 95.0281 430.162 94.8904 430.024 95.0281C429.335 95.1659 428.922 95.5791 428.647 96.13C428.371 96.4054 428.233 96.8186 427.82 97.2318C427.545 97.5073 427.407 98.0582 427.269 98.4714C427.269 98.6091 427.131 98.6091 426.994 98.7469C426.856 98.1959 426.994 97.645 426.581 97.2318C423.275 101.364 424.377 106.322 426.856 109.765C426.856 108.801 427.545 109.903 427.82 109.352C427.682 109.077 427.545 108.939 427.407 108.801C427.269 108.801 427.131 108.801 426.994 108.939C426.994 108.939 426.994 108.801 426.856 108.801C427.131 108.526 427.407 108.25 427.682 107.975L427.269 107.562C427.131 107.562 427.131 107.424 426.994 107.148L428.096 107.424C428.233 107.837 428.233 108.112 428.371 108.388C428.784 108.663 428.922 109.077 429.06 109.627C429.197 109.903 429.335 110.178 429.611 110.316C430.024 110.867 430.437 111.418 430.988 111.969C431.401 112.382 431.952 112.382 432.503 112.382ZM427.82 106.46C427.682 106.322 427.545 106.322 427.545 106.322C427.407 106.046 427.407 105.909 427.269 105.771V105.633C427.407 105.771 427.545 105.771 427.545 105.771V106.322C427.545 106.322 427.682 106.322 427.82 106.322V106.46Z" fill="url(#paint0_radial_2726_47)"/>
</g>
<path d="M427.565 60.0557V58.6782H432.716V60.0557H430.788V64.9319H429.548V60.0557H427.565ZM438.006 63.582L435.609 60.5515V64.9319H434.369V58.6782H435.719L438.116 61.7362L440.513 58.6782H441.863V64.9319H440.623V60.5515L438.226 63.582H438.006Z" fill="url(#paint1_radial_2726_47)"/>
<defs>
<filter id="filter0_i_2726_47" x="4.50818" y="12.7417" width="434.606" height="151.76" filterUnits="userSpaceOnUse" color-interpolation-filters="sRGB">
<feFlood flood-opacity="0" result="BackgroundImageFix"/>
<feBlend mode="normal" in="SourceGraphic" in2="BackgroundImageFix" result="shape"/>
<feColorMatrix in="SourceAlpha" type="matrix" values="0 0 0 0 0 0 0 0 0 0 0 0 0 0 0 0 0 0 127 0" result="hardAlpha"/>
<feOffset dy="4"/>
<feGaussianBlur stdDeviation="2"/>
<feComposite in2="hardAlpha" operator="arithmetic" k2="-1" k3="1"/>
<feColorMatrix type="matrix" values="0 0 0 0 0 0 0 0 0 0 0 0 0 0 0 0 0 0 0.08 0"/>
<feBlend mode="normal" in2="shape" result="effect1_innerShadow_2726_47"/>
</filter>
<radialGradient id="paint0_radial_2726_47" cx="0" cy="0" r="1" gradientUnits="userSpaceOnUse" gradientTransform="translate(18.5277 51.1025) rotate(9.5155) scale(421.123 3201.48)">
<stop stop-color="#293EFF"/>
<stop offset="0.470486" stop-color="#8F00FF"/>
<stop offset="1" stop-color="#FF7A00"/>
<stop offset="1" stop-color="#0047FF"/>
</radialGradient>
<radialGradient id="paint1_radial_2726_47" cx="0" cy="0" r="1" gradientUnits="userSpaceOnUse" gradientTransform="translate(428.026 60.3018) rotate(12.1689) scale(13.9779 134.3)">
<stop stop-color="#293EFF"/>
<stop offset="0.470486" stop-color="#8F00FF"/>
<stop offset="1" stop-color="#FF7A00"/>
<stop offset="1" stop-color="#0047FF"/>
</radialGradient>
</defs>
</svg>
